<svg width="97" height="91" viewBox="0 0 97 91" fill="none" xmlns="http://www.w3.org/2000/svg">
<path d="M8.14265 26.0364C9.57423 25.9796 11.3852 26.393 12.741 26.8342C13.1655 26.9714 12.9044 27.3718 13.1962 27.4854C13.7669 27.7068 14.3313 27.5516 14.8893 27.8002C15.0744 27.8846 14.7749 28.5317 14.9706 28.6049C16.0442 29.0009 17.0947 28.9189 18.1819 29.1431C18.8333 29.2773 19.4805 29.4001 20.1205 29.5105C21.2361 29.7149 22.6457 29.8272 24.4911 30.3255C26.3228 30.7925 28.4996 31.9811 29.8664 33.4317C32.6091 36.3749 33.4107 39.117 34.2742 41.7048C34.3275 41.8792 34.3803 42.0557 34.4326 42.2343C35.024 44.2483 35.069 46.7022 35.8189 48.5914C35.9063 48.8092 36.4444 48.5314 36.5023 48.5626C37.3939 49.0639 36.1825 49.1253 36.1378 49.6082C35.9582 51.51 36.3344 53.4562 36.91 55.0923C37.1562 55.7882 38.153 54.8313 37.6592 55.6862C37.626 55.7452 36.9754 55.6906 36.9505 55.9001C36.8958 56.3761 37.1756 57.1947 37.1955 57.5499C37.2306 58.2324 37.2582 58.3407 37.3734 58.9696C37.5252 59.8305 37.4123 60.9064 37.7218 61.8006C37.7897 61.991 38.3729 61.6144 38.5381 61.908C38.7031 62.2002 38.8014 63.0445 38.7023 63.3489C38.6037 63.6559 38.0857 63.626 37.9808 63.696C37.0937 64.276 38.5935 64.9946 38.6483 65.1145C39.604 67.2659 39.1686 69.3301 39.5134 71.4399C39.7496 72.8774 40.1937 74.3755 40.4268 75.7648C40.4545 75.9303 40.479 76.0913 40.4996 76.2476C40.7303 77.9934 40.6401 79.8096 41.0211 80.7437C41.0499 80.8049 41.7354 80.4843 41.7561 80.5144C41.7483 80.5294 41.8344 80.4103 41.2232 79.8047C40.9158 79.5146 40.2884 79.1391 39.6066 79.037C38.9448 78.9296 38.4358 79.0479 38.1616 79.1385C37.6371 79.3329 37.6703 79.3963 37.7116 79.36C37.7713 79.3259 37.9148 79.2154 38.0612 79.0932C38.7135 78.5379 39.5471 77.7371 40.4499 76.9834C40.6333 76.8296 40.9741 77.4736 41.1906 77.3416C42.5073 76.5243 44.9345 75.4031 43.1126 72.9951C43.4093 72.6688 43.7288 72.3109 44.0958 71.9566C44.526 71.5532 45.0361 71.147 45.5809 70.938C46.2178 70.6883 46.4812 71.5635 46.6432 70.8038C46.6812 70.6318 46.0435 70.4381 46.1397 70.2073C46.536 69.2494 47.3455 68.4607 47.6555 67.4544C47.7188 67.2468 47.2236 66.9662 47.1739 66.8597C46.7838 65.9796 48.355 66.1196 48.5414 66.0269C49.9207 65.3518 50.2483 64.3776 50.9777 63.3671C51.149 63.1303 50.3275 62.9771 50.4701 62.7334C51.2119 61.4832 52.1209 60.2952 53.2161 59.3137C53.4581 59.101 53.8253 59.7076 53.9682 59.6248C54.5927 59.2538 53.6725 58.4332 54.2559 58.0578C54.3778 57.9775 54.7896 58.357 54.8538 58.3715C55.8621 58.5969 54.9352 57.5559 54.9677 57.4568C55.3452 56.1974 56.9624 56.349 57.4882 55.2393C57.5501 55.1054 56.7866 54.9747 56.9959 54.6228C58.3785 52.2887 60.1648 50.0443 62.1487 48.1571C62.4566 47.8627 62.7216 48.4072 62.79 48.4226C63.8695 48.6465 62.9055 47.647 62.9404 47.506C63.2447 46.4147 64.7533 46.2363 63.8308 44.7175C66.8673 41.2981 68.6734 37.0551 72.4109 34.1587C72.4569 34.1212 72.9528 34.5835 73.0422 34.507C74.1297 33.5821 73.1224 33.2097 72.58 31.7443C72.4415 31.3797 74.1105 31.6625 74.2376 31.6761C74.7079 31.724 75.4001 32.4789 75.5091 32.4618C76.3829 32.3019 73.5996 30.5301 74.0698 29.838C74.0894 29.8191 74.5282 30.2531 74.6182 30.2282C74.8995 30.1518 74.8232 29.8353 75.1169 29.7752C75.7939 29.6399 77.2132 30.4026 76.8646 29.257C76.818 29.1103 75.1908 28.1767 75.6867 27.6045C75.8843 27.3794 76.6015 26.2667 76.9109 26.0265C77.2185 25.7889 77.5749 26.3372 77.6113 26.3301C78.8265 25.9587 78.8888 26.4553 80.1491 26.6995C81.4052 26.9418 79.0052 25.4848 78.8606 25.1403C78.7179 24.7946 79.6645 24.5697 79.9603 24.5407C80.2517 24.5182 80.4417 24.9208 80.6395 24.8594C81.9368 24.4512 79.7483 23.6929 79.5747 23.1552C79.1722 21.9567 81.0645 22.449 81.7392 22.0753C81.7733 22.0554 81.8045 22.0334 81.8324 22.0089C81.9945 21.867 81.5069 21.7429 81.5735 21.565C81.8419 20.8639 82.6075 20.889 82.5779 19.8649C82.5746 19.6959 81.8896 18.4716 82.8977 18.6132C83.0415 18.6359 83.3772 19.0668 83.644 18.8755C84.0371 18.5995 84.5944 17.9621 84.7122 17.4654C84.7997 17.0974 83.8582 16.9773 84.3303 16.7393C84.5421 16.6312 84.7523 17.224 85.115 16.9981C85.475 16.7775 85.9786 15.9518 86.1572 15.6341C86.3333 15.321 85.6797 15.1434 85.6584 15.0954C85.5398 14.8158 85.6462 14.0496 85.6731 14.0055C86.4261 12.6906 87.3896 11.5348 88.0769 10.4102C88.4162 9.86488 88.6714 9.24955 88.6784 8.94326C88.6807 8.78977 88.6794 8.77679 88.6233 8.72179C88.5663 8.66915 88.3814 8.5869 88.1229 8.55936C87.9547 8.54027 87.8858 9.23056 87.8582 9.23441C87.3171 9.40922 88.0985 7.70909 87.6715 7.02635C87.5575 8.41162 87.3066 8.11263 86.7677 8.23973C86.5051 8.30351 86.6315 8.84598 86.6043 8.89976C86.2502 9.70327 85.977 8.65561 85.9102 8.44075C85.6488 7.6515 85.3683 8.59835 85.1762 8.07737C84.9718 7.56122 85.3577 6.76095 84.8058 6.79984C84.6819 7.30402 85.1533 8.57532 84.7618 8.8089C83.974 9.28852 82.7492 9.30554 81.551 9.25188C80.575 9.20182 79.6132 9.097 79.023 9.13387C77.7583 9.21204 77.366 9.36809 76.5961 9.30771C75.2248 9.1991 75.8626 10.0713 75.1069 10.6419C74.3676 11.2115 74.3693 8.81176 74.168 8.32946C73.9669 7.84752 73.9259 8.38537 73.7328 8.13452C73.5396 7.88377 73.7993 7.48877 73.4365 7.44391C73.0628 7.40069 72.3016 8.45078 72.2666 8.99728C72.2054 10.1524 72.8242 11.2445 71.8571 10.9928C71.8017 10.9776 71.8595 10.3353 71.6524 10.308C69.9868 10.1163 68.3628 10.3844 66.7052 10.2653C66.4795 10.2476 66.5434 9.53095 66.4104 9.51297C65.0199 9.32528 65.6978 10.3854 65.2282 11.7953C65.0633 10.0698 64.4739 9.10674 63.4712 9.29023C62.8684 9.40015 63.1191 10.1195 62.8343 10.7161C62.7496 10.8958 62.2274 10.4705 62.2185 10.8334C62.1892 12.0201 62.8334 13.2153 61.7144 12.909C61.665 12.8938 61.6847 12.2434 61.5227 12.2361C60.4743 12.1869 60.5852 13.4006 59.5364 13.7599C58.7101 14.0424 57.0581 13.6222 56.0685 13.7017C55.7013 11.7962 54.8761 12.4184 54.7754 13.805C54.1379 13.88 53.4771 14.0936 52.8341 14.0381C52.6127 14.0196 52.6357 13.4411 52.597 13.3871C52 12.5384 51.9922 13.8695 51.8676 13.9476C50.5049 14.738 49.1058 14.0239 47.9096 15.2625C47.8669 15.307 48.0681 16.6421 47.4885 15.759C47.4501 15.6978 47.786 14.9996 47.1167 15.0931C46.4499 15.1859 45.0559 14.7442 44.2783 15.5497C44.0925 15.7433 43.7563 16.9346 43.1307 16.1948C43.0467 16.0941 43.0305 15.7022 42.8993 15.5104C42.476 14.9004 42.6163 16.2637 42.0414 15.2038C41.4645 14.1443 40.6067 13.4428 39.8502 14.4241C39.8256 14.4532 39.8354 15.556 39.543 15.6021C39.0795 15.674 38.3705 15.5983 37.8901 15.7105C37.6606 15.7645 37.9511 16.3873 37.9138 16.408C36.441 17.1146 35.2111 16.7729 33.4895 16.8877C33.1773 16.9066 32.4943 17.9943 31.7513 17.4189C30.9437 16.7878 30.8789 13.4298 29.5644 14.526C29.4963 14.5829 29.4401 14.7041 29.3908 14.8677C29.0273 15.9698 28.983 18.9678 27.6298 17.3422C25.6606 18.3339 23.4707 17.6938 21.5531 18.9243C21.463 18.98 21.4256 20.1853 21.2086 20.2197C20.8723 20.2717 20.5631 19.7848 20.3286 19.8031C19.3119 19.8741 18.5084 20.5457 17.5601 20.7074C17.1886 20.7734 17.1884 20.1923 16.7451 20.2727C16.3104 20.3527 16.219 21.1416 15.5504 20.9547C15.0459 20.8132 14.1825 19.4791 13.4726 19.5381C13.8379 20.6494 13.6609 20.9581 13.3224 21.3516C13.2245 21.4679 13.1205 21.5869 13.0099 21.7305C12.9129 21.8574 13.2619 22.2718 13.2268 22.3565C13.086 22.7127 12.6817 22.4191 12.5611 22.7897C12.5311 22.8791 12.7311 23.349 12.7176 23.4487C12.6074 24.3166 11.4842 23.5407 11.2964 23.401C10.5691 22.8788 10.6145 23.576 10.1648 23.4324C9.71877 23.2866 10.0832 22.7415 9.62636 22.726C8.68305 22.6932 7.67442 23.152 6.83503 23.4169C6.50169 23.5255 6.94965 24.092 6.90715 24.1225C6.67303 24.2706 6.39754 24.3022 6.14598 24.3535C5.71687 24.4577 5.36094 24.628 5.44446 25.5176C3.66234 22.4509 5.16361 25.9945 3.94246 25.744C3.84525 25.7233 3.10075 24.2352 3.30175 23.8862C3.50496 23.5367 4.1512 23.8303 4.42539 23.3106C4.48631 23.1891 4.49324 21.5137 4.54597 21.3933C4.65169 21.126 4.813 21.1223 4.98334 21.2582C5.00684 21.2511 5.07529 21.2235 5.09903 21.2172C5.48239 21.5793 5.94434 22.7839 5.99794 22.8685C6.82892 24.1409 6.96348 22.3183 7.09486 22.1476C7.71831 21.3618 8.51336 21.4343 9.03635 20.8216C9.37842 20.4231 8.81166 18.8988 9.15753 18.8119C10.2983 18.52 11.6068 20.4227 11.8427 18.1635C11.8449 18.1425 11.8451 18.1194 11.8437 18.0947C11.8702 18.0848 11.9467 18.0481 11.9734 18.0391C11.9998 17.4888 11.1999 16.094 12.7683 16.9546C12.8869 17.0039 14.027 17.9818 14.2071 17.0942C14.2291 16.982 14.0862 16.4844 14.1428 16.4232C14.5289 16.0229 14.9416 16.3399 15.3689 16.0247C15.7976 15.7094 16.2939 15.2815 16.8736 15.3202C17.2267 15.3416 17.8548 16.1821 18.0706 16.3731C18.6522 16.9329 18.8591 15.7375 19.3159 16.476C19.7755 17.2183 19.5482 18.5634 20.3607 18.9218C20.0787 17.6064 19.8227 16.2485 19.5562 14.9217C21.1248 14.6027 22.7151 14.6851 24.253 14.2755C24.4457 14.2228 24.0918 13.5616 24.2868 13.4888C25.1144 13.1836 25.9957 13.5135 26.8394 13.1138C27.4658 12.8174 28.0082 11.9921 28.6618 11.5993C28.7004 11.5752 28.7393 11.5529 28.7787 11.5325C29.5453 12.9383 30.5144 12.1874 31.3276 12.1512C31.615 12.1373 31.6896 12.5418 31.9087 12.6306C32.742 12.9542 32.1089 11.7013 32.2629 11.4481C32.941 10.3627 33.6626 13.3559 34.6722 13.0558C34.7299 13.04 35.0315 11.2936 35.1004 11.1739C35.5341 10.3966 35.3176 11.711 35.7056 11.75C36.4242 11.8193 36.9489 12.1057 37.629 11.4654C37.831 11.2757 38.145 10.1605 38.7539 10.8378C38.8337 10.9264 38.9169 11.4634 38.9702 11.4843C39.9295 11.8179 39.5846 10.1489 39.9431 9.48075C40.301 8.81286 41.299 9.80113 41.5175 10.1009C42.0959 10.8736 41.2949 10.5324 41.2924 10.621C41.2592 11.6761 41.7578 11.3881 42.1896 11.3837C42.6005 13.0046 43.1587 12.782 42.6363 11.3726C42.5781 11.2189 42.2885 11.4405 42.1896 11.3837C42.2065 9.70307 42.8058 9.35953 43.8246 10.7083C44.3039 11.3402 44.1659 12.2256 45.1046 11.7122C45.5266 11.4809 45.1126 10.3927 45.4468 10.0009C46.215 9.1057 47.6233 9.90486 48.5339 9.54073C48.863 9.40885 48.4005 8.86243 48.6212 8.75104C49.2061 8.45358 49.8547 8.80067 50.4277 8.43397C50.4796 8.39993 50.2069 7.7833 50.3993 7.73462C51.8576 7.35277 53.2259 7.50146 54.7684 7.19856C55.5126 7.05195 56.7717 6.42598 57.5597 6.34261C58.9229 6.19394 60.7512 6.80952 61.8556 6.35705C62.5728 6.06543 62.2801 5.45077 62.5175 4.94703C62.9784 3.97036 64.357 5.29484 64.5556 5.50312C64.5601 5.51031 63.9468 5.78578 64.3522 6.05292C64.6846 6.70751 64.5489 5.5075 64.5556 5.50312C64.6856 5.63684 65.9933 5.54167 66.2282 5.36983C66.3556 5.27588 66.1623 4.67646 66.2309 4.63908C67.8456 3.76809 69.5679 3.29285 71.3797 3.27354C71.413 3.28054 71.4862 3.97718 71.5629 3.98508C72.6251 4.11579 73.1526 3.15939 73.9061 2.52C74.6875 1.87653 75.3763 1.93899 76.0773 3.04358C76.6852 2.79501 77.7149 3.17652 78.2749 3.42142C78.8653 3.66162 78.7479 2.30529 78.7927 2.2717C79.4336 1.76149 80.0446 1.64858 80.6153 1.6699C81.2723 1.6872 81.9156 1.85064 82.76 1.83207C83.5451 1.81293 85.1201 1.50016 86.1499 1.36009C86.9745 1.24715 87.4458 1.57573 88.4348 1.49476C88.5697 1.48583 88.5194 0.867467 88.5631 0.849953C89.8738 0.325343 89.0618 1.70324 89.2426 2.00327C89.5873 2.56966 89.8744 3.02813 90.2914 3.39165C90.7197 3.78763 91.3368 3.97534 92.5338 4.79509C92.8046 4.99353 93.7017 5.12237 94.6345 5.69906C95.5724 6.26516 96.3925 7.17295 96.5409 7.87144C96.8401 9.57392 96.0408 8.97748 96.1147 10.2987C96.112 10.4043 96.5958 10.4692 96.4437 11.1371C95.6607 14.0161 94.5291 15.1886 93.8099 16.6509C93.7074 16.8411 94.496 16.9673 94.3554 17.2523C93.6997 18.5758 92.8846 19.8165 91.889 20.7161C91.6445 20.9317 91.3113 20.4823 91.1439 20.4551C90.1273 20.2955 90.9449 21.5424 90.9165 21.633C90.2846 23.638 88.6825 24.4663 87.7506 26.1298C87.6168 26.3696 87.4958 26.6304 87.3925 26.9191C87.3515 27.0417 88.0201 28.6693 86.7425 28.3151C86.6568 28.2925 85.3541 27.9237 85.8674 28.7335C85.9 28.7835 86.5977 28.9336 86.2803 29.282C85.9709 29.6189 85.9167 30.4869 84.955 30.6092C84.6539 30.6449 83.3292 30.3132 83.8351 31.3879C83.8702 31.4634 85.2633 33.5264 83.7592 32.9021C83.5116 32.7993 82.149 31.8017 82.4592 32.8844C82.5202 33.093 82.9727 33.097 82.9621 33.5307C82.9521 34.1895 82.1704 34.5346 82.4046 35.5263C82.4459 35.702 83.1136 36.7566 82.1669 36.6017C82.0187 36.5774 81.6209 36.1605 81.4485 36.3015C80.6208 36.9787 80.3417 38.0563 79.4332 38.6951C79.1155 38.9173 78.4681 38.2502 78.0528 38.4254C77.638 38.6 77.0086 39.1047 77.1278 39.6677C77.2479 40.2298 78.6909 40.6916 78.451 41.2482C77.402 43.675 75.245 45.315 73.6765 47.378C73.4434 47.6844 74.0521 47.7159 73.7398 48.1876C72.5893 49.9307 70.9467 53.174 69.0081 54.0389C67.4574 54.7291 67.939 52.8466 67.0143 53.5528C66.5683 53.8967 67.6279 55.3322 67.5983 55.4687C67.3277 56.8096 66.2093 57.1122 65.7536 58.1733C65.6586 58.3941 66.3525 58.5936 66.2655 58.7772C65.9724 59.4088 65.3175 59.8178 64.9899 60.3882C64.8444 60.6447 65.3045 60.8981 65.1177 61.0967C64.6749 61.5762 64.1752 61.9109 63.4109 62.1529C63.3415 62.1745 63.0285 61.4858 62.736 61.8646C62.2653 62.4767 61.3231 62.9855 61.2249 63.9995C61.198 64.3008 62.1728 64.9907 61.1738 64.9819C60.9641 64.9816 59.8743 64.0377 60.5118 65.2896C60.6142 65.5028 61.362 67.3518 60.1597 67.192C59.8444 67.1482 58.6721 66.7775 58.6429 67.1412C58.6425 67.1931 59.2663 67.4203 59.168 67.6701C58.812 68.5447 58.1992 69.3007 57.815 70.1982C57.713 70.4392 58.4751 70.5087 58.306 70.8552C57.8489 71.7989 56.9602 72.7688 56.2003 73.4856C55.9185 73.7501 55.6201 73.2193 55.5553 73.2074C54.5054 73.0073 55.4311 73.9735 55.4105 74.1354C55.2516 75.155 54.3683 75.3345 54.0003 76.1345C53.9011 76.3491 54.5071 76.5776 54.5258 76.6477C54.694 77.3529 53.9829 76.4119 53.708 76.5845C53.183 76.9044 52.7511 77.4221 52.4213 77.9138C52.2608 78.1519 52.1163 78.3911 51.9817 78.6212C51.8233 78.8937 52.6186 79.0314 52.47 79.2704C51.5812 80.72 50.4961 82.1004 49.1007 83.2686C48.8341 83.4905 48.5199 82.9809 48.3759 82.9589C47.3894 82.7782 47.8987 84.1004 47.8855 84.3011C47.8065 85.2441 47.2243 85.1733 46.7974 85.8023C46.1672 86.6276 45.7991 87.3687 43.7761 88.806C43.2448 89.1415 42.5512 89.5967 41.1845 89.9783C39.9905 90.3541 37.4802 90.4456 35.5716 89.4442C31.8417 87.2622 31.8505 85.5422 31.3416 84.6676C30.6728 82.8115 30.6315 81.9496 30.4864 81.0021C30.3717 80.0955 30.3109 79.3276 30.2513 78.6251C30.2128 78.1783 30.1865 77.7781 30.1594 77.3604C29.9772 74.4036 29.9759 71.89 29.3615 69.0017C29.3176 68.7927 28.6204 69.1299 28.5732 68.9514C27.9981 66.6498 27.8755 64.3105 27.2242 62.0374C27.1721 61.8508 26.5313 62.2558 26.4244 61.9616C26.2002 61.3594 26.0846 60.5656 26.181 59.8963C26.2264 59.5692 26.9018 59.8617 26.9353 59.5341C27.0144 58.7715 26.9064 57.992 26.6421 57.2833C26.5279 56.9813 25.921 57.6 25.8276 57.1972C25.1752 54.4619 24.4485 51.8498 24.6261 48.9998C24.6378 48.8033 26.0071 48.2553 25.6244 47.944C25.2253 48.0286 24.7662 48.1638 24.3451 48.2728C24.013 47.3466 23.7154 46.4405 23.4343 45.6061C23.0262 44.3892 22.6227 43.2796 22.2765 42.5634C22.1083 42.208 21.9676 41.9768 21.9304 41.8916C21.8839 41.8017 21.9919 41.8528 22.0316 41.8487C22.0432 41.85 21.7116 42.5536 21.7546 42.5688C22.0184 42.6095 21.0935 42.5617 19.3869 42.1769C18.9331 42.0638 18.4821 41.9147 18.0328 41.7183C17.8257 41.6281 18.0274 40.2732 17.3928 40.434C17.2809 40.4642 16.333 40.5736 16.0698 40.8491C16.0333 40.8909 16.1523 41.5407 15.8491 41.5345C14.0938 41.4871 12.3016 41.1696 10.6355 40.6101C10.3673 40.5186 10.728 39.8723 10.5377 39.8012C9.18755 39.3024 7.63277 39.6575 6.3844 38.9039C5.54961 38.3971 6.00022 37.2644 5.65704 36.0653C5.60855 35.8961 5.06827 35.8121 5.11207 35.1405C5.2206 33.4515 5.6811 31.6388 5.76571 29.8353C5.78448 29.4468 5.01305 29.7845 5.54354 28.898C5.58035 28.8388 6.14027 28.5858 6.30376 28.2832C6.41745 28.0741 6.32788 27.3767 6.54194 27.1164C6.75596 26.8564 6.89696 27.4481 7.23692 27.1516C7.57698 26.8511 7.52608 26.0633 8.14265 26.0364ZM80.8773 4.52132C80.9139 4.55956 80.947 4.58528 80.9769 4.6001C81.4127 4.80233 81.2379 2.92699 80.8165 3.29976C80.7998 3.31544 80.7828 3.33516 80.7655 3.35925C80.7436 3.39271 80.8485 4.49261 80.8773 4.52132ZM23.1151 16.4463C23.9689 17.3338 24.0531 15.7234 23.4352 15.0281C22.8033 14.3369 22.8589 16.1767 23.1151 16.4463ZM16.8513 18.7195C17.7767 19.3461 17.0847 16.0222 16.4594 16.8847C16.4213 16.9342 16.7963 18.6835 16.8513 18.7195ZM7.85497 35.9688C7.85155 35.9365 7.46399 35.8642 7.45135 35.8945C7.16281 36.6281 7.93848 36.7721 7.85497 35.9688ZM10.7859 21.7226C11.1747 22.0591 11.5759 21.3129 11.0911 20.8987C10.7046 20.5649 10.3067 21.3033 10.7859 21.7226ZM82.8124 22.6447C82.7972 22.6386 82.751 22.6797 82.72 22.7368C82.6841 22.8037 82.6712 22.8946 82.765 22.9542C82.9988 23.1023 83.1444 23.1108 83.1905 23.0541C83.2553 22.9736 83.1395 22.7752 82.8124 22.6447ZM0.475638 25.8574C2.0366 25.3075 4.05236 27.4917 2.30425 27.9083C1.98679 27.9849 2.58089 26.8115 2.10389 26.7444C1.23011 26.6244 1.48639 28.4356 0.404165 27.885C0.207003 27.7837 0.38308 25.8832 0.476728 25.8526C0.476366 25.8542 0.476 25.8558 0.475638 25.8574ZM81.5123 7.33894C81.5272 7.36879 81.9212 7.35216 81.9256 7.32029C82.0508 6.54049 81.2507 6.57408 81.5123 7.33894ZM72.3642 35.3867C72.2968 35.3659 71.7316 36.0807 71.7679 36.1376C72.5265 37.2289 73.6684 35.7915 72.3642 35.3867ZM56.043 13.6541C55.7803 14.4876 55.302 14.6775 54.7775 13.8056C55.2009 13.7706 55.6185 13.6928 56.043 13.6541ZM22.8804 28.554C22.9854 28.2583 23.3698 28.3015 23.7301 28.4536C23.8425 28.5004 24.0113 28.8913 24.098 28.9405C24.2677 29.0359 24.2523 28.8077 24.4366 28.9313C24.4985 28.9742 24.7803 29.5854 24.8378 29.617C25.149 29.7864 25.2307 29.5485 25.4741 29.5809C26.669 29.7436 27.649 29.531 28.6733 29.3829C29.0097 29.3339 29.6239 29.7203 29.8133 29.3409C29.8357 29.2958 29.5698 28.7691 29.5564 28.7217C29.3558 27.9956 29.8123 29.0957 29.9461 29.2086C30.4771 29.6533 30.7997 29.5691 30.9673 29.2472C31.0395 29.108 30.4574 28.0844 30.8347 28.6369C30.8603 28.6742 31.0823 29.2604 31.1399 29.3081C31.2702 29.4151 31.3537 29.2569 31.4276 29.279C31.5697 29.3252 31.5863 29.3112 31.6853 29.2764C31.8222 29.2342 32.1062 29.4516 32.1911 29.2618C32.2088 29.2194 31.919 28.6451 31.9251 28.5239C31.9312 28.403 32.0825 28.3984 32.1852 28.5195C32.2878 28.6406 32.4636 29.1139 32.516 29.2174C32.9558 30.0913 32.5811 28.7831 32.5887 28.7438C32.7245 28.0708 33.316 28.6612 33.6413 28.5278C33.8896 28.4243 34.0635 28.0815 34.3111 28.0214C34.6114 27.9504 34.9729 28.1828 35.2286 28.0199C35.2545 28.0042 34.9807 27.3828 34.9802 27.2996C34.9801 27.2951 34.9809 27.2922 34.9825 27.2911C35.3246 27.0649 35.7312 26.9983 36.2844 27.3344C36.3397 27.3689 36.5253 28.007 36.5944 28.0786C37.0138 28.5025 37.827 29.5952 36.9575 26.8409C37.1523 26.8887 37.3808 26.9283 37.7192 27.4234C37.9374 27.7418 38.1006 28.4509 38.1032 28.1218C38.1041 28.0483 37.8538 27.4669 37.8718 27.4015C37.9491 27.1265 38.1879 27.2578 38.2299 26.8948C38.238 26.8195 38.0351 26.2906 38.009 26.1915C37.8008 25.3882 38.394 26.6253 38.4551 26.7087C38.913 27.3294 38.9632 27.0014 39.1624 26.9486C39.2087 26.9366 38.8969 26.2403 38.9323 26.2031C39.1161 26.0207 39.3707 25.9985 39.7021 26.2382C39.7763 26.2933 39.9509 26.9192 39.9975 26.9767C40.2003 27.2231 39.8098 26.0628 39.9969 26.2767C40.0358 26.3203 40.2112 26.8468 40.2355 26.9029C40.6166 27.7824 40.211 26.488 40.2162 26.4544C40.2713 26.0005 40.8672 27.2901 40.9846 27.0357C40.9982 27.0039 40.7129 26.3603 40.7656 26.3113C41.1149 25.9813 41.6175 26.008 42.2132 26.3935C42.3056 26.4525 42.4354 26.9659 42.461 27.0258C42.8636 27.9609 42.4538 26.6623 42.4575 26.6067C42.4985 26.2011 43.0293 27.2243 42.6037 25.6558C43.4829 25.9434 43.8744 24.843 45.0375 25.9766C45.0518 25.9895 45.2558 26.6281 45.2833 26.6511C45.6163 26.9339 45.2346 25.9637 44.9564 24.7117C44.8867 24.3973 45.4963 25.814 45.5425 25.9173C45.7126 26.2981 46.0034 27.2527 46.0412 27.3248C46.3428 27.8891 45.2488 24.778 45.377 24.7325C45.3828 24.7363 45.5644 25.3158 45.5949 25.3691C45.6903 25.5366 45.6446 25.2972 45.7456 25.4833C45.9784 25.9144 46.5285 27.4197 46.3378 26.4989C46.3127 26.3795 45.6796 24.6191 45.8229 24.6631C45.8808 24.682 46.0728 24.5819 46.1689 24.677C46.2649 24.7719 46.4227 25.3552 46.4352 25.3785C46.8472 26.0796 46.8972 26.4118 47.3578 27.5012C47.8169 28.5866 46.8818 25.9429 46.811 25.6363C46.7406 25.3304 47.0669 25.9136 47.1688 26.1203C47.2707 26.3271 47.3613 26.7011 47.4278 26.815C47.8648 27.5589 47.0455 25.4746 46.9538 25.0355C46.7366 23.9957 47.5097 25.9289 47.6918 26.0817C47.7409 26.123 47.5614 25.6839 47.5747 25.6325C47.6298 25.4347 47.9068 26.0256 47.8378 25.4202C47.8267 25.3215 47.5206 24.1046 47.884 24.9499C47.9363 25.0719 48.0783 25.571 48.163 25.6646C48.2899 25.8053 48.4528 25.8691 48.4715 25.6795C48.4852 25.5393 48.1444 24.7535 48.3002 24.9804C48.3696 25.0818 48.4745 25.574 48.5913 25.7251C48.7078 25.8762 48.8477 25.805 48.8993 25.769C48.9501 25.733 48.7089 25.131 48.6993 25.0881C48.6459 24.8422 48.6526 24.5097 48.6624 24.5071C49.1157 24.268 49.9178 25.1471 50.2653 24.6459C50.2936 24.6073 50.0473 23.9697 50.0493 23.9571C50.0834 23.6429 50.5725 25.395 50.8582 25.9396C50.3957 24.6329 50.5294 24.8523 50.5687 24.6782C50.5872 24.5932 50.3898 24.0935 50.3759 24.0402C50.1746 23.2475 50.56 24.2284 50.6411 24.4283C50.9399 25.1634 50.6811 24.2625 50.8813 24.7537C51.0807 25.241 51.2672 26.0009 51.3499 25.9619C51.213 25.4843 50.7285 24.2798 50.7254 24.0586C50.7119 23.2229 51.4968 24.029 51.7242 24.0626C51.954 24.0952 51.9887 23.9865 52.1598 24.1172C52.4686 24.3538 52.0803 23.47 52.0656 23.0094C52.0506 22.5488 52.7595 24.8081 52.9439 25.2828C53.1278 25.7574 52.9769 25.2556 53.0905 25.5122C53.204 25.7687 53.2684 26.1125 53.3552 26.1936C53.4426 26.2744 53.2883 25.3704 53.1345 24.8606C52.8065 23.7814 52.3549 22.6858 52.631 23.0302C52.6471 23.0507 52.8243 23.648 52.8757 23.6968C53.2667 24.0597 53.5319 24.0069 53.8977 24.3064L53.8757 24.3147C53.8826 24.3196 53.8897 24.3246 53.8967 24.3298C53.9524 24.3713 54.1806 25.0257 54.216 25.0571C54.5841 25.3864 54.0759 24.3325 53.7011 23.0853C54.3209 24.6963 54.7766 25.6511 54.9299 25.6004C55.0222 25.5704 54.7235 24.8781 54.5841 24.3615C54.5422 24.2057 54.8014 24.6592 54.6805 24.3257C54.2857 23.2355 53.7397 22.057 54.0891 22.473C54.1052 22.493 54.3209 23.0899 54.3589 23.116C54.6058 23.2874 54.1666 22.1576 54.2761 21.955C54.3655 21.7946 54.8691 22.388 55.0596 22.4405C55.7861 24.2397 55.7608 23.7704 55.3132 22.5082C55.4297 22.52 55.5008 22.4095 55.6623 22.5434C55.7185 22.5886 55.909 23.1176 55.936 23.1722C56.3577 24.0286 55.9087 22.806 55.9102 22.7503C55.945 22.2006 56.5004 23.0394 56.3472 22.0604C56.3415 22.0253 55.8434 20.7727 56.2715 21.6609C56.3008 21.7222 56.4644 22.3179 56.58 22.3218C56.6995 22.3243 57.1648 22.9145 57.0618 22.2816C57.0391 22.1284 56.7102 21.0806 57.103 21.8435C57.1562 21.9471 57.2932 22.3088 57.3881 22.5023C57.691 23.1189 57.196 21.8494 57.6852 22.8997C58.1723 23.9508 58.6108 24.7076 58.4465 23.9116C58.4421 23.8883 58.0638 22.8764 58.1135 22.8743C58.1909 22.8729 58.3819 23.0375 58.4519 23.0009C58.4856 22.983 58.2072 22.3725 58.2086 22.3587C58.2971 21.9156 58.6929 22.3987 59.0497 22.5317C59.1142 22.5578 58.8962 21.6584 59.2644 22.2882C59.6668 22.978 60.8245 26.0615 60.7529 25.2421C60.7255 24.9138 59.2373 21.0099 60.2322 22.9395C60.3459 22.3118 61.0619 23.2135 61.088 22.3753C61.0898 22.3379 60.6947 21.2402 60.7347 21.241C60.7945 21.2445 61.0272 21.7379 61.0778 21.7561C61.2868 21.8483 61.2562 21.3583 61.4296 21.3683C61.4962 21.3705 61.6813 21.9029 61.7563 21.9076C61.8336 21.9111 61.613 21.2013 61.8318 21.5022C61.996 21.7326 62.5744 23.1357 62.6986 23.2799C62.2151 21.8649 62.2814 21.8739 62.2729 21.4627C62.2718 21.3828 62.0931 20.8933 62.0851 20.8298C62.0518 20.5592 62.221 20.9588 62.1828 20.6659C62.1745 20.5954 62.0353 20.104 62.0221 20.0182C61.9859 19.7885 62.0066 19.7291 62.0514 19.7636L62.0234 19.7714C62.1014 19.8546 62.3183 20.4103 62.3706 20.5393C62.6565 21.2467 62.4957 20.6011 62.6359 20.8704C62.781 21.1379 62.8127 21.5205 62.9354 21.6716C63.1945 21.9825 63.3589 21.8353 63.5063 21.8031C63.5648 21.7871 63.2791 21.1667 63.2818 21.1497C63.3263 20.9469 63.7133 21.5721 63.2554 20.2921C64.6737 23.5048 63.1903 19.9508 63.61 20.5363C63.6437 20.5837 64.3109 22.1043 64.3571 22.3495C64.4008 22.5955 64.1261 22.148 64.2009 22.5282C64.2207 22.6166 64.7099 24.0976 64.7277 24.192C64.8846 24.923 63.9505 22.6239 63.8959 22.499C63.2962 21.155 63.7881 22.7614 63.7876 22.8852C63.8133 23.4423 63.5488 23.1651 63.5206 23.572C63.5006 23.8355 63.9683 25.3919 63.8661 25.3709C63.7521 25.3465 63.5996 25.0754 63.4631 24.8078C63.4508 24.8066 63.4159 24.8256 63.4037 24.8242C63.2384 24.2815 63.0218 23.784 63.3632 25.0326C63.4722 25.4382 64.0596 27.1144 63.5553 25.8107C63.5275 25.7271 63.0379 24.5447 63.2707 25.3203C63.3009 25.4177 63.4795 25.9036 63.4886 25.9466C63.5462 26.2252 63.372 25.8501 63.3899 26.0547C63.4085 26.2591 63.4494 26.5591 63.3205 26.4213C63.2421 26.3394 62.8305 25.4652 62.7218 25.2544C62.4085 24.6471 62.7612 25.7075 62.4148 24.9591C62.0641 24.2079 61.6707 23.0107 61.3621 22.5587C61.8651 23.8061 62.3765 25.0884 62.8814 26.3433C62.6467 26.3878 62.2576 26.078 62.0505 26.2281C62.0249 26.2482 62.3314 26.9039 62.311 26.9426C62.2267 27.1019 61.9104 26.6751 61.8581 26.9191C61.8145 27.1123 61.9934 27.8669 61.9567 28.091C61.2951 26.6993 61.3385 27.247 61.1607 27.1685C61.0987 27.1416 60.9453 26.7602 60.8646 26.6485C60.5645 26.236 61.1368 27.471 61.1884 27.6814C61.4064 28.5798 60.2119 25.7426 60.0896 25.8755C60.0829 25.8815 60.609 27.4397 60.6336 27.5401C60.7979 28.1932 60.4005 27.0184 60.2974 26.9299C60.1128 26.7664 59.8955 26.4322 59.9581 26.9263C59.9765 27.0727 60.2837 28.0524 59.9163 27.3481C59.8681 27.256 59.6663 26.7525 59.6471 26.726C59.3176 26.2892 59.9625 27.8667 60.107 28.4314C60.2499 28.9966 59.6936 27.9533 59.5406 27.6496C59.1468 26.8631 59.4443 27.2839 59.4147 27.203C59.063 26.24 59.0486 26.4366 58.9521 26.3827C58.3079 24.8408 58.2568 24.9702 58.8544 26.3331C58.9198 26.4819 58.9104 26.3173 58.9521 26.3827C59.5207 27.9215 59.4957 28.1588 58.8114 26.7835C58.4891 26.1396 58.2194 25.3453 58.1831 25.6912C58.1658 25.8477 58.629 26.9014 58.6855 27.2172C58.8136 27.9381 58.2324 27.0162 58.1474 27.2336C58.1169 27.3123 58.4073 27.8741 58.3946 27.948C58.3654 28.1445 58.105 27.7404 58.1003 28.0037C58.1002 28.0283 58.3702 28.6302 58.3435 28.6501C58.1392 28.816 57.7964 28.4995 57.5491 28.5873C57.4341 28.6282 57.3709 29.0461 57.2228 29.0272C56.9676 28.998 56.3671 28.2066 56.2738 28.4953C56.2149 28.6798 56.4882 29.2806 56.6077 29.7169C56.8408 30.5619 56.091 29.1821 55.9781 28.9672C55.9745 28.96 56.0147 28.7762 55.8359 28.4833C55.5421 27.8412 55.9781 28.9639 55.9781 28.9672C55.9232 28.8627 55.7662 28.8033 55.6938 28.8371C55.6521 28.8375 55.5403 28.9119 55.4986 28.9103C55.4754 28.9199 55.4607 28.9401 55.4613 28.973C55.4627 29.0455 55.6797 29.6315 55.6765 29.6581C55.593 30.279 55.3783 30.5214 55.0079 30.3403C54.9989 30.33 54.778 29.667 54.7599 29.651C54.5048 29.4104 54.6835 30.2531 54.7183 30.778C54.7514 31.3032 54.5984 31.1761 54.1309 30.0682C54.0838 30.2442 53.7677 29.792 53.5852 29.5145C53.4014 29.2373 53.8323 30.5277 53.8341 30.5555C53.8951 31.4447 53.5115 30.7532 53.2469 30.7159C53.1198 30.6961 52.966 30.9575 52.8994 31.1376C52.8461 31.2826 52.6869 31.0002 52.6674 31.2224C52.6646 31.2521 52.8728 31.821 52.8768 31.8443C53.0161 32.5626 52.5818 31.1462 52.4762 30.9028C52.0918 30.018 51.883 29.5481 51.9085 30.0176C51.9142 30.1252 52.5242 32.17 52.5133 32.3055C52.4979 32.478 52.2752 31.7465 52.2652 31.9456C52.2641 31.962 52.4183 32.4076 52.3682 32.4028C52.1397 32.3857 51.8346 32.2003 51.6412 32.3166C51.6146 32.3306 51.8932 33.0256 51.8589 33.0575C51.6978 33.2065 51.4766 33.2532 51.1771 32.9859C51.1027 32.9178 50.9613 32.4128 50.9009 32.2692C50.5345 31.4004 50.8918 32.7228 50.8859 32.7524C50.7563 33.4914 50.0956 32.4105 49.9385 33.0874C49.931 33.1265 50.263 34.5618 49.7889 33.3961C49.7573 33.3185 49.2743 32.1251 49.5037 32.9758C49.5181 33.029 49.7737 33.641 49.6818 33.6013C49.5897 33.5619 49.6217 34.0183 49.2891 33.3638C49.1841 33.1577 48.6942 31.97 48.937 32.9677C48.9543 33.0372 49.5688 35.2705 48.9983 33.7803C48.9046 33.5349 48.3616 31.9368 48.5365 32.7919C48.5707 32.9576 48.731 33.3005 48.7535 33.5414C48.7889 33.9125 48.5309 33.5234 48.6744 34.2693C48.7 34.4013 48.9987 35.5101 48.6534 34.7096C48.5993 34.5842 48.4332 34.0455 48.3803 33.997C48.1288 33.764 48.0924 34.1755 47.8094 33.861C47.7095 33.7507 47.4391 32.8803 47.3017 32.6696C47.164 32.4591 46.9718 32.2773 47.0484 32.6914C47.1251 33.1056 47.667 34.4542 47.6155 34.5951C47.3915 35.2071 46.7266 34.537 46.297 34.5553C46.2333 34.5578 46.4525 35.0315 46.371 35.0704C46.0711 35.2163 45.6956 35.8645 45.0578 34.919C44.5469 34.1617 44.596 33.4307 44.3102 33.15C44.1728 33.0165 44.6486 34.6384 44.6472 34.6953C44.6387 35.2708 44.2581 34.6124 44.1658 34.8886C44.1468 34.9458 44.4098 35.5784 44.3912 35.62C44.3301 35.7675 44.1206 35.518 44.0424 35.6051C44.0079 35.6456 44.1912 36.135 44.1377 36.1112C44.0119 36.06 43.854 35.8831 43.5966 35.4551C43.5731 35.4161 43.4116 34.7836 43.3329 34.786C43.2054 34.792 42.8997 34.3883 42.9366 34.905C42.9482 35.0603 43.35 36.1848 42.988 35.4386C42.9122 35.2827 42.4502 33.9251 42.7712 35.1263C42.824 35.3261 43.2259 36.9574 42.7808 35.9728C42.6636 35.7137 42.2114 34.6295 42.2272 34.8198C42.2308 34.8498 42.4739 35.4439 42.4565 35.5167C42.3923 35.7625 42.2243 35.7505 42.1532 35.99C42.1346 36.0552 42.4165 36.659 42.3817 36.7361C42.2871 36.9489 42.0391 36.8594 41.8187 36.7187C41.7371 36.6657 41.5863 36.1354 41.5617 36.0807C41.1632 35.1902 41.5764 36.4377 41.5817 36.5174C41.6083 36.996 41.2939 36.4542 41.2282 36.6523C41.2095 36.7055 41.4498 37.2844 41.4624 37.3393C41.5818 37.8768 41.2446 36.8024 41.1579 36.7022C40.9135 36.4181 40.7956 36.5153 40.6979 36.6369C40.6628 36.6823 40.9666 37.3442 40.9323 37.377C40.7354 37.5835 40.4617 37.6115 40.0884 37.3242C40.0177 37.2688 39.8482 36.7351 39.7941 36.6189C39.4166 35.8062 39.7531 36.982 39.7728 37.0987C39.8629 37.6314 39.6505 37.183 39.5983 37.3016C39.4762 37.5929 39.2525 37.7143 39.0142 37.7537C38.765 37.7969 38.4999 37.7575 38.2662 37.7403C37.6709 37.6946 37.0846 37.3566 36.6627 37.6788C36.6361 37.6985 36.9485 38.3744 36.9293 38.4001C36.6661 38.7021 36.233 38.5681 35.9904 38.9051C35.9702 38.9314 36.2851 39.5639 36.2623 39.6278C36.218 39.7634 36.0945 39.7747 35.9169 39.6062C35.831 39.5251 35.6485 38.9447 35.5667 38.8745C35.3757 38.7099 35.2479 38.7107 35.1889 38.8601C35.165 38.9248 35.5207 39.5564 35.4675 39.5889C35.1106 39.8238 34.7972 40.1012 34.0227 39.4309C33.9696 39.3848 33.3279 38.0664 33.3897 38.3478C33.5575 38.7185 33.7601 39.1521 33.9423 39.547C33.4944 40.0145 32.7411 39.8162 32.1615 40.0231C32.1371 40.0319 32.529 40.704 32.4841 40.7245C32.2257 40.8434 32.0825 41.1603 31.4584 40.617C31.3969 40.5641 30.7714 39.349 30.7893 39.5735C30.7929 39.6143 30.7595 39.8385 30.869 40.1164C30.886 40.158 31.2079 40.7092 31.1791 40.7457C31.0049 40.9487 30.704 40.946 30.2905 40.7278C30.223 40.6916 29.9366 40.0741 29.8856 40.0432C29.5258 39.8288 29.5692 40.3942 29.0885 39.9549C28.7655 39.6588 28.2441 38.6055 27.6205 37.6296C27.5324 37.4919 27.4432 37.5116 27.1145 36.925C26.2878 35.4499 25.4311 33.808 24.5455 32.2381C24.3548 31.9 24.4537 32.323 24.0617 31.4678C24.0356 31.4105 23.9601 31.0966 23.825 30.8077C23.7317 30.6079 23.3782 30.0218 23.2686 29.7606C23.1591 29.4997 23.4648 29.9857 23.349 29.6717C23.2313 29.3541 22.8363 28.6834 22.8804 28.554ZM52.7579 28.2777C52.4709 27.6855 53.2369 29.9524 53.132 29.3831C53.126 29.3529 52.7721 28.3067 52.7579 28.2777ZM61.5695 24.4096C61.0717 23.4734 61.6017 24.9335 61.9782 25.6598C62.3568 26.3843 61.7197 24.6937 61.5695 24.4096ZM62.2232 23.3134C61.8124 22.5806 63.0464 25.7414 62.8958 25.0636C62.8874 25.0253 62.2467 23.3561 62.2232 23.3134ZM27.7662 37.1736C27.7499 37.1463 27.68 37.1494 27.6939 37.1777C28.0311 37.8595 28.1703 37.853 27.7662 37.1736ZM62.8396 22.2214C62.7221 21.9219 62.7079 22.0944 62.7772 22.4085C62.7736 22.4082 62.7632 22.4139 62.7595 22.4135C62.7842 22.5251 62.8186 22.655 62.8599 22.789C62.8649 22.7895 62.8791 22.7818 62.8841 22.7823C62.894 22.8106 62.9044 22.8391 62.9154 22.8675C63.0812 23.2978 63.052 22.7541 62.8396 22.2214ZM48.0749 27.1851C48.0621 27.1518 48.0086 27.1362 48.0751 27.3265C48.2892 27.9393 48.2894 27.7455 48.0749 27.1851ZM64.5958 21.4987C64.2943 21.492 63.043 18.9791 63.4192 19.1602C63.4885 19.1924 63.6778 20.0227 63.8383 20.2283C64.1336 20.6016 63.4942 18.9602 63.9875 19.7729C64.078 19.9216 64.6174 21.5039 64.5969 21.5024C64.5966 21.5012 64.5962 21.4999 64.5958 21.4987ZM51.7813 25.5743C51.7695 25.5449 51.6999 25.5371 51.709 25.5671C51.9235 26.2966 52.0632 26.3131 51.7813 25.5743ZM45.0932 26.6499C45.0678 26.5873 44.9096 26.5755 44.9255 26.6357C45.2616 27.834 45.5821 27.8615 45.0932 26.6499ZM55.0814 22.4875C54.8588 21.7531 54.901 21.6388 55.3126 22.5074C55.2305 22.4858 55.1637 22.5048 55.0814 22.4875Z" fill="white"/>
</svg>
