<svg xmlns="http://www.w3.org/2000/svg" width="86" height="156" fill="none" viewBox="0 0 86 156"><path fill="#fff" d="M.662 41.183c.309-1.058 1.248-2.28 2.083-3.054.262-.246.534.122.729-.033.38-.3.434-.773.843-1.04.136-.085.599.434.728.337.706-.536 1.004-1.275 1.596-1.869 2.904-2.885 5.462-5.664 8.172-8.472.654-.677 1.604-1.276 2.335-2.025.259-.264.49-.551.666-.87.077-.14-.433-.45-.45-.504-.263-.84.54.054.854-.071 1.247-.502 2.16-1.476 2.74-2.482.252-.434-.954-.837-.131-.776.056.003.442.512.582.454.316-.13.61-.631.807-.776.376-.273.427-.338.717-.65.402-.423 1.111-.739 1.432-1.295.068-.12-.525-.425-.46-.657.067-.233.5-.617.743-.655s.554.368.662.422c.9.465.37-.94.407-1.027.664-1.522 2.158-1.942 3.202-2.968.793-.781 1.49-1.791 2.304-2.486.978-.831 2.023-1.282 2.944-2.124.1-.09-.502-.571-.381-.682 1.273-1.163 2.742-2.18 4.5-2.74.176-.056.353.622.55.601 1.202-.154 3.22.183 2.478-2.671.734-.259 1.655-.557 2.54-.282.557.184.412 1.012.803.536.09-.106-.276-.645-.12-.76.69-.494 1.598-.544 2.384-1.025.158-.099.012-.647.044-.757.295-.897 1.274.367 1.41.462 1.247.654 2.104.413 3.273.684.268.068.118-.75.398-.705 1.476.247 2.925 1.073 3.79 2.21.187.25-.434.58-.374.72.236.591 1.168-.213 1.41.413.048.13-.405.458-.434.516-.487.877.695.179.783.236.309.175.46.446.533.746.137.646-.128 1.425.305 1.913.075.084.568-.477.744-.215 1.204 1.813 1.72 3.93 1.69 5.892-.002.31-.568.246-.625.282-.899.558.464.39.54.475.546.626-.407 1.558 1.288 1.713.14 3.22 1.477 6.177.372 9.398-.013.04-.687.045-.709.124-.276.954.74.667 2.07 1.161.334.127-1.151.752-1.26.803-.4.192-1.407.126-1.482.185-.591.475 2.687.102 2.738.672-.004.018-.615-.003-.671.05-.176.163.077.289-.12.451-.453.374-2.04.618-1.07 1.051.125.054 1.983-.187 1.933.33-.02.202.075 1.093-.03 1.354-.103.26-.716.127-.74.147-.751.729-1.098.494-2.254.906-1.153.41 1.64.143 1.96.26s-.306.647-.528.78c-.221.133-.613.005-.736.12-.804.754 1.408.233 1.865.444 1.083.5-.972 1.053-1.151 1.56-.049.138.419.005.469.124.191.474-.444.792.174 1.319.1.085 1.368.484.462.811-.13.046-.653-.05-.761.16-.163.312-.256.868-.072 1.193.136.24.98-.069.725.248-.114.14-.621-.097-.794.166-.172.26-.13.916-.107 1.162s.668.094.712.113c.254.113.578.581.578.623.133 2.13-.93 4.104-.552 6.16.028.163.71.05.722.074.29.554-1.529.129-2.134.52 1.385-.065 1.136.165 1.29.555.075.188.611.083.666.1.817.276-.235.475-.45.526-.792.187.145.385-.385.512-.525.127-1.305-.16-1.294.214.496.104 1.792-.177 2.003.108.797 1.072-.226 3.08-.338 3.938-.111.86-.022 1.14-.206 1.64-.333.902.632.58 1.067 1.146.434.569-1.93.268-2.44.343-.51.074.013.167-.268.263-.28.095-.624-.123-.731.108-.108.23.788.876 1.32.965 1.124.189 2.311-.08 1.887.527-.026.035-.646-.088-.711.046-.494 1.06-.543 2.19-.986 3.243-.062.145-.752.001-.796.085-.46.89.714.591 2 1.108-1.723-.144-2.783.108-2.807.781-.015.405.74.35 1.265.623.159.08-.365.36-.012.42 1.155.2 2.458-.046 1.926.646-.025.03-.657-.081-.698.024-.266.68.944.79 1.074 1.528.101.584-.662 1.61-.798 2.258-1.94-.061-1.51.568-.18.86-.065.432-.001.898-.196 1.304-.067.14-.626.033-.687.05-.959.249.338.465.386.557.47 1.032-.536 1.807.404 2.791.034.035 1.38.125.39.359-.068.014-.673-.319-.732.133-.059.46-.8 1.252-.191 1.916.146.157 1.231.567.37.852-.117.038-.503-.016-.72.038-.689.174.671.307-.49.502-1.163.184-2.04.658-1.254 1.304.023.02 1.1.191 1.078.387-.02.187-.112.417-.182.64-.047.159-.084.314-.084.45.001.16.673.069.685.097.358 1.068-.25 1.822-.522 2.944-.05.19.858.829.133 1.22-.794.44-4.084-.045-3.304.99.313.438 4.488.928 2.326 1.686.54 1.41-.552 2.791.25 4.21.035.065 1.206.239 1.194.386-.02.218-.56.357-.59.526-.142.685.349 1.286.31 1.926-.013.253-.58.198-.595.493-.014.282.74.454.411.865-.251.302-1.736.756-1.872 1.185 1.491-.12 1.483.147 1.936.599.087.084.591-.08.66-.044.287.137-.12.353.195.48.075.029.58-.046.67-.03.78.133-.271.739-.445.868-.673.456.01.427-.208.695-.189.326-.681.125-.72.487a.8.8 0 0 0 .114.465.8.8 0 0 0 .279.278.86.86 0 0 0 .565.103c.384-.078.531-.25.663-.375a2 2 0 0 0 .282-.376c.135-.222.231-.447.316-.65.099-.258-.609-.304-.61-.347-.008-.489.793-.886-.512-1.343 3.523.136-.29-.328.457-.905.06-.046 1.723-.02 1.95.228.226.254-.322.552.008.933.084.073 1.535.832 1.605.949.586.799-1.859.27-1.99.243-.752-.042-.758.152-.605.444.157.285.46.689.462.807q.004.137-.014.267c-.034.233-.118.469-.344.764-.235.253-.638.85-1.899.906-1.3-.06-1.794-.789-2.045-1.048-.252-.3-.398-.514-.566-.686-.437-.446-1.992-.026-2.06-.471-.13-1.309 2.116-1.834.05-2.498-.436-.136-2.185.248-.864-.598.083-.05 1.313-.638.486-.864-.105-.026-.62.015-.667-.027-.303-.28.092-.534-.125-.853-.217-.302-.536-.735-.377-1.096.094-.229 1.045-.567 1.276-.688.667-.331-.458-.599.358-.82.822-.218 2.09.11 2.609-.403-1.345.024-2.726.02-4.08.035.016-1.062.43-2.18.36-3.22-.01-.135-.732.01-.761-.134-.122-.636.391-1.116.184-1.763-.163-.496-.928-.993-1.12-1.517 1.54-.33 1.021-1.032 1.166-1.59.05-.194.461-.177.597-.314.5-.507-.862-.277-1.075-.417-.907-.6 2.172-.614 2.105-1.33-.003-.042-1.637-.515-1.738-.577-.66-.402.572-.056.697-.3.228-.448.625-.758.155-1.316l-.007-.007c-.162-.158-1.137-.536-.352-.817.105-.037.646-.005.679-.036.54-.566-1.163-.618-1.733-.967-.57-.361.618-.819.959-.919.883-.249.37.215.456.23 1.02.193.852-.176.945-.457 1.671-.002 1.58-.4.09-.291-.163.013-.012.237-.09.291-1.634-.284-1.833-.727-.29-1.182.723-.213 1.555.024 1.265-.658-.13-.31-1.284-.22-1.59-.5-.701-.642.392-1.44.24-2.076-.056-.234-.692-.023-.751-.184-.16-.427.321-.79.09-1.229-.022-.04-.683.04-.688-.095-.052-.986.392-1.865.43-2.903.017-.499-.325-1.41-.24-1.937.144-.897 1.127-1.986.91-2.772-.138-.502-.8-.407-1.244-.63-.862-.431.712-1.137.955-1.233.008-.003.155.435.498.21.708-.122-.495-.205-.498-.21.158-.062.324-.93.2-1.1-.067-.095-.692-.054-.715-.103-.539-1.159-.679-2.327-.371-3.487.013-.02.711.02.733-.028.32-.673-.53-1.124-1.032-1.684-.501-.561-.327-1 .875-1.32-.147-.422.388-1.026.712-1.37.324-.346-1.036-.402-1.063-.432-.856-.955-.076-1.504.046-2.49.06-.47-.138-1.4-.29-1.907-.12-.4.197-.644-.01-1.012-.027-.05-.632.005-.656-.01-.727-.407.755-.22 1.019-.306.96-.316 1.47-.512 1.013-1.037-.105-.121-2.24-.453-2.368-.672-.161-.285.604-.186.415-.485-.015-.026-.487-.015-.468-.2.079-.865.337-1.801.27-2.699-.007-.122-.751.05-.774-.125-.107-.828-.102-1.718.223-2.539.083-.2.61-.093.764-.14.932-.295-.447-.626-.475-.686-.706-1.433.484-2.62-.178-4.074-.039-.082-1.535-.627-.295-.972.082-.023 1.35-.371.459-.563-.056-.011-.707.197-.657-.103s-.42-.748.279-1.207c.22-.144 1.48-.54.433-.856-.073-.023-2.42-.444-.846-.77.259-.055 1.946-.138 1.047-.54-.174-.075-.537.114-.79-.1-.389-.327.023-.833-.763-1.197-.14-.064-1.308-.276-.465-.605.132-.052.7-.028.75-.168.241-.682-.201-1.316.117-1.997.112-.242 1.03-.223 1.246-.49.216-.274.392-.794-.052-.996s-1.852.245-2.013-.11c-.697-1.525-.088-3.227-.247-4.774-.023-.226-.499.053-.572-.282-.269-1.247-1.204-3.08-.438-4.325.618-1.005 1.553-.254 1.715-.946.066-.364-1.638-.132-1.708-.173-.717-.424-.187-1.117-.608-1.501-.086-.075-.669.297-.733.234-.229-.217-.087-.614-.246-.784-.072-.075-.517.2-.525.106-.024-.212.075-.432.357-.804l.038-.055c.014-.019.165-.103.308-.196.059-.038.116-.078.161-.117.065-.055.104-.11.084-.147-.097-.197.079-.721-.387-.469-.14.077-.902.995-.418.326.104-.136.964-1.286.17-.33-.065.08-.352.453-.506.721-.16.265-.181.421.052-.065.134-.25.567-1.342.456-1.187-.012.027-.228.631-.258.687-.09.19-.107.114-.22.306-.024.054-.045.717-.064.777-.036.165-.2-.002-.49-.158-.104-.06-.15-.61-.168-.668-.329-.926-.137.379-.151.461-.134.507-.55-.01-.798.256-.068.072.21.636.214.695.034.57-.247-.526-.403-.598-.456-.198-.818.02-1.15.275-.119.094.354.669.25.743-.61.45-1.392.832-2.332.974-.18.026-.403-.496-.502-.584-.7-.608-.325.613-.318.75.002.646-.401.326-.621.6-1.048 1.328-2.874 2.427-4.254 3.403-1.789 1.267-3.412 2.11-4.823 3.752-.09.104.54.524.47.62-.93 1.212-2.172 2.113-3.054 3.401-.073.105.572.445.472.628-.2.38-.578.742-1.03.91-.218.08-.484-.53-.695-.438-.492.21-.873.565-1.121 1.018-.103.193.65.428.475.64-1.067 1.314-2.067 2.648-3.68 3.54q-.275.156-.57.288c-.134.06-1.333-.792-1.296-.398.299.277.667.584.994.87-1.604 2.284-3.714 4.065-5.442 6.172-.073.089.663.407.526.58-.79 1.007-1.335 2.092-2.7 2.676-.134.058-1.213-.784-1.256-.365-.012.081-.177.636-.015.926.026.041.608.32.523.477a7.5 7.5 0 0 1-2.007 2.31c-.134.102-.634-.388-.735-.318-.727.519-.685 1.522-1.602 1.96-.62.3-1.575-.41-2.744-.66-.165-.034-.35.276-.96-.008-1.534-.713-3.11-1.7-4.754-2.442-.355-.159-.2.467-.91-.212-.047-.046-.164-.507-.407-.732-.168-.155-.83-.36-1.024-.602-.192-.245.383-.113.19-.462-.197-.352-.938-.614-.806-1.069m57.82 11.714c.655-.321-1.738-.375-1.166-.025.03.017 1.134.042 1.167.025m-.213 39.331c1.048-.468-.506-.71-1.318-.408-.81.315 1 .55 1.318.408m.918 4.452c.803-.563-2.59-.474-1.875.057.04.031 1.828-.024 1.875-.057M9.685 45.31c-.03-.011-.175.195-.15.217.611.47.897.06.15-.218m50.823 55.8c.409-.268-.189-.619-.716-.321-.425.251.205.665.716.321m.209-65.121c.035-.007.058-.195-.143-.182-.648.044-.453.294.143.182m3.48 60.762c-.133 1.131-2.957 1.678-2.619.546.06-.21.888.465 1.144.2.468-.496-1.293-.83-.35-1.343.173-.093 1.838.532 1.828.599zm-2.84-44.032c.032-.006.063-.267.031-.273-.76-.143-.821.382-.03.273m-.019-27.83c.066-.022.056-.64-.008-.652-1.27-.165-1.257 1.07.008.653m1.493 45.42c.757.299.838.644-.127.85.058-.285.073-.57.127-.85m16.622 68.921c.257-.021.138-.266-.09-.491-.07-.07-.453-.252-.52-.307-.131-.106.066-.036-.097-.149-.056-.038-.664-.324-.71-.356-.248-.167-.08-.125-.197-.213-.584-.42-.827-.508-1.12-.592-.096-.029-.684-.19-.433-.098.03.01.596.173.643.187.714.21-.43-.122-.583-.161-.604-.158-.664-.145-.449-.069.093.034 1.228.323.59.163-.043-.01-.648-.171-.713-.185-.147-.033-.041.006-.09-.002-.098-.015-.093-.012-.102-.006-.017.007-.323-.052-.188-.005.03.01.655.156.76.186.106.029.05.026-.098-.005s-.639-.147-.752-.172c-.952-.214.361.106.394.114.549.156-.21.016-.214.052-.003.027.241.104.202.121-.049.021-.395-.018-.342.024.005.004.748.136.755.141.08.054-.008.075-.517.034-.052-.005-.704-.118-.795-.129-.542-.063-1.843-.208 1.005.25-.114 0-.232.003-.81-.065-.372-.044-1.084-.16-.782-.101.068.014.694.101.748.114.226.053.02.045.34.11.067.013.628.091.729.106.817.123-.538-.051-.637-.061-.736-.075-.45-.015-.472.007-.005.005.75.097.773.105.104.041.036.06-.302.046-.078-.004-.72-.088-.79-.093-.3-.023.915.127.651.108-.054-.004-.605-.071-.665-.078-.951-.105.394.062.423.067.404.071-1.004-.074-.808-.025.025.006.724.078.75.089.187.077-.01.11-.575.113-.086 0-.61-.057-.675-.063-1.012-.089.342.049.392.057.365.058-.773-.026.84.139-.57.046.33.21-1.125.202-.017 0-.685-.051-.716-.05-.378.005.662.074 1.931.182.32.026-1.216-.064-1.33-.07-.414-.023-1.409-.096-1.489-.1-.631-.027 2.66.192 2.659.209-.005.001-.611-.042-.671-.044-.19-.008.05.013-.158.004-.483-.021-2.083-.119-1.153-.042.12.01 1.987.125 1.898.135-.037.005-.007.035-.128.036s-.723-.041-.749-.042c-.797-.024-1.126-.052-2.305-.108-1.175-.054 1.625.103 1.937.125s-.346.002-.575-.006-.61-.035-.74-.038c-.846-.02 1.39.087 1.833.12 1.052.074-1.026-.023-1.23-.014-.055.002.418.022.462.029.168.025-.48.003.113.051.096.009 1.345.083.428.049-.133-.005-.65-.033-.766-.031-.175.003-.289.018-.116.037.127.014.98.042.715.041-.118 0-.617-.031-.798-.03s-.16.026-.143.035.664.031.708.034c.25.014.56.043.56.044.076.072-1.017.105-.658.188.027.007.71.022.721.023.286.027-1.53-.039-2.137-.041 1.385.036 1.134.037 1.286.055.074.008.61.019.666.021.814.03-.238.01-.454.006-.792-.013.144.017-.386.009-.525-.008-1.304-.038-1.294-.024.495.016 1.792.037 2.002.052.793.054-.225.1-.331.129s-.015.039-.194.054c-.325.028.637.029 1.077.053s-1.926-.011-2.435-.014.015.006-.265.007-.625-.011-.73-.003.8.042 1.331.049c1.127.016 2.31.016 1.895.033-.025.001-.647-.008-.71-.003-.48.034-.51.073-.934.112-.059.005-.751-.001-.794.002-.442.034.725.023 2.022.04-1.726-.004-2.782.007-2.792.034-.007.016.747.012 1.278.02.16.003-.357.015-.003.016 1.16.002 2.456-.012 1.94.013-.025.002-.659.001-.697.005-.252.025.96.021 1.108.045.115.017-.624.058-.744.083-1.94.021-1.496.04-.158.032-.054.015.022.03-.163.048-.063.006-.625.011-.686.012-.952.025.35.012.401.014.496.027-.49.074.475.088.035.001 1.383-.025.399.004-.068.002-.681.004-.728.021-.047.016-.77.064-.144.071.15.002 1.244-.013.39.02-.116.005-.502.013-.717.021-.685.025.676-.008-.48.031-1.157.04-2.023.083-1.224.085.023 0 1.103-.026 1.086-.018-.028.012-.252.036-.245.048.004.006.674-.019.687-.019.376.027-.22.073-.478.126-.048.01.866-.003.144.039-.79.048-4.08.159-3.294.171.314.006 4.487-.149 2.326-.03.538.031-.565.134.202.152.034.001 1.199-.05 1.183-.044-.025.01-.57.042-.605.05-.162.034.304.032.233.06-.026.01-.588.038-.619.051-.03.013.71-.021.354.014-.272.026-1.785.125-1.96.152 1.493-.087 1.463-.074 1.858-.079.076-.002.596-.036.659-.039.268-.009-.162.023.13.012l.665-.038c.752-.036-.394.051-.593.067-.758.059-.094.023-.392.05s-.672.039-.853.061c-.373.046-.289.07-.31.094-.006.009.673-.042.688-.042.174.006-.548.075.807-.009-3.501.255.34-.012-.359.062-.056.006-1.712.126-1.956.135-.243.008.273-.041-.106-.026-.09.004-1.643.094-1.737.098-.736.031 1.74-.139 1.875-.149 1.467-.109-.207-.015-.323-.013-.53.011-.184-.032-.563-.028-.246.002-1.868.103-1.819.089.162-.049 2.424-.197.46-.113-.419.017-2.192.129-.799.02.088-.007 1.362-.101.555-.066-.102.005-.619.034-.662.035-.282.003.13-.029-.069-.032-.198-.003-.493-.005-.318-.03.104-.016 1.067-.08 1.302-.097.679-.048-.436-.003.387-.054.826-.05 2.082-.101 2.616-.147l-4.073.205c.044-.051.477-.118.415-.162-.009-.006-.73.034-.76.029-.115-.023.399-.069.192-.088-.162-.014-.928-.006-1.121-.022 1.537-.076 1.013-.088 1.153-.118.048-.011.459-.026.593-.037.495-.04-.864.02-1.078.022-.914.005 2.162-.108 2.085-.134-.003-.002-1.644.034-1.746.034-.666.005.57-.022.692-.037.22-.027.612-.053.13-.061-.142-.003-1.165.011-.374-.026.103-.005.645-.02.677-.022.528-.04-1.175.008-1.752.009-.578 0 .598-.056.937-.069.876-.036.375-.001.46-.003 1.025-.019.848-.031.934-.045 1.67-.045 1.57-.059.083-.015-.162.005-.007.01-.083.015-1.639.032-1.85.015-.318-.043.717-.027 1.555-.037 1.248-.059-.139-.009-1.289.022-1.603.016-.716-.012.356-.071.187-.095-.062-.009-.691.013-.755.007-.171-.016.3-.041.058-.056-.022-.002-.681.013-.69.007-.077-.045.345-.092.356-.139.005-.024-.36-.062-.286-.087.122-.043 1.08-.097.848-.132-.15-.022-.809-.016-1.258-.025-.871-.019.689-.055.93-.059.008 0 .164.02.502.009.706-.006-.499-.009-.502-.009.156-.003.306-.042.18-.05-.069-.005-.694-.004-.718-.006-.559-.055-.717-.113-.425-.166.013-.001.712.006.733.004.31-.028-.544-.057-1.051-.09s-.337-.054.863-.052c-.15-.022.38-.043.702-.053s-1.038-.036-1.065-.038c-.86-.061-.08-.074.042-.118.06-.021-.136-.07-.284-.099-.12-.022.2-.026-.004-.049-.027-.003-.633-.017-.656-.019-.724-.04.756.011 1.02.014.962.012 1.474.019 1.023-.018-.103-.009-2.234-.09-2.358-.106-.158-.019.606.01.421-.01-.015-.002-.486-.017-.465-.026.092-.041.368-.079.322-.126-.004-.006-.752-.026-.77-.036-.088-.047-.058-.093.293-.12.09-.006.612.023.768.027.94.028-.425-.05-.45-.055-.653-.107.585-.105 0-.211-.033-.005-1.495-.118-.24-.064.084.003 1.369.06.492-.001-.055-.004-.716-.032-.648-.043.068-.012-.372-.064.355-.043.23.006 1.51.067.491-.014-.07-.005-2.376-.179-.784-.092.263.014 1.947.121 1.085.043-.167-.015-.544-.03-.778-.057-.36-.042.093-.037-.656-.11-.132-.013-1.274-.107-.406-.064.136.007.698.05.762.046.304-.013-.07-.077.322-.085.137-.002 1.045.07 1.29.075.244.005.48-.001.066-.045-.414-.045-1.863-.139-1.977-.169-.497-.131.36-.154.492-.234.02-.011-.499-.045-.507-.067-.032-.076-.504-.256.6-.212.885.038 1.549.168 1.91.167.173 0-1.504-.191-1.556-.201-.533-.101.214-.053-.01-.117-.046-.013-.727-.079-.76-.09-.114-.037.192-.03.14-.06-.026-.014-.545-.07-.504-.076.092-.014.313-.01.802.023.045.004.689.092.715.078.04-.023.523.002.032-.088-.148-.027-1.333-.172-.512-.093.171.017 1.594.197.367.023-.204-.027-1.857-.277-.786-.163.282.03 1.448.165 1.266.131-.029-.005-.666-.081-.727-.098-.203-.061-.13-.087-.325-.149-.053-.016-.713-.09-.77-.112-.162-.063.012-.089.224-.1.079-.004.622.083.681.09.966.12-.333-.074-.408-.09-.45-.1.166-.039.009-.094-.042-.015-.663-.1-.718-.11-.537-.099.574.08.698.086.352.02.308-.023.234-.067-.028-.017-.748-.113-.765-.127-.114-.086-.033-.148.372-.147.078 0 .628.099.755.117.884.13-.314-.094-.428-.12-.518-.114-.029-.043-.115-.081-.433-.198-.084-.288.138-.365.285-.101.828-.103.725-.276-.006-.011-.734-.162-.749-.174-.151-.145.158-.191-.024-.353-.013-.014-.701-.168-.746-.195-.096-.058-.049-.09.178-.069.11.01.69.181.788.189.23.019.288-.006.189-.072-.044-.029-.748-.188-.75-.212-.032-.161-.103-.368.838-.253.065.008 1.47.425 1.208.322-.389-.121-.846-.261-1.262-.389-.15-.307.414-.391.593-.637.007-.011-.725-.27-.714-.293.063-.131-.07-.376.707-.224.076.015 1.322.577 1.151.454-.032-.022-.17-.16-.43-.304-.039-.022-.624-.276-.63-.308-.021-.183.185-.271.615-.249.07.005.654.353.709.36.375.063.004-.328.609-.134.402.14 1.378.794 2.37 1.388.14.085.18.07.742.439 1.413.929 2.961 1.944 4.468 2.932.325.213-.045.014.75.514.053.034.33.177.603.342.189.113.756.496 1.002.634s-.228-.185.065-.03c.298.155.953.577 1.064.571m-10.384-.057c.653-.001-1.74-.051-1.167-.024.03.002 1.135.024 1.167.024m.401 1.647c1.054-.067-.497-.006-1.31.045s.991-.024 1.31-.045m.78.141c.829-.065-2.56.115-1.873.101.039-.001 1.824-.097 1.872-.101m.72-6.849c.028.016.066.013.039-.004-.644-.404-.724-.389-.039.004m.127 6.973c.458-.034-.072-.019-.642.023-.457.035.072.02.642-.023m.547-2.509c.036.002.069-.003-.133-.014-.648-.033-.466-.013.133.014m-.489 2.795c.124-.054 2.918-.277 2.606-.213-.056.011-.893.048-1.144.076-.458.053 1.298-.065.36.023-.173.017-1.835.118-1.826.114zm.787-2.15c.032.001.062-.008.03-.009-.759-.021-.82-.002-.03.009m1.204-.954c.067.004.132-.012.07-.017-1.238-.105-1.372-.069-.07.017m.544 1.593c.765.001.855.011-.105.031.051-.011.058-.021.105-.031m6.226.903c.209 0-.012.038-.315.079-.095.012-.517.044-.602.054-.163.021.045.01-.15.034-.067.007-.737.059-.792.067-.294.038-.123.038-.264.064-.696.132-.94.231-1.237.338-.097.035-.7.128-.433.129.032 0 .619-.062.667-.066.741-.067-.443.051-.6.074-.619.088-.67.123-.44.123.098-.001 1.262-.135.609-.055-.044.005-.667.069-.733.079-.149.023-.036.023-.085.033-.097.021-.09.022-.097.031-.013.014-.321.064-.178.062.032-.001.67-.076.778-.084.11-.007.056.01-.094.031s-.651.076-.766.09c-.969.116.376-.022.41-.024.569-.033-.193.083-.187.114.006.023.261.018.23.044-.041.031-.383.097-.32.115.005.002.754-.096.762-.093.092.023.014.066-.486.167-.051.011-.709.093-.799.109-.537.092-1.828.307 1.033-.069-.11.03-.223.063-.797.156-.37.06-1.086.15-.78.119.07-.007.695-.097.75-.101.231-.017.03.028.355-.003.068-.007.629-.087.73-.101.819-.109-.532.094-.63.111-.73.124-.439.098-.454.119-.004.005.748-.11.772-.109.11.005.049.035-.282.106-.075.015-.717.107-.786.119-.295.055.916-.124.655-.076-.053.01-.602.092-.662.101-.945.148.396-.049.426-.052.407-.043-.99.182-.79.17.026-.001.72-.113.748-.111.198.01.014.081-.534.21-.084.02-.606.099-.67.109-1.002.168.343-.043.394-.049.366-.043-.758.156.844-.094-.544.159.365.072-1.055.388-.016.003-.677.117-.707.124-.366.086.66-.096 1.916-.303.316-.052-1.197.224-1.308.245-.409.076-1.391.245-1.47.261-.62.12 2.627-.455 2.63-.444-.005.002-.603.106-.663.118-.186.036.052-.003-.153.037-.474.092-2.051.377-1.131.225.12-.02 1.96-.352 1.875-.325-.035.011 0 .024-.118.051-.119.028-.713.131-.738.136-.782.158-1.108.211-2.267.431-1.155.22 1.603-.286 1.911-.339s-.337.077-.561.121-.602.11-.729.136c-.828.171 1.37-.244 1.81-.32 1.038-.179-1.005.209-1.203.259-.054.014.411-.076.455-.081.169-.02-.468.107.12.01.095-.016 1.326-.237.425-.061-.13.026-.64.119-.752.146-.17.039-.279.074-.107.049.127-.018.964-.184.705-.128-.116.026-.608.114-.784.154s-.152.051-.134.054c.019.003.654-.123.697-.131.246-.044.555-.093.554-.092.087.032-.975.289-.611.268.028-.002.697-.139.708-.141.283-.044-1.5.305-2.093.434 1.358-.275 1.113-.22 1.264-.241.074-.01.6-.119.653-.13.8-.155-.23.058-.441.102-.776.162.143-.019-.376.089-.514.108-1.28.257-1.268.264.487-.097 1.756-.362 1.963-.398.784-.135-.203.115-.302.158-.1.041-.008.029-.181.078-.313.088.626-.119 1.06-.198.433-.079-1.883.408-2.38.516-.498.107.015.001-.258.061-.273.061-.612.128-.714.156s.787-.145 1.308-.255c1.103-.232 2.258-.487 1.855-.386-.024.006-.633.134-.694.151-.463.126-.486.159-.894.275-.058.017-.735.162-.776.173-.427.118.712-.141 1.98-.409-1.686.369-2.715.604-2.721.624-.004.012.731-.153 1.251-.262.157-.033-.347.087 0 .011 1.132-.248 2.396-.538 1.895-.409-.023.006-.643.142-.68.153-.241.071.941-.193 1.088-.209.115-.013-.6.173-.714.216-1.891.432-1.454.349-.15.055-.05.022.026.015-.152.067-.061.017-.609.142-.668.156-.926.222.343-.068.393-.077.489-.09-.467.155.476-.044.034-.007 1.346-.316.39-.084-.066.016-.664.15-.708.171s-.742.209-.131.079c.147-.032 1.213-.279.384-.072l-.698.169c-.665.165.66-.151-.464.125-1.124.277-1.963.494-1.183.322.022-.005 1.073-.256 1.057-.248-.025.015-.241.079-.232.086.004.003.655-.159.667-.161.371-.065-.205.096-.45.187-.046.017.845-.19.146-.005-.765.203-3.96.992-3.193.83.308-.063 4.36-1.076 2.267-.525.528-.097-.535.213.215.058.034-.007 1.163-.295 1.149-.288-.024.012-.55.153-.584.166-.154.058.3-.045.234-.011-.023.012-.569.154-.597.17-.028.015.69-.17.347-.069-.262.078-1.725.476-1.893.532 1.445-.385 1.417-.37 1.801-.46.075-.018.577-.155.638-.17.26-.066-.155.05.128-.022l.645-.171c.728-.189-.379.121-.571.175-.731.206-.09.036-.376.12s-.65.173-.824.228c-.358.113-.273.111-.292.132-.004.007.652-.177.667-.18.17-.034-.526.171.785-.183-3.382.942.33-.084-.343.12-.054.016-1.653.462-1.89.522-.236.059.262-.088-.107.006l-1.68.447c-.714.183 1.678-.476 1.81-.512 1.416-.396-.204.035-.317.061-.516.124-.183.019-.553.105-.238.055-1.807.479-1.761.458.151-.069 2.34-.664.434-.178-.406.104-2.12.568-.776.189.084-.025 1.316-.367.532-.166l-.64.168c-.275.063.122-.049-.072-.007-.193.04-.48.104-.314.048.1-.034 1.03-.287 1.258-.35.656-.181-.425.092.37-.121.8-.215 2.019-.523 2.533-.671-1.301.34-2.638.687-3.947 1.027.038-.044.45-.184.385-.201-.01-.001-.709.182-.737.185-.116.01.38-.133.176-.102-.16.026-.907.197-1.098.228 1.49-.385.978-.28 1.11-.331.046-.017.445-.117.574-.153.477-.135-.84.201-1.05.248-.89.202 2.097-.542 2.018-.543-.003 0-1.6.38-1.7.402-.65.147.555-.139.67-.175.212-.067.59-.169.12-.07-.14.029-1.136.26-.37.063l.659-.161c.51-.142-1.146.259-1.71.385-.563.125.577-.167.906-.25.85-.213.366-.081.45-.101.996-.235.823-.204.905-.233 1.624-.392 1.524-.379.078-.028-.157.039-.005.009-.078.028-1.596.376-1.804.411-.317.04.697-.173 1.513-.361 1.21-.309-.136.024-1.255.293-1.562.357-.7.147.338-.125.169-.104-.061.007-.673.157-.736.167-.17.026.288-.093.05-.051-.023.004-.665.157-.674.155-.082-.014.323-.136.328-.171.001-.017-.36.036-.292.004.113-.056 1.041-.3.809-.272-.15.018-.792.164-1.232.255-.853.175.665-.186.9-.24.008-.002.162-.022.491-.102.688-.156-.488.101-.491.102.152-.036.292-.094.168-.072-.068.011-.678.147-.702.15-.554.084-.717.079-.44-.019.013-.003.696-.149.716-.155.3-.086-.54.08-1.04.167s-.337.037.835-.221c-.15.018.365-.109.678-.186.312-.076-1.02.2-1.046.205-.85.145-.09-.032.022-.087.055-.027-.144-.017-.293-.003-.12.011.19-.06-.011-.032-.027.004-.62.125-.644.129-.713.13.74-.156.999-.211.94-.199 1.442-.305.995-.232-.102.017-2.195.422-2.32.439-.156.021.594-.124.41-.098-.015.002-.477.094-.458.084.083-.046.346-.13.294-.151-.005-.003-.738.145-.758.143-.093-.011-.072-.048.267-.141.086-.023.6-.117.753-.148.923-.185-.422.059-.448.062-.655.073.553-.193-.035-.135-.034.004-1.479.248-.245.011.082-.016 1.345-.257.479-.107-.054.01-.704.135-.64.113.065-.022-.373.04.34-.104.224-.046 1.485-.284.476-.115-.07.013-2.349.402-.78.112.258-.048 1.92-.345 1.065-.207-.166.026-.535.098-.768.132-.36.051.083-.044-.66.073-.131.021-1.262.209-.407.048.134-.025.69-.12.75-.136.295-.075-.08-.033.3-.123.133-.031 1.031-.183 1.27-.233.24-.049.468-.105.056-.042-.412.062-1.84.318-1.957.324-.508.027.322-.173.436-.249.017-.012-.495.08-.506.069-.046-.039-.54-.044.543-.258.868-.17 1.54-.237 1.891-.317.168-.037-1.501.214-1.554.22-.538.056.198-.079-.032-.068-.048.003-.723.112-.757.113-.12.003.18-.059.123-.065-.028-.003-.544.078-.505.066.087-.028.302-.074.784-.162.044-.007.688-.097.71-.111.035-.022.51-.113.013-.058-.149.016-1.33.192-.516.058.17-.028 1.589-.235.361-.067-.204.028-1.86.248-.797.079.28-.045 1.44-.223 1.257-.203-.03.003-.664.1-.726.103-.21.011-.146-.02-.348-.012-.055.002-.71.105-.772.105-.17.001-.006-.052.197-.104.075-.019.62-.09.68-.099.962-.146-.34.032-.416.039-.457.044.152-.057-.012-.052-.044 0-.664.09-.72.097-.541.064.574-.082.696-.106.345-.067.293-.08.21-.088-.03-.003-.749.103-.768.099-.13-.02-.066-.069.326-.158.076-.017.63-.086.757-.104.885-.126-.326.019-.441.031-.528.054-.038-.016-.132-.017-.464-.005-.149-.128.044-.212.25-.111.77-.233.625-.29-.009-.004-.747.086-.764.084-.184-.033.098-.118-.121-.148-.017-.002-.717.081-.767.08-.109-.003-.073-.027.15-.066.107-.019.71-.074.805-.092.224-.041.272-.064.157-.069-.05-.002-.766.085-.775.077-.078-.058-.209-.112.714-.27.064-.011 1.522-.16 1.241-.141l-1.314.129c-.242-.071.255-.212.325-.311.003-.005-.77.072-.769.064.008-.046-.21-.072.555-.183.075-.011 1.436-.125 1.23-.12-.038.001-.222-.003-.518.017-.044.003-.68.06-.699.055q-.15-.045.428-.148c.064-.011.741-.059.792-.067.357-.057-.16-.049.453-.124.413-.05 1.584-.132 2.736-.229.162-.013.187-.025.858-.077 1.685-.128 3.532-.263 5.33-.4.386-.03-.031-.009.904-.073.063-.004.374-.021.692-.043.22-.016.9-.069 1.182-.088.28-.02-.29.026.04.005.334-.022 1.11-.083 1.202-.083m-10.326 4.033c.638-.141-1.705.342-1.143.236.03-.005 1.112-.229 1.143-.236m.624 1.019c1.02-.275-.486.103-1.273.315s.965-.232 1.273-.315m.777-.075c.802-.225-2.48.637-1.813.478zm-.952-4.203c.031-.002.062-.012.03-.01-.758.055-.818.075-.03.01m1.793 4.102c.443-.124-.072.003-.622.156-.442.124.073-.002.623-.156m.174-1.791c.035-.006.066-.017-.132.02-.638.119-.457.092.132-.02m-.083 1.971c.114-.064 2.81-.83 2.513-.718-.053.02-.864.229-1.105.304-.44.136 1.257-.331.352-.065-.165.05-1.773.485-1.764.48zm.48-1.61c.032-.006.06-.019.029-.013-.745.15-.802.176-.028.013m1.011-.893c.066-.012.126-.037.065-.027-1.226.203-1.35.256-.065.027m.792.94c.746-.164.835-.177-.099.043.049-.017.055-.026.099-.043m-6.672-9.454c-.076-.201.107-.057.322.167.066.069.3.424.356.488.11.124.008-.058.135.093.044.051.414.612.451.653q.043.049.071.077c.11.107.073.003.167.087.54.485.81.61 1.114.78.1.055.478.537.382.283-.012-.03-.328-.528-.353-.57-.379-.641.248.372.342.499.373.503.444.523.364.305-.035-.094-.666-1.081-.304-.531.024.037.348.573.388.627.088.121.05.014.083.051.067.075.066.068.084.066.028.001.213.253.16.119-.012-.03-.35-.576-.4-.674-.05-.097-.002-.063.083.063s.343.559.403.658c.513.83-.163-.341-.177-.371-.24-.521.2.114.246.084.035-.024-.054-.267 0-.257.063.013.273.294.283.219.002-.008-.38-.659-.378-.669.013-.109.111-.071.418.341.031.042.35.623.4.7.303.454.988 1.57-.398-.961.079.085.164.171.466.669.194.32.531.958.398.68-.03-.062-.34-.612-.361-.664-.089-.215.035-.049-.1-.348-.027-.062-.3-.558-.348-.648-.385-.731.29.456.34.541.386.633.268.366.305.366.01 0-.36-.665-.365-.688-.017-.115.05-.076.241.204.044.064.342.639.379.699.156.257-.416-.825-.277-.6.029.047.287.538.316.591.458.84-.17-.361-.182-.388-.162-.377.517.864.45.673-.01-.024-.343-.641-.347-.672-.028-.204.13-.068.446.4.049.072.283.545.313.603.473.898-.142-.316-.162-.363-.144-.341.396.665-.322-.788.357.449.06-.42.801.834.009.015.3.618.317.645.194.324-.268-.61-.803-1.766-.134-.291.552 1.086.603 1.187.186.371.614 1.271.651 1.343.288.563-1.148-2.406-1.129-2.417.003.005.264.553.292.607.087.168-.012-.052.083.134.22.431.916 1.874.53 1.025-.05-.11-.861-1.796-.805-1.724.023.029.04-.014.101.091.06.105.313.653.325.676.363.71.496 1.013 1.01 2.075.512 1.058-.687-1.476-.816-1.762-.128-.284.168.303.269.508s.259.555.317.67c.381.756-.58-1.265-.761-1.671-.427-.964.467.913.569 1.091.027.048-.176-.38-.19-.422-.055-.161.226.423-.005-.125-.038-.089-.545-1.232-.152-.403.056.119.269.592.324.695.083.153.147.248.086.086-.045-.121-.408-.893-.288-.657.054.106.252.565.336.725.083.161.094.132.095.112.001-.019-.27-.608-.287-.648a11 11 0 0 1-.21-.521c.044-.106.55.863.474.503-.005-.028-.281-.653-.285-.664-.094-.271.613 1.402.867 1.954-.552-1.271-.445-1.044-.492-1.189-.024-.071-.24-.562-.26-.613-.313-.753.11.211.197.409.319.725-.044-.138.169.347.21.481.509 1.201.516 1.187-.192-.457-.71-1.646-.784-1.843-.274-.747.195.159.264.245.07.085.044-.003.13.155.154.288-.223-.598-.37-1.014-.145-.416.74 1.78.934 2.25s0-.016.108.242.233.581.279.675-.275-.752-.472-1.246c-.416-1.048-.869-2.141-.691-1.764.01.022.239.601.267.658.216.429.264.442.454.823.027.053.275.699.293.738.19.401-.246-.682-.7-1.897.623 1.61 1.014 2.59 1.037 2.593.014.001-.26-.701-.442-1.2-.055-.151.14.329.015-.003-.409-1.084-.882-2.292-.672-1.819.01.022.232.616.25.651.113.226-.314-.909-.336-1.057-.018-.117.28.561.345.665.67 1.821.536 1.397.086.137.034.046.025-.031.103.137.027.058.214.587.235.644.332.893-.102-.334-.116-.383-.13-.481.227.44-.057-.483-.01-.033-.451-1.306-.118-.38.023.064.213.647.244.686.033.039.296.712.117.114-.043-.144-.379-1.186-.094-.38.039.11.16.477.23.68.226.647-.203-.646.171.449.375 1.095.66 1.914.427 1.15-.007-.022-.34-1.049-.327-1.035.02.023.103.232.112.222.004-.005-.205-.642-.208-.654-.078-.37.132.191.245.427.02.045-.226-.836-.001-.149.244.753 1.188 3.907.982 3.15-.086-.302-1.253-4.312-.618-2.243-.104-.528.234.527.074-.223-.008-.033-.305-1.16-.295-1.146.015.022.16.547.175.581.064.152-.034-.304.007-.24.016.024.152.57.169.598.016.028-.157-.693-.057-.349.077.263.447 1.733.497 1.902-.352-1.453-.337-1.425-.413-1.813-.014-.075-.138-.58-.151-.642-.055-.263.05.156-.01-.13-.015-.069-.132-.566-.15-.65-.159-.736.122.379.168.573.181.738.039.089.114.379.073.29.143.658.192.833.1.362.102.277.124.296.008.005-.137-.661-.139-.676-.018-.173.14.535-.118-.798.703 3.44-.056-.336.108.348.013.055.33 1.685.372 1.925.043.24-.066-.268.002.106.015.088.317 1.614.337 1.707.145.722-.36-1.707-.39-1.841-.306-1.438.024.206.047.319.1.521.016.183.088.555.047.24.406 1.825.393 1.777-.04-.159-.57-2.364-.126-.449.095.408.514 2.135.18.778-.02-.086-.33-1.325-.14-.539l.16.643c.065.274-.037-.126.008.066.046.193.116.479.07.309-.028-.101-.273-1.034-.335-1.262-.177-.656.102.423-.111-.372-.217-.799-.53-2.017-.682-2.53l1.052 3.94c-.022-.043-.15-.459-.15-.398.001.009.2.704.207.732.026.112-.123-.382-.073-.182.039.156.251.892.303 1.078-.445-1.474-.305-.97-.353-1.102-.017-.046-.137-.439-.179-.567-.154-.471.251.827.313 1.032.265.874-.652-2.064-.645-1.987 0 .004.488 1.57.518 1.668.197.636-.174-.544-.215-.658-.074-.209-.201-.58-.062-.12.04.137.353 1.111.102.36l-.212-.643c-.177-.5.357 1.119.535 1.668s-.2-.565-.311-.886c-.284-.83-.116-.356-.143-.438-.322-.972-.273-.803-.307-.883-.533-1.583-.512-1.485-.032-.076.052.153.007.004.032.076.518 1.556.582 1.756.078.309-.236-.678-.502-1.472-.42-1.176.037.133.415 1.22.512 1.518.223.68-.145-.328-.103-.163.016.059.23.651.248.712.05.164-.116-.279-.042-.048.007.022.23.642.231.651.01.078-.149-.314-.172-.318-.012-.001.099.346.064.28-.058-.109-.421-.996-.355-.772.043.143.283.757.44 1.178.308.815-.269-.635-.36-.859-.003-.007-.05-.155-.178-.469-.259-.656.177.466.178.469-.057-.145-.13-.277-.088-.158.024.065.254.646.261.668.183.529.224.684.093.422-.005-.012-.266-.66-.275-.679-.13-.282.182.514.364.987.182.474.112.319-.353-.787.05.143-.166-.342-.298-.635-.132-.294.392.962.402.987.314.801.003.087-.065-.016-.033-.051.026.139.075.28.04.113-.092-.177-.019.013l.261.602c.28.668-.305-.692-.412-.934-.389-.879-.598-1.346-.43-.927.039.097.886 2.054.932 2.169.058.147-.247-.553-.178-.381.005.014.195.445.184.428-.052-.076-.181-.319-.18-.268 0 .005.308.687.313.705.022.088-.005.07-.165-.242-.04-.079-.254-.557-.32-.698-.394-.854.164.394.174.418.246.609-.294-.504-.076.044.012.033.622 1.365.084.23-.036-.076-.588-1.237-.22-.439.024.05.308.647.274.589-.035-.058.145.346-.174-.308-.1-.206-.656-1.361-.226-.434.03.065 1.012 2.158.322.72-.114-.237-.84-1.761-.477-.975.07.152.236.491.333.705.149.33-.056-.073.261.609.056.12.548 1.155.165.374-.06-.122-.303-.63-.333-.686-.145-.265.006.08-.179-.264-.065-.12-.462-.94-.574-1.157-.113-.216-.228-.421-.05-.045.178.377.823 1.677.867 1.785.191.468-.219-.279-.31-.373-.014-.014.224.448.221.461-.01.048.169.504-.36-.465-.426-.776-.708-1.388-.89-1.699-.087-.148.68 1.356.703 1.404.231.488-.125-.169-.035.042.019.044.339.649.351.679.046.11-.105-.155-.087-.101.008.025.252.487.23.453-.05-.075-.16-.266-.397-.694-.022-.039-.32-.617-.339-.635-.028-.027-.269-.446-.047.001.067.135.629 1.188.233.465-.083-.151-.757-1.417-.182-.319.095.182.87 1.663.354.717-.136-.248-.697-1.279-.614-1.114.013.026.32.59.346.647.086.191.04.138.123.321.023.051.345.631.369.687.067.155-.03.015-.143-.16-.043-.065-.304-.549-.333-.602-.474-.85.154.304.19.372.209.408-.098-.127-.03.022.018.04.323.587.35.636.258.481-.282-.506-.346-.613-.181-.301-.17-.249-.142-.173.01.029.368.661.374.679.04.121-.015.072-.233-.265-.041-.064-.314-.553-.377-.663-.446-.775.145.291.2.393.253.466.006.038.044.123.19.42-.018.162-.155.008-.177-.199-.486-.634-.46-.489.001.009.385.646.391.662.062.172-.117-.06-.035.142.006.015.376.616.398.661.048.096.02.069-.106-.119-.06-.09-.371-.609-.426-.689-.128-.188-.164-.225-.115-.122.022.044.407.655.406.665.004.082.04.205-.493-.563-.036-.053-.822-1.29-.677-1.049l.706 1.116c.076.229-.245-.169-.338-.202-.003-.002.427.645.422.646-.028.004.074.195-.377-.432-.044-.062-.803-1.198-.696-1.021.02.032.111.19.275.438.024.037.383.565.39.583q.016.04-.002.029-.044-.029-.296-.357c-.039-.051-.42-.613-.452-.654-.22-.286.058.149-.31-.347-.247-.333-.916-1.298-1.586-2.24-.094-.132-.118-.148-.505-.698-.973-1.382-2.032-2.901-3.07-4.375-.223-.317-.001.038-.53-.737-.035-.052-.2-.316-.38-.579-.124-.182-.52-.739-.677-.973-.156-.234.178.231-.003-.046-.183-.281-.633-.916-.667-1.004m8.983 7.325c-.262-.599.668 1.606.453 1.075zm.805-.69c-.294-1.014.119.482.345 1.265.224.783-.257-.958-.345-1.265m-.1-.771c-.22-.803.627 2.483.464 1.816-.01-.037-.45-1.77-.463-1.816m-4.01 2.255c-.019-.026-.043-.047-.025-.021.431.626.478.668.024.021m3.926-3.098c-.108-.446-.001.073.133.628.108.446 0-.073-.133-.628m-2.126.178c-.015-.032-.034-.059.05.124.275.588.205.419-.05-.124m2.322-.258c-.045-.122-.6-2.87-.485-2.569.019.055.141.883.199 1.129.099.45-.196-1.285-.011-.36a324 324 0 0 1 .297 1.8m-1.939-.263c-.012-.029-.032-.053-.02-.024.292.702.33.751.02.024m-1.363-.651c-.03-.06-.078-.107-.051-.051.538 1.12.633 1.219.05.051m1.31-1.21c-.254-.721-.27-.811.067.087-.027-.044-.04-.047-.067-.087m1.21 10.203c.108.178-.034.006-.226-.233-.06-.074-.308-.417-.36-.484-.104-.128.015.043-.107-.111-.042-.053-.44-.595-.474-.637-.19-.229-.099-.084-.196-.189-.485-.517-.703-.665-.952-.856-.08-.063-.505-.502-.345-.287.02.025.415.463.447.499.495.556-.301-.329-.411-.443-.434-.45-.495-.467-.35-.291.063.076.88.916.42.446-.03-.032-.464-.484-.512-.53-.108-.105-.037-.018-.074-.051-.075-.065-.071-.06-.081-.06-.017-.005-.247-.215-.152-.109.022.024.484.469.562.546.077.077.035.042-.076-.061l-.561-.529c-.714-.665.264.267.29.289.412.393-.163-.119-.171-.106-.003.008.193.17.168.146-.032-.03-.312-.237-.262-.204.005.002.622.437.63.44.085.032.044-.056-.38-.34-.044-.029-.617-.361-.695-.408-.46-.294-1.65-.842.93.448-.091-.068-.183-.146-.709-.395-.339-.158-1-.448-.718-.324.063.027.641.282.693.301.218.079.034-.013.345.088.065.02.595.221.69.255.78.272-.492-.224-.586-.255-.69-.268-.413-.179-.423-.209-.003-.007.726.209.75.208.117-.011.068-.085-.256-.189-.074-.023-.71-.145-.778-.161-.294-.064.91.16.652.096-.052-.013-.6-.106-.66-.117-.941-.165.395.058.426.058.409.029-.992-.171-.793-.145.025.001.723.079.752.076.198-.027.006-.108-.556-.095l-.678.015c-1.016.031.345-.002.396-.006.368-.016-.77.063.848-.04-.402.03-.05.027-.337.128-.114.042-.33.098-.735.19-.016.004-.679.106-.709.113-.366.093.662-.075 1.921-.271.316-.051-1.198.219-1.309.241-.408.076-1.392.241-1.47.256-.62.127 2.628-.444 2.63-.434-.005.001-.602.107-.662.119-.185.038.053-.002-.152.04-.474.095-2.048.399-1.128.243.12-.021 1.956-.376 1.871-.35-.035.012 0 .022-.118.051-.118.03-.708.151-.734.157-.775.183-1.1.246-2.25.51-1.145.269 1.593-.338 1.899-.402.305-.065-.333.093-.555.149s-.596.137-.721.17c-.817.223 1.358-.305 1.792-.402 1.027-.236-.992.263-1.184.335-.052.018.406-.103.45-.11.167-.03-.457.147.12.006.096-.021 1.301-.353.42-.097-.127.037-.626.176-.736.214-.165.057-.268.109-.1.068.125-.031.94-.289.688-.205-.112.038-.592.18-.762.241-.17.062-.142.077-.123.08.02.002.632-.208.674-.221l.535-.171c.076-.02-.92.43-.574.316.025-.01.638-.313.648-.317.256-.128-1.372.676-1.909.962 1.237-.626 1.015-.509 1.153-.573.067-.032.541-.284.59-.309.72-.384-.211.109-.4.215-.693.382.128-.067-.334.191-.456.261-1.142.632-1.124.643.432-.243 1.558-.886 1.741-.989.68-.412-.207.088-.281.168-.086.062-.015.004-.154.118-.246.211.486-.414.798-.726.305-.318-1.418 1.304-1.791 1.65-.369.351.016-.004-.183.192-.198.198-.46.425-.522.512-.057.091.618-.513.984-.899.784-.811 1.606-1.662 1.301-1.378-.017.018-.439.476-.483.521-.33.347-.343.377-.57.736-.03.051-.426.618-.447.656-.201.398.438-.58 1.117-1.685-.913 1.465-1.46 2.369-1.402 2.414.03.025.39-.637.651-1.1.076-.141-.152.324.012.009.528-1.031 1.117-2.188.856-1.74-.012.022-.283.595-.301.629-.092.18.213-.497.333-.855a1 1 0 0 0 .05-.185c-.003-.126-.303.553-.346.667-.541 1.863-.373 1.449-.064.147-.021.051-.017-.026-.06.155-.013.061-.114.614-.126.673-.164.938.069-.342.072-.394.054-.492-.036.489.024-.473.004-.034.066-1.381.011-.398-.001.068-.027.68-.031.728-.013.047.009.77.001.145.002-.15-.06-1.243-.018-.389l.043.716c.05.684-.045-.675.047.479.09 1.154.232 2.011.19 1.212-.001-.023-.124-1.096-.116-1.08.014.027.066.247.08.237.007-.005-.107-.665-.108-.678-.041-.374.081.211.194.451.025.044-.197-.843.008-.15.236.756 1.116 3.929 1.007 3.143-.026-.321-1.318-4.292-.59-2.255-.116-.527.372.47.145-.266-.01-.033-.48-1.1-.47-1.087.017.021.25.514.271.543.098.136-.083-.295-.03-.241.021.019.274.523.302.544.028.02-.31-.64-.128-.331.138.235.878 1.559.991 1.698-.723-1.309-.695-1.289-.87-1.643-.035-.069-.296-.519-.326-.575-.127-.236.093.135-.048-.121l-.333-.578c-.374-.652.217.333.324.502.4.646.063.074.226.325.164.25.346.577.452.725.221.304.215.211.254.214.014-.002-.365-.569-.372-.582-.078-.156.346.433-.402-.7 1.975 2.903-.18-.29.235.278.034.046.981 1.409 1.108 1.618.126.209-.182-.209.016.116.047.075.887 1.385.934 1.467.374.636-.993-1.435-1.068-1.549-.817-1.222.075.197.127.301.25.47.033.194.2.536.108.221.946 1.614.897 1.585-.166-.092-1.31-2.05-.402-.305.192.373 1.073 1.916.333.729-.048-.074-.7-1.174-.339-.45.045.091.29.547.306.588.102.264-.11-.09-.052.102.059.193.147.478.027.342-.073-.081-.527-.933-.64-1.141-.322-.599.127.422-.242-.315-.365-.743-.877-1.891-1.129-2.364.564 1.221 1.14 2.476 1.702 3.706-.146.015-.44-.333-.544-.228-.013.015.267.682.257.715-.044.141-.29-.318-.31-.094-.013.176.146.93.112 1.142-.507-1.454-.459-.923-.587-1.035-.042-.038-.146-.436-.2-.561-.195-.462.174.848.203 1.061.104.915-.615-2.078-.678-1.987 0 .003.263 1.625.267 1.728.056.668-.122-.558-.185-.669-.117-.204-.223-.583-.235-.095 0 .144.066 1.168-.093.39-.02-.101-.083-.64-.093-.671-.151-.515.035 1.179.016 1.761-.023.582-.237-.582-.273-.92-.107-.872.014-.376.01-.462-.046-1.024-.093-.844-.141-.928-.103-1.668-.134-1.566-.05-.08.011.162.037.005.05.08.06 1.639-.064 1.855-.177.324-.049-.717-.025-1.554-.111-1.248-.042.138-.04 1.289-.097 1.601-.147.713-.258-.368-.383-.212-.05.057-.07.688-.111.748-.116.159-.135-.32-.263-.095-.013.021-.09.676-.125.679-.269.035-.402-.426-.646-.508-.118-.038-.46.232-.572.11-.046-.049-.076-.146-.095-.262-.064-.362.001-.894-.2-.801-.174.076-.47.665-.744 1.026-.55.691.065-.763.189-.972.004-.006.176-.082.309-.398.352-.612-.306.397-.31.398.068-.141-.017-.379-.123-.3-.058.043-.411.558-.436.57-.582.272-.977.148-1-.283.005-.013.497-.509.503-.532.106-.331-.572.196-1.053.421-.478.227-.443.005.44-.81-.179.019.158-.414.38-.655s-.887.546-.914.555c-.828.32-.262-.236-.257-.46.003-.11-.257-.166-.433-.182-.142-.012.12-.199-.092-.166-.029.004-.565.285-.587.293-.686.25.657-.375.888-.506.838-.475 1.291-.713.85-.588-.1.033-2.062.867-2.195.875-.167.014.54-.276.35-.251-.016.002-.448.191-.443.151.02-.184.216-.432.123-.549-.011-.017-.704.266-.733.244-.132-.103-.155-.259.141-.482.075-.055.58-.196.726-.249.887-.316-.432.044-.46.041-.693-.02.46-.493-.153-.518-.035.001-1.48.263-.264-.061.08-.023 1.326-.343.463-.172-.054.01-.695.178-.637.128s-.387-.014.314-.212c.22-.064 1.47-.357.46-.189-.07.015-2.35.403-.79.068.257-.055 1.914-.377 1.056-.256-.166.024-.533.111-.768.132-.364.029.072-.1-.676-.011-.132.017-1.267.18-.415.001.133-.027.69-.117.75-.141.286-.116-.097-.121.279-.244.131-.043 1.033-.174 1.27-.232.239-.058.465-.132.05-.091-.415.04-1.847.277-1.967.259-.095-.015-.146-.036-.164-.062-.082-.115.48-.35.564-.542.015-.036-.5.044-.514-.008-.058-.176-.57-.607.534-.847.884-.171 1.557.027 1.917-.086.171-.045-1.515-.13-1.568-.15-.536-.172.216-.255-.003-.41-.046-.034-.73-.051-.761-.082-.112-.105.201-.18.155-.277-.022-.045-.542-.094-.497-.13.1-.087.33-.146.827-.164.045-.001.682.141.714.083.052-.098.547-.127.078-.329-.141-.06-1.312-.297-.488-.213.173.018 1.571.334.377-.006-.2-.048-1.791-.591-.724-.419.281.046 1.43.289 1.26.207-.026-.013-.653-.154-.704-.203-.17-.175-.068-.284-.22-.47-.041-.05-.69-.199-.731-.27-.113-.199.115-.337.359-.394.091-.021.592.209.65.227.927.298-.286-.207-.349-.256-.379-.288.23-.142.122-.302-.028-.045-.61-.279-.658-.307-.472-.283.536.219.665.234.365.045.37-.082.343-.209-.01-.048-.68-.331-.681-.372-.014-.253.158-.424.6-.388.085.007.556.309.67.367.794.413-.22-.266-.31-.342-.415-.338.023-.106-.021-.209-.215-.523.275-.648.587-.72.409-.104.952.08 1.019-.202.005-.018-.56-.503-.562-.525-.008-.26.332-.195.296-.465-.001-.022-.518-.502-.536-.555-.041-.111.031-.129.225-.004.093.061.495.514.58.567.195.126.266.127.225.01-.019-.051-.542-.549-.526-.575.098-.193.16-.417.915.163.052.04 1.025 1.136.857.909l-.867-.996c.039-.344.548-.105.768-.179.009-.003-.486-.602-.47-.612.09-.057.048-.296.597.256.054.054.876 1.146.773.965-.019-.033-.096-.204-.265-.448-.025-.037-.415-.542-.414-.565.008-.127.17-.066.46.204.048.045.438.602.475.638.26.257.012-.201.417.268.271.317.939 1.283 1.62 2.216.097.132.128.142.516.691.975 1.381 2.037 2.898 3.077 4.37.225.316-.004-.034.529.738.035.052.207.312.389.573.125.181.522.738.682.969.16.232-.173-.235.015.038.19.276.642.909.69.988m-8.419-.608c.524-.392-1.487.905-.974.643.027-.015.949-.623.974-.643m4.937 1.084c-.435-.963.121.486.456 1.23.344.739-.32-.941-.456-1.23m.006-.852c-.403-.728 1.104 2.312.848 1.673-.015-.036-.824-1.631-.848-1.673m-2.295-7.678c.019.026.048.043.03.017-.435-.623-.495-.656-.03-.017m2.138 6.808c-.242-.391.006.078.304.565.243.39-.001-.081-.304-.565m-2.992-1.575c.034-.009.063-.026-.132.024-.63.159-.448.129.132-.024m3.315 1.314c-.132-.062-1.752-2.35-1.547-2.107.039.042.508.735.662.936.286.361-.739-1.069-.17-.318a73 73 0 0 1 1.055 1.489m-2.719-.697c.026-.018.046-.043.019-.027-.644.404-.676.467-.019.027m.764-1.356c.066-.011.126-.042.064-.034-1.23.168-1.352.243-.064.034m.336.147c.202-.738.185-.835-.05.096.02-.048.029-.053.05-.096m8.778-.878c.213-.015.015.102-.264.235-.087.041-.495.157-.573.192-.151.068.053.025-.129.102-.062.026-.706.217-.756.241-.271.127-.096.114-.22.197-.606.416-.771.708-.978 1.026l-.017.021c-.168-.236-.48-.499-.839-.773-.405-.339-.897-.682-1.387-1.056-.123-.093.205-.59.198-.647-.218-.9-.5.277-.809.345-1.271.327-1.643.616-2.005.467-.154-.051-.426-1.198-.336-.53.008.044.26.618.255.692-.014.166-.127.095-.135.154-.009.114-.016.111-.05.138-.046.043.092.324 0 .215-.023-.024-.37-.564-.44-.648s-.065-.022.018.104c.083.127.38.535.447.629.573.79-.225-.301-.25-.323-.366-.438.133.15.168.115.022-.024-.12-.238-.07-.24.064 0 .351.203.349.119 0-.009-.553-.522-.554-.533-.016-.112.099-.115.54.154.045.027.536.472.611.525.447.317 1.528 1.064-.659-.817.111.042.231.08.706.418.306.217.849.693.631.473-.048-.049-.544-.441-.58-.484-.152-.18.04-.09-.189-.328-.048-.049-.493-.399-.571-.465-.636-.528.456.294.539.348.618.411.417.195.466.161.012-.008-.601-.459-.612-.483-.047-.117.042-.127.35.025.07.035.582.433.642.469.26.155-.718-.582-.489-.447.047.027.491.36.54.396.78.554-.3-.265-.321-.286-.296-.287.869.516.741.351-.016-.021-.594-.42-.606-.452-.084-.214.15-.21.684.004.083.033.508.345.562.381.847.56-.264-.225-.302-.26-.275-.251.696.351-.624-.591.59.133-.057-.54 1.285.057.016.006.578.371.607.382.356.143-.53-.406-1.584-1.122-.265-.18 1.054.611 1.152.668.358.211 1.196.751 1.266.791.553.307-2.244-1.439-2.224-1.473.005.002.517.328.57.357.167.091-.032-.046.15.056.424.235 1.791 1.07 1.019.546-.1-.068-1.696-1.044-1.602-1.028.039.007.044-.064.157-.016s.621.372.644.384c.708.372.98.559 2.004 1.148 1.02.584-1.384-.86-1.647-1.03-.262-.17.32.138.522.247.2.11.523.317.638.376.755.386-1.181-.735-1.555-.979-.885-.573.919.463 1.115.531.053.019-.36-.214-.393-.245-.127-.117.444.192-.048-.144-.08-.056-1.145-.712-.341-.269.116.063.56.331.668.376.162.067.282.086.144-.022-.102-.08-.853-.486-.611-.374.107.05.532.315.698.387.167.073.173.017.168-.008-.006-.025-.575-.335-.612-.358a7 7 0 0 1-.466-.317c.005-.17 1.033.226.788-.084-.018-.024-.625-.337-.634-.344-.235-.169 1.355.709 1.907.966-1.228-.643-.998-.541-1.119-.638-.06-.047-.538-.289-.586-.316-.713-.395.226.081.419.177.71.354-.115-.092.36.144.47.234 1.152.612 1.157.581-.437-.235-1.598-.812-1.775-.927-.671-.433.299-.097.422-.109.122-.009.049-.067.227-.023.321.079-.557-.315-.938-.539-.381-.222 1.75.806 2.213 1.018s-.008-.018.249.094c.256.111.561.275.665.301s-.694-.405-1.174-.634c-1.018-.485-2.1-.963-1.705-.826.023.008.585.275.647.293.466.131.53.063.95.158.06.013.69.297.732.308.436.107-.646-.331-1.827-.868 1.586.68 2.566 1.074 2.6 1.021.02-.032-.68-.315-1.163-.536-.145-.067.343.107.016-.03-1.069-.448-2.278-.918-1.783-.765.024.007.61.249.648.256.252.049-.874-.401-.997-.49-.097-.068.617.134.744.134 1.827.655 1.427.453.167.003.06-.007-.003-.056.18-.021.063.012.595.191.653.209.912.276-.322-.139-.37-.158-.455-.204.507.018-.41-.286-.032-.011-1.335-.358-.38-.116.065.016.654.187.706.177.051-.008.769.098.165-.067-.145-.043-1.216-.263-.375-.11.114.019.494.093.706.129.676.111-.664-.13.479.053 1.142.185 2.013.233 1.23.056-.023-.006-1.094-.146-1.076-.155.03-.019.257-.029.252-.061-.003-.014-.673-.039-.685-.042-.267-.046-.04-.038.205-.089a1.5 1.5 0 0 0 .267-.084c.043-.038-.853.141-.154-.041.751-.242 3.957-1.045 3.084-1.179-.392-.138-4.171 1.635-2.292.57-.285.047-.21-.09-.211-.253.01-.154-.065-.317-.347-.039-.03.021-.627 1.022-.613 1.012.013-.022.256-.51.26-.548.018-.173-.19.248-.192.172-.005-.029.154-.57.134-.608-.026-.038-.203.682-.154.326.04-.27.259-1.772.203-1.959-.216 1.48-.243 1.445-.325 1.833-.016.076-.061.594-.07.657-.034.266-.004-.164-.037.126-.007.07-.045.579-.052.665-.052.75.01-.397.005-.597.01-.76-.021-.096-.03-.396-.014-.299.02-.672-.005-.854-.055-.376-.138-.291-.197-.311-.025-.005.032.674.03.69-.024.174-.134-.544-.028.809-.36-3.492.01.341-.103-.353-.01-.056-.215-1.704-.218-1.949-.002-.245.09.267.087-.114-.004-.089-.084-1.644-.078-1.739.021-.741.205 1.734.214 1.87.123 1.466.074-.21.094-.327.063-.534.147-.186.228-.564.053-.244.098-1.869.16-1.817.23.174.06 2.434.453.499.091-.41.27-2.18.281-.768.01.09-.08 1.369.144.59.029-.098.127-.607.15-.646.16-.255.143.163.307 0s.417-.398.522-.178c.071.133-.143 1.083-.195 1.316-.153.669.403-.304.131.478-.304.772-.904 1.878-1.067 2.394a214 214 0 0 1 1.873-3.623c.502.312.758 1.029 1.225 1.452.062.054.537-.498.624-.443.373.249.163.839.532 1.069.29.18 1.137.178 1.443.446-1.367.731-.768.907-.846 1.216-.029.102-.434.174-.555.256-.452.289.872-.031 1.094.001.71.124-.825.396-1.604.573-.26.065-.437.121-.414.176.003 0 1.65.104 1.752.141.668.159-.57.035-.692.126-.222.162-.618.24-.15.416.14.046 1.148.256.352.253-.104-.001-.642-.068-.675-.064-.54.064 1.148.287 1.705.469.556.185-.63.134-.965.082-.872-.105-.362-.105-.445-.126-1.004-.211-.842-.109-.936-.08-1.643-.303-1.553-.239-.09.032.16.029.014-.037.09-.032 1.604.342 1.786.505.272.256-.71-.119-1.519-.336-1.242-.176.125.074 1.247.329 1.54.45.666.288-.402.124-.264.255.05.05.664.194.718.236.145.113-.324.029-.112.162.02.013.654.196.655.219.024.177-.413.152-.472.284-.028.061.269.308.177.342-.157.068-1.097-.163-.915.007.115.112.73.352 1.134.549.783.387-.69-.138-.915-.224-.007-.003-.132-.109-.453-.217-.655-.263.45.215.453.217-.147-.054-.322-.025-.214.042.059.038.634.282.654.297.458.347.542.548.222.543-.012-.003-.645-.3-.666-.304-.313-.065.442.339.872.616s.254.252-.842-.239c.115.11-.389-.068-.693-.178-.304-.112.913.497.935.512.725.476 0 .184-.155.222-.076.017.054.195.161.311.087.093-.207-.032-.045.097.021.017.56.295.58.308.619.378-.68-.333-.918-.449-.865-.422-1.325-.648-.95-.388.086.059 1.947 1.1 2.044 1.181.125.103-.542-.27-.395-.154.012.01.427.234.399.242-.125.041-.412-.006-.417.1-.003.014.659.363.666.389.034.122-.04.197-.387.099-.088-.025-.536-.296-.674-.369-.83-.443.338.269.357.288.49.465-.638-.056-.21.378.025.024 1.249.833.154.214-.073-.04-1.19-.677-.45-.203.047.03.624.355.55.347-.074-.007.277.266-.367-.074-.204-.106-1.315-.747-.463-.18.06.038 1.997 1.302.626.487-.226-.134-1.662-1.022-.95-.528.138.096.468.28.655.424.288.223-.122.027.49.464.11.077 1.062.715.31.278-.118-.069-.591-.375-.652-.396-.293-.102-.014.161-.38.011-.13-.053-.89-.553-1.11-.663-.219-.11-.443-.196-.107.051s1.573 1.009 1.648 1.106c.325.427-.487.112-.688.189-.03.011.414.282.4.32-.049.142.206.633-.772.105-.782-.424-1.264-.911-1.6-1.056-.16-.071 1.198.931 1.236.969.39.383-.255.001-.114.198.03.041.595.426.614.457.068.108-.21-.029-.191.041.009.032.434.336.39.328-.1-.016-.303-.11-.724-.364-.039-.023-.547-.429-.586-.416-.062.021-.49-.214-.126.133.11.105 1.066.82.381.359-.143-.097-1.284-.965-.32-.185.16.128 1.445 1.2.562.582-.232-.163-1.182-.852-1.048-.723.021.02.539.399.577.452.125.181.027.196.143.375.031.049.573.433.603.493.084.166-.112.141-.322.072-.08-.026-.497-.384-.545-.419-.781-.581.233.254.285.311.313.343-.202-.002-.116.152.022.041.515.427.556.465.399.375-.454-.358-.566-.418-.313-.171-.32-.084-.302.019.008.038.583.482.583.512.008.185-.147.26-.54.101-.075-.031-.485-.411-.585-.491-.695-.562.186.281.264.368.359.395-.025.083.007.185.164.506-.312.534-.663.598-.447.076-1.03-.104-1.307.303-.02.026.476.583.464.613-.171.369-.702.41-1.089.893-.041.043.394.605.334.698-.12.196-.393.301-.709.205-.152-.047-.279-.658-.42-.697a.9.9 0 0 0-.461-.024 1.4 1.4 0 0 0-.49.234c-.144.099.332.703.112.783a6.66 6.66 0 0 1-3.579.319c-1.797-.273-3.752-1.669-4.365-3.19-.102-.221.955-1.245.572-1.304-.347.213-.742.483-1.108.719a5.8 5.8 0 0 1-.867-1.534c-.088-.245.15-.603.128-.862-.001-.013-.728.261-.735.236-.038-.147-.29-.223.397-.607.067-.037 1.37-.45 1.16-.427-.038.005-.23 0-.519.074-.043.011-.647.216-.671.201-.13-.09-.03-.259.308-.488.056-.037.712-.212.758-.24.318-.194-.207-.149.36-.407.383-.172 1.518-.473 2.622-.818.156-.048.172-.087.818-.271 1.627-.463 3.412-.954 5.145-1.449.373-.106-.038-.023.87-.259.061-.016.367-.08.674-.163.213-.056.869-.249 1.142-.319s-.277.093.044.012c.325-.081 1.071-.3 1.165-.307m.153-.245c-.597-.267 1.537.816 1.041.526-.026-.015-1.012-.513-1.041-.526m-.435-6.159c-.59.882.552-.167 1.01-.857.411-.728-.854.572-1.01.857m-1.449.091c-.162.82.92-2.397.53-1.799a61 61 0 0 0-.53 1.799m-7.775 9.103c.03-.009.054-.04.023-.032-.733.2-.779.263-.023.032m6.989-8.382c-.006.459.074-.067.085-.639.002-.46-.089.067-.085.639m-.278 5.414c-.03-.018-.066-.021.108.082.559.329.413.217-.108-.082m-.494-5.322c.144.106.538 2.882.445 2.576-.02-.055-.106-.888-.158-1.135-.11-.45.155 1.29-.031.366a41 41 0 0 1-.256-1.807m.868 3.976c-.029-.013-.065-.008-.037.006.672.354.747.342.037-.006m-2.089 1.311c-.057-.035-.135-.03-.084.005 1.03.693 1.194.681.084-.005m1.008-3.193c-.714-.274-.795-.314.117-.014-.054-.001-.067.013-.117.014m-8.883-.866c-.155-.144-.054.06.121.312.055.078.326.404.376.472.1.132-.038-.023.083.131.041.053.475.566.51.609.187.23.074.102.166.211.461.533.68.676.947.839.087.054.557.445.383.24l-.065-.063-.427-.392c-.543-.508.333.297.454.399.48.4.55.403.4.229-.065-.075-.956-.835-.452-.412.034.028.504.442.556.483.12.092.046.005.089.032.084.054.08.048.095.042.023-.003.275.18.18.073-.022-.024-.517-.432-.597-.507s-.027-.053.094.039c.12.092.507.416.596.489.758.615-.269-.264-.294-.287-.41-.398.215.054.246.012.021-.032-.153-.222-.103-.229.06-.007.36.173.34.101-.001-.007-.606-.458-.61-.468-.035-.099.065-.094.511.159.046.025.575.424.652.473.461.292 1.564.999-.762-.707.107.045.22.088.707.405.314.205.892.636.653.441-.053-.043-.572-.405-.612-.442-.173-.157.012-.062-.24-.272-.052-.044-.517-.368-.6-.428-.668-.485.462.282.546.335.627.394.404.204.439.186.008-.004-.623-.428-.638-.447-.068-.094.008-.089.308.069.069.037.6.408.66.443.26.154-.751-.537-.523-.403.047.027.506.34.556.374.799.526-.318-.241-.342-.259-.32-.257.867.513.72.372-.018-.017-.607-.4-.624-.425-.12-.17.084-.129.596.113.08.037.516.332.571.367.858.544-.278-.206-.319-.237-.292-.226.683.368-.668-.529.544.194-.159-.397 1.144.258.015.008.582.364.61.377.342.163-.547-.38-1.617-1.072-.269-.173 1.05.617 1.148.675.357.212 1.203.741 1.272.781.549.315-2.261-1.411-2.25-1.432.005.002.52.323.573.352.165.094-.037-.037.144.066.42.241 1.79 1.072 1.007.566-.102-.066-1.701-1.037-1.614-1.009.035.011.028-.038.137.016s.62.372.644.385c.697.388.974.568 1.992 1.165 1.014.594-1.388-.851-1.653-1.018-.264-.167.31.154.51.267.198.113.523.316.636.379.743.407-1.185-.73-1.561-.968-.892-.562.902.49 1.09.574.05.023-.36-.215-.395-.243-.134-.105.43.215-.068-.11-.081-.054-1.147-.708-.351-.251.115.066.558.334.663.385.157.077.267.112.126.011-.105-.075-.847-.497-.612-.374.106.055.53.318.692.399s.159.045.15.026-.572-.341-.61-.363a11 11 0 0 1-.47-.308c-.022-.12.968.349.702.087-.02-.02-.616-.354-.625-.361-.237-.163 1.331.753 1.869 1.038-1.206-.683-.983-.568-1.106-.659-.06-.044-.53-.305-.577-.332-.703-.413.217.099.405.203.694.383-.116-.086.348.169.46.254 1.132.649 1.132.629-.43-.248-1.565-.875-1.742-.99-.669-.431.261-.01.373.006.111.018.037-.038.205.029.304.12-.545-.331-.92-.565-.373-.234 1.695.917 2.143 1.158.448.242-.009-.014.238.116.248.131.546.306.644.347s-.682-.422-1.147-.68c-.985-.547-2.03-1.103-1.652-.928.023.011.566.313.625.338.444.186.495.155.891.312.056.022.663.355.702.372.41.172-.625-.368-1.758-1 1.519.82 2.456 1.307 2.481 1.281.015-.014-.651-.366-1.115-.626-.14-.079.324.152.012-.017-1.02-.55-2.17-1.148-1.7-.933.022.011.58.311.617.325.237.09-.833-.479-.948-.576-.09-.075.585.228.705.257 1.72.898 1.34.666.158.039.058.009 0-.045.173.023.059.024.556.285.61.312.853.425-.3-.179-.344-.206-.42-.267.475.149-.364-.327-.03-.017-1.231-.63-.349-.194.061.03.602.32.653.324.052.003.714.294.17-.013-.132-.074-1.103-.579-.332-.208.105.05.45.225.643.319.617.299-.6-.314.44.193 1.04.508 1.828.872 1.126.489-.02-.012-.984-.497-.965-.498.032-.001.243.079.244.062 0-.008-.604-.3-.615-.306-.316-.209.237.022.494.086.048.012-.763-.41-.104-.113.723.324 3.68 1.77 2.997 1.38-.272-.158-4.033-1.974-2.063-1.078-.158-.102-.137-.117-.07-.112.125.011.415.095-.02-.156-.029-.017-1.084-.514-1.066-.513.027.001.525.223.56.231.163.039-.249-.181-.17-.178.028 0 .54.235.575.235s-.639-.312-.304-.183c.255.099 1.646.701 1.817.752-1.367-.606-1.334-.606-1.686-.786-.068-.035-.546-.24-.603-.268-.243-.115.156.051-.109-.073-.063-.03-.531-.234-.61-.27-.684-.312.377.128.562.204.703.289.096.018.375.127.28.108.616.271.788.331.356.121.296.054.329.035.01-.008-.621-.265-.634-.273-.15-.088.528.169-.721-.365 3.249 1.333-.31-.143.352.097.053.02 1.59.647 1.812.751.22.103-.266-.079.08.081.08.037 1.508.656 1.593.696.67.309-1.62-.648-1.746-.7-1.36-.558.174.116.278.168.476.237.144.126.481.3.218.114 1.71.76 1.657.755-.172-.016-2.254-.913-.473-.08.38.178 2.008.887.715.357-.081-.033-1.26-.528-.528-.185.093.043.566.254.604.274.25.131-.132-.026.04.072.173.099.432.242.262.19-.1-.031-.986-.414-1.204-.507-.626-.266.382.213-.372-.12-.757-.335-1.893-.875-2.39-1.076 1.223.561 2.477 1.139 3.706 1.704-.07.039-.49-.089-.462-.008.005.011.663.31.684.33q.011.01.011.015c.002.035-.386-.117-.23-.007.134.095.811.452.972.563-1.396-.647-.943-.383-1.084-.416-.048-.012-.418-.191-.542-.242-.46-.191.771.39.96.49.807.431-1.964-.911-1.912-.844.002.003 1.465.746 1.555.794.589.314-.514-.247-.63-.288-.21-.074-.569-.232-.15.007.123.07 1.03.543.314.207-.094-.044-.58-.286-.609-.298-.488-.207 1.038.552 1.546.826.508.275-.559-.223-.864-.37-.791-.379-.33-.178-.407-.217-.912-.466-.763-.369-.848-.394-1.495-.746-1.414-.684-.08-.023.145.072.01-.009.08.023 1.46.745 1.636.864.256.198-.647-.312-1.39-.699-1.132-.529.116.077 1.145.591 1.419.746.622.355-.355-.091-.22.016.049.04.615.315.668.352.14.099-.29-.098-.085.034.02.012.608.309.612.32.042.086-.356-.064-.394-.017-.017.022.281.236.202.229-.133-.01-1.009-.405-.823-.258.118.094.703.399 1.094.621.757.432-.64-.266-.854-.376-.007-.003-.133-.098-.437-.247-.626-.326.434.246.437.247-.14-.07-.294-.099-.188-.031.059.037.61.331.63.345.461.323.568.459.28.378-.013-.005-.625-.342-.645-.349-.29-.116.448.316.877.589s.267.215-.792-.35c.12.094-.36-.133-.65-.273-.291-.139.896.525.919.539.725.467.03.116-.104.106-.065-.006.08.137.195.236.093.079-.19-.066-.024.053.022.016.55.313.57.325.618.38-.663-.363-.896-.49-.844-.46-1.294-.706-.915-.456.086.057 1.926 1.134 2.028 1.208.129.094-.531-.292-.38-.185.013.009.422.244.398.243-.104 0-.369-.09-.355-.02 0 .009.652.376.663.395.052.088 0 .122-.327-.013-.082-.035-.53-.306-.665-.383-.82-.463.348.248.368.265.52.411-.578-.162-.118.216.028.021 1.264.808.178.176-.072-.042-1.182-.69-.437-.225.047.03.62.362.552.343s.296.235-.34-.12c-.2-.111-1.305-.761-.444-.211.061.038 2.017 1.271.647.453-.225-.135-1.665-1.015-.94-.541.14.092.466.28.66.415.297.207-.103-.004.523.412.111.074 1.076.691.327.25-.117-.069-.594-.369-.653-.395-.278-.124.02.11-.333-.06-.124-.061-.894-.547-1.109-.664s-.43-.216-.084.017c.345.234 1.585.988 1.671 1.07.371.358-.405-.007-.566.013-.024.003.42.272.417.297-.013.091.313.485-.652-.057-.772-.435-1.296-.864-1.62-1.025-.154-.078 1.244.867 1.285.901.423.34-.22-.042-.055.123.034.034.61.404.633.43.083.089-.188-.055-.156-.002.015.025.45.313.41.3-.09-.027-.286-.129-.707-.381-.038-.023-.568-.399-.6-.396-.048.005-.47-.234-.076.075.118.093 1.105.765.41.32-.145-.092-1.326-.905-.318-.185.168.119 1.52 1.102.619.512-.237-.155-1.213-.807-1.068-.692.023.018.555.376.6.42.151.15.072.145.215.292.038.04.593.406.633.454.112.133-.06.083-.255 0-.073-.031-.516-.357-.566-.39-.806-.545.261.22.32.269.352.297-.169-.035-.057.089.03.034.544.391.588.425.433.334-.474-.332-.583-.393-.307-.173-.29-.111-.247-.034.017.029.615.44.623.462.058.133-.046.158-.412-.02-.07-.034-.516-.372-.62-.445-.731-.514.234.231.323.305.408.34.003.055.061.132.29.382-.075.321-.315.299-.31-.024-.806-.254-.803-.039 0 .013.584.474.59.491.063.209-.24.119-.159.355.006.019.554.463.58.509.059.097-.002.108-.197-.01-.094-.057-.537-.47-.622-.52-.2-.116-.265-.117-.208-.01.025.046.586.5.577.524-.04.121-.068.267-.36.167a2.6 2.6 0 0 1-.534-.281c-.055-.034-1.13-1.031-.941-.821.294.28.642.608.958.907-.007.35-.558.183-.81.313-.011.006.537.557.519.572-.108.085-.072.344-.694-.137-.06-.047-.959-1.077-.85-.897.02.033.095.209.277.444.027.035.453.51.45.538-.03.153-.228.129-.57-.097-.055-.037-.465-.579-.508-.611-.297-.224-.062.248-.51-.186-.298-.295-.987-1.247-1.699-2.157-.1-.129-.137-.134-.537-.674-1.007-1.359-2.104-2.85-3.178-4.298-.231-.311.017.025-.54-.73l-.415-.554c-.132-.176-.539-.726-.71-.95s.17.238-.033-.024c-.206-.264-.673-.886-.74-.95m10.531 3.443c-.578-.305 1.508.867 1.018.57-.026-.015-.99-.556-1.018-.57m.613-2.018c-.966-.425.433.245 1.179.575.745.328-.886-.446-1.18-.575m-.603-.535c-.769-.319 2.321 1.084 1.709.773a356 356 0 0 0-1.709-.773m-4.504 6.965c-.02-.025-.052-.038-.034-.013.454.609.524.634.034.013m3.829-7.511c-.424-.176.053.056.58.275.424.176-.052-.057-.58-.275m-1.973 2.559c-.03-.018-.063-.027.11.077.558.332.407.227-.11-.077m2.083-2.924c-.14.008-2.746-1.027-2.435-.952.057.013.821.354 1.06.438.436.15-1.192-.519-.309-.189.163.059 1.698.704 1.688.705zm-1.957 2.068c-.028-.015-.06-.019-.033-.004.66.378.725.385.033.004m-1.657.527c-.058-.035-.126-.045-.074-.012 1.046.671 1.188.691.074.012m.502-2.073c-.671-.365-.745-.419.111.015-.05-.013-.063-.005-.11-.015m-5.032-3.805c-.193-.081.017-.004.304.102.089.033.484.187.563.216.155.058-.038-.019.146.049.063.023.69.265.74.284.28.101.122.035.258.08.67.222.918.276 1.218.346.098.024.679.209.431.11l-.634-.217c-.703-.244.424.142.574.19.595.191.651.192.439.111-.092-.035-1.206-.398-.58-.196l.7.23c.144.044.04.004.087.017.096.026.09.023.098.021.016 0 .315.087.182.038-.03-.011-.643-.204-.746-.239-.104-.034-.05-.022.094.022.145.043.626.195.737.229.932.289-.356-.121-.388-.131-.54-.181.2.034.201.019 0-.011-.24-.092-.205-.091.045.003.383.088.328.061-.005-.002-.733-.202-.74-.205-.083-.034-.001-.019.495.097.05.012.691.179.78.2.53.13 1.806.418-.994-.277.11.022.224.045.791.175.365.084 1.066.254.768.178-.067-.017-.682-.161-.735-.176-.224-.058-.023-.018-.34-.096l-.718-.164c-.805-.184.528.115.625.135.723.155.44.084.46.082.004 0-.74-.158-.762-.164-.106-.028-.041-.018.29.044.076.014.712.143.78.156.296.055-.905-.185-.645-.136l.658.129c.939.182-.39-.081-.42-.087-.4-.082.99.179.795.132-.025-.005-.716-.132-.743-.139-.188-.048.003-.021.56.052.085.012.606.097.67.107 1.004.157-.34-.06-.39-.068-.364-.063.765.1-.837-.144.56.055-.342-.065 1.105.067.016.002.683.073.713.075.376.027-.66-.08-1.928-.209-.318-.031 1.213.114 1.326.124.413.038 1.406.134 1.486.141.63.051-2.654-.256-2.655-.257l.67.061c.19.015-.05-.007.157.01.482.04 2.079.174 1.15.088-.12-.011-1.984-.167-1.896-.161.037.002.005-.005.126.003.12.007.722.053.748.055.795.051 1.125.077 2.302.154 1.174.073-1.624-.117-1.936-.14-.311-.022.345.016.574.029.228.012.61.039.74.046.844.039-1.39-.092-1.833-.122-1.052-.065 1.024.052 1.228.053.055.001-.418-.022-.462-.026-.169-.014.48.013-.115-.021-.096-.007-1.345-.063-.428-.027.132.005.65.027.766.029.174.003.287-.001.114-.012-.128-.007-.981-.032-.716-.026.118.002.618.021.799.023.18.002.159-.009.142-.013s-.666-.017-.71-.019c-.249-.007-.561-.018-.56-.018-.08-.013 1.013-.033.651-.057-.027-.001-.71.01-.722.01-.286 0 1.53-.024 2.138-.041-1.386.025-1.135.017-1.287.016-.075-.001-.611.012-.666.013-.815.016.237-.009.453-.016.792-.022-.144 0 .385-.016.526-.016 1.305-.032 1.294-.039-.496.012-1.791.053-2.002.056-.794.017.222-.032.327-.052.105-.015.013-.012.192-.029.323-.031-.637.034-1.077.061-.44.028 1.922-.138 2.43-.175.507-.038-.016-.002.263-.024.279-.023.624-.043.728-.056.105-.015-.799.039-1.33.081-1.123.086-2.302.183-1.888.146.024-.002.645-.052.707-.059.477-.052.505-.07.925-.129.059-.009.748-.077.79-.083.438-.065-.723.062-2.012.198 1.716-.186 2.765-.306 2.773-.326.005-.011-.743.078-1.272.135-.159.018.355-.049.002-.008-1.15.137-2.438.296-1.925.229.024-.003.653-.08.691-.086.249-.04-.954.114-1.1.131-.114.015.618-.092.736-.117 1.92-.283 1.478-.233.155-.031.053-.012-.022-.004.16-.038.062-.012.617-.101.677-.11.939-.158-.346.049-.397.057-.49.073.48-.109-.471.053-.034.005-1.36.249-.392.069.066-.012.67-.12.716-.134.046-.012.753-.162.138-.049-.148.026-1.22.24-.384.068l.704-.144c.67-.141-.664.133.469-.105 1.132-.237 1.977-.432 1.193-.28-.023.004-1.079.229-1.063.223.027-.012.244-.069.236-.073-.004-.003-.658.147-.67.149-.37.068.21-.075.457-.158.047-.016-.843.196-.143.014.765-.202 3.96-.997 3.19-.84-.309.058-4.35 1.113-2.262.543-.525.113.532-.218-.213-.037-.032.008-1.151.335-1.137.328.024-.01.546-.168.579-.181.153-.06-.296.065-.23.034.024-.012.562-.179.59-.194s-.68.206-.34.09c.258-.088 1.698-.561 1.862-.628-1.422.464-1.394.448-1.772.563-.073.022-.567.188-.627.207-.255.082.153-.057-.125.034l-.632.211c-.714.237.373-.135.561-.202.718-.25.088-.037.37-.138s.637-.217.807-.282c.35-.135.266-.125.284-.145.004-.008-.636.226-.65.23-.166.051.511-.208-.766.254 3.295-1.214-.321.112.335-.14.053-.02 1.608-.602 1.839-.681s-.254.109.106-.015c.084-.03 1.55-.55 1.64-.58.698-.235-1.636.609-1.764.655-1.382.503.2-.051.31-.085.507-.161.183-.03.546-.14.235-.07 1.772-.596 1.729-.57-.143.09-2.292.813-.417.223.4-.126 2.086-.686.767-.225-.083.03-1.293.441-.52.202.097-.03.59-.188.632-.199.272-.074-.118.06.074.014.193-.046.48-.117.317-.048-.097.041-1.016.336-1.24.409-.648.209.423-.103-.363.142-.792.245-1.998.598-2.507.763 1.288-.386 2.611-.78 3.908-1.166-.031.062-.436.227-.367.255.01.003.705-.197.734-.198.118-.002-.372.157-.167.131.162-.02.91-.189 1.103-.21-1.486.4-.972.302-1.102.362-.045.021-.444.119-.573.157-.476.139.842-.194 1.052-.238.895-.185-2.097.539-2.018.545.003-.001 1.606-.355 1.706-.374.654-.131-.555.132-.671.17-.211.07-.591.168-.117.086.14-.025 1.144-.226.373-.044-.1.024-.63.138-.661.146-.513.135 1.154-.221 1.722-.323.569-.101-.578.166-.91.237-.856.188-.368.066-.453.083-1.004.2-.829.179-.911.207-1.637.335-1.537.326-.08.028.16-.033.005-.01.08-.028 1.608-.318 1.82-.331.32-.016-.703.147-1.526.299-1.221.263.138-.016 1.267-.235 1.578-.282.708-.104-.34.126-.17.121.062 0 .68-.119.745-.122.172-.01-.291.087-.05.066.023-.002.673-.115.682-.11.084.039-.326.148-.33.199-.002.024.364.018.296.055-.115.064-1.06.234-.825.24.15.005.805-.077 1.253-.117.868-.075-.678.137-.918.165-.008.001-.165-.002-.5.045-.701.082.496-.045.5-.045-.155.02-.3.075-.174.07.07-.002.69-.067.715-.067.562.002.726.057.44.141-.013.003-.71.056-.73.06-.307.056.547.012 1.055.009s.34.036-.856.124c.152.013-.376.073-.696.104-.321.032 1.038-.033 1.065-.033.862.009.085.076-.034.129-.059.026.14.067.289.09.12.019-.198.038.006.053.027.002.633-.011.656-.01.725.011-.756.024-1.02.032-.961.031-1.473.043-1.02.062.103.003 2.235.004 2.36.017.158.016-.606.013-.421.029.015.002.487 0 .466.011-.09.051-.365.101-.319.151.005.007.753.009.772.019.088.051.059.108-.293.144-.088.009-.611-.014-.767-.016-.94-.015.425.047.45.052.654.11-.584.118 0 .228.034.005 1.494.13.239.069-.084-.003-1.368-.07-.491-.001.054.004.716.037.647.05-.068.012.371.071-.356.043-.23-.009-1.51-.089-.491.008.071.004 2.373.221.782.107-.262-.019-1.944-.158-1.084-.065.167.019.543.041.776.074.36.05-.093.035.654.128.132.015 1.27.141.404.076-.136-.011-.697-.068-.76-.066-.305.007.067.082-.325.077-.137-.002-1.043-.104-1.287-.118-.243-.015-.479-.02-.067.038.413.059 1.857.207 1.97.241.49.153-.367.143-.502.208-.02.01.496.071.503.092.029.075.49.281-.609.162-.88-.1-1.535-.263-1.895-.291-.171-.015 1.49.281 1.542.295.525.13-.216.03.004.103.045.015.72.129.751.141.113.043-.192.011-.14.041.024.014.538.108.497.11-.093.004-.312-.018-.797-.091-.044-.007-.68-.141-.707-.132-.04.016-.52-.052-.035.07.145.037 1.316.273.504.126-.17-.03-1.574-.32-.363-.055.201.043 1.83.415.773.213-.279-.054-1.43-.284-1.25-.238.028.007.657.135.716.155.2.07.127.083.317.154.052.019.703.15.76.174.156.069-.018.072-.227.056-.079-.007-.613-.137-.672-.149-.95-.206.328.095.401.117.441.13-.165.01-.011.071.04.017.65.157.705.171.527.141-.564-.13-.687-.15-.347-.058-.305-.02-.232.022.027.016.735.179.75.192.11.078.03.114-.37.059-.076-.01-.616-.155-.74-.186-.868-.212.307.11.418.144.508.153.028.035.113.074.424.197.08.212-.135.226-.276.02-.806-.065-.698.053.006.008.72.22.734.23.153.112-.143.084.043.207.014.01.688.218.733.241.097.05.053.059-.166.006-.106-.026-.678-.224-.772-.246-.222-.053-.276-.05-.174.003.044.023.733.238.738.251.045.092.138.204-.768-.035-.062-.017-1.448-.493-1.186-.392l1.247.434c.188.174-.323.092-.429.152-.004.003.727.265.722.272-.026.038.159.157-.58-.074-.071-.022-1.349-.508-1.16-.424.035.016.199.097.474.208.042.016.64.24.654.253q.117.105-.448-.057c-.062-.018-.692-.27-.742-.285-.346-.106.124.11-.459-.093-.392-.137-1.481-.575-2.558-.994-.152-.059-.18-.06-.805-.308-1.571-.624-3.29-1.311-4.966-1.975-.361-.143.025.017-.845-.333-.058-.023-.346-.142-.642-.26l-1.102-.438c-.261-.104.272.106-.035-.017-.31-.125-1.034-.41-1.12-.446m10.692.696c-.653.039 1.738-.057 1.166-.049zm-.592-1.305c-1.012.301.484-.112 1.266-.344.78-.235-.96.251-1.266.344m-.778.089c-.79.26 2.452-.741 1.79-.558-.037.01-1.744.543-1.79.558m-.102 4.145c-.03-.011-.06-.017-.032-.005.706.281.768.292.032.005m-.73-3.994c-.434.151.07-.009.61-.196.434-.151-.072.007-.61.196m-.352 1.53c-.035-.002-.068 0 .134.011.648.034.465.018-.134-.011m.254-1.683c-.108.074-2.73 1.066-2.438.944.053-.023.838-.313 1.073-.406.426-.173-1.218.455-.34.109.16-.065 1.717-.655 1.709-.648zm-.572 1.344c-.031.002-.06.008-.03.007.76-.027.82-.042.03-.007m-1.17.406c-.068-.007-.132-.007-.07.001 1.234.144 1.367.135.07-.001m-.593-.484c-.756.11-.845.125.103-.023-.05.01-.057.014-.103.023"/></svg>