<svg xmlns="http://www.w3.org/2000/svg" width="97" height="91" fill="none" viewBox="0 0 97 91"><path fill="#fff" d="M8.143 26.036c1.431-.056 3.242.357 4.598.798.425.137.163.538.455.651.57.222 1.135.067 1.693.315.185.085-.114.732.082.805 1.073.396 2.124.314 3.21.538a61 61 0 0 0 1.94.367c1.115.205 2.525.317 4.37.816 1.832.466 4.009 1.655 5.375 3.106 2.743 2.943 3.545 5.685 4.408 8.273l.159.53c.591 2.013.636 4.467 1.386 6.356.087.218.625-.06.683-.028.892.5-.32.562-.364 1.045-.18 1.902.196 3.848.772 5.484.246.696 1.243-.26.75.594-.034.06-.685.005-.71.214-.054.476.226 1.295.245 1.65.036.682.063.79.178 1.42.152.86.04 1.936.349 2.83.068.191.65-.186.816.108.165.292.263 1.136.164 1.44-.098.308-.616.278-.721.348-.887.58.612 1.299.667 1.419.956 2.15.52 4.215.865 6.325.237 1.437.68 2.936.914 4.325q.042.248.073.483c.23 1.745.14 3.562.521 4.496.029.06.714-.26.735-.23-.008.015.078-.104-.533-.71-.307-.29-.935-.665-1.616-.767a3.04 3.04 0 0 0-1.445.101c-.525.195-.492.258-.45.222a4 4 0 0 0 .35-.267c.652-.555 1.485-1.356 2.388-2.11.183-.153.524.49.74.359 1.317-.818 3.745-1.939 1.923-4.347.296-.326.616-.684.983-1.038.43-.404.94-.81 1.485-1.019.637-.25.9.626 1.062-.134.038-.172-.6-.366-.503-.597.396-.958 1.206-1.746 1.516-2.753.063-.207-.432-.488-.482-.594-.39-.88 1.181-.74 1.367-.833 1.38-.675 1.707-1.65 2.437-2.66.171-.237-.65-.39-.508-.634.742-1.25 1.65-2.438 2.746-3.42.242-.212.61.395.752.312.625-.371-.296-1.192.288-1.567.122-.08.534.299.598.313 1.008.226.081-.815.114-.914.377-1.26 1.994-1.108 2.52-2.218.062-.134-.701-.264-.492-.616a30.6 30.6 0 0 1 5.153-6.466c.308-.294.573.25.641.266 1.08.224.116-.776.15-.917.305-1.091 1.813-1.27.89-2.788 3.037-3.42 4.843-7.663 8.58-10.56.047-.037.543.425.632.349 1.088-.925.08-1.297-.462-2.763-.138-.364 1.53-.081 1.658-.068.47.048 1.162.803 1.271.786.874-.16-1.91-1.932-1.44-2.624.02-.019.46.415.55.39.28-.076.204-.393.498-.453.677-.135 2.096.628 1.748-.518-.047-.147-1.674-1.08-1.178-1.652.197-.226.915-1.338 1.224-1.579.308-.237.664.311.7.304 1.215-.371 1.278.125 2.538.37 1.256.242-1.144-1.215-1.288-1.56-.143-.345.803-.57 1.1-.6.29-.022.48.38.678.32 1.298-.409-.89-1.167-1.064-1.705-.403-1.198 1.49-.706 2.164-1.08a.6.6 0 0 0 .093-.066c.163-.142-.325-.266-.258-.444.268-.701 1.034-.676 1.004-1.7-.003-.17-.688-1.393.32-1.252.144.023.48.454.746.262.393-.276.95-.913 1.068-1.41.088-.368-.854-.488-.382-.726.212-.108.422.485.785.26.36-.221.864-1.047 1.042-1.365.176-.313-.477-.49-.499-.539-.118-.28-.012-1.045.015-1.09.753-1.314 1.717-2.47 2.404-3.595.34-.545.594-1.16.601-1.467.003-.153.001-.166-.055-.221-.057-.053-.242-.135-.5-.163-.168-.019-.237.672-.265.675-.54.175.24-1.525-.187-2.208-.114 1.386-.364 1.087-.903 1.214-.263.064-.136.606-.164.66-.354.803-.627-.244-.694-.46-.261-.788-.542.158-.734-.363-.204-.516.182-1.316-.37-1.277-.124.504.347 1.775-.044 2.009-.788.48-2.013.497-3.211.443-.976-.05-1.938-.155-2.528-.118-1.265.078-1.657.234-2.427.174-1.371-.109-.733.763-1.49 1.334-.738.57-.737-1.83-.938-2.313-.201-.481-.242.056-.435-.194-.193-.251.066-.646-.297-.691-.373-.043-1.134 1.007-1.17 1.553-.06 1.155.558 2.248-.409 1.996-.055-.015.002-.658-.205-.685-1.665-.192-3.29.076-4.947-.043-.225-.017-.162-.734-.295-.752-1.39-.188-.712.872-1.182 2.282-.165-1.725-.754-2.688-1.757-2.505-.603.11-.352.83-.637 1.426-.084.18-.607-.245-.616.117-.029 1.187.615 2.382-.504 2.076-.049-.015-.03-.666-.191-.673-1.049-.05-.938 1.165-1.987 1.524-.826.282-2.478-.138-3.468-.058-.367-1.906-1.192-1.284-1.293.103-.637.075-1.298.289-1.94.233-.222-.018-.2-.597-.238-.65-.597-.85-.605.482-.73.56-1.362.79-2.761.076-3.957 1.314-.043.045.158 1.38-.421.497-.039-.061.297-.76-.372-.666-.667.093-2.061-.349-2.839.457-.185.193-.522 1.385-1.147.645-.084-.1-.1-.493-.232-.685-.423-.61-.283.754-.858-.306-.576-1.06-1.434-1.761-2.19-.78-.025.03-.016 1.132-.308 1.178-.463.072-1.172-.004-1.653.108-.23.054.061.677.024.698-1.473.707-2.703.365-4.425.48-.312.019-.995 1.106-1.738.53-.807-.63-.872-3.988-2.187-2.892-.068.057-.124.178-.173.342-.364 1.102-.408 4.1-1.761 2.474-1.97.992-4.16.352-6.077 1.582-.09.056-.127 1.261-.344 1.296-.337.052-.646-.435-.88-.417-1.017.071-1.82.743-2.769.904-.371.066-.372-.515-.815-.434-.435.08-.526.869-1.195.682-.504-.142-1.368-1.476-2.077-1.417.365 1.111.188 1.42-.15 1.814-.098.116-.203.235-.313.378-.097.127.252.542.217.627-.141.356-.545.062-.666.433-.03.09.17.559.157.659-.11.868-1.234.092-1.422-.048-.727-.522-.681.175-1.131.031-.446-.145-.082-.69-.539-.706-.943-.033-1.952.426-2.791.69-.333.11.115.676.072.706-.234.149-.51.18-.761.232-.43.104-.785.274-.702 1.164-1.782-3.067-.28.476-1.502.226-.097-.02-.841-1.509-.64-1.858.203-.35.85-.056 1.123-.575.061-.122.068-1.797.121-1.918.106-.267.267-.27.437-.135.024-.007.092-.034.116-.04.383.361.845 1.566.899 1.65.83 1.273.965-.55 1.097-.72.623-.786 1.418-.714 1.941-1.326.342-.399-.224-1.923.122-2.01 1.14-.292 2.449 1.61 2.685-.649a.4.4 0 0 0 0-.068c.027-.01.104-.047.13-.056.027-.55-.773-1.945.795-1.084.119.049 1.259 1.027 1.44.14.021-.113-.122-.61-.065-.672.386-.4.799-.083 1.226-.398.429-.316.925-.743 1.505-.705.353.022.98.862 1.197 1.053.581.56.788-.636 1.245.103.46.742.232 2.087 1.045 2.446-.282-1.316-.538-2.674-.805-4 1.569-.32 3.16-.237 4.697-.647.193-.052-.161-.713.034-.786.827-.305 1.709.024 2.552-.375.627-.297 1.17-1.122 1.823-1.515q.057-.036.117-.066c.766 1.405 1.735.654 2.549.618.287-.014.362.39.58.48.834.323.2-.93.355-1.183.678-1.085 1.4 1.908 2.41 1.608.057-.016.358-1.762.427-1.882.434-.777.218.537.606.576.718.07 1.243.356 1.923-.285.202-.19.516-1.304 1.125-.627.08.088.163.625.216.646.96.334.615-1.335.973-2.003s1.356.32 1.575.62c.578.773-.223.431-.226.52-.033 1.055.466.767.898.763.41 1.62.969 1.398.446-.011-.058-.154-.348.068-.446.01.017-1.68.616-2.023 1.635-.675.479.632.34 1.518 1.28 1.004.422-.231.008-1.32.342-1.711.768-.895 2.176-.096 3.087-.46.329-.132-.133-.679.087-.79.585-.297 1.234.05 1.807-.317.052-.034-.221-.65-.029-.7 1.459-.381 2.827-.233 4.37-.535.744-.147 2.003-.773 2.79-.856 1.364-.15 3.192.467 4.297.014.717-.292.424-.906.661-1.41.461-.977 1.84.348 2.039.556.004.007-.61.283-.204.55.333.655.197-.545.204-.55.13.134 1.437.039 1.672-.133.128-.094-.066-.694.003-.73 1.615-.872 3.337-1.347 5.149-1.366.033.007.106.703.183.711 1.062.13 1.59-.826 2.343-1.465.781-.643 1.47-.581 2.171.524.608-.249 1.638.133 2.198.377.59.24.473-1.116.518-1.15a2.62 2.62 0 0 1 1.822-.601c.657.017 1.3.18 2.145.162.785-.02 2.36-.332 3.39-.472.825-.113 1.296.216 2.285.135.135-.01.084-.628.128-.645 1.31-.525.499.853.68 1.153.344.567.631 1.025 1.048 1.389.429.396 1.046.583 2.243 1.403.27.199 1.168.327 2.1.904.938.566 1.758 1.474 1.907 2.172.3 1.703-.5 1.106-.426 2.428-.003.105.48.17.329.838-.783 2.88-1.915 4.052-2.634 5.514-.103.19.686.316.545.601-.655 1.324-1.47 2.565-2.466 3.464-.245.216-.578-.234-.745-.26-1.017-.16-.2 1.086-.228 1.177-.631 2.005-2.233 2.833-3.165 4.497-.134.24-.255.5-.359.79-.04.122.628 1.75-.65 1.395-.085-.023-1.388-.391-.875.418.033.05.73.2.413.549-.31.337-.363 1.205-1.325 1.327-.301.036-1.626-.296-1.12.779.035.075 1.428 2.138-.076 1.514-.247-.103-1.61-1.1-1.3-.018.061.209.514.213.503.647-.01.659-.792 1.004-.557 1.995.04.176.709 1.23-.238 1.076-.148-.025-.546-.441-.719-.3-.827.677-1.106 1.754-2.015 2.393-.318.222-.965-.445-1.38-.27s-1.044.68-.925 1.243c.12.562 1.563 1.024 1.323 1.58-1.049 2.427-3.206 4.067-4.774 6.13-.234.306.375.338.063.81-1.15 1.743-2.793 4.986-4.732 5.85-1.55.691-1.069-1.191-1.994-.485-.446.344.614 1.78.584 1.916-.27 1.34-1.389 1.643-1.844 2.704-.095.221.599.42.511.604-.293.632-.948 1.04-1.275 1.611-.146.257.315.51.128.709-.443.48-.943.814-1.707 1.056-.07.022-.383-.667-.675-.288-.47.612-1.413 1.12-1.511 2.134-.027.302.948.992-.051.983-.21 0-1.3-.944-.662.308.102.213.85 2.062-.352 1.902-.316-.044-1.488-.414-1.517-.05 0 .051.623.278.525.528-.356.875-.969 1.63-1.353 2.528-.102.241.66.31.491.657-.457.944-1.346 1.914-2.106 2.63-.282.265-.58-.266-.645-.278-1.05-.2-.124.767-.145.928-.158 1.02-1.042 1.2-1.41 2-.099.214.507.443.526.513.168.705-.543-.236-.818-.063-.525.32-.957.837-1.287 1.329-.16.238-.305.477-.44.707-.158.273.638.41.489.65-.889 1.449-1.974 2.83-3.37 3.998-.266.221-.58-.288-.724-.31-.987-.18-.477 1.141-.49 1.342-.08.943-.662.872-1.089 1.501-.63.826-.998 1.567-3.02 3.004-.532.335-1.226.79-2.593 1.172-1.194.376-3.704.468-5.612-.534-3.73-2.182-3.722-3.902-4.23-4.776-.67-1.857-.71-2.718-.856-3.666-.114-.906-.175-1.674-.235-2.377a58 58 0 0 1-.092-1.265c-.182-2.956-.183-5.47-.797-8.358-.044-.21-.742.128-.789-.05-.575-2.302-.698-4.641-1.349-6.915-.052-.186-.693.219-.8-.075-.224-.603-.34-1.396-.243-2.066.045-.327.72-.034.754-.362a5 5 0 0 0-.293-2.25c-.114-.303-.721.316-.814-.087-.653-2.735-1.38-5.347-1.202-8.197.012-.197 1.381-.745.998-1.056-.399.085-.858.22-1.279.329-.332-.926-.63-1.833-.91-2.667-.409-1.217-.812-2.326-1.158-3.043-.169-.355-.31-.586-.347-.671-.046-.09.062-.04.102-.043.011.001-.32.705-.277.72.263.04-.662-.007-2.368-.392a8.5 8.5 0 0 1-1.354-.459c-.207-.09-.006-1.445-.64-1.284-.112.03-1.06.14-1.323.415-.037.042.082.692-.22.686a18 18 0 0 1-5.214-.925c-.269-.091.092-.738-.098-.809-1.35-.499-2.905-.144-4.154-.897-.834-.507-.384-1.64-.727-2.839-.048-.169-.589-.253-.545-.924.109-1.69.57-3.502.654-5.306.018-.388-.753-.05-.222-.937.036-.06.596-.312.76-.615.113-.209.024-.906.238-1.167.214-.26.355.332.695.036.34-.3.29-1.089.906-1.116M80.877 4.521q.055.057.1.08c.436.201.26-1.674-.16-1.301a.4.4 0 0 0-.051.06c-.022.033.082 1.133.111 1.161M23.115 16.446c.854.888.938-.723.32-1.418-.632-.691-.576 1.149-.32 1.418m-6.264 2.273c.926.627.234-2.697-.392-1.834-.038.05.337 1.798.392 1.834M7.855 35.97c-.003-.032-.391-.105-.404-.075-.288.734.487.878.404.075m2.93-14.246c.39.336.79-.41.306-.824-.386-.334-.784.404-.305.824m72.027.922c-.015-.006-.061.035-.092.092-.036.067-.049.158.045.217.234.148.38.157.425.1.065-.08-.05-.279-.378-.41M.476 25.857c1.56-.55 3.576 1.635 1.828 2.051-.317.077.277-1.097-.2-1.164-.874-.12-.618 1.692-1.7 1.141-.197-.101-.02-2.002.073-2.032zM81.512 7.34c.015.03.41.013.414-.019.125-.78-.675-.746-.414.019m-9.148 28.048c-.067-.021-.632.694-.596.75.758 1.092 1.9-.346.596-.75M56.043 13.654c-.263.834-.741 1.024-1.265.152.423-.035.84-.113 1.265-.152m-33.163 14.9c.105-.296.49-.252.85-.1.113.046.281.437.368.486.17.096.154-.132.339-.009.061.043.343.654.4.686.312.17.394-.069.637-.036 1.195.163 2.175-.05 3.2-.198.336-.05.95.337 1.14-.042.022-.045-.244-.572-.258-.62-.2-.725.256.375.39.488.531.444.854.36 1.021.038.073-.139-.51-1.163-.132-.61.025.037.247.623.305.671.13.107.214-.051.288-.029.142.046.158.032.257-.003.137-.042.421.176.506-.014.018-.043-.272-.617-.266-.738s.158-.126.26-.005c.103.122.279.595.331.698.44.874.065-.434.073-.473.136-.673.727-.083 1.052-.216.249-.104.422-.447.67-.507.3-.07.662.162.918-.001.026-.016-.248-.637-.249-.72q0-.007.003-.009c.342-.226.748-.293 1.301.043.056.035.241.673.31.745.42.424 1.233 1.516.364-1.238.194.048.423.087.761.582.218.319.382 1.028.384.699.001-.074-.25-.655-.231-.72.077-.276.316-.144.358-.507.008-.075-.195-.604-.221-.703-.208-.804.385.433.446.517.458.62.508.292.707.24.047-.012-.265-.709-.23-.746.184-.182.439-.204.77.035.074.055.249.681.296.739.202.246-.188-.914-.001-.7.039.043.214.57.239.626.38.88-.025-.415-.02-.449.055-.454.651.836.769.582.013-.032-.272-.676-.22-.725.35-.33.852-.303 1.448.082.093.06.222.573.248.633.403.935-.007-.364-.003-.42.04-.405.571.618.146-.95.879.287 1.27-.813 2.434.32.014.014.218.652.245.675.333.283-.048-.687-.327-1.94-.07-.314.54 1.103.586 1.206.17.381.461 1.336.5 1.408.3.564-.793-2.547-.665-2.592.006.003.187.583.218.636.095.168.05-.072.15.114.233.431.784 1.937.593 1.016-.025-.12-.658-1.88-.515-1.836.058.019.25-.081.346.014s.254.678.266.701c.412.702.462 1.034.923 2.123.459 1.086-.476-1.558-.547-1.865-.07-.306.256.278.358.484.102.207.192.581.259.695.437.744-.383-1.34-.474-1.78-.217-1.04.556.894.738 1.047.049.041-.13-.398-.117-.45.055-.197.332.394.263-.212-.011-.099-.317-1.315.046-.47.052.122.194.621.279.715.127.14.29.204.309.015.013-.14-.328-.927-.172-.7.07.102.175.594.291.745.117.151.257.08.308.044s-.19-.638-.2-.68a2.1 2.1 0 0 1-.037-.582c.454-.239 1.256.64 1.603.139.029-.039-.218-.676-.216-.689.034-.314.523 1.438.81 1.983-.463-1.307-.33-1.088-.29-1.262.018-.085-.18-.585-.193-.638-.201-.793.184.188.265.388.299.735.04-.166.24.326.2.487.386 1.247.469 1.208-.137-.478-.622-1.682-.625-1.903-.013-.836.772-.03 1 .004.229.032.264-.076.435.054.309.237-.08-.647-.094-1.108-.015-.46.694 1.8.878 2.274s.033-.027.146.23c.114.256.178.6.265.68s-.067-.823-.22-1.332c-.328-1.08-.78-2.175-.504-1.83.016.02.193.617.245.666.39.363.656.31 1.022.61l-.022.008.02.015c.056.041.285.696.32.727.368.33-.14-.724-.515-1.972.62 1.611 1.076 2.566 1.229 2.515.092-.03-.206-.722-.346-1.239-.042-.155.217.298.096-.035-.394-1.09-.94-2.269-.59-1.853.015.02.23.617.269.643.247.171-.192-.958-.083-1.161.09-.16.593.433.784.486.726 1.799.7 1.33.253.067.117.012.188-.098.35.035.056.046.246.575.273.63.422.856-.027-.367-.026-.423.035-.55.59.29.437-.69-.005-.035-.504-1.287-.075-.4.029.062.192.658.308.662.12.002.585.593.482-.04-.023-.154-.352-1.201.041-.439.053.104.19.466.285.66.303.616-.192-.654.297.397.487 1.05.926 1.808.761 1.012-.004-.024-.382-1.036-.332-1.038.077-.001.268.164.338.127.034-.018-.245-.629-.243-.642.088-.443.484.04.84.173.065.026-.153-.874.215-.244.403.69 1.56 3.773 1.489 2.954-.028-.328-1.516-4.232-.52-2.303.113-.627.829.274.855-.564.002-.037-.393-1.135-.353-1.134.06.003.292.497.343.515.209.092.178-.398.352-.388.066.003.251.535.326.54.078.003-.143-.707.076-.406.164.23.742 1.634.867 1.778-.484-1.415-.418-1.406-.426-1.817-.001-.08-.18-.57-.188-.633-.033-.27.136.129.098-.164-.008-.07-.148-.562-.16-.648-.037-.23-.016-.289.028-.254l-.028.007c.078.084.295.64.348.768.285.708.125.062.265.331.145.268.177.65.3.802.258.31.423.163.57.131.059-.016-.227-.636-.224-.653.044-.203.431.422-.027-.858 1.419 3.213-.065-.341.355.244.034.048.7 1.568.747 1.813.044.247-.23-.201-.156.18.02.088.509 1.569.527 1.663.157.731-.777-1.568-.832-1.693-.6-1.344-.108.262-.108.386.025.557-.24.28-.267.687-.02.264.447 1.82.345 1.799-.114-.024-.266-.296-.403-.563-.012-.001-.047.018-.06.016-.165-.543-.381-1.04-.04.209.11.405.697 2.081.192.778-.027-.084-.517-1.266-.284-.49.03.097.209.583.218.626.057.278-.117-.097-.1.108.02.204.06.504-.069.366-.078-.082-.49-.956-.598-1.167-.314-.607.04.453-.307-.295-.35-.751-.744-1.948-1.053-2.4.503 1.247 1.014 2.53 1.52 3.784-.235.045-.624-.265-.831-.115-.026.02.28.676.26.715-.084.159-.4-.268-.453-.024-.043.193.135.948.099 1.172-.662-1.392-.618-.844-.796-.922-.062-.027-.216-.409-.296-.52-.3-.413.272.822.323 1.032.218.899-.976-1.938-1.098-1.806-.007.006.519 1.565.544 1.665.164.653-.233-.522-.337-.61-.184-.164-.401-.498-.339-.004.019.147.326 1.126-.042.422-.048-.092-.25-.595-.269-.622-.33-.437.316 1.14.46 1.705.143.566-.413-.478-.566-.781-.394-.787-.097-.366-.126-.447-.352-.963-.366-.766-.463-.82-.644-1.542-.695-1.413-.098-.05.066.149.056-.016.098.05.569 1.539.544 1.776-.14.4-.323-.643-.593-1.438-.629-1.092-.017.157.446 1.21.502 1.526.129.721-.453-.2-.538.017-.03.078.26.64.248.714-.03.197-.29-.208-.295.056 0 .024.27.626.243.646-.204.166-.547-.15-.794-.063-.115.041-.178.46-.326.44-.255-.029-.856-.82-.95-.532-.058.185.215.786.335 1.222.233.845-.517-.535-.63-.75-.004-.007.037-.19-.142-.484-.294-.642.142.48.142.484-.055-.104-.212-.164-.284-.13-.042 0-.154.075-.195.073q-.037.014-.038.063c.002.073.219.659.215.685-.083.621-.298.863-.668.682-.01-.01-.23-.673-.248-.689-.255-.24-.076.602-.042 1.127s-.12.398-.587-.71c-.047.176-.363-.276-.546-.553-.184-.278.247 1.013.25 1.04.06.89-.324.198-.588.16-.127-.019-.281.242-.348.423-.053.145-.212-.138-.232.084-.002.03.206.599.21.622.14.719-.295-.698-.4-.941-.385-.885-.594-1.355-.569-.885.006.107.616 2.152.605 2.288-.015.172-.238-.56-.248-.36 0 .016.153.462.103.457-.228-.017-.533-.203-.727-.086-.026.014.252.709.218.74-.161.15-.382.196-.682-.071-.074-.068-.216-.573-.276-.717-.367-.869-.01.454-.015.483-.13.74-.79-.342-.948.335-.007.04.325 1.475-.15.31-.03-.078-.514-1.272-.284-.421.014.053.27.665.178.625s-.06.417-.393-.237c-.105-.206-.595-1.394-.352-.396.017.07.632 2.302.061.812-.093-.245-.636-1.843-.462-.988.035.166.195.508.218.75.035.37-.223-.019-.08.727.026.132.325 1.241-.02.44-.055-.125-.22-.664-.274-.712-.251-.233-.288.178-.57-.136-.1-.11-.37-.98-.508-1.191-.138-.21-.33-.393-.254.021s.619 1.763.567 1.904c-.224.612-.888-.058-1.318-.04-.064.003.156.477.074.515-.3.146-.675.794-1.313-.151-.511-.757-.462-1.488-.748-1.769-.137-.133.339 1.488.337 1.545-.008.576-.389-.083-.481.194-.02.057.244.69.225.731-.06.148-.27-.102-.349-.015-.034.04.15.53.096.506-.126-.051-.284-.228-.541-.656-.024-.039-.185-.671-.264-.669-.128.006-.433-.398-.396.119.011.155.413 1.28.051.534-.076-.156-.538-1.514-.217-.313.053.2.455 1.831.01.847-.117-.26-.57-1.343-.554-1.153.004.03.247.624.23.697-.065.245-.233.233-.304.473-.018.065.264.669.229.746-.095.213-.343.123-.563-.017-.082-.053-.233-.584-.257-.638-.399-.89.014.357.02.436.026.479-.288-.063-.354.135-.019.053.222.632.234.687.12.538-.217-.537-.304-.637-.245-.284-.362-.187-.46-.065-.035.045.269.707.234.74-.197.206-.47.234-.844-.053-.07-.055-.24-.589-.294-.705-.377-.813-.04.363-.021.48.09.532-.123.084-.175.203a.72.72 0 0 1-.584.452c-.249.043-.514.004-.748-.014-.595-.045-1.181-.383-1.603-.061-.027.02.286.695.266.721-.263.302-.696.168-.939.505-.02.026.295.659.272.723-.044.135-.168.147-.345-.022-.086-.08-.269-.661-.35-.732-.191-.164-.32-.163-.378-.014-.024.065.332.696.279.729-.357.235-.67.512-1.445-.158-.053-.046-.695-1.365-.633-1.083.167.37.37.804.552 1.199-.448.468-1.2.27-1.78.476-.025.009.367.681.322.701-.258.12-.401.436-1.026-.107-.061-.053-.687-1.268-.669-1.043.004.04-.03.265.08.542.017.042.339.593.31.63-.174.203-.475.2-.888-.018-.068-.036-.354-.654-.405-.685-.36-.214-.317.351-.797-.088-.323-.296-.845-1.35-1.468-2.325-.089-.138-.178-.118-.506-.705-.827-1.475-1.684-3.117-2.57-4.687-.19-.338-.091.085-.483-.77-.026-.058-.102-.371-.237-.66-.093-.2-.447-.786-.556-1.047s.196.225.08-.09c-.118-.317-.513-.988-.469-1.117m29.878-.276c-.287-.592.479 1.674.374 1.105-.006-.03-.36-1.076-.374-1.105m8.811-3.868c-.497-.937.033.523.41 1.25.378.724-.26-.966-.41-1.25m.654-1.097c-.41-.732.823 2.428.673 1.75a94 94 0 0 0-.673-1.75m-34.457 13.86c-.016-.027-.086-.024-.072.005.337.681.476.675.072-.004M62.84 22.222c-.118-.3-.132-.127-.063.188l-.017.005c.024.111.059.241.1.375.005 0 .02-.007.024-.007l.031.085c.166.43.137-.113-.075-.646m-14.765 4.964c-.013-.033-.066-.049 0 .142.214.612.214.418 0-.142m16.52-5.686c-.3-.007-1.552-2.52-1.176-2.339.07.032.259.863.42 1.068.295.374-.345-1.268.148-.455.091.149.63 1.73.61 1.73zm-12.814 4.075c-.011-.03-.081-.037-.072-.007.214.73.354.746.072.007m-6.688 1.076c-.025-.063-.183-.074-.168-.014.337 1.198.657 1.226.168.014m9.988-4.162c-.222-.735-.18-.85.232.02-.083-.022-.15-.003-.232-.02"/></svg>