<svg width="82" height="112" viewBox="0 0 82 112" fill="none" xmlns="http://www.w3.org/2000/svg">
<path d="M72.9345 111.855C71.0579 111.729 68.6581 111.058 66.8517 110.388C66.2854 110.179 66.6642 109.822 66.2777 109.659C65.5226 109.339 64.744 109.391 64.0025 109.033C63.7575 108.913 64.2192 108.324 63.9597 108.213C62.5392 107.606 61.0964 107.456 59.6213 106.951C52.3761 104.467 45.1166 101.804 38.2876 97.6492C36.0289 96.2852 33.6864 94.0486 31.3814 92.634C31.1106 92.4693 30.9046 93.0525 30.8272 93.0549C29.6158 93.0655 30.5916 92.3128 30.2054 91.8088C29.8698 91.3679 29.512 90.9355 29.1379 90.5114C27.8212 89.0182 26.3433 87.6508 24.9427 86.4961C24.1804 85.8659 24.0395 87.3927 23.8102 86.2179C23.7941 86.1375 24.4174 85.8809 24.2774 85.6406C23.9598 85.0999 23.0901 84.3339 22.8106 83.9508C22.2753 83.2141 22.1702 83.1047 21.6132 82.4565C20.8557 81.5636 20.21 80.3009 19.3251 79.4142C19.1343 79.2253 18.8513 79.9019 18.5003 79.6341C18.1476 79.3662 17.4977 78.4343 17.3905 78.0385C17.2818 77.6431 17.7831 77.4697 17.8351 77.3466C18.2859 76.326 16.4377 76.0859 16.3112 75.9641C14.0646 73.8093 13.2701 71.1824 11.7992 68.7565C10.6788 66.9098 9.32238 65.0175 8.39341 63.1756C7.28967 60.9787 6.69334 58.959 5.66468 56.8097C5.55732 56.5825 4.98791 57.1591 4.85511 56.8808C3.44187 53.9055 2.31563 50.7918 1.82254 47.4484C1.77529 47.1153 2.53309 47.3305 2.52521 46.9896C2.51452 46.5043 2.52085 45.9017 2.52051 45.3265C2.48876 43.4189 2.34857 41.4305 0.0458901 40.7675C-0.0579774 39.2996 -0.0633893 37.4445 0.578104 36.0874C0.99677 35.225 1.65966 36.1257 1.43495 35.049C1.39003 34.8056 0.728819 35.0553 0.712386 34.6853C0.65326 33.0802 1.2766 31.3725 1.75394 29.682C1.84866 29.3402 1.30715 29.1605 1.26488 29.0199C0.956837 27.7829 3.01353 27.2797 3.26877 27.1601C5.17069 25.9609 6.27166 25.0139 7.73923 24.153C7.87616 24.0749 8.01544 23.9993 8.15915 23.9261C8.56086 23.725 7.73644 23.291 8.12196 23.0706C10.1314 21.926 12.7488 21.2755 15.1201 21.5815C15.641 21.6508 15.1729 22.3049 15.4147 22.3726C16.4314 22.6834 16.7567 21.4836 17.7562 21.8783C17.9611 21.963 17.7587 22.4942 17.788 22.5601C18.2041 23.5893 18.9312 22.364 19.1019 22.3713C19.4867 22.3759 19.8281 22.4534 20.1348 22.5745C21.4264 23.0888 22.1086 24.3055 23.4206 24.8138C23.6218 24.8931 23.5206 24.0399 24.0752 24.3088C27.7326 26.1599 30.3993 28.9734 32.5821 31.7861C32.5981 31.8072 32.6142 31.8284 32.6303 31.8497C32.9651 32.291 32.3176 32.4003 32.2975 32.4711C32 33.5942 33.2003 32.8643 33.3678 32.956C34.6392 33.6814 34.7534 35.4119 36.5763 34.9477C40.3619 39.566 45.0446 43.211 48.0706 48.376C48.11 48.4401 47.5384 48.8148 47.6212 48.9428C48.6066 50.478 49.1058 49.5002 50.8246 49.4122C51.001 49.4049 51.0324 49.6797 51.0011 50.0132C50.969 50.5199 50.8 51.1531 50.7916 51.238C50.7106 51.7348 49.8091 52.2532 49.8229 52.3775C49.9748 53.3857 52.1524 50.9245 52.8153 51.4841C52.8335 51.5062 52.3586 51.9016 52.3782 51.9959C52.4362 52.2887 52.7626 52.2331 52.7756 52.4904C52.7988 52.7923 52.6232 53.2892 52.6222 53.6502C52.5892 54.0215 52.8628 54.1338 52.5965 53.7069C52.5597 53.6553 52.1587 53.3582 51.7539 53.1155C51.3527 52.8537 50.9027 52.7991 51.017 52.5981C51.1178 52.5123 51.3472 50.9909 51.5163 50.5312C51.6952 50.0877 52.253 50.478 52.2832 50.4478C53.227 49.2968 53.4978 49.7907 54.7429 49.2907C55.9841 48.7638 53.1753 48.6493 52.8932 48.3494C52.8417 48.2947 52.825 48.2202 52.8337 48.1325C52.8705 47.7619 53.4125 47.1414 53.6184 46.971C53.8708 46.7596 54.2205 47.0942 54.3715 46.8977C55.3567 45.6209 53.051 46.1484 52.6553 45.656C51.7187 44.484 53.8736 43.867 54.1772 42.9173C54.2596 42.6575 53.766 42.8246 53.7465 42.5841C53.6744 41.6421 54.3786 41.142 53.8967 40.0265C53.8185 39.8416 52.6644 38.8555 53.6347 38.3998C53.7745 38.3351 54.2665 38.6123 54.4236 38.2275C54.6591 37.652 54.8839 36.6001 54.7796 35.9426C54.7019 35.4603 53.7956 35.9079 54.1223 35.3448C54.2681 35.0942 54.7128 35.6349 54.9454 35.1596C55.1775 34.6873 55.2907 33.4297 55.3257 32.9492C55.36 32.4705 54.6877 32.6614 54.6485 32.6182C54.4252 32.358 54.2152 31.407 54.225 31.3261C54.5985 27.2275 56.1144 23.5913 56.2935 19.5678C56.3087 19.2534 55.6037 19.3678 55.5991 19.3189C55.4637 18.2064 57.1459 19.2965 57.8513 18.6428C57.3867 18.6133 57.1124 18.5491 56.9514 18.4482C56.6327 18.2395 56.7598 17.8926 56.7341 17.3745C56.7146 16.9989 56.1543 17.1186 56.1049 17.0772C55.3779 16.4249 56.4801 16.1913 56.7069 16.1348C57.5455 15.8989 56.6823 15.3701 57.2455 15.208C57.8041 15.0513 58.4817 15.7291 58.5899 15.0155C58.1341 14.7336 56.7658 15.0525 56.6506 14.47C56.197 12.2551 58.0221 8.51297 58.7195 6.88994C59.3889 5.25352 59.5878 4.66915 60.2499 3.82075C60.2781 3.78594 60.3049 3.75241 60.3305 3.72004C61.5067 2.3412 60.3003 2.41537 60.9942 0.998748C62.0767 -0.514405 62.7996 2.01702 63.2378 2.29826C63.6227 2.65391 63.4955 2.12718 63.7683 2.31846C63.9875 2.53596 63.8902 2.93576 64.1378 2.96417C64.2393 2.98731 64.3279 2.80383 64.597 2.61456C64.8562 2.42066 65.2765 2.26779 65.5511 2.11919C65.6151 2.0828 65.6714 2.04573 65.7153 2.00632C66.6133 1.26778 66.7729 -0.171219 67.802 1.21517C67.8487 1.2915 67.228 1.56621 67.4212 1.83C68.8198 3.88299 69.7674 5.79104 70.3949 7.8575C70.4737 8.13878 69.7411 8.22927 69.7793 8.39565C70.1348 10.0169 70.8223 9.18764 72.2131 9.32765C72.3095 9.33729 72.4093 9.35195 72.5126 9.37305C70.8577 9.91808 70.1444 10.8438 70.6478 12.016C70.946 12.7259 71.5858 12.3091 72.2725 12.5844C72.48 12.6676 72.2022 13.3774 72.5686 13.3459C73.771 13.2569 74.8026 12.2791 74.8002 13.7989C74.7978 13.8659 74.1337 13.8893 74.1686 14.1048C74.3703 15.4723 75.5761 15.2614 76.1383 16.6666C76.5817 17.7779 76.3589 19.9681 76.5069 21.266C74.6059 21.6478 75.2847 22.725 76.6928 22.9728C76.7979 23.8019 77.0371 24.7076 76.9873 25.5284C76.9717 25.8168 76.387 25.7267 76.333 25.7717C75.4833 26.4655 76.8221 26.6003 76.902 26.7783C77.6989 28.6594 76.9324 30.3609 78.1151 32.0998C78.1573 32.161 79.5088 32.1056 78.5906 32.7243C78.5269 32.7645 77.8454 32.2152 77.9015 33.1057C77.9224 33.4534 77.8482 33.9423 77.8007 34.4875C77.7274 35.2673 77.7115 36.1658 78.1529 36.8498C78.3321 37.1354 79.4916 37.765 78.6954 38.447C78.5871 38.5377 78.1941 38.4853 77.9905 38.6204C77.3422 39.0601 78.7162 39.1283 77.6017 39.6667C76.4875 40.2084 75.7009 41.1671 76.5951 42.3259C76.6213 42.3623 77.7207 42.5613 77.7339 42.9472C77.7546 43.5701 77.5954 44.4435 77.6498 45.0895C77.6762 45.3982 78.3304 45.1515 78.3466 45.2043C78.8711 47.2358 78.3737 48.7452 78.2543 50.9705C78.2308 51.3725 79.2158 52.4911 78.5402 53.3117C77.8007 54.2169 74.4647 53.5391 75.3605 55.4538C75.7191 56.2339 79.9453 57.0076 77.8616 58.5613C78.5452 61.312 77.5661 63.9375 78.4612 66.6883C78.501 66.8116 79.6837 67.1535 79.6815 67.45C79.676 67.8898 79.1429 68.1581 79.1212 68.4698C79.0169 69.785 79.5357 70.9616 79.5185 72.2319C79.513 72.7127 78.943 72.5683 78.9362 73.1407C78.9298 73.7119 79.6874 74.0664 79.3622 74.8536C79.1141 75.4482 77.6241 76.0984 77.4798 76.8821C78.9751 76.8496 78.9665 77.3813 79.3999 78.3147C79.4839 78.4942 79.9959 78.277 80.0625 78.3608C80.345 78.7023 79.9272 79.0431 80.2325 79.3639C80.3059 79.4419 80.8163 79.425 80.9051 79.4877C81.6794 80.0193 80.5692 80.9987 80.3756 81.1638C79.641 81.8037 80.3161 82.0627 80.0359 82.5437C79.7557 83.0242 79.3542 82.3384 79.1946 82.893C78.8644 84.0387 79.0041 85.493 79.0253 86.6422C79.037 87.1016 79.7059 86.7619 79.7234 86.827C79.9332 87.7722 79.2455 88.7557 80.6228 89.2311C77.1397 90.0256 80.9851 89.7901 80.3349 91.1739C80.2822 91.283 78.6283 91.4825 78.3689 91.0815C78.1099 90.6801 78.6047 90.0408 78.203 89.4847C78.1087 89.353 76.5242 88.6409 76.426 88.5394C75.6581 87.744 78.1328 87.5312 78.2673 87.482C79.7176 86.9286 78.006 86.0507 77.8806 85.8076C77.3058 84.6912 77.6165 83.7143 77.2002 82.7777C76.9308 82.1652 75.3044 82.1695 75.3346 81.6804C75.4338 80.0516 77.6764 79.3986 75.6492 77.9466C75.2168 77.6367 73.4555 78.0339 74.8025 76.8064C74.8874 76.7287 76.1276 75.8015 75.2988 75.3335C75.1943 75.2747 74.6772 75.2985 74.6302 75.2172C74.3257 74.6737 74.7217 74.2801 74.4983 73.6805C74.2748 73.081 73.949 72.3649 74.0938 71.661C74.1804 71.2378 75.1202 70.6601 75.3472 70.4504C76.0015 69.8518 74.8599 69.2949 75.6669 68.9084C76.4779 68.5183 77.7653 69.1501 78.2575 68.2017C76.9123 68.2287 75.5297 68.2126 74.1759 68.2192C74.1301 66.188 74.4691 64.1682 74.3077 62.1419C74.2863 61.8889 73.5772 62.1843 73.5355 61.9144C73.3631 60.7797 73.8261 59.7556 73.5581 58.5901C73.3474 57.6788 72.5286 56.7329 72.2813 55.781C73.7852 55.1137 73.181 53.719 73.2591 52.6917C73.2856 52.3258 73.6973 52.3251 73.8154 52.0597C74.2505 51.0619 72.9211 51.6003 72.691 51.3498C71.7078 50.2755 74.7739 49.9791 74.6088 48.6425C74.6011 48.5695 72.9051 47.8142 72.795 47.705C72.0781 46.9984 73.3563 47.5423 73.444 47.0575C73.6038 46.172 73.9518 45.547 73.396 44.5658C73.2322 44.285 72.1579 43.65 72.9012 43.0172C72.9985 42.934 73.5424 42.9325 73.5693 42.8696C74.0095 41.735 72.3066 41.8313 71.6798 41.2629C71.0528 40.6916 72.1389 39.6205 72.4592 39.4001C73.2861 38.8055 72.8679 39.7577 72.9557 39.7763C74.0046 40.009 73.7682 39.3343 73.8036 38.7754C75.4605 38.5424 75.2897 37.7959 73.8342 38.2086C73.6753 38.2542 73.8696 38.6588 73.8036 38.7754C72.1272 38.4503 71.8417 37.6536 73.2747 36.5944C73.9462 36.1043 74.8212 36.407 74.3797 35.1434C74.3361 35.0193 74.2488 34.9395 74.1351 34.8853C73.7263 34.6827 72.9792 34.8149 72.6903 34.4366C71.8493 33.3463 72.7293 31.6923 72.3969 30.5024C72.2771 30.0765 71.7105 30.5833 71.6072 30.2975C71.329 29.5289 71.6955 28.7649 71.3357 28.0208C71.3022 27.9536 70.6777 28.2283 70.6315 27.9853C70.2659 26.1508 70.4017 24.4948 70.0151 22.6219C69.8306 21.7146 69.0979 20.2134 68.9215 19.3083C68.6275 17.7351 68.918 15.5759 68.1865 14.3933C67.7164 13.6304 67.1781 14.0665 66.6213 13.9042C65.8883 13.6971 66.0692 12.8132 66.2803 12.1487C66.3799 11.8356 66.4962 11.5888 66.5397 11.5014C66.544 11.4966 66.7874 11.8171 66.9737 11.819C67.0129 11.8187 67.0495 11.8038 67.0806 11.7682C67.109 11.7352 67.1327 11.6844 67.1495 11.6111C67.6784 11.0821 66.5462 11.508 66.5397 11.5014C66.6326 11.3236 66.0648 9.85938 65.8075 9.66052C65.6696 9.54865 65.1622 9.9248 65.1015 9.86274C64.3912 9.1286 63.7559 8.40955 63.251 7.82375C63.0004 7.53217 62.7812 7.27739 62.6512 7.11493C62.5324 6.95209 62.4623 6.89837 62.8224 7.03078C62.8343 7.03466 62.8466 7.03863 62.8593 7.04268C62.8885 7.0438 63.1842 6.41003 63.2369 6.41349C63.5734 6.45376 64.5456 6.76683 65.3139 6.72954C66.0754 6.72249 66.5269 6.70933 66.7745 6.82663C67.0921 6.97666 66.9638 7.19336 66.4976 7.25508C66.2657 7.28901 65.9536 7.27329 65.5417 7.21648C65.4464 7.72275 64.6447 8.32378 64.1628 8.7782C63.6813 9.22544 64.9663 9.69864 64.9785 9.74848C65.3868 11.4612 64.4278 12.2215 63.9643 13.9846C63.7432 14.8132 63.6484 16.5682 63.6528 17.5396C63.6561 18.2781 63.3063 18.6764 63.3671 19.3576C63.3698 19.3858 63.3733 19.4145 63.3775 19.4438C63.3913 19.5409 64.0044 19.5313 64.0234 19.563C64.6327 20.437 63.2182 19.8629 62.9337 19.988C61.9006 20.4416 61.3424 20.7409 61.658 21.817C61.7304 22.062 63.7571 23.0182 63.8279 23.4553C63.915 24.0319 63.1833 23.7241 63.295 24.3279C63.3039 24.3796 63.773 24.4267 63.7083 24.7842C63.4154 26.4324 62.9298 28.23 62.7804 29.9764C62.7582 30.2149 63.5357 29.9935 63.5159 30.3395C63.4225 31.9629 63.2016 33.7316 62.6842 35.2733C62.5546 35.6522 62.0601 35.353 61.8965 35.4207C60.9056 35.8391 62.1866 36.7188 62.1996 36.8432C62.5458 39.8068 61.0865 41.8987 61.3633 44.9265C61.3816 45.085 62.7077 46.4945 61.3999 46.9137C61.3121 46.9492 59.977 47.3513 60.7982 47.9419C60.8497 47.9772 61.5441 47.7072 61.4137 48.2944C61.3671 48.5061 61.3786 48.7768 61.378 49.0553C61.374 49.5892 61.3273 50.179 60.7945 50.6967C60.534 50.9436 59.1914 51.4225 60.0714 52.4674C60.1451 52.4792 62.1796 54.4689 60.3644 55.0222C60.2186 55.0569 59.7496 54.9285 59.3575 55.0342C59.1592 55.0916 58.9901 55.1815 58.8528 55.4513C58.7062 55.7183 58.6715 56.0749 58.398 56.9995C58.2805 57.359 58.4685 57.3061 58.5937 57.3805C58.6719 57.4735 58.9284 57.6026 57.9505 58.8837C57.2286 59.8755 55.0606 61.2389 53.0814 61.2884C51.1295 61.3846 50.0196 60.8774 49.2523 60.5595C47.8054 59.8824 47.2213 59.436 46.4154 59.2858C46.1271 59.2278 44.6515 59.4633 44.7877 58.3957C44.8083 58.2283 45.3279 57.9436 45.1313 57.6722C44.9017 57.3481 44.6521 57.0614 44.3867 56.785C43.6534 56.0188 42.8181 55.3658 42.3109 54.4385C42.0635 53.9914 42.8932 53.5364 42.715 53.0057C42.5367 52.4753 42.0059 51.5934 41.3441 51.5086C40.6833 51.4253 40.0365 52.8441 39.4086 52.3627C36.6856 50.2733 35.0045 47.2839 32.7765 44.8127C32.4469 44.4472 32.3586 45.1011 31.8458 44.5887C30.2273 42.9721 27.3867 40.6094 26.0932 38.5643C25.8685 38.212 25.696 37.875 25.5718 37.54C24.8855 35.6938 26.9712 36.7117 26.2223 35.5275C25.8496 34.9504 24.2043 35.7462 24.059 35.6895C22.6007 35.1267 22.3145 33.9261 21.2313 33.4201C21.01 33.3197 20.799 34.01 20.621 33.9237C20.02 33.6423 19.6564 33.0545 19.1846 32.8663C18.9753 32.786 18.7733 33.2699 18.6256 33.1522C18.267 32.88 18.0391 32.5531 17.7235 31.9435C17.6893 31.8866 18.1843 31.3573 17.8149 31.2208C17.7819 31.2091 17.7486 31.1961 17.7147 31.182C17.1267 30.9325 16.4516 30.3957 15.8288 30.8373C15.6291 30.9797 15.6237 32.1675 15.2793 31.3502C15.2112 31.1826 15.2069 29.7377 14.8665 31.0101C14.7522 31.2249 14.5294 32.9452 13.9656 32.001C13.815 31.749 13.1961 30.7138 13.0195 30.9799C13.0015 31.0185 13.3454 31.5726 13.1948 31.6989C12.9161 31.9283 12.5977 32.1162 12.2658 32.3407C11.9614 32.5459 11.7202 32.7413 11.5754 32.966C11.5023 33.0889 12.0441 33.5117 11.9459 33.6626C11.7013 34.075 11.4859 34.0855 11.1383 34.2997C11.0141 34.3793 10.5519 34.0712 10.4952 34.0509C9.51951 33.8422 10.6848 34.4838 10.7434 34.5501C11.0533 35.0644 10.3705 35.324 10.4743 35.9618C10.5036 36.1344 11.1379 36.0636 11.1909 36.1012C11.7133 36.4618 10.6065 36.142 10.4705 36.3631C10.0875 37.0015 10.1743 37.8801 10.3491 38.6867C10.4151 38.9887 11.096 38.5655 11.1466 38.8258C11.3939 40.0221 11.6597 41.3853 11.8345 42.8071C11.8812 43.2007 11.9268 43.6235 11.9571 44.0328C11.9824 44.3831 11.3851 44.3389 11.2836 44.4448C10.5764 45.196 11.9716 45.5451 12.1353 45.667C12.8889 46.2491 12.5168 46.6802 12.844 47.3154C14.4247 50.3605 15.8935 54.4135 17.2483 57.4634C19.007 61.4191 20.2885 64.6193 22.7113 67.9855C22.8652 68.1987 23.3332 67.5628 23.4731 67.7399C25.2484 70.0355 26.7215 72.4896 28.7237 74.544C28.8866 74.7125 29.2103 74.0019 29.4886 74.2547C30.0628 74.7693 30.6639 75.5149 31.012 76.2323C31.1831 76.5816 30.3971 76.6174 30.5807 76.9625C31.0114 77.7702 31.6307 78.494 32.3477 79.0532C32.6526 79.2881 32.7574 78.3731 33.1112 78.7144C34.226 79.776 35.3637 80.7608 36.4659 81.7512C37.7754 82.9266 39.0584 84.1335 40.2903 85.5629C40.4435 85.7417 39.8111 87.0825 40.3896 87.12C40.6409 86.7979 40.8971 86.3936 41.145 86.036C45.3323 88.4382 49.5565 90.9145 54.3763 92.6202C54.5785 92.6913 54.4758 91.8378 54.8663 91.9706C57.1325 92.7362 59.4345 93.1694 61.6892 94.5316C61.9139 94.6652 61.4573 95.9613 62.2332 95.9384C62.3695 95.9339 63.5084 96.0177 63.8591 95.793C63.9075 95.7582 63.852 95.0909 64.208 95.1538C66.2754 95.5298 68.4196 96.1216 70.4515 96.9118C70.7794 97.0405 70.2881 97.6374 70.521 97.7349C72.1772 98.4218 74.1621 98.2598 75.7259 99.1671C76.7735 99.7769 76.1519 100.858 76.5463 102.103C76.6022 102.278 77.2949 102.428 77.2131 103.097C77.0093 104.778 76.3464 106.54 76.169 108.339C76.1304 108.727 77.1386 108.482 76.4206 109.307C76.3711 109.362 75.6381 109.547 75.4148 109.831C75.2596 110.027 75.3496 110.737 75.0623 110.972C74.7749 111.207 74.6142 110.596 74.1605 110.851C73.7059 111.109 73.7432 111.907 72.9345 111.855ZM62.0585 11.043C61.2878 11.4851 63.6065 12.0826 63.187 11.3427C63.164 11.3069 62.0965 11.0209 62.0585 11.043ZM76.2709 64.0969C77.2848 63.2191 75.707 62.7363 74.9215 63.3549C74.1368 63.9736 75.9636 64.3642 76.2709 64.0969ZM77.4312 72.5835C78.2206 71.5845 74.8242 71.5809 75.5544 72.5822C75.5957 72.6401 77.3854 72.6416 77.4312 72.5835ZM73.7186 101.928C73.7214 101.961 74.2156 102.082 74.2332 102.054C74.6343 101.354 73.6473 101.113 73.7186 101.928ZM78.6221 81.0142C79.0686 80.6942 78.5042 79.8503 77.949 80.2468C77.5024 80.566 78.0666 81.4109 78.6221 81.0142ZM55.3417 43.0116C55.3051 43.0184 55.2354 43.3787 55.4367 43.3918C56.0848 43.4353 55.9554 42.9084 55.3417 43.0116ZM79.2202 95.4065C79.2668 93.2757 82.0182 91.8766 81.7906 94.2071C81.7495 94.6291 80.863 93.3362 80.6309 93.8802C80.2081 94.8753 81.9913 95.4555 81.087 96.4896C80.9214 96.6767 79.2113 95.5281 79.2162 95.4028C79.2175 95.4041 79.2189 95.4053 79.2202 95.4065ZM59.1777 10.7503C59.1434 10.7561 59.0067 11.2404 59.0346 11.2622C59.7198 11.6852 59.9934 10.7176 59.1777 10.7503ZM46.6615 47.8708C46.6899 47.8038 45.9192 46.9201 45.8493 46.9368C44.5315 47.363 46.0877 49.1533 46.6615 47.8708ZM76.4606 21.2967C77.3258 21.6872 77.5492 22.3404 76.6933 22.9701C76.6355 22.404 76.532 21.8562 76.4606 21.2967Z" fill="white"/>
</svg>
