<svg xmlns="http://www.w3.org/2000/svg" width="82" height="112" fill="none" viewBox="0 0 82 112"><path fill="#fff" d="M72.935 111.855c-1.877-.126-4.277-.797-6.083-1.467-.567-.209-.188-.566-.574-.729-.755-.32-1.534-.268-2.276-.626-.244-.12.217-.709-.042-.82-1.42-.607-2.864-.757-4.339-1.262-7.245-2.484-14.504-5.147-21.333-9.302-2.26-1.364-4.602-3.6-6.907-5.015-.27-.165-.476.418-.554.42-1.211.011-.235-.741-.622-1.245q-.504-.661-1.067-1.298c-1.317-1.493-2.795-2.86-4.195-4.015-.763-.63-.904.897-1.133-.278-.016-.08.607-.337.467-.577-.317-.541-1.187-1.307-1.466-1.69-.536-.737-.64-.846-1.198-1.494-.757-.893-1.403-2.156-2.288-3.043-.19-.189-.474.488-.825.22-.352-.268-1.002-1.2-1.11-1.596-.108-.395.393-.568.445-.691.45-1.021-1.397-1.261-1.524-1.383-2.246-2.155-3.04-4.782-4.512-7.207-1.12-1.847-2.477-3.74-3.406-5.581-1.103-2.197-1.7-4.217-2.728-6.366-.108-.227-.677.35-.81.07-1.413-2.974-2.54-6.088-3.032-9.432-.048-.333.71-.117.702-.458-.01-.486-.004-1.088-.004-1.663-.032-1.908-.172-3.896-2.475-4.56-.104-1.467-.11-3.323.532-4.68.419-.862 1.082.039.857-1.038-.045-.243-.706.006-.723-.364-.059-1.605.565-3.313 1.042-5.003.095-.342-.447-.521-.49-.662-.307-1.237 1.75-1.74 2.005-1.86 1.902-1.2 3.003-2.146 4.47-3.007q.205-.117.42-.227c.402-.201-.423-.635-.037-.855 2.01-1.145 4.627-1.796 6.998-1.49.521.07.053.724.295.792 1.016.31 1.342-.89 2.341-.495.205.085.003.616.032.682.416 1.03 1.143-.196 1.314-.189.385.005.726.082 1.033.204 1.291.514 1.974 1.73 3.286 2.239.2.08.1-.774.654-.505 3.658 1.85 6.324 4.664 8.507 7.477l.048.064c.335.441-.312.55-.333.621-.297 1.123.903.393 1.07.485 1.272.725 1.386 2.456 3.21 1.992 3.785 4.618 8.468 8.263 11.494 13.428.039.064-.533.439-.45.567.986 1.535 1.485.557 3.204.47.176-.008.207.267.176.6-.032.507-.201 1.14-.21 1.225-.08.497-.982 1.015-.968 1.14.152 1.008 2.33-1.453 2.992-.894.019.022-.456.418-.437.512.058.293.385.237.398.494.023.302-.153.8-.154 1.16-.033.372.24.484-.026.057-.036-.052-.437-.349-.842-.592-.401-.261-.851-.316-.737-.517.1-.086.33-1.607.5-2.067.178-.443.736-.053.766-.083.944-1.151 1.215-.657 2.46-1.157 1.241-.527-1.568-.642-1.85-.942-.051-.054-.068-.129-.06-.216.038-.371.58-.992.785-1.162.253-.211.602.123.753-.073.986-1.277-1.32-.75-1.716-1.242-.936-1.172 1.219-1.789 1.522-2.739.083-.26-.411-.092-.43-.333-.073-.942.632-1.442.15-2.558-.078-.184-1.233-1.17-.262-1.626.14-.065.632.212.789-.172.235-.576.46-1.628.356-2.285-.078-.483-.984-.035-.658-.598.146-.25.59.29.823-.185.233-.473.346-1.73.38-2.21s-.637-.289-.677-.332c-.223-.26-.433-1.211-.423-1.292.373-4.099 1.89-7.735 2.069-11.758.015-.315-.69-.2-.695-.25-.135-1.112 1.547-.021 2.252-.675-.464-.03-.739-.094-.9-.195-.318-.209-.191-.555-.217-1.073-.02-.376-.58-.256-.63-.298-.726-.652.376-.886.603-.942.838-.236-.025-.765.538-.927.56-.157 1.237.521 1.345-.193-.456-.281-1.824.037-1.94-.545-.453-2.215 1.372-5.957 2.07-7.58.669-1.636.868-2.22 1.53-3.07l.08-.1c1.177-1.379-.03-1.305.664-2.721 1.083-1.513 1.806 1.018 2.244 1.3.385.355.258-.172.53.02.22.217.122.617.37.645.101.023.19-.16.459-.35.26-.193.68-.346.954-.495a1 1 0 0 0 .164-.113c.898-.738 1.058-2.177 2.087-.79.047.076-.574.35-.38.614 1.398 2.053 2.345 3.961 2.973 6.028.079.28-.654.371-.616.538.356 1.62 1.043.792 2.434.932q.145.014.3.045c-1.655.545-2.369 1.47-1.865 2.643.298.71.938.293 1.624.568.208.084-.07.793.297.762 1.202-.09 2.234-1.067 2.231.453-.002.067-.666.09-.631.306.201 1.367 1.407 1.156 1.97 2.562.443 1.11.22 3.301.368 4.599-1.901.382-1.222 1.459.186 1.707.105.829.344 1.735.294 2.555-.015.289-.6.199-.654.244-.85.694.49.828.569 1.006.797 1.881.03 3.583 1.213 5.322.042.061 1.394.006.476.624-.064.04-.746-.509-.69.382.021.347-.053.836-.1 1.381-.074.78-.09 1.679.352 2.363.18.285 1.339.915.542 1.597-.108.09-.5.038-.704.173-.649.44.725.508-.39 1.047-1.114.541-1.9 1.5-1.006 2.659.026.036 1.126.235 1.139.621.02.623-.139 1.496-.084 2.142.026.31.68.063.697.115.524 2.032.027 3.541-.093 5.767-.023.402.962 1.52.286 2.34-.74.906-4.075.228-3.18 2.143.36.78 4.585 1.554 2.502 3.107.683 2.751-.296 5.377.6 8.127.039.124 1.222.465 1.22.762-.006.44-.54.708-.56 1.02-.105 1.315.414 2.492.397 3.762-.006.48-.576.336-.583.909-.006.57.751.925.426 1.713-.248.594-1.738 1.244-1.882 2.028 1.495-.032 1.486.5 1.92 1.433.084.18.596-.038.662.046.283.341-.135.682.17 1.003.074.078.584.061.673.124.774.531-.336 1.51-.53 1.676-.734.64-.059.899-.34 1.38-.28.48-.68-.206-.84.349-.33 1.146-.19 2.6-.17 3.75.012.459.68.119.698.184.21.945-.477 1.929.9 2.404-3.483.795.362.56-.288 1.943-.053.109-1.707.308-1.966-.093-.26-.4.236-1.04-.166-1.596-.094-.132-1.679-.844-1.777-.946-.768-.795 1.707-1.008 1.841-1.057 1.45-.553-.261-1.431-.386-1.674-.575-1.117-.264-2.094-.68-3.03-.27-.613-1.897-.609-1.866-1.098.099-1.628 2.341-2.281.314-3.733-.432-.31-2.193.087-.847-1.14.085-.078 1.326-1.005.497-1.474-.105-.058-.622-.034-.669-.116-.304-.543.092-.937-.132-1.537-.223-.599-.549-1.315-.404-2.019.086-.423 1.026-1 1.253-1.21.654-.6-.487-1.156.32-1.543.81-.39 2.098.242 2.59-.706-1.345.027-2.727.01-4.081.017-.046-2.031.293-4.05.132-6.077-.022-.253-.73.042-.773-.228-.172-1.134.291-2.158.023-3.324-.21-.911-1.03-1.857-1.277-2.809 1.504-.667.9-2.062.978-3.09.027-.365.438-.366.556-.631.436-.998-.894-.46-1.124-.71-.983-1.075 2.083-1.37 1.918-2.708-.008-.073-1.704-.828-1.814-.937-.717-.707.561-.163.649-.648.16-.885.508-1.51-.048-2.491-.164-.281-1.238-.916-.495-1.549.098-.083.641-.085.668-.147.44-1.135-1.262-1.039-1.89-1.607-.626-.571.46-1.642.78-1.863.827-.594.409.358.497.376 1.049.233.812-.442.848-1 1.656-.234 1.486-.98.03-.567-.159.045.036.45-.03.566-1.677-.325-1.962-1.121-.53-2.18.672-.49 1.547-.188 1.106-1.452a.44.44 0 0 0-.245-.258c-.409-.202-1.156-.07-1.445-.448-.84-1.09.04-2.745-.293-3.935-.12-.425-.687.081-.79-.204-.278-.77.088-1.533-.271-2.277-.034-.067-.658.207-.704-.036-.366-1.834-.23-3.49-.617-5.363-.184-.907-.917-2.409-1.094-3.314-.294-1.573-.003-3.732-.735-4.915-.47-.763-1.008-.327-1.565-.489-.733-.207-.552-1.09-.34-1.755.099-.313.215-.56.259-.648.004-.004.247.316.434.318q.059.001.107-.05a.4.4 0 0 0 .069-.158c.528-.529-.604-.103-.61-.11.093-.177-.475-1.642-.733-1.84-.137-.112-.645.264-.706.202a48 48 0 0 1-1.85-2.04c-.25-.29-.47-.546-.6-.708-.119-.163-.189-.217.171-.084l.037.012c.03 0 .325-.633.378-.63.336.04 1.309.354 2.077.317.761-.008 1.213-.02 1.46.097.318.15.19.366-.276.428-.232.034-.544.018-.956-.039-.096.507-.897 1.108-1.38 1.562-.48.447.804.92.816.97.409 1.713-.55 2.474-1.014 4.237-.22.828-.316 2.583-.311 3.555.003.738-.347 1.136-.286 1.818l.01.086c.014.097.627.087.646.119.61.874-.805.3-1.09.425-1.032.454-1.59.753-1.275 1.829.072.245 2.1 1.201 2.17 1.638.087.577-.645.27-.533.873.009.052.478.099.413.456-.293 1.648-.778 3.446-.928 5.192-.022.239.756.018.736.364-.093 1.623-.314 3.392-.832 4.933-.13.38-.624.08-.787.148-.991.418.29 1.298.303 1.422.346 2.964-1.114 5.056-.837 8.083.019.159 1.345 1.569.037 1.988-.088.035-1.423.437-.602 1.028.052.035.746-.235.616.352-.047.212-.035.483-.036.761-.004.534-.05 1.124-.584 1.642-.26.247-1.603.725-.723 1.77.074.012 2.109 2.002.293 2.555-.145.035-.614-.093-1.006.012a.74.74 0 0 0-.505.417c-.147.267-.181.624-.455 1.548-.117.36.07.307.196.381.078.093.334.223-.644 1.504-.721.992-2.89 2.355-4.869 2.404-1.952.097-3.061-.41-3.829-.728-1.447-.678-2.03-1.124-2.837-1.274-.288-.058-1.764.177-1.627-.89.02-.168.54-.452.343-.724-.23-.324-.479-.61-.744-.887-.734-.766-1.569-1.42-2.076-2.346-.248-.448.582-.903.404-1.433s-.71-1.413-1.37-1.497c-.662-.084-1.309 1.335-1.936.854-2.723-2.09-4.404-5.08-6.632-7.55-.33-.366-.418.288-.931-.224-1.619-1.617-4.46-3.98-5.753-6.025a5.4 5.4 0 0 1-.521-1.024c-.686-1.846 1.4-.828.65-2.012-.372-.578-2.018.218-2.163.162-1.458-.563-1.745-1.764-2.828-2.27-.221-.1-.432.59-.61.504-.601-.282-.965-.87-1.436-1.058-.21-.08-.412.404-.56.286-.358-.272-.586-.599-.901-1.209-.035-.056.46-.586.09-.722l-.1-.039c-.587-.25-1.262-.786-1.885-.345-.2.143-.205 1.33-.55.513-.068-.167-.072-1.612-.412-.34-.115.215-.338 1.935-.901.991-.151-.252-.77-1.287-.946-1.021-.018.038.325.593.175.719-.279.23-.597.417-.93.642-.304.205-.545.4-.69.625-.073.123.47.546.37.697-.244.412-.46.423-.807.637-.124.08-.586-.229-.643-.25-.975-.208.19.434.248.5.31.514-.373.774-.269 1.412.03.172.664.102.717.14.522.36-.585.04-.72.261-.383.639-.297 1.517-.122 2.324.066.302.747-.121.798.139.247 1.196.513 2.56.688 3.981.046.394.092.816.122 1.226.025.35-.572.306-.673.412-.708.751.688 1.1.851 1.222.754.582.382 1.013.709 1.648 1.58 3.046 3.05 7.099 4.404 10.148 1.759 3.956 3.04 7.156 5.463 10.523.154.213.622-.423.762-.246 1.775 2.296 3.249 4.75 5.25 6.804.164.169.487-.542.766-.29.574.515 1.175 1.26 1.523 1.978.171.35-.615.385-.431.73a6.7 6.7 0 0 0 1.767 2.091c.305.235.41-.68.763-.339 1.115 1.062 2.253 2.047 3.355 3.037 1.31 1.176 2.592 2.382 3.824 3.812.154.179-.479 1.52.1 1.557.25-.322.507-.726.755-1.084 4.187 2.402 8.411 4.879 13.231 6.584.203.071.1-.782.49-.65 2.267.766 4.569 1.2 6.823 2.562.225.133-.232 1.43.544 1.406.137-.004 1.275.08 1.626-.145.048-.035-.007-.702.349-.64a34.4 34.4 0 0 1 6.243 1.759c.328.128-.163.725.07.823 1.656.687 3.641.525 5.205 1.432 1.047.61.426 1.691.82 2.936.056.175.749.325.667.994-.204 1.681-.867 3.443-1.044 5.242-.039.388.97.143.252.968-.05.055-.783.24-1.006.524-.155.196-.065.906-.353 1.141-.287.235-.448-.376-.901-.121-.455.258-.418 1.056-1.227 1.004M62.059 11.043c-.771.442 1.547 1.04 1.128.3-.023-.036-1.09-.322-1.128-.3M76.27 64.097c1.014-.878-.564-1.36-1.35-.742-.784.619 1.043 1.01 1.35.742m1.16 8.487c.79-1-2.607-1.003-1.877-.002.042.058 1.831.06 1.877.002m-3.712 29.344c.002.033.497.154.514.126.401-.7-.586-.941-.514-.126m4.903-20.914c.447-.32-.118-1.164-.673-.767-.447.319.118 1.164.673.767m-23.28-38.002c-.037.006-.107.367.095.38.648.043.518-.484-.095-.38M79.22 95.406c.047-2.13 2.798-3.53 2.57-1.199-.04.422-.927-.87-1.16-.327-.422.995 1.361 1.576.457 2.61-.166.187-1.876-.962-1.87-1.087zM59.178 10.75c-.035.006-.171.49-.143.512.685.423.958-.544.143-.512M46.662 47.87c.028-.066-.743-.95-.813-.933-1.317.426.239 2.216.813.934M76.46 21.298c.865.39 1.088 1.043.232 1.673-.058-.566-.161-1.114-.232-1.673"/></svg>