<svg width="72" height="88" viewBox="0 0 72 88" fill="none" xmlns="http://www.w3.org/2000/svg">
<path d="M66.0849 87.9398C64.6801 87.6232 63.0102 86.7404 61.7899 85.9377C61.4068 85.687 61.7719 85.3739 61.5147 85.1831C61.0117 84.8103 60.411 84.7989 59.9255 84.3975C59.7655 84.2626 60.2404 83.7274 60.0672 83.6003C59.1169 82.9084 58.052 82.6713 57.0303 82.1093C52.0059 79.3402 46.9088 76.9325 41.7638 74.1379C40.0635 73.216 38.2425 71.6245 36.3535 70.9217C36.1327 70.8403 35.9786 71.4261 35.9165 71.4482C34.9482 71.7746 35.7132 70.8336 35.3874 70.4782C34.0923 69.0687 32.3863 68.031 30.7729 67.3139C30.0843 67.0084 30.1109 68.3989 29.8115 67.4423C29.7905 67.3771 30.2809 66.9444 30.1423 66.7799C29.8288 66.4101 29.0259 66.0332 28.751 65.7953C28.2252 65.3365 28.1244 65.2775 27.5826 64.907C26.8466 64.3957 26.1494 63.5323 25.2841 63.0782C25.0983 62.9826 24.9422 63.6633 24.61 63.5559C24.2788 63.4504 23.6 62.8741 23.4581 62.5731C23.3147 62.2725 23.723 61.9497 23.7521 61.8262C23.7904 61.6723 23.7875 61.5516 23.7544 61.4574C23.5619 60.9181 22.3685 61.2216 22.2627 61.1717C20.0403 60.1016 19.0132 58.1358 17.4349 56.5747C16.2301 55.3848 14.8067 54.2241 13.7767 52.9712C12.5519 51.4758 11.8168 49.9818 10.6734 48.5126C10.5536 48.3567 10.0778 48.9866 9.9293 48.7953C8.3471 46.751 7.02505 44.5159 6.22981 42.0287C6.15102 41.779 6.89015 41.747 6.84752 41.4805C6.55555 39.8434 6.71155 37.1678 3.7074 37.4909C3.37213 36.4707 2.98137 35.2105 3.1912 34.1111C3.33018 33.4113 4.21026 33.7143 3.66605 33.1192C3.54495 32.9844 3.02334 33.4037 2.88635 33.1831C2.55561 32.6469 2.35714 32.0185 2.14154 31.4148C1.97578 30.9489 1.80197 30.5014 1.54485 30.0843C1.42217 29.889 0.890435 30.0921 0.775017 30.0548C-0.170178 29.7221 0.953671 28.5046 1.01476 28.2976C1.4395 26.6717 0.997463 25.6454 0.981189 24.1159C0.982995 23.7609 0.224116 24.1904 0.200627 23.838C0.097204 22.0143 0.493278 19.619 2.21062 17.7748C2.59085 17.387 2.81928 18.1676 3.02083 18.0157C3.87532 17.4427 3.23138 16.3671 4.30173 15.9228C4.52171 15.8424 4.71567 16.3794 4.78255 16.4084C5.75221 16.9179 5.54211 15.54 5.70576 15.4349C6.06469 15.1839 6.43571 15.0581 6.79399 15.0102C8.10518 14.8501 9.04343 15.6341 10.1485 15.516C10.3257 15.4995 9.95623 14.7765 10.4626 14.7761C13.8434 14.8373 16.7225 16.144 19.08 17.7273C19.4442 17.9758 18.9529 18.3401 18.953 18.4107C18.9556 19.516 19.7518 18.3806 19.9047 18.3922C21.0757 18.5079 21.4995 19.9768 22.8828 18.8504C23.1559 19.0278 23.4274 19.1985 23.7033 19.3668C27.4034 21.6325 31.4547 23.2034 34.3248 26.6052C34.3647 26.6503 33.9199 27.1622 34.0008 27.2495C34.9663 28.3062 35.2963 27.2833 36.7639 26.7128C37.1342 26.5708 36.8865 28.2455 36.8756 28.3736C36.8367 28.8448 36.0945 29.5507 36.1135 29.6594C36.2852 30.5282 38.0152 27.7178 38.727 28.1899C38.7463 28.2093 38.3159 28.652 38.3423 28.7421C38.4232 29.0237 38.7361 28.9429 38.8018 29.2388C38.9319 29.8723 38.2812 31.1635 39.1358 31.0371C39.1946 31.0293 39.2602 31.0149 39.3335 30.9936C39.4814 30.9491 40.4198 29.3207 41.0067 29.8379C41.2409 30.043 42.3746 30.82 42.6066 31.1478C42.8433 31.475 42.2704 31.8 42.2772 31.8376C42.6131 33.0868 42.1035 33.1182 41.7823 34.3581C41.4553 35.5914 43.0615 33.2893 43.422 33.1735C43.7817 33.0575 43.9556 34.0366 43.9508 34.3279C43.9492 34.6208 43.5315 34.7755 43.5755 34.9776C43.8598 36.3012 44.8203 34.1975 45.3764 34.0786C46.7042 33.8106 45.8633 35.8281 46.2949 36.4734C46.4121 36.6484 46.596 36.1804 46.7646 36.2687C47.4233 36.6192 47.3167 37.3944 48.3174 37.4788C48.4829 37.4946 49.7715 36.959 49.4678 37.8872C49.427 38.0232 48.9835 38.335 49.13 38.5961C49.2373 38.7951 49.4638 39.0471 49.5967 39.1286C49.5361 39.1101 49.4575 39.0716 49.2564 39.0925C49.069 39.1103 48.8684 39.2479 48.802 39.3354C48.6637 39.5177 48.7007 39.5195 48.6883 39.5109C48.6844 39.4787 48.6703 39.3679 48.632 39.2743C48.5089 38.9756 47.654 39.3124 47.9164 38.941C48.0302 38.7629 48.5393 39.0902 48.7094 38.7309C48.8799 38.3699 48.792 37.401 48.7516 37.0324C48.7105 36.6602 48.077 36.9053 48.0315 36.8773C47.7703 36.7184 47.4174 36.0043 47.416 35.9428C47.2526 33.7766 47.7331 31.6678 48.1875 29.6171C48.4143 28.6033 48.6079 27.5866 48.6632 26.5351C48.6774 26.2891 47.9768 26.3345 47.972 26.2957C47.8358 25.4112 49.5091 26.3809 50.2094 25.919C48.831 25.7537 49.1374 25.4611 49.0995 24.8531C49.0802 24.5613 48.5242 24.6098 48.4752 24.5741C47.7567 23.9989 48.8487 23.9146 49.0745 23.885C49.9065 23.7703 49.0517 23.2857 49.6096 23.2087C50.163 23.1346 50.8349 23.7173 50.9417 23.1726C50.4901 22.9139 49.1341 23.0485 49.0199 22.5844C48.5809 20.8145 50.3178 18.1048 50.7782 16.8949C51.2327 15.6755 51.2693 15.2482 51.6616 14.5783C52.3779 13.3724 51.3107 13.5627 51.1578 12.6086C51.0126 11.6489 53.1242 12.8024 53.6452 12.8482C54.1646 12.8994 53.7099 12.6101 54.0223 12.5608C54.334 12.5137 54.5592 12.923 54.7692 12.6351C54.9762 12.3512 54.4396 11.1672 53.9846 10.8672C53.0491 10.2543 51.8376 10.2288 52.4114 9.56181C52.431 9.53895 52.4527 9.51539 52.4765 9.49111C52.5188 9.44912 53.0379 9.83488 53.1705 9.66357C54.2017 8.31123 54.8924 6.75421 56.053 5.51199C56.212 5.34631 56.7227 5.85381 56.8204 5.7649C57.8624 4.85496 56.599 4.69994 55.9888 3.28199C57.3056 4.42651 58.3932 4.63309 58.9477 4.06328C59.2961 3.73947 58.7121 3.2479 58.7528 2.57013C58.7878 2.34698 59.3997 2.62819 59.3616 2.28357C59.3427 1.68619 59.1677 1.09869 59.191 0.678569C59.1996 0.293622 59.6742 -0.15364 60.8813 0.404728C60.9653 0.455197 60.5112 0.981513 60.7948 1.10759C61.6059 1.53461 61.9778 1.6737 62.5027 1.79124C63.0368 1.91824 63.6393 2.08167 64.1003 2.70289C64.8187 3.66217 64.748 5.54527 64.9397 6.55494C63.0938 7.14476 63.7871 7.87444 65.1791 7.89477C65.306 8.54486 65.5586 9.22869 65.5234 9.88128C65.5127 10.1095 64.9326 10.098 64.88 10.139C64.048 10.7598 65.376 10.7372 65.4577 10.8694C66.2703 12.2545 65.5286 13.6521 66.7212 14.9092C66.7637 14.9531 68.1073 14.8112 67.2 15.3575C67.137 15.3928 66.4543 15.0199 66.5181 15.7017C66.5813 16.3784 66.0583 17.7428 66.805 18.5861C66.9845 18.7836 68.1487 19.2212 67.3599 19.7855C67.2528 19.8614 66.8608 19.8449 66.6589 19.9603C66.0156 20.3298 67.3878 20.3192 66.2806 20.7925C65.1739 21.2695 64.3976 22.0517 65.2963 22.89C65.3226 22.9165 66.4205 23.0146 66.4362 23.3122C66.456 23.698 66.3596 24.2116 66.3518 24.6611C66.3498 24.767 66.3528 24.8687 66.3638 24.9631C66.3913 25.1966 67.0432 24.9794 67.0595 25.0188C67.5922 26.5648 67.0995 27.7505 66.9806 29.4633C66.9575 29.7779 67.94 30.5975 67.2645 31.258C66.5241 31.9744 63.1933 31.5435 64.0833 32.989C64.4386 33.569 68.659 34.0673 66.5699 35.3071C67.2403 37.4068 66.2441 39.4394 67.116 41.5373C67.1547 41.6315 68.3341 41.8793 68.3293 42.107C68.32 42.4437 67.7847 42.6545 67.7604 42.8964C67.6445 43.9105 68.1518 44.8079 68.1218 45.7832C68.1115 46.1527 67.5431 46.0476 67.5305 46.4877C67.5182 46.9276 68.2717 47.1902 67.9383 47.799C67.6839 48.2602 66.1873 48.7695 66.0342 49.3713C67.5293 49.3348 67.5149 49.7463 67.9373 50.4579C68.0192 50.5949 68.5336 50.4249 68.5991 50.4887C68.8775 50.7478 68.456 51.0153 68.7574 51.259C68.8298 51.3186 69.3403 51.3023 69.4283 51.3499C70.1961 51.7541 69.0745 52.5122 68.879 52.6407C68.137 53.1371 68.8086 53.3326 68.5226 53.7039C68.2365 54.0732 67.8437 53.5504 67.6773 53.9757C67.3331 54.858 67.4543 55.9729 67.4609 56.8562C67.4666 57.2087 68.1398 56.9453 68.1564 56.9951C68.354 57.7192 67.6538 58.4787 69.0243 58.8387C65.532 59.4608 69.3793 59.266 68.7111 60.3324C68.657 60.4164 67.0009 60.5752 66.747 60.2678C66.4933 59.9605 66.9963 59.4661 66.602 59.0421C66.5095 58.9412 64.9348 58.4003 64.8379 58.3229C64.0806 57.7155 66.5572 57.5417 66.6923 57.5036C68.1493 57.073 66.4495 56.4074 66.3271 56.2199C65.7668 55.3659 66.0895 54.6126 65.685 53.8981C65.4233 53.4299 63.7974 53.4414 63.8335 53.0661C63.9525 51.8189 66.2018 51.2979 64.1923 50.2025C63.7635 49.968 61.9985 50.2875 63.3588 49.3334C63.4445 49.2732 64.6948 48.5567 63.8713 48.2025C63.7675 48.1582 63.2503 48.1809 63.2043 48.1189C62.9056 47.7027 63.306 47.4028 63.0889 46.9441C62.8718 46.4868 62.5535 45.9418 62.7053 45.4028C62.7961 45.0788 63.7411 44.6257 63.9699 44.4607C64.6296 43.995 63.4939 43.5867 64.3039 43.2778C65.118 42.9672 66.3992 43.4384 66.8994 42.7005C65.5547 42.7388 64.1729 42.745 62.8198 42.7683C62.7921 41.2165 63.1469 39.6699 62.9987 38.1214C62.9789 37.9295 62.2684 38.1675 62.2286 37.9634C62.0638 37.1039 62.5324 36.3136 62.27 35.4267C62.0642 34.7413 61.2496 34.0325 61.0062 33.3213C62.5109 32.7736 61.9116 31.7323 61.9905 30.9405C62.0177 30.664 62.4289 30.6505 62.5472 30.4457C62.9824 29.6685 61.6544 30.1242 61.4248 29.9407C60.4439 29.1622 63.5054 28.826 63.3389 27.8111C63.3311 27.7549 61.6373 27.2508 61.5269 27.1702C60.8095 26.6586 62.0867 27.0214 62.1733 26.6506C62.3073 26.082 62.5739 25.632 62.3147 25.0784C62.2675 24.9763 62.203 24.8707 62.1173 24.7604C61.9521 24.549 60.8786 24.1299 61.6162 23.6083C61.7128 23.5399 62.2554 23.5111 62.2818 23.4616C62.7143 22.5737 61.0167 22.7397 60.3885 22.344C59.7595 21.9413 60.8365 21.0803 61.1528 20.8839C61.9726 20.383 61.563 21.1345 61.6508 21.1454C62.6983 21.2649 62.456 20.7493 62.4882 20.3314C64.1379 20.057 63.9609 19.4906 62.5145 19.898C62.3568 19.9442 62.5533 20.2401 62.4882 20.3314C60.8157 20.1869 60.5269 19.6099 61.9442 18.7011C62.6078 18.2761 63.4837 18.4651 63.0324 17.5197C62.828 17.0973 61.7169 17.4417 61.3461 17.1006C60.5011 16.3303 61.3647 15.0105 61.0267 14.1374C60.9038 13.8192 60.346 14.257 60.2409 14.046C59.9614 13.4975 60.3202 12.8889 59.9574 12.3577C59.924 12.311 59.307 12.5763 59.2605 12.4023C58.8905 11.0813 59.0139 9.82931 58.624 8.57811C58.4384 7.96514 57.7182 7.12713 57.6081 6.78664C57.5413 6.5396 57.5408 6.28334 57.8307 6.33749C58.0398 6.34809 58.5908 6.6667 59.4857 6.70078C60.3834 6.72401 60.9168 6.38935 61.111 6.36127C61.3262 6.31628 61.4171 6.48566 61.594 6.65385C61.759 6.82796 61.9517 7.02755 62.1181 7.17917C62.447 7.46594 62.2783 7.38804 61.9246 7.3417C61.5776 7.2855 61.0851 7.21547 60.9578 7.19047C60.9489 7.18553 61.0516 6.75833 60.6477 6.74968C59.9837 6.47232 60.9562 7.18751 60.9578 7.19047C60.7965 7.1342 60.1722 7.90777 60.1862 8.17189C60.1948 8.30442 60.7787 8.53584 60.7735 8.59834C60.6607 9.86065 60.3341 11.1153 59.7247 12.3329C59.6211 12.5395 59.5069 12.7518 59.3866 12.9565C59.365 12.9788 58.7233 12.6986 58.6805 12.7548C58.0646 13.541 58.6741 14.4058 58.9135 15.3022C59.153 16.201 58.8112 16.7331 57.5267 16.8345C57.4973 17.4497 56.7485 18.1283 56.3042 18.5243C55.8594 18.9212 57.1541 19.348 57.1685 19.3966C57.6455 20.9281 56.7008 21.4824 56.2589 22.8293C56.046 23.4675 55.9558 24.804 55.9634 25.5339C55.97 26.1118 55.5932 26.3857 55.7007 26.9321C55.7149 27.0059 56.3236 27.0444 56.3427 27.0695C56.9555 27.7574 55.5464 27.2285 55.2649 27.3005C54.2437 27.5621 53.6896 27.754 54.0235 28.5603C54.0993 28.7485 56.1388 29.537 56.2247 29.841C56.3324 30.2368 55.5916 30.0022 55.7272 30.42C55.7339 30.4413 55.9083 30.4678 56.0342 30.5375C56.1168 30.5793 56.1789 30.6369 56.1616 30.7199C55.9628 31.6927 55.6417 32.8334 55.7071 33.9886C55.7142 34.1449 56.4585 33.9343 56.4816 34.1557C56.5884 35.2183 56.6424 36.3654 56.378 37.7612C56.3095 38.1232 55.7742 37.9273 55.6231 38.0126C55.1659 38.2767 55.2865 38.5706 55.5185 38.8986C55.752 39.206 56.0871 39.6285 56.0893 39.784C56.0876 40.1606 56.1597 40.5718 55.8188 41.8093C55.5403 42.4556 55.4808 43.5966 53.285 45.3492C52.1704 46.1805 50.5375 46.6629 49.2385 46.6215C47.9901 46.5895 47.2823 46.3357 46.646 46.0831C45.5015 45.605 45.1196 45.2928 44.7261 45.0235C44.357 44.7539 44.1155 44.5403 43.8885 44.3265C43.4548 43.9124 43.1465 43.5414 42.8415 43.1867C42.2408 42.4831 41.6669 41.8451 40.784 41.4336C40.6654 41.3765 39.0624 41.9404 39.5639 40.7278C39.5971 40.6468 40.1096 39.4038 39.287 39.8706C39.2362 39.9004 39.0065 40.5645 38.7257 40.2528C38.4397 39.9375 37.6463 39.877 37.6318 38.9538C37.6262 38.662 38.0415 37.3682 36.9953 37.8697C36.9161 37.8988 34.9004 39.2941 35.5822 37.8257C35.6955 37.585 36.7019 36.2264 35.6705 36.5647C35.4718 36.6317 35.4457 37.0704 35.0407 37.0775C35.0284 37.0778 35.0162 37.0777 35.0041 37.0774C34.3926 37.0518 34.0598 36.3201 33.1227 36.5813C32.9539 36.6286 31.9243 37.3197 32.0822 36.383C32.1065 36.236 32.5124 35.8284 32.3759 35.6633C31.7315 34.8782 30.67 34.6426 30.0461 33.7874C29.8231 33.4848 30.4597 32.8092 30.2796 32.4078C30.0969 32.0047 29.5924 31.415 29.0455 31.5679C28.5015 31.7228 28.098 33.1778 27.552 32.9802C25.1868 32.129 23.5175 30.1783 21.4349 28.9213C21.1269 28.7359 21.1444 29.3332 20.6758 29.0962C20.2382 28.8763 19.708 28.6442 19.1468 28.3993C17.4742 27.6619 15.5829 26.8769 14.8269 25.6939C13.9941 24.4178 15.7074 24.3633 14.9331 23.6773C14.5418 23.3437 13.5151 24.7729 13.4049 24.7917C12.2802 24.9784 11.852 24.0831 11.0452 24.1464C10.8857 24.1627 10.8954 24.8623 10.7681 24.8708C10.3458 24.9087 10.019 24.5624 9.76309 24.6065C9.6528 24.6286 9.66018 25.1518 9.59156 25.1109C9.43333 25.0212 9.40524 24.8125 9.3398 24.324C9.32381 24.282 9.18658 23.6465 9.16793 23.6262C9.16763 23.6254 9.16736 23.6245 9.16711 23.6234C9.15393 23.5646 9.07746 23.1504 9.60651 23.3032C9.75552 23.3646 10.7239 24.0821 10.1981 23.3995C10.0829 23.2591 8.84226 22.5479 9.9649 23.0751C10.0588 23.1177 10.5072 23.271 10.816 23.3251C11.1235 23.3845 11.2762 23.3751 10.7402 23.3075C10.4615 23.2526 9.2817 23.1817 9.44961 23.3528C9.47742 23.3712 10.1213 23.375 10.1748 23.4742C10.3521 23.8199 10.2946 24.3565 10.5684 24.9394C10.6429 25.0935 11.2717 24.777 11.3616 24.9995C11.6071 25.5983 11.6348 26.5435 11.6441 27.3647C11.6456 27.6664 11.0625 27.6181 11.0101 27.6536C10.1681 28.2616 11.4931 28.1064 11.5989 28.1936C11.6842 28.2689 11.7516 28.3473 11.8052 28.4284C12.1563 28.9489 11.9001 29.5893 12.2407 30.1161C12.3482 30.2854 12.8895 29.9408 12.9552 29.9583C13.6049 30.1449 12.4468 30.2549 12.4187 30.5356C12.342 31.3344 12.6936 32.0699 13.0632 32.72C13.1985 32.9549 13.7436 32.388 13.8568 32.6C14.5425 33.8525 15.1374 35.2095 15.4671 36.6433C15.5285 36.9142 14.9579 37.0371 14.873 37.1477C14.2824 37.9287 15.6275 37.8252 15.7925 37.8774C16.5487 38.1233 16.2384 38.5671 16.5917 38.9689C18.3045 40.907 19.8736 43.6251 21.2916 45.612C23.1256 48.1839 24.5036 50.3338 26.8883 52.2437C27.0394 52.3644 27.3807 51.6754 27.5161 51.771C28.323 52.3586 29.0672 52.9928 29.8357 53.6168C30.7069 54.3241 31.6173 55.0245 32.6319 55.5868C32.788 55.6748 32.9776 54.9489 33.2402 55.0691C33.7789 55.3097 34.3734 55.7523 34.7485 56.2635C34.9335 56.5126 34.2763 56.8082 34.4711 57.0495C34.9284 57.6147 35.5306 58.0512 36.2028 58.3281C36.487 58.4427 36.4726 57.5901 36.8113 57.7858C39.1378 59.109 41.5165 60.268 43.5812 62.3626C43.7234 62.5065 43.2128 63.8913 43.7071 63.8242C43.9166 63.4742 44.129 63.0453 44.3353 62.6622C48.0379 64.2491 51.5135 66.3655 55.2989 68.051C55.4581 68.1216 55.4832 67.2891 55.7926 67.422C57.5869 68.1907 59.4262 68.7119 61.0075 70.179C61.1653 70.3236 60.5605 71.5537 61.1862 71.5814C61.2966 71.5852 62.193 71.7462 62.5162 71.5551C62.5618 71.525 62.6462 70.8723 62.9194 70.9607C64.5047 71.4851 66.0811 72.2575 67.502 73.2263C67.7307 73.3838 67.2169 73.9131 67.3778 74.0307C68.5226 74.8611 70.0979 74.9144 71.1003 75.9603C71.7708 76.6628 71.0464 77.6422 71.0678 78.8885C71.071 79.0644 71.5698 79.2836 71.355 79.9214C70.8164 81.5259 69.9066 83.1598 69.3616 84.8812C69.2439 85.2518 70.0743 85.1228 69.3351 85.8438C69.2845 85.8916 68.6793 85.9928 68.4436 86.2432C68.2801 86.4161 68.1875 87.1131 67.9138 87.3097C67.6401 87.506 67.6558 86.898 67.2505 87.0968C66.8437 87.2994 66.6908 88.0741 66.0849 87.9398ZM54.3286 20.3448C53.5792 20.6421 55.8839 21.2887 55.4518 20.6629C55.4282 20.6319 54.3656 20.3292 54.3286 20.3448ZM64.9471 39.5826C65.9668 38.8941 64.3932 38.5527 63.604 39.0392C62.8154 39.5248 64.638 39.7917 64.9471 39.5826ZM66.0319 46.0742C66.831 45.2997 63.4362 45.3337 64.1559 46.092C64.1966 46.1359 65.9854 46.1192 66.0319 46.0742ZM68.9293 78.4191C68.9241 78.4512 69.2778 78.6204 69.2978 78.5944C69.7648 77.9598 69.0577 77.622 68.9293 78.4191ZM67.1279 52.5356C67.5782 52.2886 67.024 51.6434 66.4643 51.9513C66.0141 52.1991 66.5678 52.8432 67.1279 52.5356ZM45.5434 37.3677C45.5619 37.3364 45.3702 37.1274 45.2419 37.2831C44.833 37.7875 45.2443 37.9023 45.5434 37.3677ZM67.5407 63.5865C67.6156 61.9487 70.3847 60.8679 70.1263 62.6569C70.0795 62.9811 69.2105 61.9913 68.9712 62.4096C68.5354 63.1755 70.3103 63.6158 69.3925 64.4127C69.2245 64.5569 67.5302 63.6799 67.5367 63.5837C67.538 63.5846 67.5393 63.5856 67.5407 63.5865ZM51.4752 19.9047C51.442 19.9062 51.3187 20.2759 51.347 20.2926C52.0338 20.6779 52.281 19.9392 51.4752 19.9047ZM33.0896 26.6041C33.1068 26.5348 32.3676 26.004 32.3096 26.042C31.2598 26.8537 32.741 27.9223 33.0896 26.6041ZM64.8956 6.5866C65.7624 6.7811 66.008 7.29331 65.1795 7.89254C65.1092 7.45611 64.9895 7.03013 64.8956 6.5866Z" fill="white"/>
</svg>
