<svg width="316" height="217" viewBox="0 0 316 217" fill="none" xmlns="http://www.w3.org/2000/svg">
<path d="M3.85176 52.0504C5.68568 50.5599 7.58834 49.608 9.41492 48.8234C10.1512 48.5117 10.8612 48.243 11.5255 48.0115C12.2256 47.7704 12.0802 48.3155 12.5788 48.1649C13.5443 47.8766 14.2761 47.2984 15.2418 47.0647C15.558 46.9916 15.4829 47.7674 15.8083 47.6768C17.6002 47.1723 19.092 46.3176 20.8291 45.7142C29.3744 42.7647 37.5995 39.8095 46.1121 36.879C48.4358 36.0804 51.293 35.4626 53.7884 34.5245C54.2994 34.3323 54.7999 34.1242 55.2808 33.8959C55.6065 33.7407 55.2 33.263 55.2471 33.1936C56.0006 32.1194 56.0712 33.3632 56.778 33.2694C59.5932 32.8905 62.4917 31.8858 64.917 30.7679C65.9519 30.2896 64.4816 29.5749 65.7841 29.8043C65.8739 29.8192 65.8147 30.5059 66.13 30.4634C66.8382 30.368 68.0598 29.812 68.5947 29.6744C69.6163 29.4157 69.7771 29.352 70.72 29.0264C72.0091 28.5873 73.6419 28.3457 74.9723 27.7355C75.2564 27.6032 74.6563 27.1315 75.091 26.8658C75.5261 26.5998 76.7927 26.2225 77.2613 26.2228C77.7308 26.2225 77.7144 26.7612 77.8261 26.8452C78.7515 27.5603 79.7609 25.7925 79.9371 25.6984C83.1496 24.0179 86.3088 23.7973 89.5165 22.7867C91.9576 22.0163 94.4856 20.9833 96.8475 20.3329C99.6569 19.5631 102.104 19.2461 104.842 18.4774C105.127 18.3982 104.603 17.7537 104.952 17.6555C108.693 16.6092 112.543 15.8083 116.499 15.639C116.89 15.6244 116.511 16.3615 116.906 16.3867C119.398 16.4927 123.186 17.3794 124.534 14.4579C126.116 14.4797 128.048 14.5999 129.579 15.2533C129.752 15.3234 129.916 15.3989 130.071 15.4797C131.087 16.0405 129.894 16.5341 131.251 16.5181C131.564 16.5271 131.329 15.8118 131.801 15.8808C133.783 16.1633 136.094 17.5647 137.718 19.511C138.048 19.8988 138.457 19.4967 138.624 19.5759C139.318 19.9366 139.571 20.8364 139.54 21.5989C139.513 22.3512 139.25 22.9873 139.233 23.1766C138.908 26.1673 138.798 27.8064 138.28 29.9945C138.149 30.4829 139.037 30.0925 138.933 30.5766C138.36 33.1133 137.335 35.4499 136.067 37.4406C135.782 37.8799 135.389 37.1786 135.224 37.3732C134.5 38.2259 135.502 38.9655 134.81 39.7843C134.665 39.9563 134.221 39.6014 134.149 39.6103C133.02 39.7403 133.993 40.8194 133.947 40.9774C133.402 42.9587 131.552 43.4215 130.838 45.1925C130.754 45.4043 131.613 45.2842 131.34 45.8577C130.999 46.5764 130.642 47.2963 130.288 47.9935C128.736 51.0756 126.94 54.1538 125.596 56.9161C125.35 57.4454 124.958 56.9069 124.886 56.9215C123.734 57.2521 124.981 57.9571 125.003 58.1191C125.067 59.2797 124.559 60.0419 125.402 59.8392C125.539 59.7935 125.69 59.689 125.85 59.5142C125.77 59.661 126.65 59.9945 127.702 59.989C128.76 60.0123 129.963 59.8766 131.158 59.6925C133.564 59.3159 136.039 58.7435 138.539 58.3013C140.404 57.9699 142.317 57.695 144.263 57.5693C144.352 57.562 144.378 58.2503 144.556 58.2329C146.727 58.0191 146.057 57.1225 147.054 55.51C147.312 55.1029 148.775 56.2759 148.905 56.3544C149.362 56.6521 149.294 57.7125 149.43 57.7559C150.544 58.0831 149.453 54.9686 150.694 54.5899C150.735 54.5832 150.748 55.2138 150.871 55.2395C151.251 55.3215 151.51 54.9894 151.887 55.0914C152.755 55.328 153.505 56.7736 154.339 55.5298C154.442 55.3695 153.667 53.6552 154.797 53.384C155.253 53.2775 157.196 52.604 157.779 52.5338C158.364 52.4645 158.182 53.162 158.229 53.1737C159.96 53.4289 159.505 53.9312 160.633 54.7921C161.762 55.6462 160.636 53.0679 160.834 52.668C161.032 52.2692 162.326 52.5102 162.669 52.6301C163.011 52.751 162.809 53.2299 163.088 53.2675C164.941 53.5011 163.303 51.7115 163.663 51.1081C164.505 49.681 166.158 51.2849 167.337 51.0553C167.655 50.9932 167.243 50.6432 167.492 50.5008C168.478 49.9423 169.346 50.3015 170.314 49.2768C170.474 49.1089 170.958 47.5678 171.92 48.1646C172.057 48.2512 172.005 48.833 172.492 48.7585C173.219 48.6488 174.454 48.2536 175.092 47.7902C175.562 47.4481 174.628 46.9211 175.387 46.8824C175.724 46.8651 175.384 47.5573 176.003 47.4857C176.62 47.4158 177.998 46.7778 178.517 46.5206C179.033 46.2654 178.476 45.8075 178.501 45.7485C178.651 45.406 179.518 44.6581 179.603 44.6177C180.146 44.3516 180.695 44.0979 181.236 43.8582C185.068 42.1575 188.965 40.9283 192.369 38.4674C192.672 38.2488 192.102 37.7975 192.144 37.7581C193.081 36.8402 193.182 38.9164 194.269 38.953C193.419 37.8496 194.008 37.7788 194.683 37.1634C195.008 36.865 194.518 36.5427 194.521 36.4751C194.619 35.4407 195.562 36.0792 195.78 36.1937C196.577 36.6165 196.445 35.5788 196.979 35.8571C197.517 36.1279 197.39 37.1548 198.114 36.6524C198.037 36.1048 196.775 35.395 197.2 34.8516C198.798 32.8244 203.082 30.9041 204.709 29.7194C206.329 28.5603 206.763 28.0708 207.766 27.4619C209.574 26.3456 208.364 26.1126 209.042 24.9339C209.721 23.7434 210.823 25.9287 211.303 26.1833C211.782 26.4368 211.586 25.9096 211.945 25.9625C212.303 26.0153 212.165 26.607 212.637 26.3207C212.97 26.1175 213.307 25.2543 213.4 24.5727C213.447 24.2616 213.443 23.9895 213.374 23.8284C212.894 22.7306 211.605 22.3253 212.914 21.6542C212.99 21.6149 213.227 22.2503 213.499 22.0766C215.63 20.7016 217.459 18.8666 219.484 17.3275C219.768 17.112 220.057 17.8149 220.226 17.6972C222.028 16.4614 220.466 16.3279 220.706 14.3762C220.94 14.8936 221.284 15.236 221.614 15.4886C221.776 15.6175 221.956 15.7107 222.082 15.8267C222.124 15.8724 222.225 16.0138 221.928 16.0147C221.77 15.9924 221.653 15.8643 221.609 15.8184C221.558 15.7626 221.532 15.7551 221.502 15.7496C221.253 16.0639 221.118 16.4807 221.09 17.0269C221.034 17.9262 221.79 17.8292 222.262 18.4961C222.404 18.7093 221.812 19.3079 222.146 19.4798C223.239 20.0326 224.627 19.5631 223.862 21.1737C223.826 21.243 223.236 20.9124 223.159 21.1583C222.647 22.7299 223.8 23.132 223.62 24.8856C223.477 26.2586 222.29 28.4729 221.909 29.9588C220.002 29.5865 220.189 31.1157 221.423 31.8976C221.214 32.866 221.14 33.9274 220.845 34.8478C220.745 35.1651 220.212 34.8871 220.147 34.9209C219.126 35.4533 220.379 36.0229 220.41 36.2356C220.692 38.5465 219.639 40.4143 220.697 42.5466C220.736 42.6246 222.084 42.6674 221.139 43.2893C221.075 43.3341 220.412 42.6629 220.438 43.6787C220.46 44.5599 220.095 46.2318 220.654 47.4895C220.728 47.6472 220.821 47.787 220.936 47.9094C221.179 48.2105 222.375 48.3011 221.933 49.1651C221.877 49.2914 221.507 49.4327 221.395 49.6516C221.084 50.3981 222.247 49.6804 221.73 50.8094C221.202 51.9443 221.807 53.6242 223.64 53.59C223.703 53.5939 224.472 52.7643 224.88 52.9396C225.542 53.2327 226.493 53.7367 227.258 53.8844C227.625 53.9556 227.522 53.25 227.587 53.2509C230.003 53.3172 231.678 53.9797 234.358 54.146C234.432 54.1501 234.527 54.1311 234.637 54.0977C235.254 53.914 236.302 53.2609 237.16 53.772C238.291 54.4175 237.65 57.8611 240.048 56.679C241.046 56.1841 241.355 51.872 243.529 53.5606C246.666 52.2204 249.996 52.2726 252.897 50.3257C253.027 50.2392 253.05 48.9775 253.38 48.8622C253.874 48.6914 254.353 49.083 254.713 48.973C256.239 48.5167 257.377 47.505 258.787 46.933C259.321 46.714 259.381 47.3082 260.018 47.0427C260.658 46.773 260.747 45.9084 261.748 45.8155C262.496 45.7507 263.815 46.7862 264.746 46.5067C264.601 46.2068 264.518 45.9602 264.486 45.7483C264.37 45.01 264.872 44.6959 265.516 44.0074C265.674 43.8365 265.222 43.4874 265.284 43.3829C265.531 42.9479 266.079 43.1435 266.292 42.6957C266.345 42.5877 266.105 42.1366 266.134 42.0231C266.365 41.043 267.889 41.5091 268.156 41.5882C269.17 41.8896 269.142 41.1406 269.779 41.1195C270.418 41.0962 269.872 41.8432 270.536 41.6693C271.913 41.3074 273.391 40.3266 274.59 39.6103C275.067 39.3217 274.384 38.9433 274.444 38.8885C275.324 38.1382 276.697 38.1191 276.491 36.634C279.073 39.1408 276.886 35.9756 278.628 35.6566C278.766 35.6324 279.833 36.9166 279.552 37.3984C279.27 37.8805 278.351 37.867 277.976 38.5639C277.889 38.7278 277.934 40.5499 277.873 40.7C277.405 41.8719 275.96 39.8468 275.843 39.7597C274.553 38.8346 274.462 40.8595 274.259 41.118C273.344 42.2965 272.146 42.5984 271.326 43.5092C270.787 44.1017 271.524 45.5515 270.971 45.8072C269.122 46.6562 267.445 44.9862 266.692 47.6065C266.542 48.1158 267.507 49.3138 266.211 49.098C266.082 49.0768 265.933 49.0417 265.758 48.9903C265.633 48.9565 264.094 48.3053 263.894 49.3059C263.869 49.4321 264.101 49.8949 264.027 49.9799C263.521 50.5433 262.926 50.3747 262.319 50.884C261.716 51.3904 261.005 52.0478 260.129 52.2513C259.606 52.3736 258.592 51.7675 258.271 51.6503C257.353 51.3103 257.097 52.6314 256.367 52.0434C255.645 51.4475 255.94 49.9642 254.693 49.9012C255.166 51.1613 255.598 52.4761 256.044 53.7549C253.64 54.6847 251.102 55.1566 248.635 55.9955C248.328 56.1007 248.861 56.6918 248.536 56.8224C247.151 57.3699 245.767 57.2252 244.312 57.7952C243.188 58.2378 242.041 59.2704 240.783 59.6898C239.737 58.3188 237.947 59.1225 236.513 59.1033C236.01 59.0987 236.011 58.6851 235.655 58.577C235.192 58.4403 234.975 58.4964 234.867 58.6451C234.659 58.9324 234.877 59.5628 234.643 59.715C233.086 60.6827 232.897 57.6182 231.129 57.638C231.047 57.6429 229.743 59.2061 229.546 59.2857C228.381 59.8438 229.417 58.7031 228.756 58.5104C227.536 58.1366 226.785 57.6294 225.178 57.7077C224.727 57.7389 223.277 58.3692 222.663 57.2455C222.587 57.1007 222.864 56.629 222.786 56.5611C221.398 55.338 220.555 56.7668 219.16 56.5234C217.708 56.2516 217.028 53.7735 217.121 53.2611C217.199 51.895 217.898 53.6708 218.025 53.6356C219.207 53.4051 218.158 52.5786 217.713 51.6637C219.028 50.6541 218.436 49.688 217.287 50.7195C217.16 50.8458 217.666 51.4609 217.713 51.6637C216.045 51.8157 214.943 50.2672 215.692 48.5186C215.783 48.3702 215.892 48.2179 216.02 48.0629C216.621 47.3487 217.517 47.7445 216.956 46.092C216.715 45.3379 215.612 45.7821 215.22 45.1044C214.324 43.5235 215.323 41.348 215.197 39.7332C215.151 39.1367 214.506 39.7012 214.454 39.2889C214.318 38.1885 214.849 37.2651 214.7 36.1768C214.686 36.0773 214.008 36.259 214.03 35.9217C214.19 33.3584 214.934 31.2619 215.385 28.7637C215.602 27.5532 215.653 25.3635 215.954 24.1848C216.477 22.1336 217.873 19.8285 217.801 18.2235C217.752 17.1923 217.065 17.3698 216.643 16.9574C216.281 16.6165 216.37 16.2422 216.592 15.9257C216.668 16.3611 216.552 16.6877 217.233 18.1289C217.512 18.6961 218.338 19.8215 219.53 20.4176C220.713 21.0284 221.773 21.0757 222.53 21.0031C223.743 20.8492 224.172 20.528 224.411 20.4005C224.682 20.2334 224.781 20.1338 224.86 20.0523C225.125 19.7444 224.988 19.7008 224.917 19.6408C224.729 19.5485 224.488 19.5437 224.411 19.5247C224.405 19.5248 224.516 19.3564 224.518 19.243C224.511 19.1377 224.449 19.0282 224.274 18.9583C223.669 18.5581 224.405 19.5259 224.411 19.5247C224.263 19.4366 222.78 20.789 222.58 21.1849C222.475 21.3958 223.016 21.7336 222.951 21.8368C221.446 24.2463 219.507 26.4218 217.208 28.1717C217.162 28.1973 216.741 27.6348 216.639 27.7012C216.57 27.7449 216.504 27.7899 216.441 27.8359C215.195 28.7305 214.969 30.0082 214.301 31.2415C213.599 32.5343 212.639 33.1246 211.248 32.7238C210.551 33.5067 209.058 34.0354 208.196 34.3072C207.326 34.5858 208.076 35.7229 208.031 35.7925C206.695 37.9209 205.125 38.1203 203.073 39.4335C202.095 40.0585 200.308 41.5183 199.333 42.3302C198.564 42.9766 197.891 43.0297 197.223 43.692C197.133 43.7807 197.561 44.2271 197.541 44.2669C197.055 45.4262 196.689 43.9079 196.371 43.795C195.212 43.3812 194.555 43.1866 193.677 44.2371C193.475 44.4784 193.801 46.7609 193.377 47.1485C192.826 47.6479 192.689 46.8466 192.125 47.3792C192.076 47.4241 192.321 47.8281 191.902 48.0393C189.967 49.021 187.762 49.8765 185.774 50.9139C185.501 51.054 186.186 51.5497 185.796 51.7638C185.61 51.865 185.422 51.9659 185.231 52.0659C183.541 52.9522 181.68 53.7501 179.901 54.1912C179.413 54.3098 179.486 53.7054 179.325 53.6064C178.348 53.0091 178.044 54.6281 177.91 54.7135C174.792 56.7566 171.741 56.6352 168.491 58.4796C168.317 58.5824 167.362 60.4966 166.282 59.549C166.208 59.4867 165.133 58.5079 164.86 59.5375C164.843 59.6018 165.466 60.0833 164.743 60.2679C164.02 60.4525 163.034 61.2647 161.831 60.9058C161.453 60.7928 160.319 59.8239 159.737 61.0949C159.7 61.1833 159.012 63.8445 158.006 62.4926C157.843 62.2691 157.41 60.6372 156.586 61.8099C156.428 62.0365 156.923 62.2739 156.442 62.6738C155.708 63.2876 154.459 63.2049 153.63 64.2441C153.49 64.4262 153.04 65.7606 152.167 65.1137C152.031 65.0122 152.054 64.4175 151.71 64.4545C150.06 64.6305 148.522 65.4661 146.817 65.5339C146.218 65.5574 146.266 64.5995 145.609 64.5264C144.957 64.4523 143.719 64.5408 143.199 65.1063C142.683 65.6706 143.731 66.8992 142.823 67.2534C142.186 67.5006 141.534 67.712 140.89 67.8901C137.416 68.8221 133.929 69.0543 129.67 69.3404C128.894 69.375 129.598 69.862 128.372 69.9249C127.418 69.9526 126.262 70.0071 124.563 69.7332C122.974 69.4992 120.109 68.5566 118.142 66.2973C116.743 64.8387 115.713 62.3194 115.574 60.5772C115.382 58.7866 115.599 57.5438 115.817 56.5475C116.291 54.5736 116.944 53.3891 117.599 52.5276C119.387 50.3561 118.807 53.6864 119.867 51.983C120.371 51.1975 119.236 49.6066 119.277 49.387C119.686 47.1837 121.01 46.2192 121.651 44.4697C121.783 44.1112 121.003 44.1281 121.124 43.824C121.19 43.6544 121.268 43.4869 121.355 43.3208C121.785 42.4953 122.416 41.751 122.772 40.981C122.963 40.5661 122.464 40.3918 122.695 40.0427C123.24 39.2092 123.84 38.5415 124.709 37.9295C124.788 37.873 125.097 38.6901 125.45 38.0612C126.016 37.0461 127.093 35.9777 127.192 34.5943C127.219 34.1823 126.144 33.6691 127.226 33.2804C127.45 33.1995 128.681 33.9711 127.92 32.6168C127.805 32.375 126.837 30.3576 128.074 30.092C128.405 30.0153 129.675 29.9524 129.632 29.492C129.621 29.4305 128.944 29.4384 128.988 29.1002C129.149 27.9308 129.483 26.8287 129.374 25.9744C129.341 25.7604 128.652 25.9847 128.618 25.6991C128.569 25.3128 128.546 25.0285 128.582 24.979C128.614 24.9191 128.762 25.1282 128.998 25.286C129.169 25.3953 129.536 24.9604 129.596 24.9423C130.027 24.7072 129.962 24.758 129.832 24.9357C129.697 25.1076 129.489 25.3883 129.483 25.4329C129.443 25.7006 129.528 25.6882 129.482 25.5833C129.447 25.483 129.307 25.3088 129.018 25.3249C128.852 25.3318 128.828 25.9686 128.786 26.0163C128.394 26.4934 128.836 25.4336 128.635 25.2714C128.545 25.2033 128.442 25.144 128.326 25.0933C127.7 24.804 126.716 24.8135 125.834 24.9033C125.441 24.9434 125.901 25.6576 125.552 25.6865C123.486 25.8775 121.068 26.1144 118.701 26.1072C118.251 26.1058 118.432 25.5078 118.32 25.3973C117.548 24.6215 116.819 25.997 116.625 26.153C115.768 26.8573 115.29 26.4502 114.437 26.723C110.337 28.0474 104.998 29.113 100.905 30.0819C95.5923 31.3416 91.3397 32.1244 86.3829 33.8958C86.0676 34.0081 86.6208 34.6092 86.3522 34.7151C82.876 36.0505 79.308 36.9623 75.847 38.4023C75.5631 38.5191 76.2132 39.0386 75.7658 39.2483C74.8546 39.6816 73.6246 40.0757 72.5932 40.2039C72.0879 40.2686 72.5158 39.4739 72.0085 39.5517C70.8222 39.7336 69.6383 40.1051 68.5363 40.6235C68.0717 40.8442 69.0429 41.2601 68.4207 41.4939C64.8978 42.832 61.4453 44.2084 57.7282 45.0568C56.9653 45.2329 56.2023 45.3834 55.4366 45.5039C55.1195 45.5546 54.3365 44.2828 53.8096 44.7821C53.9061 45.1805 54.0776 45.6273 54.2106 46.0419C48.1176 48.5929 41.8413 50.471 35.7006 52.8718C35.4449 52.9721 36.1754 53.514 35.6837 53.7112C32.7869 54.8749 30.1088 56.219 26.9064 56.7611C26.5888 56.8164 26.2039 55.4929 25.4281 56.0563C25.2963 56.1541 24.0969 56.8807 23.8915 57.2981C23.8653 57.3588 24.3558 57.8384 23.9546 58.0376C21.6356 59.1795 19.1543 60.1718 16.7663 60.9548C16.3865 61.0776 16.449 60.282 16.1763 60.3642C15.9715 60.4285 15.7747 60.4998 15.5862 60.5755C13.8778 61.2639 12.3294 62.5692 11.1576 62.7963C10.7529 62.8583 10.5336 62.539 10.1561 62.2196C9.79496 61.8874 9.33957 61.5271 8.88335 61.1675C8.84526 61.1338 8.82783 61.0995 8.82211 60.9906C8.81719 60.8984 8.80314 60.6371 8.71058 60.5915C8.61225 60.5794 8.37608 60.2896 8.10159 60.3605C7.30138 60.6306 6.54609 61.1666 5.60019 61.1491C4.68519 61.2122 3.72362 60.9458 2.90977 61.5495C2.85346 61.6281 2.75238 62.0368 3.33347 63.1218C3.62223 63.6463 4.26111 64.3354 4.95572 64.7073C5.64964 65.0917 6.21714 65.1938 6.54907 65.2543C7.22059 65.3527 7.23838 65.3658 7.26418 65.4722C7.26766 65.5215 7.27071 65.5838 7.20535 65.6627C7.12068 65.734 7.03395 65.8635 6.33797 65.8916C6.26884 65.8875 6.04032 65.89 5.50436 65.7496C4.99532 65.6183 3.99626 65.2172 3.18199 64.3597C1.54801 62.4796 1.69816 61.225 1.53405 60.6459C1.40589 59.8838 1.55569 58.7962 1.5842 58.4382C1.67526 57.6078 0.451805 58.7293 0.883832 57.0635C1.38354 55.5211 2.49222 55.2263 2.96628 54.3161C3.42607 53.4642 2.68905 53.0344 3.85176 52.0504ZM204.3 35.492C203.289 35.4305 204.618 37.4239 204.957 36.4581C204.972 36.4088 204.352 35.4935 204.3 35.492ZM250.507 53.4101C249.198 52.7483 249.024 54.4348 249.974 54.9786C250.936 55.5148 250.91 53.6076 250.507 53.4101ZM259.959 48.7049C258.548 48.441 259.778 51.6086 260.657 50.4482C260.708 50.3814 260.042 48.7194 259.959 48.7049ZM10.5533 59.4738C10.5229 59.4536 10.0328 59.7379 10.0432 59.7711C10.2265 60.5601 11.1696 60.013 10.5533 59.4738ZM268.776 43.2417C268.234 43.02 267.57 43.9897 268.243 44.2711C268.788 44.4966 269.453 43.5174 268.776 43.2417ZM167.781 52.1357C167.758 52.1068 167.333 52.2334 167.412 52.4187C167.67 53.0156 168.182 52.625 167.781 52.1357ZM283.513 33.8045C281.327 35.2222 278.468 33.7775 280.912 32.4529C281.356 32.2091 280.544 33.8079 281.212 33.6451C282.444 33.3387 282.041 31.4588 283.559 31.5102C283.84 31.5187 283.646 33.7279 283.512 33.8104C283.512 33.8084 283.513 33.8065 283.513 33.8045ZM202.229 33.451C202.199 33.4345 201.689 33.7733 201.695 33.8074C201.876 34.6176 202.91 33.9307 202.229 33.451ZM142.865 58.6274C142.812 58.5728 141.437 58.8712 141.406 58.9422C141.003 60.3333 143.81 59.7279 142.865 58.6274ZM221.853 29.9735C222.491 30.7555 222.453 31.5298 221.424 31.8948C221.576 31.2608 221.693 30.6133 221.853 29.9735ZM279.954 25.5208C280.133 25.1271 280.662 25.0068 281.148 25.0201C281.3 25.0235 281.51 25.3968 281.626 25.414C281.854 25.4471 281.846 25.191 282.092 25.2495C282.175 25.2704 282.533 25.8423 282.611 25.8519C283.033 25.9004 283.156 25.588 283.487 25.5099C285.12 25.1243 286.449 24.3672 287.827 23.597C288.281 23.3435 289.153 23.3963 289.375 22.8459C289.401 22.7813 288.984 22.3625 288.961 22.3183C288.607 21.6387 289.347 22.5728 289.542 22.6118C290.314 22.7644 290.751 22.446 290.938 21.9682C291.017 21.7635 290.084 21.0291 290.672 21.3831C290.712 21.4067 291.097 21.903 291.181 21.9161C291.373 21.9449 291.468 21.7059 291.571 21.6783C291.772 21.6274 291.79 21.6022 291.922 21.4902C292.105 21.3415 292.523 21.3764 292.61 21.0994C292.628 21.0389 292.136 20.6207 292.123 20.4824C292.111 20.3443 292.312 20.2284 292.472 20.2853C292.632 20.3424 292.956 20.7301 293.045 20.8045C293.8 21.4335 293.058 20.2724 293.059 20.2257C293.107 19.3891 294.02 19.5727 294.431 19.1603C294.74 18.8472 294.889 18.3345 295.204 18.0603C295.581 17.7355 296.124 17.6704 296.412 17.277C296.443 17.2361 295.852 16.7628 295.888 16.712C295.98 16.5841 296.077 16.4629 296.184 16.3506C296.529 15.9872 296.962 15.7192 297.586 15.6027C297.669 15.5877 298.107 16.0927 298.219 16.1037C298.896 16.1636 300.314 16.5282 298.291 14.4568C298.555 14.3229 298.857 14.148 299.459 14.3373C299.846 14.4582 300.298 15.0425 300.19 14.6919C300.167 14.6135 299.646 14.2512 299.646 14.1647C299.649 13.8016 300.001 13.6995 299.921 13.2825C299.903 13.1968 299.456 12.849 299.387 12.7724C298.829 12.1508 300.027 12.8422 300.135 12.8666C300.942 13.0456 300.883 12.6544 301.107 12.4005C301.16 12.3401 300.505 11.9424 300.534 11.8679C300.697 11.486 300.988 11.2181 301.492 11.1146C301.606 11.0924 302.073 11.5492 302.154 11.5585C302.505 11.5935 301.554 10.8215 301.868 10.8439C301.933 10.8476 302.364 11.1978 302.417 11.2292C303.244 11.7206 302.215 10.8341 302.206 10.7957C302.072 10.292 303.352 10.9414 303.382 10.559C303.385 10.5126 302.765 10.1706 302.806 10.0659C303.076 9.36402 303.674 8.84425 304.527 8.56868C304.662 8.51993 305.058 8.87782 305.116 8.90763C306.032 9.36319 304.934 8.55493 304.911 8.49743C304.755 8.05952 305.86 8.44574 304.584 7.42529C305.113 7.10222 305.345 6.51885 305.542 6.14397C305.595 6.04262 305.635 5.98116 305.683 5.92753C305.728 5.89607 305.762 5.86059 305.795 6.0916C305.828 6.1736 305.791 6.45748 306.049 7.01775C306.15 7.24293 306.488 7.73898 306.93 7.97831C307.147 8.10485 307.375 8.18222 307.573 8.21852C307.764 8.25143 307.855 8.24409 307.97 8.23728C308.4 8.19326 308.536 8.04268 308.543 7.96945C308.568 7.88217 308.535 7.804 308.468 7.73724C308.454 7.72585 308.154 7.12581 308.122 7.10847C307.727 6.90023 308.255 7.80636 308.884 8.92042C309.051 9.19341 308.026 8.03831 307.937 7.96443C307.641 7.66774 307.084 6.83816 307.02 6.78607C306.488 6.39758 308.524 8.99224 308.4 9.09358C308.392 9.09301 308.029 8.6063 307.978 8.56932C307.82 8.45375 307.934 8.67261 307.76 8.5451C307.36 8.24932 306.281 7.06251 306.72 7.91524C306.78 8.02356 308.028 9.41686 307.841 9.46334C307.767 9.47936 307.54 9.72646 307.381 9.70865C307.224 9.68813 306.867 9.19739 306.844 9.18288C306.092 8.79235 305.948 8.47593 305.044 7.70535C304.141 6.94076 306.088 8.95884 306.264 9.22267C306.441 9.48516 305.846 9.14305 305.65 9.01381C305.456 8.88333 305.237 8.56308 305.114 8.50085C304.308 8.10288 305.984 9.59576 306.222 9.98419C306.784 10.9073 305.217 9.53117 304.927 9.53119C304.849 9.53088 305.215 9.83579 305.211 9.90171C305.193 10.1584 304.648 9.7851 304.904 10.3711C304.946 10.4668 305.701 11.4815 304.961 10.9258C304.855 10.8443 304.517 10.4489 304.378 10.4249C304.17 10.3882 303.933 10.4686 303.963 10.687C303.985 10.8482 304.678 11.36 304.4 11.2659C304.276 11.224 303.99 10.8013 303.785 10.7521C303.582 10.7022 303.405 10.9182 303.342 11.0089C303.28 11.0992 303.789 11.504 303.815 11.5405C303.96 11.7502 304.039 12.1203 304.032 12.126C303.526 12.7734 302.122 12.6802 301.831 13.5327C301.806 13.6011 302.34 14.029 302.341 14.0441C302.396 14.4082 301.18 13.0475 300.62 12.7589C301.66 13.676 301.409 13.5778 301.409 13.8041C301.409 13.914 301.836 14.2426 301.872 14.2851C302.394 14.9219 301.558 14.2762 301.384 14.1477C300.743 13.675 301.377 14.3693 300.948 14.0549C300.523 13.7412 300.024 13.1311 299.93 13.2495C300.27 13.6134 301.306 14.4009 301.386 14.6259C301.692 15.4716 300.379 15.4127 300.048 15.6261C299.717 15.8402 299.717 15.9777 299.448 16.0119C298.96 16.0734 299.771 16.6093 299.948 17.0735C300.125 17.5391 298.423 15.8903 298.019 15.5793C297.615 15.2682 297.984 15.6415 297.747 15.4881C297.509 15.3347 297.309 15.0385 297.166 15.0428C297.022 15.0472 297.523 15.8477 297.9 16.225C298.699 17.0239 299.669 17.7113 299.184 17.6349C299.155 17.6301 298.719 17.1831 298.634 17.1855C298.367 17.1983 298.152 17.2629 297.948 17.3414C297.654 17.4469 297.386 17.5842 297.017 17.6214C296.932 17.6297 296.445 17.1341 296.389 17.1339C295.806 17.1305 296.779 17.7912 297.625 18.7953C296.35 17.6313 295.475 17.0288 295.28 17.2388C295.163 17.3646 295.753 17.8344 296.083 18.2656C296.182 18.3953 295.71 18.151 295.965 18.3984C296.796 19.2089 297.854 19.9681 297.271 19.8534C297.244 19.8472 296.79 19.4027 296.732 19.4115C296.352 19.4675 297.251 20.2814 297.16 20.6131C297.089 20.8732 296.245 20.7235 295.974 20.8555C294.502 19.5918 294.668 20.0816 295.618 21.0299C295.46 21.1308 295.391 21.3285 295.137 21.3426C295.05 21.3472 294.647 20.9538 294.596 20.9202C293.795 20.392 294.737 21.2942 294.751 21.3568C294.855 22.001 293.879 21.6262 294.356 22.5555C294.374 22.5889 295.389 23.476 294.567 22.9235C294.511 22.8852 294.128 22.3875 293.969 22.5023C293.81 22.6175 293.028 22.4239 293.335 23.0287C293.41 23.1741 294.144 24.0013 293.406 23.5503C293.306 23.4889 293.022 23.2256 292.841 23.1063C292.265 22.727 293.279 23.6379 292.332 22.9654C291.386 22.293 290.595 21.8866 291.035 22.6052C291.047 22.6269 291.834 23.3686 291.767 23.4215C291.66 23.5053 291.366 23.5064 291.281 23.6186C291.241 23.6725 291.783 24.0699 291.785 24.0867C291.786 24.6705 291.122 24.5324 290.614 24.7366C290.52 24.7735 291.061 25.5521 290.396 25.221C289.668 24.8586 287.261 22.605 287.588 23.4378C287.718 23.7724 290.786 26.6135 288.924 25.4694C288.948 26.2796 287.74 26.0019 287.94 26.9604C287.949 27.003 288.792 27.8123 288.739 27.8515C288.658 27.9083 288.205 27.6014 288.134 27.631C287.825 27.7474 288.019 28.244 287.788 28.4105C287.701 28.4745 287.29 28.0877 287.186 28.164C287.083 28.24 287.602 28.7758 287.219 28.678C286.927 28.6023 285.675 27.7375 285.432 27.7551C286.582 28.7112 286.484 28.7808 286.658 29.1913C286.692 29.2707 287.12 29.5687 287.157 29.6233C287.316 29.8529 286.938 29.6334 287.117 29.8752C287.16 29.9334 287.553 30.2587 287.611 30.3246C288.114 30.897 287.099 30.3223 286.922 30.2222C286.251 29.8422 286.724 30.3123 286.428 30.2013C286.132 30.0903 285.941 29.7347 285.725 29.7117C285.279 29.663 285.141 29.9609 284.963 30.1399C284.895 30.213 285.465 30.5931 285.468 30.6136C285.471 30.8825 284.777 30.5844 285.754 31.5346C282.948 29.419 285.938 31.8468 285.208 31.6292C285.149 31.6111 283.846 30.5812 283.715 30.3575C283.583 30.1338 284.07 30.359 283.855 30.0217C283.805 29.9423 282.709 28.8247 282.651 28.7471C282.196 28.1404 284.13 29.6952 284.241 29.7744C285.446 30.6244 284.281 29.4022 284.226 29.2863C283.974 28.7571 284.377 28.8168 284.216 28.416C284.113 28.1553 282.867 27.1125 282.973 27.0616C283.325 26.8923 285.154 28.2383 283.849 26.7303C283.571 26.4085 282.155 25.3334 283.396 26.0241C283.474 26.0681 284.582 26.733 284.028 26.1338C283.959 26.0583 283.559 25.7292 283.537 25.6874C283.398 25.4139 283.768 25.6135 283.7 25.3853C283.632 25.1575 283.508 24.845 283.74 24.8396C283.88 24.8357 284.698 25.3595 284.908 25.4763C285.511 25.8151 284.737 25.0007 285.42 25.4666C286.108 25.9346 286.98 26.8523 287.522 27.0371C286.49 26.1741 285.437 25.2809 284.403 24.4094C284.722 24.0972 285.337 24.0376 285.577 23.6546C285.606 23.6064 285.013 23.1883 285.029 23.1247C285.1 22.8593 285.638 23.0188 285.646 22.688C285.649 22.4309 285.203 21.7702 285.19 21.485C286.454 22.3711 286.253 21.7962 286.507 21.7119C286.595 21.682 286.907 21.9493 287.046 21.9919C287.563 22.1466 286.455 21.3518 286.328 21.1697C285.788 20.3908 288.166 22.3467 288.296 22.0723C288.303 22.059 287.167 20.8587 287.106 20.7729C286.703 20.2166 287.562 21.1179 287.722 21.1151C288.015 21.1102 288.4 21.2609 288.177 20.779C288.11 20.6373 287.427 19.8597 288.115 20.2708C288.205 20.3246 288.614 20.6801 288.647 20.6903C289.21 20.8434 287.909 19.7428 287.557 19.2648C287.204 18.7866 288.243 19.3788 288.532 19.5628C289.277 20.039 288.762 19.8716 288.824 19.9318C289.561 20.647 289.527 20.4125 289.671 20.3763C290.961 21.4382 290.992 21.2457 289.815 20.3345C289.686 20.2352 289.745 20.4069 289.671 20.3763C288.484 19.2402 288.442 18.9644 289.746 19.7948C290.356 20.1842 290.939 20.7922 290.891 20.3739C290.869 20.1847 289.957 19.4817 289.792 19.1912C289.417 18.5251 290.458 18.9568 290.507 18.6372C290.524 18.5217 289.981 18.1887 289.976 18.0958C289.962 17.8479 290.425 18.0325 290.358 17.7371C290.351 17.7099 289.822 17.3141 289.852 17.2656C290.069 16.8913 290.633 16.8808 290.932 16.5474C291.075 16.3883 291.051 15.8559 291.251 15.7348C291.598 15.518 292.636 15.7817 292.675 15.3789C292.704 15.1173 292.173 14.723 291.893 14.3594C291.349 13.6564 292.741 14.4324 292.95 14.5595C292.957 14.5637 292.953 14.8062 293.274 14.9524C293.845 15.3701 292.951 14.5631 292.95 14.5595C293.086 14.6412 293.444 14.4566 293.397 14.3185C293.371 14.2431 292.884 13.8506 292.88 13.819C292.835 13.4865 292.857 13.2007 292.94 12.9768C293.052 12.6906 293.259 12.491 293.566 12.3838C293.582 12.3853 294.098 12.8563 294.128 12.8541C294.557 12.8358 294.039 12.1313 293.817 11.6156C293.594 11.1004 293.846 11.072 294.836 11.7639C294.835 11.5379 295.417 11.681 295.76 11.7792C296.104 11.8769 295.103 10.956 295.092 10.9278C294.733 10.0369 295.475 10.3752 295.848 10.1425C296.027 10.0328 296.139 9.61423 296.194 9.33293C296.229 9.11652 296.538 9.25052 296.499 8.99093C296.494 8.95606 296.031 8.56437 296.019 8.5436C295.608 7.91827 296.641 8.98289 296.862 9.13333C297.664 9.68146 298.098 9.96636 297.919 9.49269C297.877 9.38427 296.412 7.82766 296.386 7.67261C296.354 7.47424 296.883 8.02701 296.835 7.80708C296.831 7.78878 296.483 7.47017 296.552 7.42627C296.897 7.18727 297.393 7.05807 297.63 6.73757C297.664 6.69494 297.072 6.23243 297.112 6.16223C297.292 5.84291 297.613 5.54627 298.128 5.51563C298.256 5.51042 298.593 5.91568 298.719 6.0092C299.48 6.57478 298.616 5.50271 298.617 5.46395C298.587 4.55227 299.902 4.98189 299.96 4.09975C299.95 4.06071 299.171 2.77317 300.146 3.57924C300.212 3.6318 301.202 4.46332 300.681 3.74563C300.648 3.70056 300.129 3.28114 300.284 3.22663C300.439 3.17197 300.305 2.69081 300.95 3.08373C301.162 3.20035 302.15 4.03247 301.613 3.13936C301.571 3.0808 300.272 1.13982 301.417 2.25715C301.605 2.44164 302.707 3.71857 302.31 2.91679C302.24 2.75539 301.918 2.53583 301.873 2.26406C301.806 1.84321 302.311 2.00748 302.042 1.25796C301.993 1.12606 301.429 0.108651 302.144 0.654652C302.252 0.742988 302.551 1.22432 302.671 1.21088C302.959 1.18057 303.148 1.01791 303.36 0.862185C303.624 0.669354 303.948 0.464083 304.398 0.43754C304.73 0.414186 305.034 1.27859 305.499 1.32503C305.747 1.34494 306.098 1.31986 306.531 1.23288C307.164 1.08493 308.161 0.879935 309.305 0.935971C310.833 1.15032 311.085 0.952191 311.424 0.611773C311.604 0.47376 311.847 0.358911 312.407 0.580977C312.924 0.769832 313.961 1.53744 314.628 2.77141C315.866 5.16061 315.542 6.69122 315.556 7.19208C315.505 7.866 315.358 8.43758 315.28 8.68502C315.184 8.99526 315.073 9.25663 314.954 9.49244C314.838 9.71942 314.741 9.85437 314.626 10.0159C314.514 10.1689 314.394 10.3188 314.28 10.4484C314.174 10.5602 314.067 10.6679 313.962 10.775C313.751 10.9913 313.552 11.1993 313.41 11.39C313.322 11.5086 313.835 11.656 313.735 11.8529C313.371 12.5789 313.115 13.8835 311.865 13.7634C310.874 13.6536 310.636 12.8009 310.144 12.8873C309.911 12.9269 311.201 14.0303 311.22 14.0965C311.43 14.7448 310.67 14.5264 310.647 14.9555C310.642 15.044 311.242 15.3806 311.232 15.4521C311.197 15.7053 310.824 15.701 310.75 15.8983C310.718 15.9875 311.15 16.2816 311.067 16.3262C310.875 16.4365 310.59 16.4526 310.078 16.321C310.031 16.3086 309.582 15.8243 309.473 15.9294C309.305 16.0931 308.747 16.0325 308.979 16.5509C309.05 16.7058 309.998 17.4328 309.235 17.0726C309.076 16.9973 307.966 16.0888 308.825 17.0031C308.97 17.1529 310.085 18.4432 309.131 17.9145C308.88 17.7753 307.888 17.1404 307.974 17.3295C307.989 17.358 308.526 17.7123 308.525 17.8142C308.513 18.1688 308.277 18.357 308.254 18.7064C308.249 18.801 308.839 19.1262 308.814 19.2545C308.746 19.6065 308.353 19.8223 308 19.9243C307.868 19.9628 307.493 19.5527 307.442 19.5211C306.607 19.0042 307.57 19.9003 307.601 19.9837C307.777 20.4893 307.167 20.2573 307.127 20.5589C307.114 20.6413 307.626 21.0061 307.66 21.0529C307.982 21.5172 307.192 20.7085 307.039 20.6984C306.606 20.6664 306.461 20.9151 306.351 21.1649C306.312 21.2573 306.933 21.649 306.891 21.7269C306.648 22.201 306.25 22.5498 305.617 22.6579C305.497 22.6771 305.119 22.2607 305.011 22.1903C304.256 21.6947 305.033 22.6537 305.089 22.7649C305.346 23.272 304.925 23.0002 304.871 23.1964C304.791 23.5 304.636 23.7675 304.438 24.0059C304.011 24.5224 303.387 24.8918 302.89 25.2062C301.945 25.8068 300.98 26.019 300.344 26.8317C300.303 26.8829 300.869 27.3703 300.84 27.4215C300.441 28.0596 299.721 28.3435 299.336 28.9969C299.303 29.0497 299.847 29.5065 299.811 29.6089C299.739 29.8226 299.528 29.9655 299.228 29.9353C299.083 29.9215 298.769 29.3878 298.632 29.3826C298.311 29.3692 298.099 29.4952 298.003 29.7353C297.963 29.8386 298.558 30.2722 298.468 30.3652C297.864 31.0096 297.293 31.6813 296.013 31.5538C295.925 31.545 294.927 30.4705 295.014 30.7662C295.273 31.0805 295.586 31.4426 295.866 31.7747C295.055 32.7838 293.763 33.2 292.732 33.9343C292.689 33.9655 293.249 34.5108 293.167 34.5745C292.693 34.9434 292.369 35.4779 291.41 35.2501C291.315 35.2283 290.495 34.1351 290.484 34.4069C290.482 34.4558 290.385 34.7637 290.512 35.0402C290.532 35.0813 290.963 35.554 290.907 35.622C290.569 36.0082 290.06 36.216 289.426 36.2093C289.323 36.2072 288.98 35.6147 288.903 35.6084C288.362 35.5666 288.32 36.2448 287.641 35.9824C287.186 35.8042 286.56 34.8056 285.762 33.959C285.65 33.8395 285.508 33.9123 285.101 33.3769C284.078 32.0307 283.035 30.4995 281.936 29.07C281.7 28.762 281.788 29.217 281.325 28.3926C281.294 28.3373 281.225 28.0012 281.063 27.7247C280.952 27.5334 280.509 27.0108 280.381 26.755C280.253 26.4996 280.639 26.9267 280.507 26.612C280.373 26.2941 279.879 25.6923 279.954 25.5208ZM297.293 12.2226C297.872 12.5553 296.104 10.9426 296.429 11.4372C296.447 11.4631 297.264 12.2066 297.293 12.2226ZM286.725 25.1904C287.652 25.7263 286.537 24.6398 285.828 24.2179C285.12 23.7968 286.444 25.0281 286.725 25.1904ZM286.132 27.117C286.907 27.4847 284.312 25.2984 284.697 25.9092C284.719 25.944 286.087 27.0957 286.132 27.117ZM286.065 33.3219C286.044 33.2977 285.936 33.3404 285.953 33.3672C286.36 34.0115 286.578 33.9249 286.065 33.3219ZM285.604 29.0756C286 29.3167 285.711 28.835 285.219 28.5348C284.823 28.2934 285.112 28.7757 285.604 29.0756ZM304.102 8.70486C304.129 8.72864 304.206 8.69739 304.063 8.55507C303.604 8.09658 303.655 8.30344 304.102 8.70486ZM283.644 31.5257C284.036 31.2476 286.381 32.809 285.818 32.9969C285.716 33.0312 285.251 32.2786 284.982 32.2082C284.491 32.0807 285.763 33.305 284.896 32.8761C284.737 32.7973 283.616 31.5376 283.641 31.5226C283.642 31.5236 283.643 31.5247 283.644 31.5257ZM299.486 14.0811C299.512 14.1001 299.607 14.0387 299.586 14.0158C299.06 13.4642 298.867 13.5884 299.486 14.0811ZM308.236 7.12343C308.245 7.15357 308.25 7.19653 308.129 7.22488C308.071 7.23781 307.982 7.23919 307.902 7.22238C307.816 7.20707 307.704 7.15598 307.704 7.13845C307.661 6.77487 307.886 6.61593 307.981 6.47544C308.092 6.3381 308.082 6.23289 308.06 6.22346C307.986 6.2059 308.024 6.50705 308.236 7.12343ZM295.932 20.8252C296.436 21.4118 296.411 21.5796 295.619 21.0301C295.735 20.9726 295.819 20.8855 295.932 20.8252ZM289.269 38.5179C288.828 39.387 287.88 40.1975 287.049 40.7341C286.789 40.9035 286.554 40.5197 286.359 40.6249C285.98 40.8297 285.9 41.2582 285.503 41.4349C285.37 41.4927 284.95 40.9445 284.822 41.0148C284.123 41.4035 283.81 42.0614 283.217 42.5659C280.316 45.0259 277.808 47.7334 275.19 50.4998C274.333 51.4049 272.895 52.2219 272.301 53.3883C272.232 53.5256 272.748 53.8246 272.768 53.8773C273.066 54.6937 272.232 53.8322 271.924 53.9626C270.703 54.4874 269.855 55.4588 269.329 56.479C269.107 56.9142 270.321 57.2716 269.506 57.237C269.451 57.2354 269.038 56.7491 268.904 56.81C268.601 56.9483 268.333 57.4621 268.152 57.6083C267.799 57.8916 267.758 57.9527 267.491 58.2753C267.121 58.713 266.451 59.0521 266.176 59.6234C266.119 59.7465 266.729 60.0109 266.683 60.2435C266.635 60.4775 266.249 60.874 266.014 60.9255C265.779 60.9768 265.435 60.5997 265.324 60.5533C264.392 60.1561 265.047 61.5012 265.022 61.5866C264.524 63.1213 263.119 63.6467 262.238 64.754C261.569 65.5978 261.055 66.6499 260.39 67.4271C259.596 68.352 258.681 68.941 257.992 69.9021C257.918 70.0032 258.599 70.3593 258.511 70.4836C257.569 71.8057 256.505 73.0096 255.101 73.9539C254.96 74.0482 254.571 73.4723 254.399 73.5417C253.357 73.9761 251.359 74.3847 253.25 76.6416C252.744 77.0953 252.146 77.6592 251.318 77.7658C250.784 77.835 250.454 77.0917 250.399 77.6549C250.386 77.7814 250.967 78.0663 250.91 78.2262C250.67 78.8992 250.05 79.3482 249.888 80.0749C249.857 80.2238 250.323 80.5475 250.379 80.6413C250.823 81.4095 249.419 80.9809 249.268 81.0111C248.131 81.2506 247.952 81.9429 247.419 82.5829C247.295 82.7318 248.033 83.0265 247.934 83.1868C247.417 84.0116 246.742 84.7538 245.89 85.2818C245.699 85.3981 245.312 84.8433 245.195 84.8782C244.685 85.0367 245.581 85.8767 245.108 86.0452C245.01 86.0816 244.607 85.6964 244.55 85.6712C243.642 85.2757 244.563 86.2943 244.545 86.3645C244.346 87.271 242.908 86.8052 242.565 87.5573C242.525 87.6482 243.209 87.9165 243.063 88.1451C242.087 89.6805 240.756 91.0414 239.2 92.0918C238.959 92.2547 238.671 91.7711 238.609 91.7442C237.638 91.3332 238.587 92.3254 238.571 92.428C238.415 93.2148 237.11 93.0207 238.072 94.4137C235.748 96.4246 234.584 99.3401 231.575 100.776C231.538 100.795 231.058 100.323 230.986 100.363C230.124 100.838 231.046 101.353 231.66 102.625C231.814 102.945 230.322 102.347 230.209 102.308C229.791 102.166 229.109 101.421 229.015 101.41C228.263 101.339 230.879 103.348 230.531 103.784C230.515 103.794 230.087 103.358 230.011 103.356C229.772 103.351 229.87 103.615 229.619 103.595C229.037 103.547 227.718 102.631 228.132 103.606C228.187 103.731 229.707 104.826 229.323 105.162C229.169 105.296 228.641 106.005 228.393 106.121C228.145 106.237 227.78 105.728 227.749 105.726C226.713 105.743 226.612 105.34 225.485 104.86C224.361 104.381 226.605 106.065 226.765 106.366C226.925 106.665 226.103 106.639 225.85 106.589C225.596 106.54 225.391 106.183 225.223 106.185C224.12 106.208 226.114 107.299 226.314 107.76C226.792 108.849 224.904 107.878 224.433 108.138C224.306 108.208 224.744 108.419 224.703 108.541C224.541 109.013 223.847 108.84 223.968 109.638C223.987 109.769 224.684 110.897 223.791 110.543C223.663 110.492 223.331 110.077 223.113 110.163C222.786 110.291 222.356 110.645 222.288 111.005C222.237 111.272 223.076 111.593 222.676 111.665C222.498 111.698 222.268 111.187 221.966 111.273C221.665 111.359 221.273 111.879 221.132 112.081C220.992 112.283 221.58 112.585 221.602 112.628C221.721 112.879 221.668 113.441 221.642 113.472C220.384 115.156 218.314 115.977 217.305 117.792C217.225 117.933 217.822 118.281 217.816 118.307C217.695 118.91 216.556 117.432 215.845 117.342C216.426 117.777 216.611 117.989 216.638 118.148C216.66 118.296 216.55 118.401 216.487 118.593C216.425 118.787 216.907 119.046 216.938 119.094C217.393 119.827 216.453 119.313 216.255 119.215C215.524 118.858 216.123 119.605 215.633 119.368C215.147 119.132 214.724 118.417 214.497 118.712C214.816 119.106 215.995 119.712 215.98 120.063C215.936 121.375 213.872 122.291 213.255 122.877C212.637 123.464 212.541 123.725 212.077 124.007C211.249 124.504 212.204 124.857 212.188 125.569C212.172 126.28 210.518 124.565 210.075 124.304C209.632 124.041 209.982 124.44 209.705 124.337C209.427 124.233 209.294 123.852 209.068 123.961C208.841 124.071 209.153 125.115 209.503 125.526C210.26 126.379 211.356 126.911 210.64 127.124C210.599 127.136 210.193 126.65 210.057 126.715C208.993 127.25 208.301 128.038 207.27 128.615C207.131 128.69 206.683 128.146 206.595 128.185C205.686 128.586 206.787 129.088 207.473 130.289C206.217 129.101 205.234 128.632 204.805 129.129C204.535 129.442 205.159 129.871 205.396 130.416C205.468 130.58 204.885 130.469 205.124 130.737C205.902 131.612 207.069 132.239 206.227 132.439C206.189 132.447 205.765 131.965 205.668 132.021C205.037 132.382 205.932 133.202 205.557 133.876C205.265 134.402 204.04 134.708 203.534 135.12C202.061 133.857 201.992 134.626 202.849 135.684C202.529 135.977 202.29 136.375 201.887 136.563C201.749 136.628 201.38 136.195 201.323 136.169C200.427 135.753 201.29 136.746 201.269 136.849C200.98 137.953 199.741 137.883 199.828 139.262C199.832 139.31 200.818 140.231 199.905 139.783C199.843 139.752 199.583 139.113 199.255 139.422C198.926 139.731 197.838 139.886 197.894 140.776C197.908 140.988 198.484 141.994 197.641 141.661C197.527 141.615 197.264 141.328 197.064 141.231C196.423 140.923 197.389 141.889 196.366 141.3C195.344 140.713 194.381 140.498 194.575 141.489C194.579 141.519 195.295 142.341 195.154 142.475C194.937 142.681 194.456 142.888 194.246 143.136C194.145 143.256 194.715 143.624 194.706 143.653C194.3 144.681 193.331 144.874 192.399 145.528C192.221 145.654 192.499 146.715 191.696 146.527C190.813 146.326 188.681 143.775 188.577 145.061C188.532 145.579 191.3 148.744 189.189 147.849C188.64 149.247 186.912 149.488 186.511 151.039C186.492 151.11 187.202 152.057 187.087 152.157C186.914 152.304 186.432 152.021 186.298 152.112C185.723 152.484 185.636 153.255 185.138 153.674C184.948 153.836 184.599 153.385 184.374 153.576C184.149 153.767 184.559 154.412 184.019 154.458C183.612 154.488 182.313 153.652 181.914 153.812C182.981 154.86 182.766 155.039 182.714 155.661C182.705 155.781 183.148 156.071 183.163 156.146C183.231 156.462 182.808 156.278 182.897 156.607C182.918 156.686 183.283 157.042 183.321 157.127C183.658 157.861 182.503 157.4 182.304 157.318C181.541 157.013 181.913 157.583 181.531 157.546C181.15 157.509 181.132 156.992 180.807 157.065C180.136 157.215 179.674 157.805 179.243 158.212C179.074 158.375 179.674 158.738 179.661 158.772C179.445 159.24 178.582 159.084 179.364 160.227C176.62 158.01 179.402 160.674 178.414 160.679C178.335 160.678 177.1 159.567 177.073 159.246C177.046 158.925 177.64 159.06 177.572 158.586C177.557 158.475 176.722 157.103 176.693 156.998C176.464 156.18 178.276 157.875 178.39 157.954C179.617 158.803 178.759 157.284 178.765 157.112C178.789 156.329 179.389 156.214 179.453 155.606C179.499 155.208 178.357 154.051 178.567 153.907C179.254 153.436 181.092 154.797 180.214 152.877C180.028 152.466 178.633 151.353 180.055 151.89C180.143 151.926 181.369 152.495 180.963 151.75C180.912 151.656 180.537 151.298 180.535 151.238C180.53 150.837 180.958 150.985 181.026 150.629C181.093 150.272 181.141 149.794 181.507 149.663C181.727 149.584 182.614 150.05 182.856 150.137C183.547 150.396 182.954 149.399 183.671 149.839C184.396 150.276 185.073 151.392 185.785 151.415C184.816 150.482 183.836 149.509 182.868 148.563C183.613 147.838 184.62 147.393 185.268 146.601C185.349 146.501 184.727 146.108 184.8 145.988C185.118 145.473 185.822 145.467 186.081 144.877C186.286 144.412 186.043 143.54 186.229 143.046C187.575 143.852 187.665 142.972 188.119 142.676C188.278 142.571 188.576 142.854 188.764 142.845C189.468 142.802 188.298 142.071 188.23 141.826C187.931 140.789 190.257 142.806 190.659 142.238C190.681 142.209 189.752 140.783 189.717 140.668C189.473 139.939 190.188 140.999 190.437 140.9C190.891 140.72 191.389 140.749 191.377 140.035C191.372 139.824 190.847 138.872 191.63 139.178C191.734 139.218 192.128 139.591 192.172 139.589C192.939 139.516 191.668 138.381 191.446 137.758C191.225 137.133 192.446 137.523 192.763 137.674C193.597 138.053 192.915 138.071 192.971 138.138C193.635 138.935 193.735 138.551 193.981 138.4C195.269 139.466 195.448 139.107 194.232 138.238C194.099 138.144 194.075 138.408 193.981 138.4C192.903 137.142 193.021 136.686 194.494 137.325C195.182 137.627 195.685 138.326 195.89 137.62C195.982 137.302 195.034 136.638 194.971 136.232C194.82 135.31 196.186 135.368 196.452 134.797C196.553 134.584 195.931 134.343 195.983 134.183C196.122 133.758 196.721 133.784 196.813 133.303C196.821 133.259 196.258 132.903 196.338 132.797C196.928 131.986 197.785 131.63 198.482 130.824C198.8 130.456 199.093 129.545 199.487 129.19C200.183 128.555 201.588 128.371 201.916 127.616C202.127 127.131 201.55 126.793 201.346 126.337C200.939 125.465 202.597 125.912 202.847 125.99C202.855 125.993 202.701 126.42 203.107 126.462C203.734 126.812 202.847 125.995 202.847 125.99C203.007 126.041 203.675 125.474 203.689 125.258C203.697 125.142 203.183 124.783 203.195 124.73C203.511 123.475 204.095 122.522 205.085 121.782C205.108 121.773 205.627 122.243 205.674 122.218C206.337 121.903 205.948 121.031 205.911 120.278C205.873 119.526 206.289 119.288 207.429 119.79C207.587 119.36 208.363 119.25 208.833 119.184C209.301 119.122 208.28 118.221 208.278 118.181C208.21 116.906 209.193 116.934 209.89 116.272C210.229 115.952 210.664 115.106 210.874 114.612C211.017 114.271 211.342 114.234 211.477 113.95C211.496 113.91 211.51 113.864 211.52 113.811C211.53 113.756 211.028 113.412 211.02 113.386C210.715 112.612 211.74 113.698 211.998 113.8C212.938 114.168 213.455 114.344 213.438 113.648C213.435 113.487 212.004 111.867 212.049 111.614C212.11 111.287 212.634 111.854 212.684 111.499C212.689 111.469 212.319 111.176 212.455 111.042C213.064 110.433 213.872 109.872 214.41 109.131C214.485 109.031 213.803 108.686 213.901 108.533C214.356 107.83 214.947 107.142 215.736 106.721C215.932 106.619 216.26 107.046 216.409 107.11C217.31 107.491 216.488 106.333 216.505 106.271C216.916 104.714 218.62 104.569 219.101 103.032C219.125 102.946 218.382 101.532 219.541 102.096C219.618 102.133 220.798 102.718 220.269 101.972C220.236 101.925 219.609 101.648 219.855 101.45C220.103 101.249 220.062 100.593 220.892 100.722C221.154 100.762 222.35 101.32 221.802 100.37C221.762 100.305 220.343 98.3794 221.725 99.2051C221.953 99.3414 223.246 100.427 222.87 99.5124C222.796 99.3362 222.398 99.2302 222.366 98.8953C222.313 98.3818 222.965 98.2916 222.659 97.4707C222.604 97.3264 221.918 96.3503 222.764 96.6845C222.897 96.7368 223.287 97.1514 223.424 97.0802C224.081 96.7448 224.235 95.9492 224.96 95.6664C225.218 95.5639 225.852 96.2292 226.2 96.1854C226.547 96.1415 227.048 95.8915 226.888 95.4249C226.728 94.9581 225.414 94.2772 225.571 93.8949C226.256 92.2296 227.978 91.4385 229.15 90.1712C229.323 89.9844 228.785 89.8249 229.011 89.5261C229.844 88.4211 230.954 86.2487 232.566 85.997C233.859 85.7937 233.628 87.1631 234.37 86.8106C234.726 86.6388 233.646 85.2856 233.658 85.1863C233.755 84.1975 234.703 84.2089 234.993 83.4759C235.053 83.3244 234.423 83.0175 234.48 82.8933C234.669 82.4656 235.207 82.2803 235.431 81.9097C235.531 81.7419 235.1 81.4441 235.243 81.33C235.579 81.0532 235.986 80.895 236.628 80.8746C236.687 80.8727 237.035 81.4778 237.251 81.2458C237.599 80.8691 238.373 80.6723 238.35 79.9006C238.342 79.6709 237.412 78.9216 238.29 79.1424C238.474 79.1882 239.533 80.1601 238.836 79.0467C238.72 78.861 237.871 77.2459 238.938 77.6349C239.219 77.7371 240.288 78.2782 240.275 77.9989C240.269 77.9583 239.697 77.648 239.756 77.4728C239.975 76.8616 240.429 76.4023 240.664 75.7848C240.725 75.6191 240.05 75.4015 240.159 75.1677C240.457 74.5242 241.126 73.9558 241.709 73.5572C241.925 73.411 242.247 73.8881 242.306 73.9112C243.248 74.2899 242.327 73.3373 242.328 73.2141C242.343 72.459 243.11 72.4858 243.327 71.9511C243.388 71.8046 242.831 71.4991 242.806 71.4405C242.576 70.8539 243.309 71.7384 243.531 71.6595C244.154 71.4408 244.503 70.9214 244.793 70.4294C244.898 70.248 244.185 69.9781 244.286 69.8206C244.876 68.8795 245.645 68.0259 246.629 67.4329C246.816 67.322 247.173 67.7703 247.3 67.8168C248.18 68.1458 247.493 67.0522 247.463 66.903C247.327 66.2232 247.822 66.3957 247.996 66.0298C248.836 64.2374 250.576 62.5811 251.87 61.2833C253.55 59.5936 255.117 58.4835 256.417 56.6343C256.501 56.5166 255.829 56.1659 255.894 56.0584C256.756 54.6913 257.959 53.6518 258.798 52.2596C258.867 52.1466 258.198 51.8542 258.291 51.6581C258.478 51.2527 258.85 50.849 259.298 50.6492C259.516 50.5509 259.81 51.1519 260.02 51.0453C260.508 50.7984 260.887 50.4057 261.12 49.9338C261.218 49.7316 260.448 49.5388 260.62 49.3112C261.771 47.7595 262.874 46.1857 264.823 45.2508C264.958 45.1856 266.175 46.0111 266.135 45.6116C265.832 45.3399 265.458 45.0411 265.125 44.7614C266.708 42.4165 268.855 40.5601 270.699 38.4022C270.776 38.3118 270.043 37.9834 270.189 37.8059C271.033 36.7791 271.696 35.6165 273.148 35.0513C273.293 34.9922 274.311 35.907 274.404 35.4633C274.42 35.384 274.66 34.7986 274.528 34.4908C274.507 34.4461 273.942 34.1298 274.05 33.967C274.683 33.0331 275.546 32.2027 276.561 31.5732C276.725 31.4729 277.13 32.0517 277.251 31.984C278.104 31.5081 278.345 30.3962 279.378 30.1067C280.07 29.9155 280.842 30.8268 281.933 31.3186C282.087 31.3878 282.335 31.1259 282.867 31.5376C284.205 32.5717 285.528 33.8785 286.968 34.9649C287.278 35.1989 287.257 34.5646 287.804 35.3776C287.84 35.4325 287.861 35.898 288.053 36.166C288.186 36.3514 288.783 36.7013 288.924 36.9738C289.065 37.2461 288.537 36.9868 288.664 37.3532C288.796 37.7222 289.455 38.1451 289.269 38.5179ZM210.941 118.881C211.654 119.041 209.832 117.489 210.051 118.125C210.064 118.158 210.905 118.874 210.941 118.881ZM185.935 148.628C186.999 149.031 186.044 147.778 185.249 147.437C184.459 147.092 185.61 148.507 185.935 148.628ZM183.522 152.325C184.468 152.538 182.059 150.146 182.193 151.002C182.2 151.051 183.467 152.312 183.522 152.325ZM281.273 32.6458C281.301 32.6624 281.491 32.4786 281.47 32.4539C280.97 31.8649 280.59 32.2329 281.273 32.6458ZM181.13 156.021C181.565 156.232 181.493 155.545 180.951 155.285C180.514 155.075 180.589 155.759 181.13 156.021ZM223.515 107.416C223.546 107.435 223.687 107.31 223.528 107.187C223.014 106.79 222.995 107.106 223.515 107.416ZM176.005 161.323C176.857 160.629 179.324 162.116 178.271 162.742C178.08 162.856 177.953 161.787 177.582 161.807C176.902 161.845 177.935 163.306 176.902 163.017C176.714 162.964 175.951 161.358 176.003 161.319C176.004 161.32 176.004 161.321 176.005 161.323ZM213.285 120.555C213.314 120.57 213.504 120.384 213.484 120.359C212.986 119.768 212.602 120.141 213.285 120.555ZM231.496 99.8275C231.558 99.8586 231.982 99.4285 231.946 99.3742C231.172 98.3534 230.31 99.2207 231.496 99.8275ZM203.488 135.095C203.884 135.81 203.73 136.131 202.851 135.684C203.073 135.501 203.264 135.286 203.488 135.095ZM152.239 142.44C152.215 143.96 151.692 145.875 151.16 147.312C150.995 147.761 150.612 147.461 150.479 147.769C150.219 148.369 150.333 148.988 150.043 149.577C149.945 149.772 149.321 149.414 149.233 149.62C148.757 150.755 148.754 151.895 148.427 153.072C146.819 158.855 145.676 164.599 144.456 170.517C144.055 172.461 143.085 174.764 143.037 176.835C143.033 177.076 143.637 177.024 143.678 177.076C144.306 177.89 143.165 177.479 142.938 177.919C142.041 179.651 141.675 181.687 141.632 183.485C141.616 184.247 142.888 183.674 142.124 184.326C142.072 184.373 141.482 184.086 141.384 184.284C141.164 184.738 141.142 185.625 141.038 185.986C140.833 186.675 140.823 186.783 140.717 187.441C140.565 188.346 140.095 189.372 140.092 190.353C140.092 190.567 140.768 190.386 140.826 190.735C140.884 191.086 140.702 191.935 140.507 192.215C140.313 192.488 139.833 192.287 139.711 192.322C138.683 192.598 139.868 193.817 139.883 193.946C139.971 194.956 139.84 195.89 139.638 196.763C139.348 198.028 138.907 199.222 138.729 200.512C138.502 202.173 138.513 204.005 138.344 205.486C138.243 206.345 138.105 207.183 138.059 207.617C138.045 207.715 138.041 207.774 138.004 207.699C137.954 207.634 137.914 207.356 137.43 206.863C136.934 206.346 136.083 206.16 135.856 206.184C135.586 206.187 135.616 206.209 135.7 206.176C135.778 206.151 135.529 205.52 135.583 205.421C135.586 205.415 135.59 205.411 135.596 205.409C137.08 204.86 139.783 203.616 142.246 203.052C142.501 202.99 142.478 203.732 142.751 203.706C144.41 203.536 147.216 203.69 146.881 200.676C147.902 200.337 149.142 199.908 150.255 200.05C150.97 200.142 150.714 201.045 151.28 200.458C151.41 200.325 150.949 199.838 151.163 199.683C152.052 199.037 153.228 198.746 154.07 198.024C154.243 197.875 153.963 197.379 153.979 197.261C154.14 196.291 155.454 197.211 155.675 197.224C155.744 197.229 155.812 197.232 155.879 197.233C157.343 197.286 158.186 196.638 159.354 196.162C159.641 196.046 159.007 195.488 159.273 195.35C160.646 194.651 162.157 194.088 163.668 193.823C164.009 193.765 163.972 194.482 164.148 194.484C164.917 194.489 164.585 193.302 165.315 193.284C165.468 193.279 165.607 193.823 165.654 193.869C166.401 194.594 166.202 193.21 166.288 193.141C167.36 192.254 168.682 193.238 169.785 192.566C169.917 192.484 169.33 191.967 169.717 191.777C172.296 190.503 175.171 189.533 178.008 188.98C178.449 188.893 178.357 189.501 178.408 189.55C179.21 190.32 178.966 188.949 179.08 188.847C179.99 188.077 181.403 188.734 181.503 186.942C186.161 185.651 190.249 183.009 195.198 182.561C195.26 182.554 195.413 183.215 195.535 183.199C197.034 182.994 196.361 182.144 196.783 180.595C196.89 180.206 198.139 181.357 198.25 181.434C198.63 181.728 198.776 182.745 198.881 182.789C199.736 183.122 198.379 180.114 199.203 179.776C199.231 179.77 199.352 180.377 199.445 180.404C199.733 180.491 199.854 180.18 200.141 180.289C200.79 180.545 201.594 181.947 201.959 180.789C202.004 180.639 201.15 178.968 201.922 178.746C202.027 178.717 202.244 178.632 202.496 178.534C203.011 178.332 203.628 178.091 203.911 178.06C204.32 178.022 204.302 178.682 204.338 178.695C205.601 179.034 205.377 179.485 206.316 180.372C207.253 181.255 206.033 178.726 206.116 178.352C206.204 177.977 207.153 178.292 207.426 178.425C207.69 178.562 207.62 179.007 207.826 179.061C209.179 179.409 207.739 177.587 207.904 177.035C208.286 175.729 209.719 177.379 210.533 177.25C210.75 177.216 210.404 176.85 210.558 176.735C211.189 176.277 211.865 176.691 212.408 175.798C212.493 175.654 212.609 174.232 213.386 174.883C213.498 174.977 213.558 175.521 213.89 175.494C214.389 175.454 215.235 175.175 215.527 174.797C215.624 174.662 215.458 174.474 215.353 174.309C215.298 174.228 215.253 174.154 215.233 174.114C215.222 174.094 215.219 174.081 215.21 174.09C215.19 174.116 215.222 174.073 215.04 174.336C215.014 174.378 214.95 174.482 214.913 174.572C214.875 174.662 214.838 174.77 214.812 174.906C214.764 175.17 214.802 175.348 214.833 175.43C214.867 175.502 214.886 175.442 214.914 175.331C214.943 175.236 214.987 175.107 215.046 175.006C215.174 174.782 215.281 174.774 215.337 174.804C215.364 174.826 215.382 174.857 215.376 174.957C215.372 175.017 215.36 175.098 215.363 175.22C215.364 175.319 215.393 175.567 215.508 175.746C215.689 176.056 216.003 176.153 216.089 176.155C216.203 176.166 216.227 176.144 216.238 176.131C216.085 175.946 214.923 176.16 214.573 176.232C214.187 176.311 214.5 176.917 214.475 176.965C214.329 177.242 213.634 177.666 213.561 177.676C211.214 178.094 208.933 177.873 206.662 177.979C205.724 178.022 204.791 178.12 203.853 178.344C203.604 178.403 203.857 179.059 203.82 179.075C202.983 179.468 203.442 177.581 202.767 177.052C203.025 178.417 202.634 178.212 202.043 178.438C201.759 178.548 201.984 179.061 201.964 179.119C201.626 179.981 201.191 178.974 201.089 178.769C200.706 178.018 200.501 178.986 200.24 178.484C199.982 177.986 200.337 177.158 199.756 177.238C199.652 177.751 200.243 178.985 199.824 179.248C198.234 180.241 194.986 179.606 193.625 179.663C192.265 179.719 191.842 179.862 191.037 179.779C189.582 179.627 190.216 180.52 189.389 181.063C188.561 181.606 188.705 179.205 188.517 178.715C188.332 178.225 188.259 178.761 188.07 178.502C187.882 178.244 188.175 177.86 187.799 177.799C187.423 177.739 186.539 178.758 186.475 179.302C186.339 180.454 186.93 181.574 185.919 181.278C185.86 181.261 185.964 180.621 185.745 180.584C184.006 180.314 182.262 180.5 180.53 180.292C180.291 180.262 180.412 179.549 180.271 179.524C178.823 179.262 179.459 180.358 178.866 181.742C178.818 180.008 178.255 179.015 177.193 179.143C176.549 179.221 176.769 179.953 176.419 180.535C176.315 180.71 175.797 180.257 175.764 180.619C175.652 181.804 176.238 183.033 175.09 182.668C175.04 182.65 175.105 182.001 174.935 181.985C174.562 181.952 174.324 182.064 174.129 182.241C173.722 182.596 173.497 183.204 172.749 183.411C171.873 183.654 170.161 183.166 169.13 183.214C168.839 181.295 167.932 181.895 167.775 183.282C167.108 183.341 166.413 183.544 165.746 183.485C165.517 183.465 165.553 182.886 165.514 182.831C164.907 181.979 164.872 183.315 164.745 183.393C163.325 184.189 161.898 183.531 160.662 184.857C160.65 184.869 160.659 184.972 160.667 185.1C160.687 185.455 160.689 186.008 160.215 185.381C160.174 185.321 160.521 184.604 159.803 184.732C159.084 184.864 157.591 184.444 156.8 185.27C156.655 185.419 156.459 186.124 156.129 186.176C156.017 186.193 155.838 186.151 155.612 185.984C155.494 185.892 155.502 185.494 155.334 185.311C155.07 185.015 154.957 185.201 154.722 185.3C154.519 185.409 154.08 185.337 154.165 184.69C154.447 183.404 155.385 183.13 154.353 182.353C154.326 182.334 153.219 182.324 153.182 181.995C153.126 181.488 153.267 180.76 153.212 180.238C153.186 179.996 152.533 180.211 152.516 180.17C152.26 179.355 152.266 178.636 152.358 177.903C152.456 177.147 152.65 176.374 152.758 175.448C152.798 175.122 151.864 174.179 152.578 173.533C153.36 172.816 156.658 173.497 155.858 171.91C155.54 171.276 151.358 170.465 153.522 169.293C152.986 167.031 154.11 164.944 153.373 162.667C153.341 162.565 152.18 162.227 152.199 161.986C152.229 161.63 152.777 161.442 152.817 161.188C152.997 160.123 152.547 159.141 152.639 158.112C152.672 157.722 153.233 157.871 153.273 157.404C153.313 156.939 152.578 156.614 152.949 155.99C153.232 155.523 154.758 155.077 154.949 154.45C153.455 154.389 153.495 153.966 153.119 153.178C153.046 153.028 152.522 153.174 152.46 153.102C152.199 152.813 152.636 152.557 152.351 152.278C152.283 152.21 151.772 152.194 151.687 152.138C150.947 151.667 152.115 150.932 152.318 150.81C153.091 150.325 152.432 150.089 152.742 149.707C153.051 149.334 153.41 149.913 153.603 149.474C153.842 148.933 153.922 148.28 153.957 147.662C153.982 147.228 153.986 146.82 154.007 146.443C154.025 146.078 153.336 146.306 153.323 146.253C153.174 145.473 153.924 144.715 152.582 144.24C156.11 143.837 152.257 143.762 153.003 142.683C153.063 142.6 154.726 142.556 154.957 142.896C155.187 143.237 154.65 143.721 155.013 144.195C155.098 144.31 156.632 144.982 156.723 145.076C157.438 145.759 154.955 145.784 154.818 145.811C153.335 146.166 154.987 146.995 155.097 147.19C155.19 147.362 155.253 147.532 155.297 147.701C155.487 148.409 155.295 149.058 155.586 149.685C155.817 150.203 157.441 150.289 157.381 150.684C157.182 151.993 154.904 152.406 156.84 153.691C157.253 153.97 159.035 153.739 157.617 154.663C157.527 154.724 156.234 155.397 157.034 155.827C157.135 155.88 157.652 155.89 157.694 155.958C157.966 156.414 157.547 156.714 157.735 157.208C157.923 157.707 158.206 158.303 158.02 158.865C157.909 159.201 156.938 159.621 156.699 159.78C156.011 160.228 157.118 160.739 156.29 161.011C155.458 161.286 154.209 160.704 153.663 161.451C155.008 161.499 156.387 161.583 157.739 161.647C157.668 163.292 157.216 164.906 157.265 166.556C157.272 166.761 157.997 166.556 158.023 166.775C158.133 167.697 157.615 168.503 157.821 169.456C157.983 170.196 158.751 170.995 158.95 171.764C157.414 172.242 157.949 173.382 157.824 174.203C157.781 174.492 157.37 174.48 157.24 174.685C156.762 175.477 158.113 175.077 158.332 175.281C159.27 176.151 156.193 176.322 156.314 177.385C156.316 177.409 156.636 177.539 157.005 177.677C157.481 177.869 158.038 178.068 158.098 178.114C158.797 178.647 157.533 178.243 157.435 178.612C157.257 179.278 156.901 179.777 157.459 180.441C157.624 180.636 158.695 180.954 157.972 181.384C157.877 181.443 157.34 181.52 157.315 181.56C156.909 182.258 158.627 181.898 159.059 181.434C159.232 181.191 158.96 180.558 157.484 179.799C156.761 179.45 155.867 179.355 155.37 179.452C154.854 179.54 154.647 179.711 154.552 179.799C154.324 180.042 154.353 180.18 154.369 180.254C154.397 180.329 154.462 180.338 154.608 180.324C154.858 180.267 155.713 180.298 155.753 180.378C156.156 181.06 155.689 181.076 155.191 181.093C154.651 181.114 154.362 181.206 154.481 181.215C154.672 181.915 154.869 182.267 155.033 182.312C155.238 182.374 155.294 181.948 154.931 181.175C154.899 181.108 154.808 181.123 154.706 181.158C154.575 181.203 154.506 181.252 154.481 181.215C154.422 180.872 154.401 180.584 154.473 180.339C154.747 179.422 155.457 179.379 156.318 180.426C156.827 181.048 156.69 181.937 157.661 181.407C158.094 181.167 157.662 180.085 157.987 179.688C158.293 179.313 158.703 179.223 159.148 179.213C159.778 179.199 160.577 179.324 161.163 179.078C161.531 178.925 161.009 178.404 161.256 178.279C161.92 177.942 162.644 178.265 163.288 177.883C163.347 177.847 163.055 177.234 163.274 177.18C164.916 176.763 166.41 176.928 168.089 176.665C168.9 176.536 170.288 175.954 171.135 175.905C171.8 175.862 172.531 175.983 173.272 176.09C174.16 176.225 175.046 176.342 175.697 176.126C176.482 175.871 176.212 175.242 176.499 174.751C177.051 173.8 178.417 175.197 178.604 175.417C178.609 175.424 177.946 175.666 178.354 175.955C178.655 176.627 178.597 175.421 178.604 175.417C178.73 175.558 180.119 175.532 180.372 175.373C180.51 175.287 180.35 174.677 180.424 174.643C182.186 173.858 184.001 173.475 185.889 173.54C185.923 173.548 185.958 174.248 186.038 174.259C187.148 174.437 187.731 173.506 188.555 172.895C189.378 172.285 190.1 172.369 190.765 173.498C191.414 173.267 192.433 173.679 193.021 173.933C193.607 174.187 193.525 172.827 193.569 172.794C194.976 171.759 195.937 172.428 197.515 172.36C198.268 172.329 199.718 171.955 200.497 171.71C201.124 171.512 201.538 171.783 202.098 171.508C202.173 171.471 202.02 170.88 202.041 170.854C202.597 170.055 202.472 171.562 202.638 171.808C203.244 172.702 203.614 173.172 204.383 172.619C204.571 172.491 204.844 170.307 205.185 170.138C205.479 169.991 205.536 170.308 205.685 170.447C205.756 170.51 205.848 170.535 205.991 170.458C206.029 170.437 205.962 169.971 206.252 169.954C207.615 169.866 209.117 169.937 210.498 169.688C210.685 169.656 210.333 168.952 210.607 168.893C211.909 168.614 213.157 168.439 214.697 168.556C215.162 168.58 214.946 169.139 215.071 169.279C215.233 169.439 215.372 169.515 215.67 169.527C215.823 169.535 215.987 169.52 216.407 169.52C216.497 169.52 216.647 169.524 216.819 169.536C217.002 169.552 217.156 169.56 217.519 169.63C217.986 169.842 219.689 169.667 221.521 172.626C222.813 175.065 221.869 177.442 221.566 177.995C221.381 178.376 221.156 178.713 221.034 178.885C220.909 179.063 220.794 179.211 220.688 179.339C220.449 179.619 220.37 179.708 220.242 179.848C220.119 179.981 220.044 180.064 219.975 180.143C219.83 180.304 219.736 180.419 219.663 180.518C219.586 180.62 219.526 180.708 219.485 180.781C219.291 181.09 219.253 181.266 219.191 181.312C216.416 183.516 214.622 182.834 212.485 184.416C212.374 184.502 212 186.253 211.082 185.276C211.013 185.214 210.112 184.199 210.075 185.168C210.073 185.228 210.595 185.727 210.106 185.859C209.635 185.984 209.074 186.697 208.158 186.29C207.881 186.158 206.918 185.169 206.722 186.356C206.716 186.413 206.707 187.633 206.376 187.939C206.238 188.071 206.039 188.022 205.753 187.609C205.599 187.389 205.019 185.803 204.634 186.897C204.565 187.106 204.949 187.356 204.69 187.716C204.291 188.272 203.401 188.148 203.018 189.118C202.947 189.291 202.896 190.549 202.169 189.907C202.056 189.806 201.961 189.236 201.727 189.264C200.616 189.391 199.727 190.161 198.562 190.215C198.156 190.232 197.994 189.315 197.531 189.24C197.069 189.165 196.225 189.255 195.997 189.797C195.764 190.341 196.739 191.512 196.196 191.858C193.848 193.359 191.022 193.588 188.443 194.503C188.06 194.639 188.567 194.994 188.02 195.227C185.997 196.092 182.667 197.976 180.485 197.676C178.736 197.436 180.261 196.085 179.044 196.194C178.457 196.249 178.534 198.041 178.428 198.142C177.403 199.145 176.265 198.804 175.249 199.47C175.038 199.608 175.523 200.149 175.341 200.259C174.721 200.642 173.912 200.646 173.298 200.959C173.024 201.101 173.276 201.562 173 201.633C172.343 201.806 171.701 201.834 170.91 201.632C170.837 201.614 170.963 200.858 170.491 201.027C169.725 201.304 168.613 201.243 167.947 202.061C167.751 202.305 168.201 203.411 167.333 202.88C167.152 202.769 166.744 201.385 166.586 202.794C166.564 203.026 166.128 205.021 165.196 204.244C164.95 204.04 164.135 203.11 163.902 203.408C163.872 203.453 164.287 203.974 164.059 204.138C163.253 204.705 162.293 205.037 161.457 205.612C161.237 205.765 161.856 206.223 161.521 206.431C161.11 206.688 160.611 206.91 160.116 207.088C159.469 207.322 158.826 207.487 158.232 207.619C157.845 207.703 157.872 207.092 157.822 207.048C157.021 206.335 157.294 207.649 157.186 207.78C156.511 208.575 155.612 208.297 154.877 208.801C154.677 208.937 155.085 209.441 155.064 209.511C154.839 210.208 154.715 209.033 154.384 209.044C153.428 209.085 152.578 209.52 151.792 209.963C151.511 210.123 152.139 210.636 151.885 210.772C150.359 211.598 148.704 212.282 146.998 212.631C146.672 212.698 146.621 212.105 146.507 212.017C145.721 211.396 145.617 212.788 145.518 212.962C145.102 213.739 144.631 213.413 144.095 213.761C142.664 214.632 141.495 215.378 138.509 216.236C138.088 216.34 137.585 216.469 136.726 216.553C135.88 216.609 134.456 216.735 132.461 215.872C130.423 215.008 128.985 213.077 128.516 211.978C127.988 210.827 127.866 210.057 127.771 209.48C127.512 207.267 127.734 206.478 127.818 205.509C128.418 201.277 129.372 198.767 129.775 195.318C129.793 195.172 129.81 195.024 129.826 194.872C129.852 194.645 129.082 194.765 129.094 194.567C129.29 192.003 129.947 189.58 130.115 187.022C130.129 186.815 129.388 187.005 129.388 186.668C129.384 185.972 129.552 185.116 129.88 184.459C130.038 184.136 130.568 184.681 130.715 184.355C131.058 183.61 131.238 182.757 131.247 181.944C131.25 181.593 130.458 182.003 130.518 181.555C130.912 178.49 131.244 175.497 132.639 172.559C132.735 172.357 134.213 172.391 134.004 171.905C133.607 171.809 133.133 171.739 132.706 171.658C133.155 167.187 134.331 162.896 135.096 158.464C135.127 158.278 134.31 158.482 134.368 158.121C134.704 156.024 134.805 153.96 135.9 151.932C136.008 151.731 137.341 152.05 137.234 151.391C137.214 151.275 137.18 150.3 136.925 150.013C136.886 149.973 136.229 150.047 136.257 149.74C136.436 147.956 136.866 146.127 137.525 144.422C137.633 144.146 138.257 144.554 138.339 144.359C138.918 142.976 138.651 141.331 139.473 140.05C140.026 139.194 141.134 139.714 142.352 139.402C142.524 139.358 142.637 138.792 143.306 138.865C144.989 139.049 146.776 139.608 148.575 139.771C148.962 139.807 148.667 138.979 149.524 139.575C149.581 139.616 149.803 140.217 150.096 140.402C150.299 140.531 151.001 140.465 151.25 140.701C151.498 140.938 150.898 141.063 151.176 141.435C151.457 141.807 152.248 141.785 152.239 142.44ZM195.666 175.065C196.255 175.652 196.045 173.267 195.561 173.902C195.538 173.935 195.636 175.036 195.666 175.065ZM155.414 164.88C154.352 165.538 155.901 166.008 156.719 165.544C157.537 165.08 155.735 164.68 155.414 164.88ZM154.743 157.939C153.896 158.705 157.287 158.889 156.616 158.042C156.578 157.993 154.792 157.895 154.743 157.939ZM142.325 141.721C142.358 141.718 142.452 141.314 142.422 141.299C141.705 140.964 141.518 141.774 142.325 141.721ZM154.059 151.035C153.594 151.262 154.106 151.987 154.684 151.694C155.149 151.457 154.637 150.75 154.059 151.035ZM211.015 178.314C210.995 178.284 210.707 178.373 210.791 178.556C211.068 179.144 211.377 178.811 211.015 178.314ZM154.465 139.381C154.204 141.028 151.371 142.001 151.789 140.083C151.868 139.736 152.636 140.886 152.915 140.458C153.419 139.714 151.717 138.954 152.754 138.262C152.944 138.13 154.48 139.306 154.468 139.384C154.467 139.383 154.466 139.382 154.465 139.381ZM196.303 177.883C196.318 177.913 196.73 177.894 196.736 177.861C196.866 177.081 196.036 177.119 196.303 177.883ZM194.425 183.582C194.374 183.53 193.475 183.828 193.468 183.898C193.476 185.236 195.308 184.632 194.425 183.582ZM169.106 183.166C168.784 183.993 168.29 184.167 167.777 183.282C168.22 183.257 168.654 183.192 169.106 183.166Z" fill="white"/>
</svg>
