<svg xmlns="http://www.w3.org/2000/svg" width="316" height="217" fill="none" viewBox="0 0 316 217"><path fill="#fff" d="M3.852 52.05c1.834-1.49 3.736-2.442 5.563-3.227.736-.311 1.446-.58 2.11-.812.7-.24.555.304 1.054.154.965-.288 1.697-.867 2.663-1.1.316-.073.24.702.566.612 1.792-.505 3.284-1.36 5.021-1.963 8.545-2.95 16.77-5.904 25.283-8.835 2.324-.799 5.181-1.416 7.676-2.354.511-.193 1.012-.4 1.493-.63.325-.154-.081-.632-.034-.701.754-1.075.824.17 1.531.075 2.815-.378 5.714-1.383 8.139-2.501 1.035-.478-.435-1.193.867-.964.09.015.03.702.346.66.708-.096 1.93-.652 2.465-.79 1.021-.258 1.182-.322 2.125-.648 1.29-.439 2.922-.68 4.252-1.29.284-.133-.316-.605.119-.87.435-.266 1.702-.643 2.17-.643.47 0 .453.538.565.622.925.715 1.935-1.052 2.111-1.147 3.213-1.68 6.372-1.9 9.58-2.911 2.44-.77 4.969-1.804 7.33-2.454 2.81-.77 5.257-1.087 7.995-1.856.285-.079-.239-.723.11-.822 3.741-1.046 7.591-1.847 11.547-2.016.391-.015.012.723.407.748 2.492.106 6.28.992 7.628-1.93 1.582.023 3.514.143 5.045.796q.26.105.492.227c1.016.56-.177 1.054 1.18 1.038.313.01.078-.706.55-.637 1.982.282 4.293 1.684 5.917 3.63.33.388.739-.014.906.065.694.36.947 1.26.916 2.023-.027.752-.29 1.388-.307 1.578-.325 2.99-.435 4.63-.953 6.817-.131.489.757.099.653.583a21.8 21.8 0 0 1-2.866 6.864c-.285.439-.678-.262-.843-.068-.724.853.278 1.593-.414 2.411-.145.172-.589-.183-.661-.174-1.129.13-.156 1.21-.202 1.367-.545 1.982-2.395 2.445-3.109 4.216-.084.211.775.091.502.665a89 89 0 0 1-1.052 2.136c-1.552 3.082-3.348 6.16-4.692 8.922-.246.53-.638-.01-.71.006-1.152.33.095 1.035.117 1.197.064 1.16-.444 1.923.399 1.72.137-.045.288-.15.448-.325-.08.147.8.48 1.852.475 1.058.023 2.261-.112 3.456-.296 2.406-.377 4.881-.95 7.381-1.392 1.865-.331 3.778-.606 5.724-.732.089-.007.115.681.293.664 2.171-.214 1.501-1.11 2.498-2.723.258-.407 1.721.766 1.851.844.457.298.389 1.358.525 1.402 1.114.327.023-2.787 1.264-3.166.041-.007.054.624.177.65.38.081.639-.25 1.016-.149.868.237 1.618 1.683 2.452.439.103-.16-.672-1.875.458-2.146.456-.106 2.399-.78 2.982-.85.585-.07.403.628.45.64 1.731.255 1.276.757 2.404 1.618 1.129.854.003-1.724.201-2.124.198-.399 1.492-.158 1.835-.038.342.121.14.6.419.637 1.853.234.215-1.556.575-2.159.842-1.427 2.495.177 3.674-.053.318-.062-.094-.412.155-.554.986-.559 1.854-.2 2.822-1.224.16-.168.644-1.71 1.606-1.112.137.086.085.668.572.593.727-.11 1.962-.504 2.6-.968.47-.342-.464-.869.295-.908.337-.017-.003.675.616.604.617-.07 1.995-.708 2.514-.965.516-.256-.041-.714-.016-.773.15-.342 1.017-1.09 1.102-1.13.543-.266 1.092-.52 1.633-.76 3.832-1.7 7.729-2.93 11.133-5.39.303-.22-.267-.67-.225-.71.937-.918 1.038 1.158 2.125 1.195-.85-1.103-.261-1.174.414-1.79.325-.298-.165-.62-.162-.688.098-1.034 1.041-.396 1.259-.281.797.422.665-.615 1.199-.337.538.27.411 1.298 1.135.795-.077-.547-1.339-1.257-.914-1.8 1.598-2.028 5.882-3.948 7.509-5.133 1.62-1.159 2.054-1.648 3.057-2.257 1.808-1.116.598-1.35 1.276-2.528.679-1.19 1.781.995 2.261 1.25.479.253.283-.274.642-.222.358.053.22.645.692.359.333-.204.67-1.067.763-1.748.047-.311.043-.584-.026-.745-.48-1.097-1.769-1.503-.46-2.174.076-.04.313.596.585.423 2.131-1.375 3.96-3.21 5.985-4.75.284-.215.573.488.742.37 1.802-1.236.24-1.37.48-3.32.234.517.578.859.908 1.112.162.128.342.222.468.338.042.045.143.187-.154.188-.158-.023-.275-.15-.319-.197-.051-.055-.077-.063-.107-.068-.249.314-.384.73-.412 1.277-.056.9.7.802 1.172 1.47.142.212-.45.81-.116.983 1.093.553 2.481.083 1.716 1.694-.036.069-.626-.262-.703-.016-.512 1.572.641 1.974.461 3.728-.143 1.373-1.33 3.587-1.711 5.073-1.907-.372-1.72 1.157-.486 1.939-.209.968-.283 2.03-.578 2.95-.1.317-.633.04-.698.073-1.021.532.232 1.102.263 1.315.282 2.31-.771 4.178.287 6.31.039.079 1.387.121.442.743-.064.045-.727-.626-.701.39.022.88-.343 2.553.216 3.81q.11.237.282.42c.243.302 1.439.392.997 1.256-.056.126-.426.268-.538.487-.311.746.852.028.335 1.157-.528 1.135.077 2.815 1.91 2.781.063.004.832-.826 1.24-.65.662.293 1.613.797 2.378.944.367.072.264-.634.329-.633 2.416.066 4.091.729 6.771.895a.9.9 0 0 0 .279-.048c.617-.184 1.665-.837 2.523-.326 1.131.645.49 4.09 2.888 2.907.998-.495 1.307-4.807 3.481-3.118 3.137-1.34 6.467-1.288 9.368-3.235.13-.087.153-1.349.483-1.464.494-.17.973.221 1.333.111 1.526-.456 2.664-1.468 4.074-2.04.534-.219.594.375 1.231.11.64-.27.729-1.135 1.73-1.227.748-.065 2.067.97 2.998.69a2.7 2.7 0 0 1-.26-.758c-.116-.738.386-1.052 1.03-1.74.158-.172-.294-.52-.232-.625.247-.435.795-.24 1.008-.687.053-.108-.187-.56-.158-.673.231-.98 1.755-.514 2.022-.435 1.014.302.986-.447 1.623-.468.639-.024.093.723.757.55 1.377-.363 2.855-1.343 4.054-2.06.477-.288-.206-.667-.146-.721.88-.75 2.253-.77 2.047-2.255 2.582 2.507.395-.658 2.137-.977.138-.025 1.205 1.26.924 1.741s-1.201.469-1.576 1.166c-.087.164-.042 1.986-.103 2.136-.468 1.172-1.913-.853-2.03-.94-1.29-.925-1.381 1.1-1.584 1.358-.915 1.178-2.113 1.48-2.933 2.391-.539.593.198 2.042-.355 2.298-1.849.85-3.526-.82-4.279 1.8-.15.509.815 1.707-.481 1.491a4 4 0 0 1-.453-.108c-.125-.034-1.664-.685-1.864.316-.025.126.207.589.133.674-.506.563-1.101.395-1.708.904-.603.506-1.314 1.164-2.19 1.367-.523.123-1.537-.483-1.858-.6-.918-.34-1.174.98-1.904.392-.722-.596-.427-2.079-1.674-2.142.473 1.26.905 2.575 1.351 3.854-2.404.93-4.942 1.402-7.409 2.24-.307.106.226.697-.099.827-1.385.548-2.769.403-4.224.973-1.124.443-2.271 1.475-3.529 1.895-1.046-1.371-2.836-.567-4.27-.587-.503-.004-.502-.418-.858-.526-.463-.137-.68-.08-.788.068-.208.287.01.918-.224 1.07-1.557.968-1.746-2.097-3.514-2.077-.082.005-1.386 1.568-1.583 1.648-1.165.558-.129-.583-.79-.776-1.22-.373-1.971-.88-3.578-.802-.451.03-1.901.661-2.515-.462-.076-.145.201-.617.123-.685-1.388-1.223-2.231.206-3.626-.038-1.452-.271-2.132-2.75-2.039-3.262.078-1.366.777.41.904.375 1.182-.23.133-1.057-.312-1.972 1.315-1.01.723-1.976-.426-.945-.127.127.379.742.426.945-1.668.152-2.77-1.397-2.021-3.145q.136-.224.328-.456c.601-.714 1.497-.319.936-1.971-.241-.754-1.344-.31-1.736-.988-.896-1.58.103-3.756-.023-5.37-.046-.597-.691-.033-.743-.445-.136-1.1.395-2.024.246-3.112-.014-.1-.692.082-.67-.255.16-2.564.904-4.66 1.355-7.158.217-1.21.268-3.4.569-4.58.523-2.05 1.919-4.356 1.847-5.96-.049-1.032-.736-.854-1.158-1.267-.362-.34-.273-.715-.051-1.031.076.435-.04.762.641 2.203.279.567 1.105 1.692 2.297 2.289a5.3 5.3 0 0 0 3 .585c1.213-.154 1.642-.475 1.881-.602.271-.168.37-.267.449-.349.265-.308.128-.351.057-.411-.188-.092-.429-.097-.506-.116-.006 0 .105-.169.107-.282-.007-.105-.069-.215-.244-.285-.605-.4.131.568.137.567-.148-.088-1.631 1.264-1.831 1.66-.105.21.436.549.371.652-1.505 2.41-3.444 4.585-5.743 6.335-.046.025-.467-.537-.569-.47a4 4 0 0 0-.198.134c-1.246.895-1.472 2.172-2.14 3.406-.702 1.292-1.662 1.883-3.053 1.482-.697.783-2.19 1.311-3.052 1.583-.87.279-.12 1.416-.165 1.485-1.336 2.129-2.906 2.328-4.958 3.642-.978.625-2.765 2.084-3.74 2.896-.769.647-1.442.7-2.11 1.362-.09.089.338.535.318.575-.486 1.16-.852-.36-1.17-.472-1.159-.414-1.816-.608-2.694.442-.202.241.124 2.524-.3 2.911-.551.5-.688-.301-1.252.231-.049.045.196.45-.223.66-1.935.982-4.14 1.837-6.128 2.875-.273.14.412.636.022.85q-.279.152-.565.302c-1.69.886-3.551 1.684-5.33 2.125-.488.119-.415-.486-.576-.585-.977-.597-1.281 1.022-1.415 1.108-3.118 2.043-6.169 1.921-9.419 3.766-.174.102-1.129 2.017-2.209 1.069-.074-.062-1.149-1.041-1.422-.011-.017.064.606.545-.117.73s-1.709.997-2.912.638c-.378-.113-1.512-1.082-2.094.189-.037.088-.725 2.75-1.731 1.398-.163-.224-.596-1.856-1.42-.683-.158.226.337.464-.144.864-.734.614-1.983.53-2.812 1.57-.14.182-.59 1.517-1.463.87-.136-.102-.113-.697-.457-.66-1.65.177-3.188 1.012-4.893 1.08-.599.023-.551-.934-1.208-1.008-.652-.074-1.89.015-2.41.58-.516.565.532 1.793-.376 2.147-.637.248-1.289.459-1.933.637-3.474.932-6.961 1.164-11.22 1.45-.776.035-.072.522-1.298.585-.954.028-2.11.082-3.809-.192-1.589-.234-4.454-1.176-6.421-3.436-1.399-1.458-2.429-3.978-2.568-5.72-.192-1.79.025-3.033.243-4.03.474-1.973 1.127-3.158 1.782-4.02 1.788-2.17 1.208 1.16 2.268-.544.504-.785-.631-2.376-.59-2.596.409-2.203 1.733-3.168 2.374-4.917.132-.359-.648-.342-.527-.646q.1-.255.231-.503c.43-.826 1.061-1.57 1.417-2.34.191-.415-.308-.59-.077-.938.545-.834 1.145-1.501 2.014-2.114.079-.056.388.761.741.132.566-1.015 1.643-2.083 1.742-3.467.027-.412-1.048-.925.034-1.314.224-.08 1.455.691.694-.663-.115-.242-1.083-2.26.154-2.525.331-.077 1.601-.14 1.558-.6-.011-.062-.688-.054-.644-.392.161-1.17.495-2.271.386-3.126-.033-.214-.722.01-.756-.275-.049-.386-.072-.67-.036-.72.032-.06.18.15.416.307.171.11.538-.326.598-.344.431-.235.366-.184.236-.006-.135.172-.343.452-.349.497-.04.268.045.255-.001.15-.035-.1-.175-.274-.464-.258-.166.007-.19.644-.232.691-.392.477.05-.582-.151-.745a1.5 1.5 0 0 0-.309-.178c-.626-.289-1.61-.28-2.492-.19-.393.04.067.755-.282.784-2.066.19-4.484.427-6.851.42-.45-.001-.269-.6-.381-.71-.772-.775-1.501.6-1.695.756-.857.704-1.335.297-2.188.57-4.1 1.324-9.439 2.39-13.532 3.359-5.313 1.26-9.565 2.042-14.522 3.814-.315.112.238.713-.03.82-3.477 1.334-7.045 2.246-10.506 3.686-.284.117.366.637-.081.846-.911.434-2.141.828-3.173.956-.505.065-.077-.73-.585-.652-1.186.182-2.37.553-3.472 1.072-.464.22.507.636-.115.87-3.523 1.338-6.976 2.714-10.693 3.563q-1.144.265-2.291.447c-.317.05-1.1-1.221-1.627-.722.096.399.268.845.4 1.26-6.092 2.55-12.369 4.429-18.51 6.83-.255.1.475.642-.016.84-2.897 1.163-5.575 2.507-8.778 3.05-.317.054-.702-1.27-1.478-.706-.132.098-1.331.825-1.537 1.242-.026.06.465.54.064.74a56 56 0 0 1-7.189 2.917c-.38.123-.317-.673-.59-.59a8 8 0 0 0-.59.21c-1.708.689-3.257 1.994-4.428 2.221-.405.062-.624-.257-1.002-.576a23 23 0 0 0-1.273-1.053c-.038-.033-.055-.068-.06-.176-.006-.093-.02-.354-.112-.4-.099-.012-.335-.301-.61-.23-.8.27-1.555.806-2.5.788-.916.063-1.877-.203-2.691.4-.057.08-.158.488.423 1.573.29.524.928 1.213 1.623 1.585.694.385 1.261.487 1.593.547.672.099.69.112.715.218a.24.24 0 0 1-.059.19c-.084.072-.171.201-.867.23-.07-.004-.298-.002-.834-.142a5.17 5.17 0 0 1-2.322-1.39c-1.634-1.88-1.484-3.135-1.648-3.714-.128-.762.022-1.85.05-2.208.091-.83-1.132.291-.7-1.375.5-1.542 1.608-1.837 2.082-2.747.46-.852-.277-1.282.886-2.266M204.3 35.492c-1.011-.061.318 1.932.657.966.015-.05-.605-.965-.657-.966m46.207 17.918c-1.309-.662-1.483 1.025-.533 1.569.962.536.936-1.371.533-1.569m9.452-4.705c-1.411-.264-.181 2.904.698 1.743.051-.067-.615-1.729-.698-1.743M10.553 59.474c-.03-.02-.52.264-.51.297.184.79 1.127.242.51-.297m258.223-16.232c-.542-.222-1.206.748-.533 1.03.545.225 1.21-.755.533-1.03m-100.995 8.894c-.023-.03-.448.097-.369.283.258.597.77.206.369-.283m115.732-18.332c-2.186 1.418-5.045-.026-2.601-1.351.444-.244-.368 1.355.3 1.192 1.232-.306.829-2.186 2.347-2.135.281.009.087 2.218-.047 2.3zm-81.284-.353c-.03-.017-.54.322-.534.356.181.81 1.215.124.534-.356m-59.364 25.176c-.053-.054-1.428.244-1.459.315-.403 1.391 2.404.786 1.459-.315m78.988-28.653c.638.782.6 1.556-.429 1.92.152-.633.269-1.28.429-1.92m58.101-4.453c.179-.394.708-.514 1.194-.5.152.002.362.376.478.393.228.033.22-.223.466-.165.083.021.441.593.519.603.422.048.545-.264.876-.342 1.633-.386 2.962-1.143 4.34-1.913.454-.254 1.326-.2 1.548-.751.026-.065-.391-.483-.414-.528-.354-.68.386.255.581.294.772.152 1.209-.166 1.396-.644.079-.204-.854-.939-.266-.585.04.024.425.52.509.533.192.029.287-.21.39-.238.201-.05.219-.076.351-.188.183-.148.601-.114.688-.39.018-.061-.474-.48-.487-.618-.012-.138.189-.254.349-.197s.484.445.573.52c.755.628.013-.533.014-.58.048-.836.961-.652 1.372-1.065.309-.313.458-.826.773-1.1.377-.325.92-.39 1.208-.783.031-.04-.56-.514-.524-.565q.137-.193.296-.361c.345-.364.778-.632 1.402-.748.083-.015.521.49.633.5.677.06 2.095.425.072-1.646.264-.134.566-.309 1.168-.12.387.121.839.706.731.355-.023-.079-.544-.44-.544-.527.003-.363.355-.465.275-.882-.018-.086-.465-.434-.534-.51-.558-.622.64.07.748.094.807.179.748-.213.972-.467.053-.06-.602-.458-.573-.532.163-.382.454-.65.958-.753.114-.023.581.434.662.444.351.035-.6-.737-.286-.715.065.004.496.354.549.385.827.492-.202-.395-.211-.433-.134-.504 1.146.145 1.176-.237.003-.046-.617-.388-.576-.493.27-.702.868-1.222 1.721-1.497.135-.05.531.309.589.339.916.455-.182-.353-.205-.41-.156-.438.949-.052-.327-1.073.529-.323.761-.906.958-1.281.053-.101.093-.163.141-.216.045-.032.079-.067.112.164.033.082-.004.365.254.926.101.225.439.721.881.96.217.127.445.204.643.24.191.033.282.026.397.02.43-.045.566-.195.573-.269.025-.087-.008-.165-.075-.232-.014-.011-.314-.611-.346-.629-.395-.208.133.698.762 1.812.167.273-.858-.882-.947-.956-.296-.296-.853-1.126-.917-1.178-.532-.388 1.504 2.206 1.38 2.308-.008-.001-.371-.488-.422-.525-.158-.115-.044.104-.218-.024-.4-.296-1.479-1.482-1.04-.63.06.109 1.308 1.502 1.121 1.548-.074.016-.301.263-.46.246-.157-.02-.514-.512-.537-.526-.752-.39-.896-.707-1.8-1.478-.903-.764 1.044 1.254 1.22 1.518.177.262-.418-.08-.614-.21-.194-.13-.413-.45-.536-.512-.806-.398.87 1.095 1.108 1.483.562.923-1.005-.453-1.295-.453-.078 0 .288.305.284.37-.018.257-.563-.116-.307.47.042.096.797 1.11.057.555-.106-.082-.444-.477-.583-.501-.208-.037-.445.044-.415.262.022.161.715.673.437.579-.124-.042-.41-.465-.615-.514-.203-.05-.38.166-.443.257-.062.09.447.495.473.531.145.21.224.58.217.586-.506.647-1.91.554-2.201 1.407-.025.068.509.496.51.511.055.364-1.161-.997-1.721-1.285 1.04.917.789.819.789 1.045 0 .11.427.439.463.481.522.637-.314-.009-.488-.137-.641-.473-.007.221-.436-.093-.425-.314-.924-.924-1.018-.806.34.364 1.376 1.152 1.456 1.377.306.846-1.007.787-1.338 1-.331.214-.331.352-.6.386-.488.061.323.597.5 1.061.177.466-1.525-1.183-1.929-1.494s-.035.063-.272-.09c-.238-.154-.438-.45-.581-.446-.144.004.357.805.734 1.182.799.799 1.769 1.486 1.284 1.41-.029-.005-.465-.452-.55-.45a2.1 2.1 0 0 0-.686.156c-.294.106-.562.243-.931.28-.085.009-.572-.487-.628-.487-.583-.003.39.657 1.236 1.661-1.275-1.164-2.15-1.766-2.345-1.556-.117.126.473.595.803 1.027.099.13-.373-.115-.118.132.831.81 1.889 1.57 1.306 1.455-.027-.006-.481-.45-.539-.442-.38.056.519.87.428 1.202-.071.26-.915.11-1.186.242-1.472-1.263-1.306-.773-.356.175-.158.1-.227.298-.481.313-.087.004-.49-.39-.541-.423-.801-.528.141.374.155.437.104.644-.872.27-.395 1.198.018.034 1.033.921.211.369-.056-.039-.439-.537-.598-.422s-.941-.078-.634.527c.075.145.809.972.071.521-.1-.061-.384-.324-.565-.444-.576-.379.438.532-.509-.14-.946-.673-1.737-1.08-1.297-.36.012.02.799.763.732.816-.107.083-.401.084-.486.197-.04.053.502.45.504.468.001.584-.663.445-1.171.65-.094.037.447.815-.218.484-.728-.362-3.135-2.616-2.808-1.783.13.334 3.198 3.175 1.336 2.031.024.81-1.184.533-.984 1.491.009.043.852.852.799.892-.081.056-.534-.25-.605-.221-.309.116-.115.613-.346.78-.087.063-.498-.323-.602-.247s.416.612.033.514c-.292-.076-1.544-.94-1.787-.923 1.15.956 1.052 1.026 1.226 1.436.034.08.462.378.499.432.159.23-.219.01-.04.252.043.058.436.384.494.45.503.572-.512-.003-.689-.103-.671-.38-.198.09-.494-.02-.296-.112-.487-.467-.703-.49-.446-.049-.584.249-.762.428-.068.073.502.453.505.474.003.268-.691-.03.286.92-2.806-2.115.184.313-.546.095-.059-.018-1.362-1.048-1.493-1.271-.132-.224.355.001.14-.336-.05-.08-1.146-1.197-1.204-1.275-.455-.607 1.479.948 1.59 1.027 1.205.85.04-.372-.015-.488-.252-.529.151-.47-.01-.87-.103-.26-1.349-1.303-1.243-1.354.352-.17 2.181 1.176.876-.332-.278-.322-1.694-1.397-.453-.706.078.044 1.186.709.632.11-.069-.076-.469-.405-.491-.447-.139-.273.231-.074.163-.302s-.192-.54.04-.545c.14-.004.958.52 1.168.636.603.34-.171-.475.512-.01.688.469 1.56 1.386 2.102 1.571-1.032-.863-2.085-1.756-3.119-2.628.319-.312.934-.371 1.174-.754.029-.049-.564-.467-.548-.53.071-.266.609-.106.617-.437.003-.257-.443-.918-.456-1.203 1.264.886 1.063.311 1.317.227.088-.03.4.237.539.28.517.155-.591-.64-.718-.822-.54-.78 1.838 1.177 1.968.902.007-.013-1.129-1.213-1.19-1.3-.403-.555.456.346.616.343.293-.005.678.146.455-.336-.067-.142-.75-.92-.062-.508.09.054.499.41.532.42.563.152-.738-.948-1.09-1.426s.686.114.975.298c.745.476.23.309.292.369.737.715.703.48.847.444 1.29 1.062 1.321.87.144-.042-.129-.099-.07.073-.144.042-1.187-1.136-1.229-1.412.075-.581.61.39 1.193.997 1.145.579-.022-.19-.934-.892-1.099-1.183-.375-.666.666-.234.715-.554.017-.115-.526-.448-.531-.541-.014-.248.449-.064.382-.359-.007-.027-.536-.423-.506-.471.217-.375.781-.385 1.08-.719.143-.159.119-.691.319-.812.347-.217 1.385.047 1.424-.356.029-.262-.502-.656-.782-1.02-.544-.703.848.073 1.057.2.007.005.003.247.324.393.571.418-.323-.389-.324-.393.136.082.494-.102.447-.24-.026-.076-.513-.468-.517-.5-.045-.333-.023-.618.06-.842a.99.99 0 0 1 .626-.593c.016.001.532.472.562.47.429-.018-.089-.723-.311-1.238-.223-.516.029-.544 1.019.148-.001-.226.581-.083.924.015s-.657-.823-.668-.851c-.359-.891.383-.553.756-.786.179-.11.291-.528.346-.81.035-.215.344-.081.305-.341-.005-.035-.468-.427-.48-.447-.411-.626.622.439.843.59.802.547 1.236.832 1.057.359-.042-.109-1.507-1.665-1.533-1.82-.032-.199.497.354.449.134-.004-.018-.352-.337-.283-.38.345-.24.841-.369 1.078-.69.034-.042-.558-.505-.518-.575.18-.32.501-.616 1.016-.646.128-.006.465.4.591.493.761.566-.103-.506-.102-.545-.03-.912 1.285-.482 1.343-1.364-.01-.04-.789-1.327.186-.52.066.052 1.056.883.535.166-.033-.045-.552-.465-.397-.52s.021-.535.666-.142c.212.116 1.2.948.663.055-.042-.058-1.341-2-.196-.882.188.185 1.29 1.462.893.66-.07-.162-.392-.381-.437-.653-.067-.42.438-.257.169-1.006-.049-.132-.613-1.15.102-.603.108.088.407.57.527.556.288-.03.477-.193.689-.349.264-.193.588-.398 1.038-.424.332-.024.636.84 1.101.887.248.02.599-.005 1.032-.092.633-.148 1.63-.353 2.774-.297 1.528.214 1.78.016 2.119-.324.18-.138.423-.253.983-.031.517.189 1.554.956 2.221 2.19 1.238 2.39.914 3.92.928 4.421a7 7 0 0 1-.276 1.493c-.096.31-.207.572-.326.807-.116.227-.213.362-.328.524a6 6 0 0 1-.346.432q-.16.167-.318.327a7 7 0 0 0-.552.615c-.088.119.425.266.325.463-.364.726-.62 2.03-1.87 1.91-.991-.11-1.229-.962-1.721-.876-.233.04 1.057 1.143 1.076 1.21.21.648-.55.43-.573.859-.005.088.595.425.585.496-.035.253-.408.249-.482.446-.032.09.4.384.317.428-.192.11-.477.127-.989-.005-.047-.012-.496-.497-.605-.392-.168.164-.726.103-.494.622.071.155 1.019.882.256.522-.159-.076-1.269-.984-.41-.07.145.15 1.26 1.44.306.912-.251-.14-1.243-.775-1.157-.585.015.028.552.382.551.484-.012.355-.248.543-.271.892-.005.095.585.42.56.549-.068.352-.461.567-.814.67-.132.038-.507-.372-.558-.404-.835-.517.128.38.159.463.176.505-.434.273-.474.575-.013.082.499.447.533.494.322.464-.468-.344-.621-.355-.433-.032-.578.217-.688.467-.039.092.582.484.54.562a1.67 1.67 0 0 1-1.274.93c-.12.02-.498-.396-.606-.467-.755-.495.022.464.078.575.257.507-.164.235-.218.431a2.1 2.1 0 0 1-.433.81c-.427.516-1.051.886-1.548 1.2-.945.6-1.91.813-2.546 1.626-.041.05.525.538.496.59-.399.638-1.119.921-1.504 1.575-.033.053.511.51.475.612-.072.214-.283.356-.583.326-.145-.013-.459-.547-.596-.552-.321-.014-.533.112-.629.352-.04.104.555.537.465.63-.604.645-1.175 1.316-2.455 1.189-.088-.009-1.086-1.083-.999-.788.259.315.572.677.852 1.009-.811 1.009-2.103 1.425-3.134 2.16-.043.03.517.576.435.64-.474.368-.798.903-1.757.675-.095-.022-.915-1.115-.926-.843-.002.049-.099.357.028.633.02.041.451.514.395.582-.338.386-.847.594-1.481.587-.103-.002-.446-.594-.523-.6-.541-.042-.583.636-1.262.373-.455-.178-1.081-1.176-1.879-2.023-.112-.12-.254-.047-.661-.582-1.023-1.346-2.066-2.878-3.165-4.307-.236-.308-.148.147-.611-.677-.031-.056-.1-.392-.262-.668-.111-.192-.554-.714-.682-.97-.128-.255.258.172.126-.143-.134-.318-.628-.92-.553-1.091m17.339-13.298c.579.332-1.189-1.28-.864-.786.018.026.835.77.864.786M286.725 25.19c.927.536-.188-.55-.897-.972-.708-.421.616.81.897.972m-.593 1.927c.775.368-1.82-1.819-1.435-1.208.022.035 1.39 1.187 1.435 1.208m-.067 6.205c-.021-.024-.129.018-.112.045.407.645.625.558.112-.045m-.461-4.246c.396.24.107-.241-.385-.541-.396-.242-.107.24.385.54m18.498-20.371c.027.024.104-.008-.039-.15-.459-.458-.408-.252.039.15m-20.458 22.82c.392-.277 2.737 1.284 2.174 1.472-.102.034-.567-.718-.836-.789-.491-.127.781 1.097-.086.668-.159-.079-1.28-1.338-1.255-1.353zm15.842-17.444c.026.02.121-.042.1-.065-.526-.552-.719-.428-.1.065m8.75-6.958c.009.03.014.074-.107.102a.6.6 0 0 1-.227-.003c-.086-.015-.198-.066-.198-.084-.043-.363.182-.522.277-.663.111-.137.101-.242.079-.252-.074-.017-.036.284.176.9m-12.304 13.702c.504.587.479.755-.313.205.116-.057.2-.145.313-.205m-6.663 17.693c-.441.869-1.389 1.68-2.22 2.216-.26.17-.495-.214-.69-.11-.379.206-.459.634-.856.81-.133.059-.553-.49-.681-.42-.699.39-1.012 1.047-1.605 1.552-2.901 2.46-5.409 5.167-8.027 7.934-.857.905-2.295 1.722-2.889 2.888-.069.138.447.437.467.49.298.816-.536-.046-.844.085-1.221.524-2.069 1.496-2.595 2.516-.222.435.992.793.177.758-.055-.002-.468-.488-.602-.427-.303.138-.571.652-.752.798-.353.284-.394.345-.661.667-.37.438-1.04.777-1.315 1.348-.057.123.553.388.507.62-.048.234-.434.631-.669.682s-.579-.325-.69-.372c-.932-.397-.277.948-.302 1.034-.498 1.534-1.903 2.06-2.784 3.167-.669.844-1.183 1.896-1.848 2.673-.794.925-1.709 1.514-2.398 2.475-.074.101.607.457.519.582-.942 1.322-2.006 2.526-3.41 3.47-.141.094-.53-.482-.702-.412-1.042.434-3.04.843-1.149 3.1-.506.453-1.104 1.017-1.932 1.124-.534.069-.864-.674-.919-.111-.013.126.568.411.511.571-.24.673-.86 1.122-1.022 1.849-.031.149.435.472.491.566.444.768-.96.34-1.111.37-1.137.24-1.316.932-1.849 1.572-.124.149.614.444.515.604-.517.825-1.192 1.567-2.044 2.095-.191.116-.578-.439-.695-.404-.51.159.386.999-.087 1.167-.098.037-.501-.349-.558-.374-.908-.395.013.623-.005.694-.199.906-1.637.44-1.98 1.192-.04.091.644.36.498.588a13.6 13.6 0 0 1-3.863 3.947c-.241.163-.529-.32-.591-.348-.971-.41-.022.581-.038.684-.156.787-1.461.593-.499 1.986-2.324 2.01-3.488 4.926-6.497 6.362-.037.019-.517-.453-.589-.413-.862.475.06.99.674 2.262.154.32-1.338-.278-1.451-.317-.418-.142-1.1-.887-1.194-.898-.752-.071 1.864 1.938 1.516 2.374-.016.01-.444-.426-.52-.428-.239-.005-.141.259-.392.239-.582-.048-1.901-.964-1.487.011.055.125 1.575 1.22 1.191 1.556-.154.134-.682.843-.93.959s-.613-.393-.644-.395c-1.036.017-1.137-.386-2.264-.866-1.124-.479 1.12 1.205 1.28 1.506.16.299-.662.273-.915.223-.254-.049-.459-.406-.627-.404-1.103.023.891 1.114 1.091 1.575.478 1.089-1.41.118-1.881.378-.127.07.311.281.27.403-.162.472-.856.299-.735 1.097.019.131.716 1.259-.177.905-.128-.051-.46-.466-.678-.38-.327.128-.757.482-.825.842-.051.267.788.588.388.66-.178.033-.408-.478-.71-.392-.301.086-.693.606-.834.808-.14.202.448.504.47.547.119.251.066.813.04.844-1.258 1.684-3.328 2.505-4.337 4.32-.08.141.517.489.511.515-.121.603-1.26-.875-1.971-.965.581.435.766.647.793.806.022.148-.088.253-.151.445-.062.194.42.453.451.501.455.733-.485.219-.683.121-.731-.357-.132.39-.622.153-.486-.236-.909-.951-1.136-.656.319.394 1.498 1 1.483 1.351-.044 1.312-2.108 2.228-2.725 2.814-.618.587-.714.848-1.178 1.13-.828.497.127.85.111 1.562-.016.711-1.67-1.004-2.113-1.265-.443-.263-.093.136-.37.033-.278-.104-.411-.485-.637-.376-.227.11.085 1.154.435 1.565.757.853 1.853 1.385 1.137 1.598-.041.012-.447-.474-.583-.409-1.064.535-1.756 1.323-2.787 1.9-.139.075-.587-.469-.675-.43-.909.401.192.903.878 2.104-1.256-1.188-2.239-1.657-2.668-1.16-.27.313.354.742.591 1.287.072.164-.511.053-.272.321.778.875 1.945 1.502 1.103 1.702-.038.008-.462-.474-.559-.418-.631.361.264 1.181-.111 1.855-.292.526-1.517.832-2.023 1.244-1.473-1.263-1.542-.494-.685.564-.32.293-.559.691-.962.879-.138.065-.507-.368-.564-.394-.896-.416-.033.577-.054.68-.289 1.104-1.528 1.034-1.441 2.413.004.048.99.969.077.521-.062-.031-.322-.67-.65-.361-.329.309-1.417.464-1.361 1.354.014.212.59 1.218-.253.885-.114-.046-.377-.333-.577-.43-.641-.308.325.658-.698.069-1.022-.587-1.985-.802-1.791.189.004.03.72.852.579.986-.217.206-.698.413-.908.661-.101.12.469.488.46.517-.406 1.028-1.375 1.221-2.307 1.875-.178.126.1 1.187-.703.999-.883-.201-3.015-2.752-3.119-1.466-.045.518 2.723 3.683.612 2.788-.549 1.398-2.277 1.639-2.678 3.19-.019.071.691 1.018.576 1.118-.173.147-.655-.136-.789-.045-.575.372-.662 1.143-1.16 1.562-.19.162-.539-.289-.764-.098s.185.836-.355.882c-.407.03-1.706-.806-2.105-.646 1.067 1.048.852 1.227.8 1.849-.009.12.434.41.449.485.068.316-.355.132-.266.461.021.079.386.435.424.52.337.734-.818.273-1.017.191-.763-.305-.391.265-.773.228-.381-.037-.399-.554-.724-.481-.671.15-1.133.74-1.564 1.147-.169.163.431.526.418.56-.216.468-1.079.312-.297 1.455-2.744-2.217.038.447-.95.452-.079-.001-1.314-1.112-1.341-1.433s.567-.186.499-.66c-.015-.111-.85-1.483-.879-1.588-.229-.818 1.583.877 1.697.956 1.227.849.369-.67.375-.842.024-.783.624-.898.688-1.506.046-.398-1.096-1.555-.886-1.699.687-.471 2.525.89 1.647-1.03-.186-.411-1.581-1.524-.159-.987.088.036 1.314.605.908-.14-.051-.094-.426-.452-.428-.512-.005-.401.423-.253.491-.609.067-.357.115-.835.481-.966.22-.079 1.107.387 1.349.474.691.259.098-.738.815-.298.725.437 1.402 1.553 2.114 1.576-.969-.933-1.949-1.906-2.917-2.852.745-.725 1.752-1.17 2.4-1.962.081-.1-.541-.493-.468-.613.318-.515 1.022-.521 1.281-1.111.205-.465-.038-1.337.148-1.831 1.346.806 1.436-.074 1.89-.37.159-.105.457.178.645.169.704-.043-.466-.774-.534-1.019-.299-1.037 2.027.98 2.429.412.022-.029-.907-1.455-.942-1.57-.244-.729.471.331.72.232.454-.18.952-.151.94-.865-.005-.211-.53-1.163.253-.857.104.04.498.413.542.411.767-.073-.504-1.208-.726-1.831-.221-.625 1-.235 1.317-.084.834.379.152.397.208.464.664.797.764.413 1.01.262 1.288 1.066 1.467.707.251-.162-.133-.094-.157.17-.251.162-1.078-1.258-.96-1.714.513-1.075.688.302 1.191 1.001 1.396.295.092-.318-.856-.982-.919-1.388-.151-.922 1.215-.864 1.481-1.435.101-.213-.521-.454-.469-.614.139-.425.738-.399.83-.88.008-.044-.555-.4-.475-.506.59-.811 1.447-1.167 2.144-1.973.318-.368.611-1.279 1.005-1.634.696-.635 2.101-.819 2.429-1.574.211-.485-.366-.823-.57-1.279-.407-.872 1.251-.425 1.501-.347.008.003-.146.43.26.472.627.35-.26-.467-.26-.472.16.051.828-.516.842-.732.008-.116-.506-.475-.494-.528.316-1.255.9-2.208 1.89-2.948.023-.009.542.461.589.436.663-.315.274-1.187.237-1.94s.378-.99 1.518-.488c.158-.43.934-.54 1.404-.606.468-.062-.553-.963-.555-1.003-.068-1.275.915-1.247 1.612-1.909.339-.32.774-1.166.984-1.66.143-.341.468-.378.603-.662a.6.6 0 0 0 .043-.139c.01-.055-.492-.399-.5-.425-.305-.774.72.312.978.414.94.368 1.457.544 1.44-.152-.003-.161-1.434-1.781-1.389-2.034.061-.327.585.24.635-.115.005-.03-.365-.323-.229-.457.609-.609 1.417-1.17 1.955-1.911.075-.1-.607-.445-.509-.598.455-.703 1.046-1.391 1.835-1.812.196-.102.524.325.673.389.901.381.079-.777.096-.839.411-1.557 2.115-1.702 2.596-3.239.024-.086-.719-1.5.44-.936.077.037 1.257.622.728-.124-.033-.047-.66-.324-.414-.522.248-.201.207-.857 1.037-.728.262.04 1.458.598.91-.352-.04-.065-1.459-1.99-.077-1.165.228.136 1.521 1.222 1.145.307-.074-.176-.472-.282-.504-.617-.053-.513.599-.603.293-1.424-.055-.145-.741-1.12.105-.787.133.053.523.467.66.396.657-.335.811-1.13 1.536-1.414.258-.102.892.563 1.24.52.347-.045.848-.295.688-.761-.16-.467-1.474-1.148-1.317-1.53.685-1.665 2.407-2.456 3.579-3.724.173-.187-.365-.346-.139-.645.833-1.105 1.943-3.277 3.555-3.529 1.293-.203 1.062 1.166 1.804.814.356-.172-.724-1.525-.712-1.625.097-.989 1.045-.977 1.335-1.71.06-.152-.57-.459-.513-.583.189-.427.727-.613.951-.983.1-.168-.331-.466-.188-.58.336-.277.743-.435 1.385-.455.059-.002.407.603.623.37.348-.376 1.122-.573 1.099-1.344-.008-.23-.938-.98-.06-.759.184.046 1.243 1.018.546-.095-.116-.186-.965-1.801.102-1.412.281.102 1.35.643 1.337.364-.006-.04-.578-.351-.519-.526.219-.611.673-1.07.908-1.688.061-.166-.614-.383-.505-.617.298-.644.967-1.212 1.55-1.61.216-.147.538.33.597.353.942.379.021-.574.022-.697.015-.755.782-.728.999-1.263.061-.146-.496-.452-.521-.51-.23-.587.503.297.725.218.623-.218.972-.738 1.262-1.23.105-.181-.608-.45-.507-.608.59-.942 1.359-1.795 2.343-2.388.187-.111.544.337.671.384.88.329.193-.765.163-.914-.136-.68.359-.507.533-.873.84-1.793 2.58-3.449 3.874-4.747 1.68-1.69 3.247-2.8 4.547-4.649.084-.117-.588-.468-.523-.576.862-1.367 2.065-2.406 2.904-3.798.069-.113-.6-.406-.507-.602.187-.405.559-.809 1.007-1.009.218-.098.512.503.722.396.488-.247.867-.64 1.1-1.111.098-.202-.672-.395-.5-.623 1.151-1.551 2.254-3.125 4.203-4.06.135-.065 1.352.76 1.312.36-.303-.271-.677-.57-1.01-.85 1.583-2.345 3.73-4.2 5.574-6.359.077-.09-.656-.419-.51-.596.844-1.027 1.507-2.19 2.959-2.755.145-.059 1.163.856 1.256.412.016-.079.256-.664.124-.972-.021-.045-.586-.361-.478-.524a8.4 8.4 0 0 1 2.511-2.394c.164-.1.569.479.69.411.853-.476 1.094-1.588 2.127-1.877.692-.191 1.464.72 2.555 1.212.154.069.402-.193.934.219 1.338 1.034 2.661 2.34 4.101 3.427.31.234.289-.4.836.413.036.054.057.52.249.788.133.185.73.535.871.808.141.272-.387.013-.26.38.132.368.791.791.605 1.164m-78.328 80.363c.713.16-1.109-1.392-.89-.756.013.033.854.749.89.756m-25.006 29.747c1.064.403.109-.85-.686-1.191-.79-.345.361 1.07.686 1.191m-2.413 3.697c.946.213-1.463-2.179-1.329-1.323.007.049 1.274 1.31 1.329 1.323m97.751-119.68c.028.017.218-.166.197-.191-.5-.59-.88-.221-.197.192M181.13 156.022c.435.211.363-.476-.179-.736-.437-.21-.362.474.179.736m42.385-48.605c.031.019.172-.106.013-.229-.514-.397-.533-.081-.013.229m-47.51 53.907c.852-.694 3.319.793 2.266 1.419-.191.114-.318-.955-.689-.935-.68.038.353 1.499-.68 1.21-.188-.053-.951-1.659-.899-1.698zm37.28-40.768c.029.015.219-.171.199-.196-.498-.591-.882-.218-.199.196m18.211-20.728c.062.032.486-.398.45-.453-.774-1.02-1.636-.153-.45.454m-28.008 35.268c.396.715.242 1.036-.637.589.222-.183.413-.398.637-.589m-51.249 7.345c-.024 1.52-.547 3.435-1.079 4.872-.165.449-.548.149-.681.457-.26.6-.146 1.219-.436 1.808-.098.195-.722-.163-.81.043-.476 1.135-.479 2.275-.806 3.452-1.608 5.783-2.751 11.527-3.971 17.445-.401 1.944-1.371 4.247-1.419 6.318-.004.241.6.189.641.241.628.814-.513.403-.74.843-.897 1.732-1.263 3.768-1.306 5.566-.016.762 1.256.189.492.841-.052.047-.642-.24-.74-.042-.22.454-.242 1.341-.346 1.702-.205.689-.215.797-.321 1.455-.152.905-.622 1.931-.625 2.912 0 .214.676.033.734.382.058.351-.124 1.2-.319 1.48-.194.273-.674.072-.796.107-1.028.276.157 1.495.172 1.624.088 1.01-.043 1.944-.245 2.817-.29 1.265-.731 2.459-.909 3.749-.227 1.661-.216 3.493-.385 4.974-.101.859-.239 1.697-.285 2.131-.014.098-.018.157-.055.082-.05-.065-.09-.343-.574-.836-.496-.517-1.347-.703-1.574-.679-.27.003-.24.025-.156-.008.078-.025-.171-.656-.117-.755a.02.02 0 0 1 .013-.012c1.484-.549 4.187-1.793 6.65-2.357.255-.062.232.68.505.654 1.659-.17 4.465-.016 4.13-3.03 1.021-.339 2.261-.768 3.374-.626.715.092.459.995 1.025.408.13-.133-.331-.62-.117-.775.889-.646 2.065-.937 2.907-1.659.173-.149-.107-.645-.091-.763.161-.97 1.475-.05 1.696-.037q.103.007.204.009c1.464.053 2.307-.595 3.475-1.071.287-.116-.347-.674-.081-.812 1.373-.699 2.884-1.262 4.395-1.527.341-.058.304.659.48.661.769.005.437-1.182 1.167-1.2.153-.005.292.539.339.585.747.725.548-.659.634-.728 1.072-.887 2.394.097 3.497-.575.132-.082-.455-.599-.068-.789a33.5 33.5 0 0 1 8.291-2.797c.441-.087.349.521.4.57.802.77.558-.601.672-.703.91-.77 2.323-.113 2.423-1.905 4.658-1.291 8.746-3.933 13.695-4.381.062-.007.215.654.337.638 1.499-.205.826-1.055 1.248-2.604.107-.389 1.356.762 1.467.839.38.294.526 1.311.631 1.355.855.333-.502-2.675.322-3.013.028-.006.149.601.242.628.288.087.409-.224.696-.115.649.256 1.453 1.658 1.818.5.045-.15-.809-1.821-.037-2.043.105-.029.322-.114.574-.212.515-.202 1.132-.443 1.415-.474.409-.038.391.622.427.635 1.263.339 1.039.79 1.978 1.677.937.883-.283-1.646-.2-2.02.088-.375 1.037-.06 1.31.073.264.137.194.582.4.636 1.353.348-.087-1.474.078-2.026.382-1.306 1.815.344 2.629.215.217-.034-.129-.4.025-.515.631-.458 1.307-.044 1.85-.937.085-.144.201-1.566.978-.915.112.094.172.638.504.611.499-.04 1.345-.319 1.637-.697.097-.135-.069-.323-.174-.488a2 2 0 0 1-.12-.195c-.011-.02-.014-.033-.023-.024-.02.026.012-.017-.17.246-.026.042-.09.146-.127.236s-.075.198-.101.334c-.048.264-.01.442.021.524.034.072.053.012.081-.099.029-.095.073-.224.132-.325.128-.224.235-.232.291-.202.027.022.045.053.039.153-.004.06-.016.141-.013.263.001.099.03.347.145.526.181.31.495.407.581.409.114.011.138-.011.149-.024-.153-.185-1.315.029-1.665.101-.386.079-.073.685-.098.733-.146.277-.841.701-.914.711-2.347.418-4.628.197-6.899.303-.938.043-1.871.141-2.809.365-.249.059.004.715-.033.731-.837.393-.378-1.494-1.053-2.023.258 1.365-.133 1.16-.724 1.386-.284.11-.059.623-.079.681-.338.862-.773-.145-.875-.35-.383-.751-.588.217-.849-.285-.258-.498.097-1.326-.484-1.246-.104.513.487 1.747.068 2.01-1.59.993-4.838.358-6.199.415s-1.783.199-2.588.116c-1.455-.152-.821.741-1.648 1.284-.828.543-.684-1.858-.872-2.348-.185-.49-.258.046-.447-.213-.188-.258.105-.642-.271-.703s-1.26.959-1.324 1.503c-.136 1.152.455 2.272-.556 1.976-.059-.017.045-.657-.174-.694-1.739-.27-3.483-.084-5.215-.292-.239-.03-.118-.743-.259-.768-1.448-.262-.812.834-1.405 2.218-.048-1.734-.611-2.727-1.673-2.599-.644.078-.424.81-.774 1.392-.104.175-.622-.278-.655.084-.112 1.185.474 2.414-.674 2.049-.05-.018.015-.667-.155-.683-.373-.033-.611.079-.806.256-.407.355-.632.963-1.38 1.17-.876.243-2.588-.245-3.619-.197-.291-1.919-1.198-1.319-1.355.068-.667.059-1.362.262-2.029.203-.229-.02-.193-.599-.232-.654-.607-.852-.642.484-.769.562-1.42.796-2.847.138-4.083 1.464-.012.012-.003.115.005.243.02.355.022.908-.452.281-.041-.06.306-.777-.412-.649-.719.132-2.212-.288-3.003.538-.145.149-.341.854-.671.906-.112.017-.291-.025-.517-.192-.118-.092-.11-.49-.278-.673-.264-.296-.377-.11-.612-.011-.203.109-.642.037-.557-.61.282-1.286 1.22-1.56.188-2.337-.027-.019-1.134-.029-1.171-.358-.056-.507.085-1.235.03-1.757-.026-.242-.679-.027-.696-.068-.256-.815-.25-1.534-.158-2.267.098-.756.292-1.529.4-2.455.04-.326-.894-1.269-.18-1.915.782-.717 4.08-.036 3.28-1.623-.318-.634-4.5-1.445-2.336-2.617-.536-2.262.588-4.349-.149-6.626-.032-.102-1.193-.44-1.174-.681.03-.356.578-.544.618-.798.18-1.065-.27-2.047-.178-3.076.033-.39.594-.241.634-.708.04-.465-.695-.79-.324-1.414.283-.467 1.809-.913 2-1.54-1.494-.061-1.454-.484-1.83-1.272-.073-.15-.597-.004-.659-.076-.261-.289.176-.545-.109-.824-.068-.068-.579-.084-.664-.14-.74-.471.428-1.206.631-1.328.773-.485.114-.721.424-1.103.309-.373.668.206.861-.233.239-.541.319-1.194.354-1.812.025-.434.029-.842.05-1.219.018-.365-.671-.137-.684-.19-.149-.78.601-1.538-.741-2.013 3.528-.403-.325-.478.421-1.557.06-.083 1.723-.127 1.954.213.23.341-.307.825.056 1.299.085.115 1.619.787 1.71.881.715.683-1.768.708-1.905.735-1.483.355.169 1.184.279 1.379.093.172.156.342.2.511.19.708-.002 1.357.289 1.984.231.518 1.855.604 1.795.999-.199 1.309-2.477 1.722-.541 3.007.413.279 2.195.048.777.972-.09.061-1.383.734-.583 1.164.101.053.618.063.66.131.272.456-.147.756.041 1.25.188.499.471 1.095.285 1.657-.111.336-1.082.756-1.321.915-.688.448.419.959-.409 1.231-.832.275-2.081-.307-2.627.44 1.345.048 2.724.132 4.076.196-.071 1.645-.523 3.259-.474 4.909.007.205.732 0 .758.219.11.922-.408 1.728-.202 2.681.162.74.93 1.539 1.129 2.308-1.536.478-1.001 1.618-1.126 2.439-.043.289-.454.277-.584.482-.478.792.873.392 1.092.596.938.87-2.139 1.041-2.018 2.104.002.024.322.154.691.292.476.192 1.033.391 1.093.437.699.533-.565.129-.663.498-.178.666-.534 1.165.024 1.829.165.195 1.236.513.513.943-.095.059-.632.136-.657.176-.406.698 1.312.338 1.744-.126.173-.243-.099-.876-1.575-1.635-.723-.349-1.617-.444-2.114-.347-.516.088-.723.259-.818.347-.228.243-.199.381-.183.455.028.075.093.084.239.07.25-.057 1.105-.026 1.145.054.403.682-.064.698-.562.715-.54.021-.829.113-.71.122.191.7.388 1.052.552 1.097.205.062.261-.364-.102-1.137-.032-.067-.123-.052-.225-.017-.131.045-.2.094-.225.057-.059-.343-.08-.631-.008-.876.274-.917.984-.96 1.845.087.509.622.372 1.511 1.343.981.433-.24.001-1.322.326-1.719.306-.375.716-.465 1.161-.475.63-.014 1.429.111 2.015-.135.368-.153-.154-.674.093-.799.664-.337 1.388-.014 2.032-.396.059-.036-.233-.649-.014-.703 1.642-.417 3.136-.252 4.815-.515.811-.129 2.199-.711 3.046-.76.665-.043 1.396.078 2.137.185.888.135 1.774.252 2.425.036.785-.255.515-.884.802-1.375.552-.951 1.918.446 2.105.666.005.007-.658.249-.25.538.301.672.243-.534.25-.538.126.141 1.515.115 1.768-.044.138-.086-.022-.696.052-.73 1.762-.785 3.577-1.168 5.465-1.103.034.008.069.708.149.719 1.11.178 1.693-.753 2.517-1.364.823-.61 1.545-.526 2.21.603.649-.231 1.668.181 2.256.435.586.254.504-1.106.548-1.139 1.407-1.035 2.368-.366 3.946-.434.753-.031 2.203-.405 2.982-.65.627-.198 1.041.073 1.601-.202.075-.037-.078-.628-.057-.654.556-.799.431.708.597.954.606.894.976 1.364 1.745.811.188-.128.461-2.312.802-2.481.294-.147.351.17.5.309.071.063.163.088.306.011.038-.021-.029-.487.261-.504 1.363-.088 2.865-.017 4.246-.266.187-.032-.165-.736.109-.795 1.302-.279 2.55-.454 4.09-.337.465.024.249.583.374.723.162.16.301.236.599.248.153.008.317-.007.737-.007.09 0 .24.004.412.016.183.016.337.024.7.094.467.212 2.17.037 4.002 2.996 1.292 2.439.348 4.816.045 5.369a7.118 7.118 0 0 1-.878 1.344c-.239.28-.318.369-.446.509a14 14 0 0 0-.267.295 5 5 0 0 0-.312.375q-.116.153-.178.263c-.194.309-.232.485-.294.531-2.775 2.204-4.569 1.522-6.706 3.104-.111.086-.485 1.837-1.403.86-.069-.062-.97-1.077-1.007-.108-.002.06.52.559.031.691-.471.125-1.032.838-1.948.431-.277-.132-1.24-1.121-1.436.066-.006.057-.015 1.277-.346 1.583-.138.132-.337.083-.623-.33-.154-.22-.734-1.806-1.119-.712-.069.209.315.459.056.819-.399.556-1.289.432-1.672 1.402-.071.173-.122 1.431-.849.789-.113-.101-.208-.671-.442-.643-1.111.127-2 .897-3.165.951-.406.017-.568-.9-1.031-.975s-1.306.015-1.534.557c-.233.544.742 1.715.199 2.061-2.348 1.501-5.174 1.73-7.753 2.645-.383.136.124.491-.423.724-2.023.865-5.353 2.749-7.535 2.449-1.749-.24-.224-1.591-1.441-1.482-.587.055-.51 1.847-.616 1.948-1.025 1.003-2.163.662-3.179 1.328-.211.138.274.679.092.789-.62.383-1.429.387-2.043.7-.274.142-.022.603-.298.674-.657.173-1.299.201-2.09-.001-.073-.018.053-.774-.419-.605-.766.277-1.878.216-2.544 1.034-.196.244.254 1.35-.614.819-.181-.111-.589-1.495-.747-.086-.022.232-.458 2.227-1.39 1.45-.246-.204-1.061-1.134-1.294-.836-.03.045.385.566.157.73-.806.567-1.766.899-2.602 1.474-.22.153.399.611.064.819-.411.257-.91.479-1.405.657-.647.234-1.29.399-1.884.531-.387.084-.36-.527-.41-.571-.801-.713-.528.601-.636.732-.675.795-1.574.517-2.309 1.021-.2.136.208.64.187.71-.225.697-.349-.478-.68-.467-.956.041-1.806.476-2.592.919-.281.16.347.673.093.809-1.526.826-3.181 1.51-4.887 1.859-.326.067-.377-.526-.491-.614-.786-.621-.89.771-.989.945-.416.777-.887.451-1.423.799-1.431.871-2.6 1.617-5.586 2.475-.421.104-.924.233-1.783.317-.846.056-2.27.182-4.265-.681-2.038-.864-3.476-2.795-3.945-3.894-.528-1.151-.65-1.921-.745-2.498-.259-2.213-.037-3.002.047-3.971.6-4.232 1.554-6.742 1.957-10.191q.027-.218.051-.446c.026-.227-.744-.107-.732-.305.196-2.564.853-4.987 1.021-7.545.014-.207-.727-.017-.727-.354-.004-.696.164-1.552.492-2.209.158-.323.688.222.835-.104a6 6 0 0 0 .532-2.411c.003-.351-.789.059-.729-.389.394-3.065.726-6.058 2.121-8.996.096-.202 1.574-.168 1.365-.654-.397-.096-.871-.166-1.298-.247.449-4.471 1.625-8.762 2.39-13.194.031-.186-.786.018-.728-.343.336-2.097.437-4.161 1.532-6.189.108-.201 1.441.118 1.334-.541-.02-.116-.054-1.091-.309-1.378-.039-.04-.696.034-.668-.273a20.6 20.6 0 0 1 1.268-5.318c.108-.276.732.132.814-.063.579-1.383.312-3.028 1.134-4.309.553-.856 1.661-.336 2.879-.648.172-.044.285-.61.954-.537 1.683.184 3.47.743 5.269.906.387.036.092-.792.949-.196.057.041.279.642.572.827.203.129.905.063 1.154.299.248.237-.352.362-.074.734.281.372 1.072.35 1.063 1.005m43.427 32.625c.589.587.379-1.798-.105-1.163-.023.033.075 1.134.105 1.163m-40.252-10.185c-1.062.658.487 1.128 1.305.664s-.984-.864-1.305-.664m-.671-6.941c-.847.766 2.544.95 1.873.103-.038-.049-1.824-.147-1.873-.103m-12.418-16.218c.033-.003.127-.407.097-.422-.717-.335-.904.475-.097.422m11.734 9.314c-.465.227.047.952.625.659.465-.237-.047-.944-.625-.659m56.956 27.279c-.02-.03-.308.059-.224.242.277.588.586.255.224-.242m-56.55-38.933c-.261 1.647-3.094 2.62-2.676.702.079-.347.847.803 1.126.375.504-.744-1.198-1.504-.161-2.196.19-.132 1.726 1.044 1.714 1.122zm41.838 38.502c.015.03.427.011.433-.022.13-.78-.7-.742-.433.022m-1.878 5.699c-.051-.052-.95.246-.957.316.008 1.338 1.84.734.957-.316m-25.319-.416c-.322.827-.816 1.001-1.329.116.443-.025.877-.09 1.329-.116"/></svg>