<svg xmlns="http://www.w3.org/2000/svg" width="72" height="88" fill="none" viewBox="0 0 72 88"><path fill="#fff" d="M66.085 87.94c-1.405-.317-3.075-1.2-4.295-2.002-.383-.251-.018-.564-.275-.755-.503-.373-1.104-.384-1.59-.786-.16-.134.315-.67.142-.797-.95-.692-2.015-.929-3.037-1.49-5.024-2.77-10.121-5.177-15.266-7.972-1.7-.922-3.522-2.514-5.41-3.216-.221-.082-.375.504-.437.526-.969.327-.204-.614-.53-.97-1.295-1.41-3-2.447-4.614-3.164-.689-.306-.662 1.085-.962.128-.02-.065.47-.498.331-.662-.313-.37-1.116-.747-1.391-.985-.526-.459-.627-.517-1.168-.888-.736-.511-1.434-1.375-2.299-1.829-.186-.095-.342.585-.674.478-.331-.106-1.01-.682-1.152-.983-.143-.3.265-.623.294-.747a.64.64 0 0 0 .002-.369c-.192-.539-1.386-.235-1.491-.285-2.223-1.07-3.25-3.036-4.828-4.597-1.205-1.19-2.628-2.35-3.658-3.604-1.225-1.495-1.96-2.99-3.104-4.458-.12-.156-.595.474-.744.282-1.582-2.044-2.904-4.28-3.7-6.766-.078-.25.661-.282.619-.549-.292-1.637-.136-4.312-3.14-3.99-.336-1.02-.727-2.28-.517-3.379.14-.7 1.02-.397.475-.992-.121-.135-.643.285-.78.064-.33-.536-.529-1.164-.744-1.768-.166-.466-.34-.914-.597-1.33-.123-.196-.655.007-.77-.03-.945-.333.179-1.55.24-1.757.425-1.626-.018-2.653-.034-4.182.002-.355-.757.074-.78-.278-.104-1.824.292-4.219 2.01-6.063.38-.388.608.393.81.24.854-.572.21-1.648 1.28-2.092.22-.08.415.456.482.485.97.51.76-.868.923-.973.359-.251.73-.377 1.088-.425 1.311-.16 2.25.624 3.355.506.177-.017-.193-.74.314-.74 3.38.061 6.26 1.368 8.617 2.951.364.249-.127.613-.127.684.003 1.105.799-.03.952-.019 1.17.116 1.595 1.585 2.978.458q.408.265.82.517c3.7 2.265 7.752 3.836 10.622 7.238.04.045-.405.557-.324.645.965 1.056 1.295.033 2.763-.537.37-.142.122 1.532.112 1.66-.04.472-.782 1.178-.762 1.286.171.87 1.901-1.941 2.613-1.47.02.02-.411.463-.385.553.081.282.394.2.46.497.13.633-.52 1.924.334 1.798q.088-.012.197-.043c.148-.045 1.087-1.673 1.674-1.156.234.205 1.368.982 1.6 1.31.236.327-.337.652-.33.69.336 1.249-.174 1.28-.495 2.52-.327 1.233 1.28-1.069 1.64-1.184.36-.117.534.863.529 1.154-.002.293-.42.447-.376.65.285 1.323 1.245-.78 1.801-.9 1.328-.267.487 1.75.919 2.395.117.175.301-.293.47-.204.658.35.552 1.125 1.552 1.21.166.016 1.455-.52 1.15.408-.04.136-.483.448-.337.71.107.198.334.45.467.532-.06-.019-.14-.057-.34-.036a.76.76 0 0 0-.455.242c-.138.183-.101.184-.114.176a1 1 0 0 0-.056-.237c-.123-.298-.978.038-.716-.333.114-.178.623.15.793-.21.17-.361.083-1.33.043-1.699-.041-.372-.675-.127-.72-.155-.262-.159-.615-.873-.616-.934-.163-2.166.317-4.275.772-6.326.226-1.014.42-2.03.475-3.082.014-.246-.686-.2-.691-.24-.136-.884 1.537.086 2.237-.376-1.378-.165-1.072-.458-1.11-1.066-.019-.292-.575-.243-.624-.279-.718-.575.374-.66.6-.689.831-.115-.023-.6.535-.676.553-.074 1.225.508 1.332-.036-.452-.26-1.808-.124-1.922-.589-.44-1.77 1.298-4.48 1.758-5.69.455-1.218.491-1.646.884-2.316.716-1.206-.351-1.015-.504-1.97-.145-.96 1.966.194 2.487.24.52.051.065-.238.377-.287.312-.047.537.362.747.074.207-.284-.33-1.468-.784-1.768-.936-.613-2.147-.638-1.574-1.305q.03-.035.066-.07c.042-.043.56.343.694.172 1.03-1.353 1.721-2.91 2.882-4.152.159-.166.67.342.767.253 1.042-.91-.221-1.065-.831-2.483 1.317 1.145 2.404 1.351 2.959.781.348-.324-.236-.815-.195-1.493.035-.223.647.058.609-.286-.02-.598-.194-1.185-.171-1.605.009-.385.483-.833 1.69-.274.084.05-.37.577-.086.703.81.427 1.183.566 1.708.683.534.127 1.136.29 1.597.912.719.96.648 2.842.84 3.852-1.846.59-1.153 1.32.24 1.34.126.65.379 1.334.343 1.986-.01.229-.59.217-.643.258-.832.62.496.598.578.73.812 1.386.07 2.783 1.263 4.04.043.044 1.386-.098.479.448-.063.036-.746-.337-.682.345.063.676-.46 2.04.287 2.884.18.198 1.344.635.555 1.2-.107.075-.5.059-.701.174-.643.37.729.36-.378.832-1.107.477-1.883 1.26-.985 2.098.027.026 1.124.125 1.14.422.02.386-.076.9-.084 1.35q-.005.159.012.301c.027.234.68.016.695.056.533 1.546.04 2.732-.078 4.444-.023.315.959 1.134.284 1.795-.74.716-4.072.286-3.182 1.731.356.58 4.576 1.078 2.487 2.318.67 2.1-.326 4.132.546 6.23.039.095 1.218.342 1.213.57-.009.337-.544.547-.569.79-.116 1.014.392 1.91.362 2.886-.01.37-.579.265-.591.705s.74.702.407 1.311c-.254.461-1.75.97-1.904 1.572 1.495-.036 1.48.375 1.903 1.087.082.137.597-.033.662.03.278.26-.143.527.158.771.073.06.583.043.671.09.768.405-.353 1.163-.549 1.292-.742.496-.07.692-.356 1.063-.286.37-.68-.154-.846.272-.344.882-.223 1.997-.216 2.88.006.353.679.09.695.14.198.723-.502 1.483.868 1.843-3.492.622.355.427-.313 1.493-.054.084-1.71.243-1.964-.064s.25-.802-.145-1.226c-.093-.1-1.667-.642-1.764-.72-.757-.607 1.72-.78 1.854-.818 1.457-.431-.242-1.097-.365-1.284-.56-.854-.237-1.607-.642-2.322-.262-.468-1.888-.457-1.852-.832.12-1.247 2.369-1.768.36-2.864-.43-.234-2.194.086-.834-.869.085-.06 1.336-.776.512-1.13-.104-.045-.62-.022-.667-.084-.298-.416.102-.716-.115-1.175-.217-.457-.535-1.002-.384-1.541.091-.324 1.036-.777 1.265-.942.66-.466-.476-.874.334-1.183.814-.31 2.095.16 2.595-.578-1.344.039-2.726.045-4.08.068-.027-1.551.328-3.098.18-4.647-.02-.192-.73.046-.77-.158-.165-.86.303-1.65.041-2.536-.206-.686-1.02-1.395-1.264-2.106 1.505-.547.906-1.589.984-2.38.028-.277.439-.29.557-.495.435-.777-.893-.322-1.122-.505-.981-.779 2.08-1.115 1.914-2.13-.008-.056-1.702-.56-1.812-.64-.718-.512.56-.15.646-.52.134-.569.4-1.019.142-1.573a1.7 1.7 0 0 0-.198-.318c-.165-.211-1.238-.63-.5-1.152.096-.068.638-.097.665-.146.432-.888-1.265-.722-1.893-1.118-.63-.403.447-1.264.764-1.46.82-.501.41.25.498.261 1.047.12.805-.396.837-.814 1.65-.274 1.473-.84.026-.433-.157.046.04.342-.026.433-1.672-.144-1.961-.721-.544-1.63.664-.425 1.54-.236 1.088-1.181-.204-.423-1.315-.078-1.686-.42-.845-.77.019-2.09-.32-2.963-.122-.318-.68.12-.785-.091-.28-.548.08-1.157-.284-1.688-.033-.047-.65.218-.697.044-.37-1.32-.246-2.573-.636-3.824-.186-.613-.906-1.45-1.016-1.791-.067-.247-.067-.504.223-.45.209.011.76.33 1.655.364.897.023 1.43-.312 1.625-.34.215-.045.306.125.483.293.165.174.358.374.524.525.329.287.16.209-.193.163-.347-.056-.84-.127-.967-.152-.01-.004.094-.432-.31-.44-.664-.278.308.438.31.44-.161-.056-.786.718-.772.982.009.132.593.364.587.426a10.3 10.3 0 0 1-1.386 4.358c-.022.023-.664-.257-.706-.201-.616.786-.007 1.65.233 2.547.239.899-.103 1.431-1.387 1.532-.03.616-.779 1.294-1.223 1.69-.445.397.85.824.864.873.477 1.531-.467 2.085-.91 3.432-.212.639-.302 1.975-.295 2.705.007.578-.37.852-.262 1.398.014.074.623.112.642.138.612.687-.797.159-1.078.23-1.021.262-1.575.454-1.242 1.26.076.189 2.116.977 2.202 1.281.107.396-.633.161-.498.579.007.021.181.048.307.117.083.042.145.1.128.183-.2.973-.52 2.113-.455 3.269.007.156.752-.055.775.167.106 1.062.16 2.21-.104 3.605-.069.362-.604.166-.755.252-.457.264-.337.558-.104.886.233.307.568.73.57.885-.001.377.07.788-.27 2.025-.279.647-.338 1.788-2.534 3.54-1.115.832-2.747 1.314-4.046 1.273-1.249-.032-1.957-.286-2.593-.539-1.145-.478-1.526-.79-1.92-1.06-.369-.27-.61-.483-.837-.697-.434-.414-.742-.785-1.047-1.14-.601-.703-1.175-1.34-2.058-1.752-.119-.057-1.722.506-1.22-.706.033-.081.546-1.324-.277-.857-.05.03-.28.694-.561.382-.286-.316-1.08-.376-1.094-1.3-.006-.291.41-1.585-.637-1.083-.079.029-2.095 1.424-1.413-.044.114-.241 1.12-1.6.088-1.261-.198.067-.224.505-.63.513h-.036c-.611-.026-.944-.758-1.881-.497-.17.048-1.199.739-1.04-.198.023-.147.43-.555.293-.72-.644-.785-1.706-1.02-2.33-1.876-.223-.302.414-.978.234-1.38-.183-.402-.688-.992-1.235-.84-.544.156-.947 1.61-1.493 1.413-2.365-.851-4.035-2.802-6.117-4.059-.308-.185-.29.412-.76.175-.437-.22-.967-.452-1.528-.697-1.673-.737-3.564-1.522-4.32-2.705-.833-1.276.88-1.33.106-2.017-.391-.333-1.418 1.096-1.528 1.115-1.125.186-1.553-.709-2.36-.646-.16.017-.15.716-.277.725-.422.038-.749-.309-1.005-.264-.11.022-.103.545-.171.504-.159-.09-.187-.299-.252-.787-.016-.042-.153-.678-.172-.698v-.003c-.014-.058-.09-.473.439-.32.149.062 1.117.78.591.096-.115-.14-1.356-.851-.233-.324.094.043.542.196.851.25.307.06.46.05-.076-.017-.279-.055-1.458-.126-1.29.045.027.018.671.022.725.121.177.346.12.883.393 1.465.075.154.704-.162.794.06.245.6.273 1.545.282 2.366.002.301-.582.253-.634.289-.842.608.483.452.589.54q.127.113.206.234c.351.52.095 1.161.436 1.688.107.17.649-.175.714-.158.65.187-.508.297-.536.578-.077.798.275 1.534.644 2.184.135.235.68-.332.794-.12.686 1.252 1.28 2.61 1.61 4.043.061.271-.51.394-.594.505-.59.78.755.677.92.73.756.245.445.69.799 1.09 1.713 1.939 3.282 4.657 4.7 6.644 1.834 2.572 3.212 4.722 5.596 6.632.151.12.493-.569.628-.473.807.588 1.551 1.222 2.32 1.846.87.707 1.781 1.408 2.796 1.97.156.088.346-.638.608-.518.539.24 1.133.683 1.508 1.194.186.25-.472.545-.277.787a4.36 4.36 0 0 0 1.732 1.278c.284.115.27-.738.608-.542 2.327 1.323 4.706 2.482 6.77 4.577.142.144-.368 1.528.126 1.461.21-.35.422-.779.628-1.162 3.703 1.587 7.179 3.703 10.964 5.389.16.07.184-.762.494-.629 1.794.769 3.633 1.29 5.215 2.757.157.145-.448 1.375.178 1.402.11.004 1.007.165 1.33-.026.046-.03.13-.683.403-.594a18.6 18.6 0 0 1 4.583 2.265c.229.158-.285.687-.124.805 1.145.83 2.72.883 3.722 1.93.67.702-.054 1.681-.032 2.927.003.176.502.396.287 1.033-.539 1.605-1.448 3.239-1.993 4.96-.118.37.712.242-.027.963-.05.048-.656.149-.891.4-.164.172-.257.87-.53 1.066-.274.196-.258-.412-.663-.213-.407.202-.56.977-1.166.843M54.329 20.345c-.75.297 1.555.944 1.123.318-.024-.031-1.086-.334-1.123-.318m10.618 19.238c1.02-.689-.554-1.03-1.343-.544s1.034.753 1.343.544m1.085 6.491c.799-.774-2.596-.74-1.876.018.04.044 1.83.027 1.876-.018m2.897 32.345c-.005.032.349.201.369.175.467-.634-.24-.972-.369-.175m-1.801-25.883c.45-.247-.104-.893-.664-.585-.45.248.104.892.664.585M45.543 37.368c.019-.032-.173-.24-.301-.085-.409.505.002.62.301.085m21.998 26.219c.075-1.638 2.844-2.72 2.585-.93-.047.324-.916-.666-1.155-.247-.436.766 1.34 1.206.421 2.003-.167.144-1.862-.733-1.855-.83zM51.475 19.905c-.033.001-.156.37-.128.388.687.385.934-.354.128-.388m-18.385 6.7c.017-.07-.722-.601-.78-.563-1.05.812.431 1.88.78.562M64.896 6.586c.866.194 1.112.706.284 1.306-.07-.437-.19-.863-.284-1.306"/></svg>