<svg width="358" height="337" viewBox="0 0 358 337" fill="none" xmlns="http://www.w3.org/2000/svg">
<path d="M6.31994 303.492C8.44 304.395 11.0032 305.382 13.463 306.291C14.7194 306.755 15.9709 307.207 17.0829 307.601C18.1109 307.965 17.6251 307.668 18.3357 307.914C19.7223 308.394 20.9776 308.921 22.3532 309.383C22.8058 309.535 22.3079 309.169 22.7823 309.332C25.3895 310.227 27.8207 311.173 30.4536 312.102C43.4168 316.665 56.1628 321.141 69.4188 325.394C70.0596 325.599 70.7256 325.808 71.394 326.014C75.353 327.24 79.8336 328.512 83.7115 329.69C84.2418 329.851 83.8834 329.901 83.9813 329.942C85.5144 330.575 85.0792 330.14 86.1191 330.393C90.2931 331.408 94.903 332.588 98.9197 333.558C100.631 333.968 98.8456 333.87 100.61 334.092C100.733 334.108 100.329 333.859 100.805 333.946C101.878 334.144 103.907 334.59 104.738 334.737C106.344 335.023 106.615 335.074 108.135 335.34C109.411 335.561 110.844 335.762 112.276 335.957C113.19 336.082 114.097 336.196 114.968 336.308C115.448 336.37 114.79 336.46 115.563 336.57C116.33 336.686 118.388 336.84 119.081 336.837C119.775 336.838 119.489 336.695 119.612 336.673C120.625 336.494 122.994 336.878 123.298 336.878C128.888 337.021 133.678 336.277 138.779 335.13C142.48 334.296 146.354 333.105 149.728 331.726C149.905 331.654 150.072 331.583 150.244 331.505C153.543 330.068 155.781 327.475 157.41 324.791C157.967 323.915 158.513 322.941 158.819 321.801C158.942 321.302 158.992 321.939 159.127 321.313C159.398 319.919 159.233 318.528 158.925 317.268C157.55 312.365 154.656 308.606 151.999 304.72C151.658 304.242 151.948 304.962 151.597 304.488C150.266 302.685 148.404 300.325 146.976 298.252C146.093 296.967 145.378 295.784 145.116 294.957C143.637 292.989 141.843 290.619 140.415 288.944C139.496 287.866 140.168 289.071 139.195 287.635C138.974 287.311 139.406 287.625 139.065 287.145C137.632 285.126 135.972 282.99 134.573 280.98C134.288 280.57 134.484 280.595 134.42 280.467C133.877 279.394 132.424 278.016 132.147 277.685C130.042 275.169 128.674 273.205 126.86 270.753C126.44 270.185 127.089 270.746 126.689 270.193C124.615 267.332 122.444 264.387 120.366 261.628C119.901 261.011 120.182 261.682 119.954 261.393C118.955 260.122 118.998 259.655 118.046 258.416C117.847 258.157 117.839 258.387 117.793 258.347C117.062 257.721 116.873 256.855 116.746 256.659C116.157 255.744 115.608 254.979 115.08 254.271C114.106 252.959 113.173 251.799 112.185 250.188C112.004 249.891 112.576 250.466 112.052 249.625C108.854 244.367 105.394 238.708 104.525 232.68C104.466 232.313 104.413 231.951 104.368 231.587C104.253 230.604 104.188 231.318 104.165 231.258C103.821 230.254 104.167 229.575 104.185 229.263C104.273 226.76 104.932 224.403 106.22 223.206C106.607 222.592 107.048 222.005 107.53 221.444C114.542 214.302 125.252 212.017 134.619 208.402C134.752 208.356 134.461 208.272 134.727 208.18C137.887 207.092 137.346 207.537 139.57 207.194C140.127 207.108 141.627 206.26 141.776 206.187C142.281 205.929 141.655 205.854 141.829 205.782C143.109 205.254 143.201 205.93 144.731 205.608C144.871 205.579 145.023 205.542 145.191 205.493C145.251 205.474 144.955 205.402 145.113 205.34C145.605 205.149 146.128 205.061 146.62 204.866C147.766 204.412 148.01 203.925 149.862 203.645C150.099 203.611 149.877 204.158 151.622 203.646C152.334 203.437 155.423 202.591 156.298 202.321C157.152 202.056 156.52 202.072 156.58 202.049C158.863 201.219 157.966 201.379 159.064 200.775C160.152 200.175 160.014 200.939 160.512 200.885C161.011 200.831 162.701 200.206 163.101 200.04C163.507 199.871 162.957 199.92 163.323 199.788C165.767 198.915 164.51 199.83 165.366 199.717C167.352 199.46 168.75 198.551 170.501 198.036C170.979 197.896 170.616 198.114 171.048 198.011C172.765 197.602 173.723 197.183 175.699 196.819C176.018 196.76 177.652 196.656 178.609 196.17C178.744 196.1 178.305 196.081 179.021 195.864C180.08 195.543 182.031 195.007 183.196 194.749C184.06 194.559 183.132 195.02 184.193 194.676C184.665 194.523 183.745 194.633 184.635 194.355C185.524 194.078 187.81 193.493 188.685 193.272C189.558 193.051 189.121 193.331 189.195 193.323C189.637 193.274 191.323 192.92 191.472 192.881C198.924 190.982 205.718 188.962 212.997 187.187C213.567 187.048 213.231 187.31 213.318 187.291C215.28 186.861 213.629 186.816 214.957 186.318C214.845 186.705 215.638 186.436 217.016 186.121C217.68 185.97 217.354 186.192 217.418 186.19C218.443 186.137 219.071 185.703 219.231 185.606C219.832 185.247 220.595 185.292 221.001 185.051C221.409 184.81 220.343 184.883 221.662 184.546C222.064 184.57 221.163 185.138 222.18 184.929C225.997 184.152 232.972 182.076 235.99 181.253C238.994 180.436 239.966 180.201 241.733 179.684C244.861 178.765 243.8 179.297 245.784 178.877C247.781 178.452 246.676 178.137 246.925 177.938C247.174 177.739 247.514 177.782 247.841 177.62C248.166 177.459 247.401 177.578 248.2 177.333C248.377 177.279 248.626 177.218 248.906 177.157C249.941 176.93 251.353 176.705 251.6 176.744C252.29 176.845 251.376 177.407 253.495 176.708C253.615 176.668 253.177 176.629 253.64 176.483C257.342 175.322 261.268 174.18 264.953 172.945C265.466 172.773 264.953 172.748 265.25 172.646C268.324 171.582 267.276 172.21 269.091 171.976C268.579 171.684 269.441 171.144 271.774 170.368C273.165 169.9 272.996 170.154 273.939 169.971C274.237 169.912 275.16 169.451 275.382 169.465C276.075 169.522 275.235 170.182 277.598 169.174C277.702 169.129 277.308 169.107 277.671 168.96C279.972 168.012 280.377 168.196 282.875 167.128C284.072 166.608 285.805 165.673 287.363 164.657C288.364 164.019 289.268 163.296 289.966 162.654C289.633 162.34 291.31 160.845 292.112 160.258C293.066 158.98 293.921 157.483 294.517 156.08C294.723 155.595 294.45 155.852 294.464 155.785C294.662 154.771 295.206 154.267 295.343 153.954C296.442 151.373 296.999 149.022 297.714 146.599C297.936 145.841 298.146 145.067 298.365 144.263C298.397 144.142 298.775 144.007 298.694 143.036C298.687 142.974 298.344 144.087 298.605 142.461C298.869 140.83 299.019 137.732 299.286 135.467C299.356 134.919 299.692 133.531 299.5 132.403C299.475 132.254 299.375 132.415 299.325 132.199C299.167 131.501 299.512 131.124 299.225 130.306C298.936 129.487 298.716 127.803 298.817 125.511C298.819 125.438 299.066 124.884 299.022 124.163C298.973 123.368 298.877 122.344 298.782 121.393C298.74 120.967 298.7 120.557 298.667 120.19C298.616 119.62 298.816 119.97 298.811 119.871C298.542 116.001 298.049 113.285 297.399 109.191C297.28 108.443 297.184 106.246 296.783 104.82C296.345 103.258 295.779 105.021 295.416 101.318C295.273 99.8209 296.018 97.802 295.152 95.203C294.72 90.5514 294.153 86.149 294.881 81.5353C294.967 81.0087 295.069 80.4807 295.187 79.953C295.238 79.7207 295.667 79.0496 295.786 78.5134C295.962 77.7162 295.945 77.247 296.089 76.6788C296.701 74.2974 297.582 72.2206 298.491 70.0384C298.84 69.2124 298.584 69.441 299.019 68.4601C299.461 67.4809 299.933 66.9167 300.511 65.5822C300.949 64.5757 301.131 63.4251 301.809 62.1261C302.163 62.2609 302.64 61.3797 303.633 59.9011C303.824 59.6173 303.749 59.9986 303.845 59.8679C304.239 59.3382 304.462 58.7622 304.851 58.2687C304.945 58.1486 305.058 58.2094 305.141 58.1153C305.852 57.3171 306.541 55.6983 306.661 55.4202C307.12 54.3536 307.552 53.9957 307.97 53.2197C308.388 52.445 307.591 53.4906 308.115 52.609C308.675 51.6694 309.352 50.6163 310.04 49.571C310.739 48.6021 311.46 47.6631 312.107 46.8348C312.64 46.1565 312.41 46.7243 312.489 46.6297C313.625 45.2607 314.639 43.761 315.532 43.2213C315.649 41.71 316.29 42.4588 317.78 40.385C317.896 40.2208 317.736 39.7631 317.202 40.3155C316.667 40.8682 316.017 41.8437 315.258 42.6021C315.079 42.7806 313.852 43.6475 313.707 43.7877C312.576 44.8724 312.924 45.439 312.899 45.523C312.599 46.4748 311.182 47.6134 310.877 47.9729C310.473 48.4403 310.105 48.9018 309.759 49.3564C309.756 49.3601 309.748 49.3714 309.745 49.3752C308.944 50.5289 308.254 51.6134 307.5 52.6404C306.809 53.5844 306.406 53.46 305.918 54.2389C304.301 56.8405 304.22 58.0362 302.331 60.2728C301.932 60.7571 301.843 59.9952 301.052 62.1094C301.001 62.2423 300.486 63.8421 299.87 64.5976C299.792 64.6926 299.679 64.6297 299.597 64.7659C299.048 65.6808 298.824 66.3633 298.285 67.3931C297.746 68.4238 297.113 69.6792 296.662 70.9361C296.388 71.6931 296.26 72.7446 296.191 73.1257C295.992 74.1981 295.383 75.2267 295.397 75.931C295.416 76.6353 296.061 75.4588 295.735 77.1839C295.393 77.1619 295.021 77.2222 294.667 77.2435C294.327 78.6137 294.068 79.9986 293.889 81.3942C293.568 83.8976 293.563 86.3917 293.661 88.8899C293.681 89.3713 293.477 88.8864 293.496 89.4054C293.585 91.604 293.907 93.4749 294.133 95.7152C294.307 97.4446 294.389 99.3535 294.609 101.149C295.152 102.186 295.43 104.848 295.754 106.762C295.867 107.434 295.961 107.37 296.065 107.844C296.453 109.629 295.992 108.832 296.011 109.334C296.086 111.481 296.878 111.561 297.179 114.066C297.196 114.195 296.985 115.869 296.983 116.091C296.977 117.528 297.152 116.313 297.28 117.194C297.495 118.706 297.69 119.776 297.744 121.478C297.747 121.596 297.75 121.718 297.752 121.843C297.761 122.401 297.599 123.743 297.849 124.809C297.882 124.949 298.013 124.864 298.027 124.978C298.252 127.041 297.816 127.111 297.699 128.291C297.58 129.469 297.863 131.287 297.94 131.66C298.144 132.635 298.045 130.918 298.063 130.865C298.322 130.247 298.275 131.581 298.27 132.599C298.687 132.757 298.614 134.186 298.26 133.656C298.222 133.595 298.285 132.805 298.27 132.599C297.839 133.485 297.736 135.027 297.994 136.774C298.107 137.59 298.401 136.848 298.084 139.29C297.926 140.395 297.691 139.933 297.489 140.892C297.142 142.501 296.911 144.483 296.475 146.261C296.313 146.922 296.146 147.553 295.965 148.135C295.713 148.94 295.793 148.11 295.616 148.653C295.14 150.095 294.842 151.406 294.259 152.804C294.206 152.93 294.168 152.561 294.002 152.997C292.711 156.276 291.437 159.098 288.818 161.456C288.244 161.969 287.399 162.59 286.451 163.132C285.265 163.823 284.019 164.455 283.109 164.903C280.241 166.332 276.53 167.954 273.867 168.815C272.131 169.374 272.436 169.091 271.671 169.23C270.161 169.51 267.749 170.687 267.409 170.855C267.383 170.866 268.929 170.416 268.142 170.755C267.719 171.074 267.425 170.851 267.409 170.855C267.216 170.961 264.183 171.936 263.591 172.078C263.262 172.16 263.398 171.955 263.227 172.001C259.124 173.09 255.084 174.201 250.963 175.418C250.892 175.441 251.046 175.58 250.88 175.631C250.079 175.881 249.35 176.073 248.654 176.235C247.397 176.526 246.201 176.726 244.92 176.985C242.895 177.399 241.371 177.849 240.251 178.457C238.775 178.81 236.641 179.51 235.439 179.909C234.22 180.312 233.957 180.029 233.851 180.05C230.421 180.725 228.498 181.427 224.999 182.364C223.332 182.811 220.007 183.618 218.185 184.048C216.74 184.389 215.911 184.684 214.573 184.976C214.392 185.015 214.535 184.822 214.479 184.83C212.96 185.033 213.762 185.209 213.475 185.352C212.438 185.866 211.782 186.167 209.872 186.54C209.432 186.626 208.034 186.434 207.231 186.608C206.19 186.834 206.628 186.919 205.538 187.151C205.445 187.171 205.435 187.052 204.771 187.227C201.684 188.042 198.333 188.973 195.117 189.787C194.678 189.899 195.194 189.573 194.559 189.731C191.581 190.474 188.316 191.322 185.447 192.155C184.737 192.361 185.219 192.372 185.073 192.45C184.179 192.924 182.747 192.942 182.524 192.994C177.179 194.211 173.205 195.569 167.763 196.858C167.457 196.93 165.117 197.173 164.179 197.749C164.115 197.788 163.194 198.367 162.261 198.39C162.204 198.391 162.777 198.066 161.705 198.371C160.606 198.685 158.864 199.041 157.398 199.628C156.929 199.816 155.937 200.418 154.435 200.567C154.329 200.577 152.033 200.612 151.343 201.219C151.237 201.316 151.469 201.688 149.752 201.945C149.421 201.995 149.987 201.738 149.113 201.923C147.782 202.204 146.101 202.799 144.47 203.076C144.388 203.089 144.223 203.104 144.012 203.13C143.476 203.2 142.654 203.337 142.037 203.679C141.901 203.754 142.217 203.808 141.731 203.968C139.362 204.745 136.864 205.404 134.503 206.248C133.65 206.553 134.155 206.632 133.292 206.97C132.438 207.305 130.681 207.938 129.709 208.153C128.756 208.363 129.657 207.676 128.258 208.118C122.225 210.083 116.323 212.336 110.666 215.784C109.832 216.325 110.449 215.75 109.232 216.583C108.112 217.369 106.797 218.44 105.624 219.781C102.105 223.12 101.312 229.729 102.218 233.004C102.296 233.434 102.381 233.842 102.472 234.217C103.458 237.832 102.619 233.213 103.335 235.956C103.701 237.261 103.808 238.781 103.914 239.096C104.945 242.154 106.15 243.997 107.473 246.482C107.746 246.985 107.318 246.58 107.555 247.011C108.372 248.491 109.364 249.963 110.209 251.32C110.584 251.921 110.407 251.886 110.775 252.438C111.541 253.586 112.254 254.581 113.074 255.628C113.191 255.777 113.311 255.928 113.435 256.082C113.522 256.191 113.128 255.322 113.787 256.28C114.856 257.831 116.291 259.676 117.441 261.509C117.788 262.062 117.548 262.241 118.524 263.251C118.729 263.462 118.799 262.948 119.488 264.435C119.602 264.684 120.843 267.112 121.842 268.021C122.103 268.26 122.869 268.81 123.284 269.455C123.34 269.543 122.963 269.301 123.328 269.824C124.616 271.668 126.029 273.553 127.364 275.437C127.72 275.94 127.04 275.302 127.575 276.048C129.047 278.103 130.965 280.604 132.484 282.552C133.045 283.271 132.778 282.683 132.83 282.728C133.661 283.435 133.775 284.136 133.971 284.431C135.195 286.262 136.316 287.506 137.496 289.156C137.819 289.608 137.458 289.386 137.513 289.483C138.094 290.492 137.806 289.634 138.267 290.202C139.559 291.79 140.907 293.627 142.116 295.303C142.559 295.917 141.909 295.34 142.307 295.888C143.212 297.138 144.127 298.398 145.04 299.653C146.532 301.705 148.01 303.734 149.426 305.69C149.857 306.288 149.711 305.826 149.824 305.934C150.607 306.682 151.209 308.141 151.374 308.45C152.141 309.871 152.581 310.335 153.288 311.55C154.435 313.563 155.658 315.754 156.19 317.937C156.722 320.044 156.452 321.528 155.227 323.38C153.855 325.615 152.387 327.27 150.625 328.349C150.022 328.725 149.395 329.043 148.749 329.313C141.932 332.115 135.959 333.668 128.663 334.231C128.149 334.267 128.654 334.044 128.211 334.071C123.007 334.39 117.831 334.197 112.65 333.406C112.173 333.334 111.686 333.256 111.205 333.176C110.735 333.098 111.438 333.031 110.689 332.899C109.151 332.627 107.199 332.29 105.635 332.044C104.868 331.922 105.862 332.27 105.09 332.144C103.307 331.852 101.393 331.458 99.5841 331.017C98.8171 330.829 100.021 330.92 99.0174 330.688C92.1784 329.089 85.5249 327.189 78.6453 325.331C78.1793 325.205 77.6439 325.425 76.6834 325.053C76.6389 324.932 76.6785 324.819 76.6782 324.705C75.1977 324.236 73.7475 323.772 72.2685 323.295C63.9858 320.618 55.7433 317.874 47.4652 314.961C47.055 314.816 47.8282 314.884 47.0346 314.603C42.4342 312.974 37.994 311.315 33.2423 309.782C32.7696 309.629 32.8847 310.035 31.5407 309.487C31.2946 309.387 29.254 308.587 28.7427 308.318C28.6746 308.281 29.1039 308.27 28.4445 308.021C24.5866 306.569 20.5392 305.093 16.6637 303.719C16.0409 303.498 16.6359 303.907 16.1942 303.752C15.6985 303.579 15.1515 303.378 14.6544 303.193C11.9567 302.184 9.19568 301.034 6.69369 300.135C4.7073 299.411 5.29791 299.979 4.16293 299.789C3.98727 299.763 2.83597 299.204 2.71112 299.304C2.33307 299.576 2.69842 300.312 2.23547 300.57C2.21023 300.584 2.0856 300.53 1.92218 300.44C1.73901 300.321 1.57117 300.28 1.22369 299.883C1.14892 299.784 1.01629 299.607 0.968993 299.293C0.917662 298.98 1.04333 298.651 1.12854 298.52C1.30829 298.246 1.32345 298.261 1.32406 298.233C1.31448 298.227 1.32992 298.181 1.19101 298.306C1.13373 298.376 0.925078 298.525 0.846617 299.023C0.788481 299.538 1.03656 299.9 1.15283 300.058C1.49881 300.535 2.63995 301.137 2.91922 301.363C3.10916 301.513 2.65954 301.492 3.05188 301.753C3.45166 302.015 3.97812 302.093 4.64569 302.468C5.32175 302.844 4.93576 302.897 6.31994 303.492ZM229.974 181.709C228.874 182.164 228.554 181.629 229.825 181.447C229.887 181.439 230.03 181.686 229.974 181.709ZM294.107 84.9668C294.315 86.5364 293.962 87.6057 293.748 86.5004C293.547 85.3815 294.05 84.4831 294.107 84.9668ZM298.202 69.3807C297.682 71.1287 296.788 71.0816 297.71 69.3384C297.764 69.2373 298.234 69.2784 298.202 69.3807ZM8.97681 301.893C8.95843 301.895 8.07159 301.547 8.0535 301.531C7.65445 301.166 9.42572 301.861 8.97681 301.893ZM306.071 55.5331C305.863 56.069 304.889 57.3741 305.14 56.7046C305.341 56.1638 306.329 54.8638 306.071 55.5331ZM170.475 197.741C170.459 197.754 169.799 197.937 169.8 197.885C169.803 197.716 170.736 197.517 170.475 197.741ZM321.772 33.6901C320.174 37.2578 319.072 39.6013 321.449 35.8412C321.838 35.1446 320.378 37.2106 320.846 36.3055C321.688 34.6798 322.568 33.6922 322.955 31.8275C323.032 31.5004 321.878 33.5001 321.769 33.6961C321.77 33.6941 321.771 33.6921 321.772 33.6901ZM229.497 182.576C229.477 182.589 228.558 182.836 228.533 182.834C227.986 182.78 229.839 182.283 229.497 182.576ZM132.156 209.02C132.115 209.048 130.027 209.753 129.958 209.762C128.771 209.826 132.981 208.403 132.156 209.02ZM289.986 162.618C290.911 162.057 291.799 161.083 292.109 160.262C291.486 161.109 290.769 161.901 289.986 162.618ZM331.034 24.3231C330.288 23.653 329.274 23.0471 328.483 22.6358C328.232 22.5055 328.297 22.672 328.124 22.5883C327.786 22.4257 327.514 22.1992 327.177 22.0538C327.063 22.0053 327.108 22.2277 326.99 22.1736C326.864 22.1155 326.743 22.0554 326.621 21.9911C326.096 21.715 325.604 21.4371 325.063 21.2117C322.772 20.2712 320.528 19.6006 318.271 18.928C317.238 18.6224 316.194 18.3449 315.141 18.0912C314.187 17.8577 313.004 17.7005 312.04 17.4403C311.961 17.4184 311.891 17.3967 311.856 17.3818C311.841 17.3756 311.832 17.3683 311.87 17.3844C311.886 17.3916 311.927 17.4112 311.987 17.4565C312.058 17.5184 312.185 17.5998 312.292 17.8951C312.369 18.1284 312.338 18.3501 312.303 18.4728C312.273 18.5805 312.248 18.6344 312.233 18.6762C312.202 18.7555 312.206 18.777 312.222 18.7901C312.252 18.8161 312.34 18.7605 312.294 18.8365C312.15 19.0489 312.146 19.0372 312.133 19.0654C312.127 19.0809 312.131 19.0818 312.136 19.0778C312.144 19.0702 312.15 19.0436 312.15 19.0117C312.148 18.95 312.135 18.8614 312.222 18.8006C313.026 18.2849 314.181 17.8814 315.146 17.5999C315.56 17.4815 315.248 17.9004 315.607 17.6011C315.631 17.5809 315.479 17.4683 315.582 17.4145C315.822 17.291 316.309 17.1512 316.509 17.0684C316.868 16.9174 316.951 16.8904 317.298 16.7679C317.608 16.6574 317.927 16.5138 318.275 16.3774C318.473 16.299 318.679 16.2245 318.886 16.1663C319.003 16.1342 318.909 16.3369 319.093 16.3015C319.274 16.2676 319.76 16.0837 319.898 15.9954C320.044 15.9044 319.935 15.8088 319.954 15.7717C320.107 15.4598 320.767 15.5874 320.84 15.5708C322.175 15.2553 323.216 14.6873 324.424 14.2647C325.339 13.9453 326.346 13.6595 327.213 13.346C328.247 12.9714 329.102 12.5788 330.115 12.2383C330.222 12.2021 330.16 12.4241 330.291 12.3801C331.681 11.9145 333.046 11.4117 334.38 10.8059C334.514 10.7449 334.281 10.6516 334.411 10.5813C335.208 10.1556 336.438 9.37412 337.177 9.8775C337.741 9.64795 338.425 9.37488 338.887 9.05692C339.183 8.85236 338.803 8.79578 339.236 8.72409C339.333 8.70776 339.267 8.89893 339.409 8.86319C340.003 8.71372 340.616 8.44135 341.215 8.315C341.337 8.28958 341.353 8.43433 341.394 8.44663C341.74 8.543 342.084 8.05808 342.177 7.99841C342.873 7.55423 343.459 7.42215 344.169 7.16345C344.332 7.10394 344.203 7.35205 344.362 7.30133C345.166 7.04141 345.979 6.73465 346.726 6.38437C346.757 6.36978 346.788 6.35519 346.819 6.34055C346.995 6.25674 346.772 6.16473 346.853 6.11697C347.209 5.90881 347.387 6.16968 347.733 5.97403C347.805 5.93366 347.715 5.81882 347.723 5.79944C347.857 5.49655 348.161 5.7467 348.222 5.73261C348.958 5.57379 349.3 5.07227 349.998 4.86929C350.082 4.84522 349.959 5.07751 350.19 5.00003C351.733 4.48312 353.344 3.83408 354.799 3.10266C355.028 2.98773 354.81 2.93314 354.818 2.9122C354.964 2.57971 355.243 2.83292 355.328 2.81137C355.557 2.7532 355.774 2.64157 355.955 2.54904C355.994 2.52927 356.032 2.51065 356.055 2.5C356.064 2.49512 356.077 2.49191 356.047 2.49722C356.019 2.4938 356.024 2.52808 355.825 2.47614C355.765 2.45444 355.694 2.42029 355.619 2.33685C355.545 2.25748 355.506 2.13165 355.502 2.07281C355.49 1.94012 355.518 1.88922 355.525 1.86151C355.595 1.71506 355.551 1.81064 355.536 1.81644C355.514 1.83932 355.485 1.866 355.456 1.88956C355.334 1.98788 355.182 2.05988 354.994 2.0694C354.778 2.31772 354.556 2.56381 354.331 2.811C352.687 4.5946 351.043 6.43085 349.953 8.60367C349.937 8.63449 350.111 8.6778 350.078 8.73877C349.692 9.48105 349.567 9.20267 348.996 9.49619C348.853 9.56989 348.949 10.136 348.954 10.1818C348.97 10.3527 349.256 10.3652 349.249 10.4146C349.194 10.7485 348.732 10.4697 348.418 10.6137C348.353 10.643 348.294 10.6909 348.248 10.7671C348.241 10.7814 348.406 10.8028 348.396 10.8472C348.368 10.9854 348.247 11.0689 348.226 11.2063C348.177 11.5252 348.47 11.8164 348.04 12.0913C347.986 12.1261 347.625 11.8134 347.416 12.2224C347.334 12.3821 346.932 13.0829 346.852 13.2934C346.771 13.5052 346.977 13.4423 346.975 13.4595C346.86 14.0856 347.043 13.923 347.159 14.3292C347.276 14.7321 346.698 14.3279 346.57 14.3998C346.443 14.4731 346.382 14.9395 346.382 15.0632C346.382 15.1862 346.53 15.1107 346.514 15.2109C346.406 15.8735 346.076 15.2987 345.879 15.4351C345.417 15.7564 345.703 16.3408 345.545 16.7683C345.502 16.8845 345.441 16.7416 345.382 16.8348C345.15 17.2047 345.18 17.51 344.83 17.8889C344.773 17.9504 344.317 18.1746 344.411 18.5073C344.425 18.5546 344.587 18.517 344.533 18.6962C344.453 18.9645 344.266 19.426 344.101 19.6764C343.979 19.8614 343.892 19.5431 343.835 19.8216C343.81 19.9454 344.019 19.792 343.963 20.02C343.907 20.2465 343.657 20.7762 343.561 20.9774C343.465 21.178 343.368 21.0002 343.351 21.012C343.249 21.0851 343.001 21.443 342.986 21.4777C342.277 23.0138 341.854 24.5443 341.228 26.0449C341.148 26.2384 341.065 26.4293 340.977 26.6214C340.916 26.7543 340.794 26.6007 340.783 26.6203C340.532 27.0574 341.099 26.8597 341.112 27.2388C340.808 27.0644 340.79 27.2791 340.627 27.5912C340.548 27.7423 340.457 27.6075 340.439 27.6169C340.157 27.7773 340.34 28.0347 340.374 28.0965C340.498 28.3232 340.215 28.4072 340.299 28.56C340.381 28.7126 340.656 28.5396 340.533 28.8528C340.384 28.8967 340.17 28.5476 340.03 28.7678C339.498 29.5985 339.115 31.3766 338.879 32.1139C338.641 32.8499 338.536 33.0761 338.427 33.5157C338.23 34.3084 338.103 33.9468 337.83 34.3853C337.557 34.825 338.197 34.7919 338.292 34.9031C338.388 35.0131 338.239 35.0425 338.275 35.1494C338.311 35.2562 338.457 35.1046 338.411 35.3098C338.366 35.5151 337.961 35.9756 337.811 35.9999C337.494 36.0519 337.301 35.7114 337.214 36.2642C337.209 36.2961 337.39 36.252 337.364 36.3713C337.151 37.319 336.817 38.261 336.579 39.199C336.546 39.3281 336.75 39.2781 336.732 39.354C336.552 40.1445 336.38 39.773 335.921 40.0663C336.312 40.1223 336.482 40.3846 336.357 40.8455C336.342 40.9012 336.323 40.9598 336.299 41.0212C336.166 41.3631 336.014 41.2354 335.803 41.4061C335.739 41.4569 335.763 41.7458 335.663 41.7562C335.336 41.7912 335.128 41.4436 335.011 42.0715C335.007 42.0992 335.187 42.0785 335.16 42.1698C334.984 42.7617 334.677 42.7125 334.386 43.308C334.158 43.7737 333.961 44.6959 333.749 45.2488C334.198 45.4323 333.868 45.902 333.47 45.9718C333.325 46.329 333.138 46.6977 333.025 47.0557C332.987 47.1778 333.149 47.1602 333.156 47.1811C333.269 47.5074 332.904 47.5215 332.858 47.5927C332.369 48.3577 332.281 49.1261 331.697 49.8009C331.676 49.8249 331.349 49.7281 331.475 50.0389C331.484 50.0593 331.744 49.8677 331.581 50.2399C331.473 50.4871 331.364 50.9125 331.193 51.297C331.106 51.4927 331.005 51.6747 330.879 51.8208C330.786 51.9302 330.398 52.1176 330.468 52.4366C330.477 52.4793 330.581 52.492 330.602 52.5639C330.677 52.7991 330.297 52.6725 330.553 52.8786C330.202 52.8641 329.944 52.3213 330.136 51.7688C330.141 51.7521 330.409 51.6086 330.403 51.4341C330.393 51.1506 330.337 50.7478 330.34 50.4469C330.341 50.308 330.509 50.3976 330.512 50.3735C330.536 50.1412 330.545 49.9294 330.545 49.7138C330.546 49.0677 330.453 48.4878 330.411 47.7126C330.4 47.5216 330.634 46.9847 330.457 46.6215C330.263 46.2156 329.436 46.6246 329.641 45.7065C329.723 45.3355 330.772 44.8794 330.238 44.2074C330.386 42.9208 330.122 41.7233 330.327 40.432C330.336 40.3739 330.629 40.193 330.627 40.0563C330.622 39.8533 330.487 39.7401 330.48 39.5951C330.445 38.9869 330.568 38.4331 330.555 37.8465C330.551 37.6239 330.41 37.702 330.404 37.4353C330.399 37.1691 330.587 36.9964 330.501 36.6349C330.435 36.3655 330.059 36.0871 330.018 35.7282C330.392 35.7166 330.386 35.4727 330.489 35.0313C330.509 34.9469 330.638 35.0388 330.655 34.9989C330.723 34.837 330.617 34.6873 330.691 34.5316C330.709 34.494 330.836 34.4934 330.858 34.4628C331.049 34.2073 330.765 33.7682 330.716 33.6981C330.528 33.4072 330.695 33.2859 330.622 33.0625C330.549 32.8441 330.453 33.1686 330.409 32.9146C330.375 32.7224 330.358 32.4937 330.349 32.2764C330.334 31.8964 330.343 31.5215 330.34 31.1818C330.339 30.9732 330.509 31.1162 330.513 31.0863C330.558 30.6454 330.377 30.1992 330.717 29.9557C329.839 29.6555 330.802 29.69 330.624 29.0613C330.609 29.0131 330.194 28.9521 330.134 29.1414C330.074 29.3315 330.205 29.619 330.11 29.8818C330.088 29.9458 329.698 30.2991 329.675 30.3514C329.49 30.7279 330.11 30.7884 330.144 30.8069C330.511 31.0375 330.09 31.4784 330.061 31.5874C329.998 31.8329 329.983 32.0512 329.974 32.2741C329.964 32.5203 329.964 32.7668 329.912 33.0009C329.848 33.2943 329.442 33.3114 329.452 33.5403C329.487 34.2921 330.052 34.5604 329.554 35.266C329.448 35.4164 329.005 35.2583 329.349 35.8096C329.371 35.8426 329.686 36.2508 329.482 36.4824C329.456 36.5113 329.327 36.5091 329.316 36.5475C329.243 36.8054 329.344 36.9812 329.292 37.2621C329.24 37.5457 329.163 37.8824 329.203 38.2067C329.227 38.4005 329.466 38.6531 329.524 38.7472C329.691 39.0106 329.409 39.2909 329.614 39.4554C329.819 39.6216 330.137 39.304 330.266 39.7359C329.929 39.7483 329.584 39.7813 329.245 39.8034C329.247 40.7472 329.346 41.6767 329.321 42.6238C329.318 42.7412 329.138 42.6192 329.13 42.7449C329.095 43.2751 329.219 43.7416 329.162 44.2908C329.118 44.7177 328.921 45.1797 328.869 45.6282C329.251 45.9002 329.113 46.567 329.144 47.0452C329.155 47.2151 329.257 47.2045 329.29 47.3239C329.41 47.7757 329.072 47.5628 329.017 47.686C328.784 48.212 329.553 48.2693 329.529 48.8921C329.528 48.9303 329.115 49.3247 329.089 49.3857C328.92 49.7418 329.231 49.4475 329.26 49.6673C329.262 49.6802 329.263 49.6929 329.265 49.7055C329.319 50.0973 329.405 50.3724 329.288 50.8378C329.253 50.9795 328.997 51.3143 329.199 51.5926C329.225 51.6274 329.36 51.6058 329.369 51.6361C329.511 52.1741 329.086 52.1878 328.966 52.5585C328.937 52.6523 328.938 52.7637 328.968 52.9088C328.984 52.981 329.007 53.0636 329.046 53.1715C329.096 53.2867 329.112 53.4043 329.344 53.7292C329.466 53.8789 329.71 54.1884 330.259 54.2986C330.811 54.3815 331.1 54.1923 331.268 54.0897C331.547 53.8841 331.578 53.7795 331.635 53.6902C331.711 53.5358 331.717 53.4546 331.721 53.4109C331.709 52.9915 331.566 53.5547 331.293 53.7451C331.084 53.8364 330.937 53.8406 331.042 53.7514C331.113 53.677 331.246 53.5362 331.304 53.4426C331.433 53.2479 331.511 53.1033 331.574 52.9673C331.229 52.7294 331.411 52.4173 331.686 52.7001C331.717 52.7312 331.587 52.9027 331.574 52.9673C332.061 52.9244 332.285 52.5711 332.119 52.0208C332.064 51.8363 331.911 51.8289 331.945 51.6488C331.958 51.5794 332.005 51.474 332.099 51.3257C332.25 51.0871 332.463 51.3098 332.639 51.12C333.039 50.6905 333.11 49.913 333.392 49.4074C333.496 49.2224 333.551 49.476 333.627 49.3512C333.827 49.0235 333.862 48.6681 334.078 48.3437C334.098 48.3146 334.212 48.4605 334.264 48.3533C334.661 47.536 334.891 46.7737 335.272 45.9041C335.456 45.4844 335.866 44.7685 336.035 44.323C336.331 43.5513 336.496 42.5231 336.811 41.8911C337.016 41.4782 337.132 41.6322 337.309 41.49C337.376 41.4356 337.426 41.3617 337.462 41.2773C337.608 40.9351 337.525 40.4232 337.505 40.3382C337.505 40.3351 337.327 40.6902 337.323 40.463C337.202 40.2856 337.503 40.3421 337.505 40.3382C337.491 40.269 337.734 39.5183 337.818 39.3826C337.863 39.3091 337.993 39.4081 338.014 39.3687C338.513 38.4288 338.908 37.4513 339.197 36.4258C339.2 36.4071 339.026 36.3748 339.036 36.3317C339.17 35.7263 339.503 35.4279 339.792 34.9939C340.081 34.5596 340.176 34.1693 339.994 33.7861C340.158 33.4409 340.218 32.881 340.249 32.5591C340.281 32.2357 340.615 32.3111 340.631 32.2874C341.127 31.5524 341.115 31.0198 341.4 30.1743C341.534 29.7726 341.879 29.0057 342.079 28.5927C342.238 28.2669 342.243 28.0352 342.413 27.7438C342.436 27.7043 342.56 27.8024 342.571 27.7918C342.876 27.5143 342.466 27.5431 342.433 27.4474C342.32 27.1198 342.264 26.9171 342.496 26.5598C342.51 26.5378 342.526 26.5152 342.542 26.4919C342.608 26.4001 343.223 26.3047 343.327 26.1333C343.463 25.9088 343.249 25.9258 343.396 25.6924C343.409 25.6724 343.515 25.7222 343.575 25.5656C343.855 24.8386 344.127 24.0304 344.464 23.2937C344.51 23.1929 344.624 23.3979 344.692 23.2538C345.015 22.5774 345.346 21.827 345.573 21.1279C345.628 20.9555 345.462 21.0027 345.443 20.951C345.331 20.6345 345.785 20.4702 345.814 20.4227C346.531 19.2843 346.7 18.2296 347.447 17.082C347.488 17.0196 348.072 16.6816 347.911 16.3123C347.9 16.287 347.73 15.9165 348.029 15.821C348.047 15.8153 348.121 16.0305 348.233 15.7813C348.345 15.5332 348.648 15.1989 348.668 14.7832C348.673 14.6533 348.527 14.2504 348.922 14.0656C348.949 14.0523 349.718 13.8622 349.467 13.4984C349.425 13.4391 349.042 13.258 349.44 13.0001C349.516 12.9519 349.525 13.1241 349.681 12.972C349.923 12.7361 350.041 12.3123 350.408 12.0707C350.437 12.0519 350.535 12.0208 350.626 11.9645C350.737 11.8944 350.84 11.7879 350.806 11.6176C350.797 11.5685 350.64 11.554 350.693 11.4396C350.941 10.8983 351.357 10.4315 351.611 9.88251C351.7 9.68903 351.451 9.65015 351.527 9.43167C351.6 9.21643 351.813 8.81079 352.032 8.68481C352.252 8.55673 352.399 8.9725 352.624 8.71173C353.605 7.57813 354.363 6.30643 355.351 5.18481C355.497 5.01999 355.469 5.24094 355.692 5.00439C355.825 4.86469 355.978 4.7095 356.144 4.54324C356.358 4.3284 356.586 4.10458 356.829 3.8595C356.952 3.73453 357.069 3.61768 357.226 3.44553C357.268 3.39816 357.309 3.35321 357.376 3.27014C357.409 3.22849 357.444 3.18655 357.518 3.0762C357.548 3.02924 357.603 2.94647 357.668 2.80524C357.712 2.70575 357.758 2.60455 357.805 2.38309C357.832 2.24542 357.854 2.06848 357.833 1.84152C357.825 1.66379 357.715 1.21411 357.477 0.911835C356.986 0.266632 356.371 0.198975 356.221 0.17453C355.994 0.146637 355.857 0.162323 355.781 0.168915C355.601 0.189545 355.542 0.208435 355.471 0.225494C355.357 0.256104 355.303 0.27655 355.252 0.294952C355.159 0.329071 355.107 0.351776 355.054 0.374268C354.379 0.677887 353.843 0.938904 353.446 1.22211C352.729 1.73923 353.796 1.50415 353.217 1.8259C352.935 1.98114 352.464 1.7092 352.384 1.72568C351.641 1.86429 351.21 2.22491 350.554 2.40775C350.417 2.44595 350.487 2.23773 350.374 2.27075C349.986 2.38336 349.6 2.60724 349.238 2.72525C349.071 2.77942 349.054 2.64655 348.906 2.71158C348.559 2.86313 348.256 3.0321 347.942 3.27701C347.913 3.29947 348.19 3.3714 347.918 3.47684C347.497 3.64014 346.992 3.95187 346.452 4.01459C346.292 4.03256 346.187 3.75299 345.932 4.06412C345.915 4.08478 345.924 4.12961 345.93 4.17627C345.942 4.27664 345.938 4.38467 345.614 4.27652C345.533 4.25085 344.769 4.08188 344.552 4.44586C344.493 4.54224 344.385 4.89243 344.193 4.91226C344.167 4.91397 344.209 4.72839 344.057 4.76651C343.512 4.90604 342.973 5.1171 342.423 5.26025C342.275 5.29834 342.432 5.06601 342.214 5.12787C341.608 5.29956 340.893 5.59906 340.337 5.85227C340.13 5.94635 340.323 6.0235 340.313 6.04309C340.143 6.36176 339.891 6.10281 339.802 6.11417C339.251 6.18808 338.915 6.47128 338.428 6.60062C338.294 6.63681 338.334 6.45633 338.303 6.45239C337.987 6.41977 338.283 6.61343 338.123 6.70279C337.679 6.95361 337.141 7.13089 336.653 7.28238C336.473 7.33804 336.612 7.09628 336.451 7.14822C335.501 7.45114 334.526 7.81412 333.643 8.23203C333.476 8.31119 333.632 8.4046 333.606 8.44745C333.432 8.746 332.967 8.58676 332.874 8.58899C332.449 8.59833 332.342 8.76712 331.998 8.86392C330.317 9.33472 328.313 10.1261 326.779 10.7183C324.778 11.4897 323.251 12.1657 321.313 12.8066C321.191 12.847 321.253 12.6286 321.146 12.6615C319.887 13.0584 318.672 13.5426 317.428 13.9435C317.303 13.9837 317.18 14.0226 317.058 14.0598C316.946 14.0947 317.048 13.8725 316.866 13.9226C316.488 14.0256 316.02 14.1983 315.668 14.3805C315.498 14.4681 315.788 14.5275 315.615 14.6135C315.196 14.8193 314.759 14.9847 314.299 15.1157C314.111 15.1682 314.329 14.9008 314.088 14.9829C313.405 15.215 312.743 15.4373 312.051 15.7019C311.703 15.837 311.366 15.9693 310.946 16.1764C310.831 16.234 310.715 16.293 310.553 16.3924C310.461 16.4508 310.37 16.5058 310.21 16.6382C310.149 16.6891 310.011 16.8109 309.888 16.9684C309.746 17.1724 309.494 17.4517 309.463 18.1652C309.444 18.849 309.863 19.4024 310.052 19.5681C310.3 19.797 310.397 19.8351 310.522 19.9071C310.719 20.0077 310.828 20.0401 310.924 20.0714C311.101 20.1249 311.206 20.1443 311.308 20.1649C311.669 20.2332 312.004 20.2783 312.339 20.3154C312.461 20.3289 312.651 19.9981 312.883 20.1277C312.878 20.2311 312.848 20.347 312.83 20.4546C314.375 20.872 315.887 21.2401 317.386 21.6828C318.267 21.9432 319.143 22.2093 320.006 22.5051C320.105 22.5393 319.87 22.6621 320.061 22.7292C321.171 23.1197 322.202 23.5692 323.336 23.8699C323.447 23.9003 323.538 23.5641 323.825 23.7559C323.876 23.7891 324.314 24.0543 324.393 24.1806C324.403 24.1985 324.25 24.2985 324.389 24.3763C324.597 24.4925 324.805 24.6092 325.007 24.7264C325.66 25.1058 326.325 25.4667 326.973 25.8009C327.116 25.8744 327.066 25.6394 327.168 25.6907C327.888 26.0521 328.527 26.6524 329.149 26.9758C329.557 27.1932 329.626 26.8638 330.004 26.8297C330.064 26.8286 330.23 27.014 330.367 26.9258C330.749 26.733 331.009 26.303 331.421 26.103C331.466 26.0851 331.576 26.2235 331.685 26.4239C331.736 26.5145 331.786 26.6453 331.813 26.6566C331.843 26.679 331.857 26.5427 331.827 26.3382C331.82 26.2997 331.736 26.0912 331.663 25.9431C331.589 25.7887 331.522 25.6555 331.513 25.5864C331.5 25.4911 331.726 25.4829 331.663 25.3122C331.601 25.1448 331.383 25.1317 331.27 24.9186C331.155 24.7065 331.356 24.6174 331.034 24.3231ZM340.396 31.107C340.343 30.7773 340.919 30.9444 340.676 31.1897C340.664 31.2014 340.398 31.1238 340.396 31.107ZM329.797 41.6763C330.057 42.061 329.666 42.3181 329.465 42.0466C329.265 41.7747 329.719 41.5594 329.797 41.6763ZM330.032 37.7204C330.235 38.1685 329.386 38.2304 329.562 37.7541C329.572 37.7265 330.02 37.6943 330.032 37.7204ZM329.126 25.9755C329.136 25.9725 329.319 26.1039 329.32 26.1148C329.298 26.338 328.931 26.0745 329.126 25.9755ZM330.278 33.7953C330.392 33.9326 330.256 34.3387 330.115 34.162C330.001 34.0181 330.137 33.6226 330.278 33.7953ZM345.801 16.9102C345.795 16.902 345.863 16.7474 345.907 16.7732C346.047 16.8563 345.9 17.0457 345.801 16.9102ZM330.263 27.1366C330.339 28.1013 331.037 28.707 330.937 27.6206C330.918 27.4258 330.725 28.0508 330.655 27.8009C330.528 27.358 330.96 27.0177 330.672 26.5662C330.622 26.4902 330.262 27.0871 330.262 27.1384C330.263 27.1378 330.263 27.1372 330.263 27.1366ZM339.78 30.7011C339.774 30.6928 339.848 30.4701 339.858 30.4678C340.08 30.4149 339.931 30.8625 339.78 30.7011ZM350.447 8.17593C350.44 8.15595 350.744 7.69989 350.767 7.69507C351.183 7.64539 350.575 8.55933 350.447 8.17593ZM333.757 45.2625C333.479 45.419 333.335 45.6873 333.471 45.9706C333.562 45.7342 333.664 45.5007 333.757 45.2625Z" fill="#90A1B9"/>
</svg>
