<svg xmlns="http://www.w3.org/2000/svg" width="358" height="337" fill="none" viewBox="0 0 358 337"><path fill="#90a1b9" d="M6.32 303.492c2.12.903 4.683 1.89 7.143 2.799 1.256.464 2.508.916 3.62 1.31 1.028.364.542.067 1.253.313 1.386.48 2.642 1.007 4.017 1.469.453.152-.045-.214.43-.051 2.607.895 5.038 1.841 7.67 2.77 12.964 4.563 25.71 9.039 38.966 13.292.64.205 1.307.414 1.975.62 3.959 1.226 8.44 2.498 12.317 3.676.53.161.172.211.27.252 1.533.633 1.098.198 2.138.451 4.174 1.015 8.784 2.195 12.8 3.165 1.712.41-.073.312 1.691.534.123.016-.281-.233.195-.146 1.073.198 3.102.644 3.933.791 1.606.286 1.877.337 3.397.603 1.276.221 2.709.422 4.141.617.914.125 1.821.239 2.692.351.48.062-.178.152.595.262.767.116 2.825.27 3.518.267.694.001.408-.142.531-.164 1.013-.179 3.382.205 3.686.205 5.59.143 10.38-.601 15.481-1.748 3.701-.834 7.575-2.025 10.949-3.404.177-.072.344-.143.516-.221 3.299-1.437 5.537-4.03 7.166-6.714.557-.876 1.103-1.85 1.409-2.99.123-.499.173.138.308-.488.271-1.394.106-2.785-.202-4.045-1.375-4.903-4.269-8.662-6.926-12.548-.341-.478-.051.242-.402-.232-1.331-1.803-3.193-4.163-4.621-6.236-.883-1.285-1.598-2.468-1.86-3.295-1.479-1.968-3.273-4.338-4.701-6.013-.919-1.078-.247.127-1.22-1.309-.221-.324.211-.01-.13-.49-1.433-2.019-3.093-4.155-4.492-6.165-.285-.41-.089-.385-.153-.513-.543-1.073-1.996-2.451-2.273-2.782-2.105-2.516-3.473-4.48-5.287-6.932-.42-.568.229-.007-.171-.56a592 592 0 0 0-6.323-8.565c-.465-.617-.184.054-.412-.235-.999-1.271-.956-1.738-1.908-2.977-.199-.259-.207-.029-.253-.069-.731-.626-.92-1.492-1.047-1.688a41 41 0 0 0-1.666-2.388c-.974-1.312-1.907-2.472-2.895-4.083-.181-.297.391.278-.133-.563-3.198-5.258-6.658-10.917-7.527-16.945a30 30 0 0 1-.157-1.093c-.115-.983-.18-.269-.203-.329-.344-1.004.002-1.683.02-1.995.088-2.503.747-4.86 2.035-6.057.387-.614.828-1.201 1.31-1.762 7.012-7.142 17.722-9.427 27.089-13.042.133-.046-.158-.13.108-.222 3.16-1.088 2.619-.643 4.843-.986.557-.086 2.057-.934 2.206-1.007.505-.258-.121-.333.053-.405 1.28-.528 1.372.148 2.902-.174a6 6 0 0 0 .46-.115c.06-.019-.236-.091-.078-.153.492-.191 1.015-.279 1.507-.474 1.146-.454 1.39-.941 3.242-1.221.237-.034.015.513 1.76.001.712-.209 3.801-1.055 4.676-1.325.854-.265.222-.249.282-.272 2.283-.83 1.386-.67 2.484-1.274 1.088-.6.95.164 1.448.11.499-.054 2.189-.679 2.589-.845.406-.169-.144-.12.222-.252 2.444-.873 1.187.042 2.043-.071 1.986-.257 3.384-1.166 5.135-1.681.478-.14.115.078.547-.025 1.717-.409 2.675-.828 4.651-1.192.319-.059 1.953-.163 2.91-.649.135-.07-.304-.089.412-.306 1.059-.321 3.01-.857 4.175-1.115.864-.19-.064.271.997-.073.472-.153-.448-.043.442-.321.889-.277 3.175-.862 4.05-1.083.873-.221.436.059.51.051.442-.049 2.128-.403 2.277-.442 7.452-1.899 14.246-3.919 21.525-5.694.57-.139.234.123.321.104 1.962-.43.311-.475 1.639-.973-.112.387.681.118 2.059-.197.664-.151.338.071.402.069 1.025-.053 1.653-.487 1.813-.584.601-.359 1.364-.314 1.77-.555.408-.241-.658-.168.661-.505.402.024-.499.592.518.383 3.817-.777 10.792-2.853 13.81-3.676 3.004-.817 3.976-1.052 5.743-1.569 3.128-.919 2.067-.387 4.051-.807 1.997-.425.892-.74 1.141-.939s.589-.156.916-.318c.325-.161-.44-.042.359-.287.177-.054.426-.115.706-.176 1.035-.227 2.447-.452 2.694-.413.69.101-.224.663 1.895-.036.12-.04-.318-.079.145-.225 3.702-1.161 7.628-2.303 11.313-3.538.513-.172 0-.197.297-.299 3.074-1.064 2.026-.436 3.841-.67-.512-.292.35-.832 2.683-1.608 1.391-.468 1.222-.214 2.165-.397.298-.059 1.221-.52 1.443-.506.693.057-.147.717 2.216-.291.104-.045-.29-.067.073-.214 2.301-.948 2.706-.764 5.204-1.832 1.197-.52 2.93-1.455 4.488-2.471a19 19 0 0 0 2.603-2.003c-.333-.314 1.344-1.809 2.146-2.396a21 21 0 0 0 2.405-4.178c.206-.485-.067-.228-.053-.295.198-1.014.742-1.518.879-1.831 1.099-2.581 1.656-4.932 2.371-7.355.222-.758.432-1.532.651-2.336.032-.121.41-.256.329-1.227-.007-.062-.35 1.051-.089-.575.264-1.631.414-4.729.681-6.994.07-.548.406-1.936.214-3.064-.025-.149-.125.012-.175-.204-.158-.698.187-1.075-.1-1.893-.289-.819-.509-2.503-.408-4.795.002-.073.249-.627.205-1.348a80 80 0 0 0-.24-2.77 145 145 0 0 1-.115-1.203c-.051-.57.149-.22.144-.319-.269-3.87-.762-6.586-1.412-10.68-.119-.748-.215-2.945-.616-4.371-.438-1.562-1.004.201-1.367-3.502-.143-1.497.602-3.516-.264-6.115-.432-4.652-.999-9.054-.271-13.668q.129-.79.306-1.582c.051-.232.48-.903.599-1.44.176-.797.159-1.266.303-1.834.612-2.382 1.493-4.458 2.402-6.64.349-.827.093-.598.528-1.579.442-.98.914-1.543 1.492-2.878.438-1.006.62-2.157 1.298-3.456.354.135.831-.746 1.824-2.225.191-.284.116.098.212-.033.394-.53.617-1.106 1.006-1.6.094-.12.207-.059.29-.153.711-.798 1.4-2.417 1.52-2.695.459-1.066.891-1.424 1.309-2.2.418-.775-.379.27.145-.611.56-.94 1.237-1.993 1.925-3.038a91 91 0 0 1 2.067-2.736c.533-.678.303-.11.382-.205 1.136-1.37 2.15-2.869 3.043-3.409.117-1.511.758-.762 2.248-2.836.116-.164-.044-.622-.578-.07-.535.553-1.185 1.529-1.944 2.287-.179.179-1.406 1.046-1.551 1.186-1.131 1.084-.783 1.651-.808 1.735-.3.952-1.717 2.09-2.022 2.45a29 29 0 0 0-1.118 1.383l-.014.02c-.801 1.153-1.491 2.237-2.245 3.264-.691.944-1.094.82-1.582 1.599-1.617 2.602-1.698 3.797-3.587 6.034-.399.484-.488-.278-1.279 1.836-.051.133-.566 1.733-1.182 2.489-.078.095-.191.032-.273.168-.549.915-.773 1.597-1.312 2.627s-1.172 2.286-1.623 3.543c-.274.757-.402 1.809-.471 2.19-.199 1.072-.808 2.1-.794 2.805.019.704.664-.472.338 1.253-.342-.022-.714.038-1.068.06a37 37 0 0 0-.778 4.15c-.321 2.504-.326 4.998-.228 7.496.02.481-.184-.004-.165.515.089 2.199.411 4.07.637 6.31.174 1.73.256 3.638.476 5.434.543 1.037.821 3.699 1.145 5.613.113.672.207.608.311 1.082.388 1.785-.073.988-.054 1.49.075 2.147.867 2.227 1.168 4.732.017.129-.194 1.803-.196 2.025-.006 1.437.169.222.297 1.103.215 1.512.41 2.582.464 4.284l.008.365c.009.558-.153 1.9.097 2.966.033.14.164.055.178.169.225 2.063-.211 2.133-.328 3.313-.119 1.178.164 2.996.241 3.369.204.975.105-.742.123-.795.259-.618.212.716.207 1.734.417.158.344 1.587-.01 1.057-.038-.061.025-.851.01-1.057-.431.886-.534 2.428-.276 4.175.113.816.407.074.09 2.516-.158 1.105-.393.643-.595 1.602-.347 1.609-.578 3.591-1.014 5.369a32 32 0 0 1-.51 1.874c-.252.805-.172-.025-.349.518-.476 1.442-.774 2.753-1.357 4.151-.053.126-.091-.243-.257.193-1.291 3.279-2.565 6.101-5.184 8.459a14.5 14.5 0 0 1-2.367 1.676 56 56 0 0 1-3.342 1.771c-2.868 1.429-6.579 3.051-9.242 3.912-1.736.559-1.431.276-2.196.415-1.51.28-3.922 1.457-4.262 1.625-.026.011 1.52-.439.733-.1-.423.319-.717.096-.733.1-.193.106-3.226 1.081-3.818 1.223-.329.082-.193-.123-.364-.077a456 456 0 0 0-12.264 3.417c-.071.023.083.162-.083.213-.801.25-1.53.442-2.226.604-1.257.291-2.453.491-3.734.75-2.025.414-3.549.864-4.669 1.472-1.476.353-3.61 1.053-4.812 1.452-1.219.403-1.482.12-1.588.141-3.43.675-5.353 1.377-8.852 2.314-1.667.447-4.992 1.254-6.814 1.684-1.445.341-2.274.636-3.612.928-.181.039-.038-.154-.094-.146-1.519.203-.717.379-1.004.522-1.037.514-1.693.815-3.603 1.188-.44.086-1.838-.106-2.641.068-1.041.226-.603.311-1.693.543-.093.02-.103-.099-.767.076-3.087.815-6.438 1.746-9.654 2.56-.439.112.077-.214-.558-.056-2.978.743-6.243 1.591-9.112 2.424-.71.206-.228.217-.374.295-.894.474-2.326.492-2.549.544-5.345 1.217-9.319 2.575-14.761 3.864-.306.072-2.646.315-3.584.891-.064.039-.985.618-1.918.641-.057.001.516-.324-.556-.019-1.099.314-2.841.67-4.307 1.257-.469.188-1.461.79-2.963.939-.106.01-2.402.045-3.092.652-.106.097.126.469-1.591.726-.331.05.235-.207-.639-.022-1.331.281-3.012.876-4.643 1.153-.082.013-.247.028-.458.054-.536.07-1.358.207-1.975.549-.136.075.18.129-.306.289-2.369.777-4.867 1.436-7.228 2.28-.853.305-.348.384-1.211.722-.854.335-2.611.968-3.583 1.183-.953.21-.052-.477-1.451-.035-6.033 1.965-11.935 4.218-17.592 7.666-.834.541-.217-.034-1.434.799-1.12.786-2.435 1.857-3.608 3.198-3.519 3.339-4.312 9.948-3.406 13.223.078.43.163.838.254 1.213.986 3.615.147-1.004.863 1.739.366 1.305.473 2.825.579 3.14 1.031 3.058 2.236 4.901 3.559 7.386.273.503-.155.098.082.529.817 1.48 1.809 2.952 2.654 4.309.375.601.198.566.566 1.118a50 50 0 0 0 2.66 3.644c.087.109-.307-.76.352.198 1.069 1.551 2.504 3.396 3.654 5.229.347.553.107.732 1.083 1.742.205.211.275-.303.964 1.184.114.249 1.355 2.677 2.354 3.586.261.239 1.027.789 1.442 1.434.056.088-.321-.154.044.369 1.288 1.844 2.701 3.729 4.036 5.613.356.503-.324-.135.211.611 1.472 2.055 3.39 4.556 4.909 6.504.561.719.294.131.346.176.831.707.945 1.408 1.141 1.703 1.224 1.831 2.345 3.075 3.525 4.725.323.452-.038.23.017.327.581 1.009.293.151.754.719 1.292 1.588 2.64 3.425 3.849 5.101.443.614-.207.037.191.585.905 1.25 1.82 2.51 2.733 3.765 1.492 2.052 2.97 4.081 4.386 6.037.431.598.285.136.398.244.783.748 1.385 2.207 1.55 2.516.767 1.421 1.207 1.885 1.914 3.1 1.147 2.013 2.37 4.204 2.902 6.387.532 2.107.262 3.591-.963 5.443-1.372 2.235-2.84 3.89-4.602 4.969-.603.376-1.23.694-1.876.964-6.817 2.802-12.79 4.355-20.086 4.918-.514.036-.009-.187-.452-.16-5.204.319-10.38.126-15.561-.665a98 98 0 0 1-1.445-.23c-.47-.078.233-.145-.516-.277-1.538-.272-3.49-.609-5.054-.855-.767-.122.227.226-.545.1a75 75 0 0 1-5.506-1.127c-.767-.188.437-.097-.567-.329-6.839-1.599-13.492-3.499-20.372-5.357-.466-.126-1.001.094-1.962-.278-.044-.121-.005-.234-.005-.348-1.48-.469-2.93-.933-4.41-1.41-8.282-2.677-16.525-5.421-24.803-8.334-.41-.145.363-.077-.43-.358-4.6-1.629-9.041-3.288-13.793-4.821-.472-.153-.357.253-1.701-.295-.246-.1-2.287-.9-2.798-1.169-.068-.037.36-.048-.298-.297a661 661 0 0 0-11.781-4.302c-.623-.221-.028.188-.47.033a83 83 0 0 1-1.54-.559c-2.697-1.009-5.458-2.159-7.96-3.058-1.987-.724-1.396-.156-2.531-.346-.176-.026-1.327-.585-1.452-.485-.378.272-.013 1.008-.476 1.266-.025.014-.15-.04-.313-.13-.183-.119-.35-.16-.698-.557a1.2 1.2 0 0 1-.255-.59 1.23 1.23 0 0 1 .16-.773c.18-.274.194-.259.195-.287-.01-.006.006-.052-.133.073-.057.07-.266.219-.344.717-.059.515.19.877.306 1.035.346.477 1.487 1.079 1.766 1.305.19.15-.26.129.133.39.4.262.926.34 1.594.715.676.376.29.429 1.674 1.024m223.654-121.783c-1.1.455-1.42-.08-.149-.262.062-.008.205.239.149.262m64.133-96.742c.208 1.57-.145 2.639-.359 1.533-.201-1.118.302-2.017.359-1.533m4.095-15.586c-.52 1.748-1.414 1.7-.492-.043.054-.1.524-.06.492.043M8.977 301.893c-.019.002-.905-.346-.924-.362-.399-.365 1.373.33.924.362M306.07 55.533c-.208.536-1.182 1.841-.931 1.172.201-.541 1.189-1.841.931-1.172M170.475 197.741c-.016.013-.676.196-.675.144.003-.169.936-.368.675-.144m151.297-164.05c-1.598 3.567-2.7 5.91-.323 2.15.389-.696-1.071 1.37-.603.465.842-1.626 1.722-2.614 2.109-4.478.077-.328-1.077 1.672-1.186 1.868zm-92.275 148.885c-.02.013-.939.26-.964.258-.547-.054 1.306-.551.964-.258m-97.341 26.444c-.041.028-2.129.733-2.198.742-1.187.064 3.023-1.359 2.198-.742m157.83-46.402c.925-.561 1.813-1.535 2.123-2.356a16.3 16.3 0 0 1-2.123 2.356m41.048-138.295c-.746-.67-1.76-1.276-2.551-1.687-.251-.13-.186.036-.359-.048-.338-.162-.61-.389-.947-.534-.114-.049-.069.174-.187.12a8 8 0 0 1-.369-.183c-.525-.276-1.017-.554-1.558-.78-2.291-.94-4.535-1.61-6.792-2.283a63 63 0 0 0-3.13-.837c-.954-.233-2.137-.39-3.101-.65a2 2 0 0 1-.184-.06c-.015-.005-.024-.013.014.003a.6.6 0 0 1 .117.072c.071.062.198.144.305.44.077.232.046.454.011.577-.03.108-.055.161-.07.203-.031.08-.027.101-.011.114.03.026.118-.03.072.047-.144.212-.148.2-.161.228-.006.016-.002.017.003.013.008-.008.014-.034.014-.066-.002-.062-.015-.15.072-.211.804-.516 1.959-.92 2.924-1.201.414-.119.102.3.461.001.024-.02-.128-.133-.025-.186.24-.124.727-.264.927-.347.359-.15.442-.178.789-.3.31-.11.629-.254.977-.39.198-.079.404-.154.611-.212.117-.032.023.17.207.136.181-.034.667-.218.805-.307.146-.09.037-.186.056-.223.153-.312.813-.185.886-.201 1.335-.316 2.376-.884 3.584-1.306.915-.32 1.922-.606 2.789-.919 1.034-.375 1.889-.767 2.902-1.108.107-.036.045.186.176.142 1.39-.466 2.755-.968 4.089-1.574.134-.061-.099-.154.031-.225.797-.425 2.027-1.207 2.766-.703.564-.23 1.248-.503 1.71-.821.296-.205-.084-.261.349-.333.097-.016.031.175.173.14.594-.15 1.207-.423 1.806-.549.122-.025.138.12.179.132.346.096.69-.389.783-.449.696-.444 1.282-.576 1.992-.835.163-.06.034.189.193.138a20.5 20.5 0 0 0 2.457-.96c.176-.084-.047-.176.034-.224.356-.208.534.053.88-.143.072-.04-.018-.155-.01-.175.134-.302.438-.052.499-.066.736-.16 1.078-.66 1.776-.864.084-.024-.039.209.192.131a36 36 0 0 0 4.609-1.897c.229-.115.011-.17.019-.19.146-.333.425-.08.51-.102.229-.058.446-.17.627-.262l.1-.049c.009-.005.022-.008-.008-.003-.028-.003-.023.031-.222-.02a.48.48 0 0 1-.323-.404c-.012-.133.016-.184.023-.211.07-.147.026-.051.011-.046a.786.786 0 0 1-.542.253 44 44 0 0 1-.663.742c-1.644 1.784-3.288 3.62-4.378 5.793-.016.03.158.074.125.135-.386.742-.511.464-1.082.757-.143.074-.047.64-.042.686.016.17.302.183.295.233-.055.334-.517.055-.831.199a.38.38 0 0 0-.17.153c-.007.014.158.036.148.08-.028.138-.149.222-.17.36-.049.318.244.61-.186.884-.054.035-.415-.278-.624.131-.082.16-.484.86-.564 1.071-.081.212.125.15.123.167-.115.626.068.463.184.87.117.402-.461-.002-.589.07s-.188.54-.188.663.148.048.132.148c-.108.662-.438.088-.635.224-.462.321-.176.906-.334 1.333-.043.116-.104-.026-.163.067-.232.37-.202.675-.552 1.054-.057.061-.513.286-.419.618.014.048.176.01.122.19-.08.268-.267.729-.432.98-.122.184-.209-.134-.266.145-.025.123.184-.03.128.198-.056.227-.306.756-.402.957s-.193.023-.21.035c-.102.073-.35.431-.365.466-.709 1.536-1.132 3.066-1.758 4.567q-.12.289-.251.576c-.061.133-.183-.02-.194 0-.251.436.316.239.329.618-.304-.175-.322.04-.485.352-.079.151-.17.017-.188.026-.282.16-.099.418-.065.48.124.226-.159.31-.075.463.082.153.357-.02.234.293-.149.044-.363-.305-.503-.085-.532.83-.915 2.609-1.151 3.346-.238.736-.343.962-.452 1.402-.197.792-.324.43-.597.87-.273.439.367.406.462.517s-.053.14-.017.246c.036.107.182-.044.136.16-.045.206-.45.667-.6.69-.317.053-.51-.288-.597.265-.005.032.176-.012.15.107-.213.948-.547 1.89-.785 2.828-.033.13.171.08.153.155-.18.79-.352.419-.811.712.391.056.561.319.436.78a2 2 0 0 1-.058.175c-.133.342-.285.214-.496.385-.064.05-.04.34-.14.35-.327.035-.535-.312-.652.316-.004.027.176.006.149.098-.176.592-.483.542-.774 1.138-.228.466-.425 1.388-.637 1.94.449.184.119.654-.279.724-.145.357-.332.726-.445 1.084-.038.122.124.104.131.125.113.326-.252.34-.298.412-.489.765-.577 1.533-1.161 2.208-.021.024-.348-.073-.222.238.009.02.269-.171.106.2-.108.248-.217.674-.388 1.058a2.1 2.1 0 0 1-.314.524c-.093.11-.481.297-.411.616.009.042.113.055.134.127.075.235-.305.108-.049.315-.351-.015-.609-.558-.417-1.11.005-.017.273-.16.267-.335-.01-.283-.066-.686-.063-.987.001-.139.169-.05.172-.074.024-.232.033-.444.033-.66.001-.645-.092-1.225-.134-2-.011-.191.223-.728.046-1.092-.194-.405-1.021.004-.816-.915.082-.37 1.131-.827.597-1.499.148-1.286-.116-2.484.089-3.775.009-.058.302-.239.3-.376-.005-.203-.14-.316-.147-.46-.035-.61.088-1.163.075-1.75-.004-.222-.145-.144-.151-.41-.005-.267.183-.44.097-.801-.066-.27-.442-.548-.483-.907.374-.011.368-.255.471-.697.02-.084.149.008.166-.032.068-.162-.038-.312.036-.467.018-.038.145-.039.167-.07.191-.255-.093-.694-.142-.764-.188-.29-.021-.412-.094-.636-.073-.218-.169.107-.213-.147a5 5 0 0 1-.06-.639c-.015-.38-.006-.755-.009-1.094-.001-.209.169-.066.173-.096.045-.44-.136-.887.204-1.13-.878-.3.085-.266-.093-.895-.015-.048-.43-.109-.49.08-.06.19.071.478-.024.74-.022.065-.412.418-.435.47-.185.377.435.437.469.456.367.23-.054.671-.083.78a3 3 0 0 0-.087.687c-.01.246-.01.493-.062.727-.064.293-.47.31-.46.54.035.751.6 1.02.102 1.725-.106.15-.549-.008-.205.544.022.033.337.44.133.672-.026.03-.155.027-.166.066-.073.257.028.433-.024.714-.052.284-.129.62-.089.945.024.194.263.446.321.54.167.264-.115.544.09.708.205.167.523-.151.652.28-.337.013-.682.046-1.021.068.002.944.101 1.874.076 2.82-.003.118-.183-.004-.191.122-.035.53.089.997.032 1.546-.044.427-.241.889-.293 1.337.382.272.244.939.275 1.417.011.17.113.16.146.279.12.452-.218.239-.273.362-.233.526.536.583.512 1.206-.001.038-.414.433-.44.494-.169.356.142.061.171.281l.005.038c.054.392.14.667.023 1.133-.035.142-.291.476-.089.755.026.034.161.013.17.043.142.538-.283.552-.403.922a.7.7 0 0 0 .002.35c.016.073.039.156.078.264.05.115.066.232.298.557.122.15.366.46.915.57.552.083.841-.107 1.009-.21.279-.205.31-.31.367-.399.076-.154.082-.235.086-.28-.012-.418-.155.145-.428.335-.209.091-.356.096-.251.006.071-.074.204-.215.262-.308.129-.195.207-.34.27-.476-.345-.238-.163-.55.112-.267.031.031-.099.203-.112.267.487-.043.711-.396.545-.946-.055-.185-.208-.192-.174-.372.013-.07.06-.175.154-.323.151-.239.364-.016.54-.206.4-.43.471-1.207.753-1.713.104-.185.159.069.235-.056.2-.328.235-.683.451-1.007.02-.03.134.117.186.01.397-.818.627-1.58 1.008-2.45.184-.42.594-1.136.763-1.581.296-.772.461-1.8.776-2.432.205-.413.321-.259.498-.401a.54.54 0 0 0 .153-.213c.146-.342.063-.854.043-.939 0-.003-.178.352-.182.125-.121-.177.18-.12.182-.125-.014-.069.229-.82.313-.955.045-.074.175.025.196-.014a15 15 0 0 0 1.183-2.943c.003-.019-.171-.051-.161-.094.134-.606.467-.904.756-1.338s.384-.825.202-1.208c.164-.345.224-.905.255-1.227.032-.323.366-.248.382-.272.496-.735.484-1.267.769-2.113.134-.401.479-1.168.679-1.581.159-.326.164-.558.334-.85.023-.039.147.06.158.049.305-.278-.105-.249-.138-.345-.113-.327-.169-.53.063-.887l.046-.068c.066-.092.681-.187.785-.359.136-.224-.078-.207.069-.44.013-.02.119.03.179-.127.28-.727.552-1.536.889-2.272.046-.101.16.104.228-.04.323-.677.654-1.427.881-2.126.055-.172-.111-.125-.13-.177-.112-.317.342-.48.371-.528.717-1.139.886-2.193 1.633-3.341.041-.062.625-.4.464-.77-.011-.025-.181-.396.118-.491.018-.006.092.21.204-.04.112-.248.415-.582.435-.998.005-.13-.141-.533.254-.717.027-.014.796-.204.545-.568-.042-.059-.425-.24-.027-.498.076-.048.085.124.241-.028.242-.236.36-.66.727-.901.029-.02.127-.05.218-.107.111-.07.214-.176.18-.346-.009-.05-.166-.064-.113-.178.248-.542.664-1.008.918-1.557.089-.194-.16-.233-.084-.451.073-.216.286-.621.505-.747.22-.128.367.287.592.027.981-1.134 1.739-2.406 2.727-3.527.146-.165.118.056.341-.18q.201-.21.452-.462c.214-.215.442-.438.685-.683.123-.125.24-.242.397-.414.042-.048.083-.093.15-.176.033-.042.068-.083.142-.194.03-.047.085-.13.15-.27.044-.1.09-.201.137-.423a1.85 1.85 0 0 0-.328-1.471c-.491-.645-1.106-.713-1.256-.737-.227-.028-.364-.013-.44-.006-.18.02-.239.04-.31.056-.114.031-.168.052-.219.07-.093.034-.145.057-.198.08-.675.303-1.211.564-1.608.847-.717.517.35.282-.229.604-.282.155-.753-.117-.833-.1-.743.138-1.174.499-1.83.682-.137.038-.067-.17-.18-.137-.388.112-.774.336-1.136.454-.167.054-.184-.078-.332-.013a4.3 4.3 0 0 0-.964.565c-.029.022.248.094-.024.2-.421.163-.926.475-1.466.538-.16.018-.265-.262-.52.05-.017.02-.008.065-.002.111.012.1.008.209-.316.1-.081-.025-.845-.194-1.062.17-.059.096-.167.446-.359.466-.026.002.016-.184-.136-.145-.545.139-1.084.35-1.634.493-.148.038.009-.194-.209-.132-.606.172-1.321.471-1.877.724-.207.094-.014.172-.024.191-.17.319-.422.06-.511.071-.551.074-.887.357-1.374.487-.134.036-.094-.145-.125-.149-.316-.032-.02.161-.18.25-.444.252-.982.429-1.47.58-.18.056-.041-.186-.202-.134-.95.303-1.925.666-2.808 1.084-.167.08-.011.173-.037.215-.174.299-.639.14-.732.142-.425.01-.532.178-.876.275-1.681.47-3.685 1.262-5.219 1.854-2.001.772-3.528 1.448-5.466 2.089-.122.04-.06-.178-.167-.146-1.259.397-2.474.882-3.718 1.283q-.187.06-.37.116c-.112.035-.01-.187-.192-.137a6.6 6.6 0 0 0-1.198.457c-.17.088.12.147-.053.233a8 8 0 0 1-1.316.503c-.188.052.03-.215-.211-.133-.683.232-1.345.454-2.037.719-.348.135-.685.267-1.105.474a5 5 0 0 0-.393.216c-.092.059-.183.114-.343.246-.061.051-.199.173-.322.33-.142.204-.394.484-.425 1.197-.019.684.4 1.237.589 1.403.248.229.345.267.47.34.197.1.306.132.402.163.177.054.282.073.384.094.361.068.696.113 1.031.15.122.014.312-.317.544-.187-.005.103-.035.219-.053.327 1.545.417 3.057.785 4.556 1.228.881.26 1.757.526 2.62.822.099.034-.136.157.055.224 1.11.39 2.141.84 3.275 1.14.111.031.202-.305.489-.113.051.033.489.298.568.425.01.017-.143.117-.004.195q.313.174.618.35c.653.38 1.318.74 1.966 1.075.143.073.093-.162.195-.11.72.361 1.359.961 1.981 1.285.408.217.477-.112.855-.146.06-.001.226.184.363.096.382-.193.642-.623 1.054-.823.045-.018.155.12.264.32.051.092.101.222.128.234.03.022.044-.114.014-.319a3 3 0 0 0-.164-.395c-.074-.154-.141-.288-.15-.357-.013-.095.213-.103.15-.274-.062-.167-.28-.18-.393-.393-.115-.213.086-.302-.236-.596m9.362 6.784c-.053-.33.523-.163.28.083a1 1 0 0 1-.28-.083m-10.599 10.57c.26.384-.131.641-.332.37-.2-.272.254-.488.332-.37m.235-3.957c.203.449-.646.51-.47.034.01-.027.458-.06.47-.034m-.906-11.744c.01-.003.193.128.194.139-.022.223-.389-.04-.194-.14m1.152 7.82c.114.137-.022.543-.163.366-.114-.144.022-.54.163-.367m15.523-16.886c-.006-.008.062-.163.106-.137.14.083-.007.273-.106.137m-15.538 10.227c.076.964.774 1.57.674.484-.019-.195-.212.43-.282.18-.127-.443.305-.783.017-1.235-.05-.076-.41.521-.41.572zm9.517 3.564a1.2 1.2 0 0 1 .078-.233c.222-.053.073.395-.078.233m10.667-22.525c-.007-.02.297-.476.32-.48.416-.05-.192.863-.32.48m-16.69 37.087c-.278.156-.422.424-.286.708.091-.237.193-.47.286-.708"/></svg>