<svg width="96" height="96" viewBox="0 0 96 96" fill="none" xmlns="http://www.w3.org/2000/svg">
<rect width="96" height="96" fill="#1447E6"/>
<path d="M38.3062 21.7409V16L16 22.804L31.2182 38.113L19.3355 43.2159V54.4851L38.3062 38.113L24.3388 27.2691L38.3062 21.7409Z" fill="#EFF6FF"/>
<path d="M52.4821 17.701L42.6841 48.5316L49.1466 49.8073L51.4398 31.0963L57.4854 46.1927L67.2834 31.0963L69.9935 51.0831L80 49.8073L67.9088 16L58.3193 39.3887L52.4821 17.701Z" fill="#EFF6FF"/>
<path d="M16.2085 80L20.3779 58.5249H26.4235L21.6287 74.897L40.8078 72.1329L41.8502 80H16.2085Z" fill="#EFF6FF"/>
<path d="M46.8535 60.6511L51.6483 55.9733L59.7786 61.9268L67.7004 52.9966L74.9968 58.5248L64.3649 66.3919L80.0001 70.4318L73.3291 79.9999L60.6125 69.5813L53.1076 79.9999L46.8535 74.259L54.1499 66.3919L46.8535 60.6511Z" fill="#EFF6FF"/>
</svg>
