<svg xmlns="http://www.w3.org/2000/svg" width="96" height="96" fill="none" viewBox="0 0 96 96"><path fill="#1447e6" d="M0 0h96v96H0z"/><path fill="#eff6ff" d="M38.306 21.74V16L16 22.804l15.218 15.309-11.882 5.103v11.27l18.97-16.373L24.34 27.269zM52.482 17.701l-9.798 30.83 6.463 1.276 2.293-18.71 6.045 15.096 9.798-15.097 2.71 19.987L80 49.807 67.909 16l-9.59 23.389zM16.209 80l4.169-21.475h6.046l-4.795 16.372 19.179-2.764L41.85 80zM46.854 60.651l4.794-4.678 8.13 5.954 7.922-8.93 7.297 5.528-10.632 7.867L80 70.432 73.33 80 60.611 69.58 53.109 80l-6.254-5.741 7.296-7.867z"/></svg>